<svg xmlns="http://www.w3.org/2000/svg" xmlns:xlink="http://www.w3.org/1999/xlink" width="720" height="524" version="1.1" viewBox="0 0 3960 2880"><desc>Stata Graph - Graph</desc><rect width="3960" height="2880" x="0" y="0" style="fill:#eaf2f3;stroke:none"/><rect width="3959.88" height="2880" x="0" y="0" style="fill:#eaf2f3"/><rect width="3954.12" height="2874.24" x="2.88" y="2.88" style="fill:none;stroke:#eaf2f3;stroke-width:5.76"/><rect width="1844.37" height="1247.07" x="207.9" y="63.36" style="fill:#eaf2f3"/><rect width="1840.05" height="1242.75" x="210.06" y="65.52" style="fill:none;stroke:#eaf2f3;stroke-width:4.32"/><rect width="1550.71" height="844.99" x="425.95" y="247.38" style="fill:#fff"/><rect width="1546.39" height="840.67" x="428.11" y="249.54" style="fill:none;stroke:#fff;stroke-width:4.32"/><line x1="425.95" x2="1976.66" y1="1092.38" y2="1092.38" style="stroke:#eaf2f3;stroke-width:6.48"/><line x1="425.95" x2="1976.66" y1="942.51" y2="942.51" style="stroke:#eaf2f3;stroke-width:6.48"/><line x1="425.95" x2="1976.66" y1="792.64" y2="792.64" style="stroke:#eaf2f3;stroke-width:6.48"/><line x1="425.95" x2="1976.66" y1="642.78" y2="642.78" style="stroke:#eaf2f3;stroke-width:6.48"/><line x1="425.95" x2="1976.66" y1="492.91" y2="492.91" style="stroke:#eaf2f3;stroke-width:6.48"/><line x1="425.95" x2="1976.66" y1="343.05" y2="343.05" style="stroke:#eaf2f3;stroke-width:6.48"/><rect width="33.17" height="797.47" x="490.05" y="294.91" style="fill:#cac27e"/><rect width="26.69" height="790.99" x="493.29" y="298.15" style="fill:none;stroke:#d7d29e;stroke-width:6.48"/><rect width="33.04" height="6.56" x="523.22" y="1085.82" style="fill:#cac27e"/><rect width="26.56" height=".08" x="526.45" y="1089.06" style="fill:none;stroke:#d7d29e;stroke-width:6.48"/><rect width="33.16" height="3.34" x="556.26" y="1089.03" style="fill:#cac27e"/><rect width="26.69" height="3.14" x="559.5" y="1089.14" style="fill:none;stroke:#d7d29e;stroke-width:6.48"/><rect width="33.16" height="1.61" x="589.42" y="1090.77" style="fill:#cac27e"/><rect width="26.69" height="4.87" x="592.66" y="1089.14" style="fill:none;stroke:#d7d29e;stroke-width:6.48"/><rect width="33.04" height=".74" x="622.59" y="1091.63" style="fill:#cac27e"/><rect width="26.56" height="5.74" x="625.83" y="1089.14" style="fill:none;stroke:#d7d29e;stroke-width:6.48"/><rect width="33.16" height=".5" x="655.63" y="1091.88" style="fill:#cac27e"/><rect width="26.69" height="5.98" x="658.87" y="1089.14" style="fill:none;stroke:#d7d29e;stroke-width:6.48"/><rect width="33.04" height=".5" x="688.79" y="1091.88" style="fill:#cac27e"/><rect width="26.56" height="5.98" x="692.03" y="1089.14" style="fill:none;stroke:#d7d29e;stroke-width:6.48"/><rect width="33.16" height="1.11" x="721.83" y="1091.26" style="fill:#cac27e"/><rect width="26.69" height="5.37" x="725.07" y="1089.14" style="fill:none;stroke:#d7d29e;stroke-width:6.48"/><rect width="33.17" height=".25" x="755" y="1092.13" style="fill:#cac27e"/><rect width="26.69" height="6.23" x="758.24" y="1089.14" style="fill:none;stroke:#d7d29e;stroke-width:6.48"/><rect width="33.04" height=".25" x="788.16" y="1092.13" style="fill:#cac27e"/><rect width="26.56" height="6.23" x="791.4" y="1089.14" style="fill:none;stroke:#d7d29e;stroke-width:6.48"/><rect width="33.16" height=".25" x="821.21" y="1092.13" style="fill:#cac27e"/><rect width="26.69" height="6.23" x="824.44" y="1089.14" style="fill:none;stroke:#d7d29e;stroke-width:6.48"/><rect width="33.16" height=".25" x="854.37" y="1092.13" style="fill:#cac27e"/><rect width="26.69" height="6.23" x="857.61" y="1089.14" style="fill:none;stroke:#d7d29e;stroke-width:6.48"/><rect width="33.04" height=".5" x="887.53" y="1091.88" style="fill:#cac27e"/><rect width="26.56" height="5.98" x="890.77" y="1089.14" style="fill:none;stroke:#d7d29e;stroke-width:6.48"/><rect width="33.17" height=".25" x="920.58" y="1092.13" style="fill:#cac27e"/><rect width="26.69" height="6.23" x="923.82" y="1089.14" style="fill:none;stroke:#d7d29e;stroke-width:6.48"/><rect width="33.04" height=".25" x="953.74" y="1092.13" style="fill:#cac27e"/><rect width="26.56" height="6.23" x="956.98" y="1089.14" style="fill:none;stroke:#d7d29e;stroke-width:6.48"/><rect width="33.16" height=".25" x="1019.95" y="1092.13" style="fill:#cac27e"/><rect width="26.69" height="6.23" x="1023.19" y="1089.14" style="fill:none;stroke:#d7d29e;stroke-width:6.48"/><rect width="33.17" height=".25" x="1152.36" y="1092.13" style="fill:#cac27e"/><rect width="26.69" height="6.23" x="1155.6" y="1089.14" style="fill:none;stroke:#d7d29e;stroke-width:6.48"/><rect width="33.16" height=".25" x="1847.84" y="1092.13" style="fill:#cac27e"/><rect width="26.69" height="6.23" x="1851.07" y="1089.14" style="fill:none;stroke:#d7d29e;stroke-width:6.48"/><path stroke-linejoin="round" d="M490.05 794.87 L494.63 793.14 L499.33 796.23 L503.91 804.15 L508.61 816.65 L513.32 832.99 L517.89 852.29 L522.60 873.95 L527.17 896.97 L531.88 920.36 L536.58 943.62 L541.16 965.78 L545.86 986.44 L550.44 1005.25 L555.14 1021.84 L559.85 1036.31 L564.42 1048.44 L569.13 1058.59 L573.71 1066.88 L578.41 1073.44 L583.11 1078.51 L587.69 1082.35 L592.39 1085.32 L596.97 1087.55 L601.67 1089.03 L606.25 1090.15 L610.95 1090.89 L615.66 1091.39 L620.24 1091.76 L624.94 1092.00 L629.52 1092.13 L634.22 1092.25 L638.92 1092.38 L643.50 1092.38 L648.20 1092.38 L652.78 1092.38 L657.48 1092.38 L662.19 1092.38 L666.76 1092.38 L671.47 1092.38 L676.05 1092.38 L680.75 1092.38 L685.45 1092.38 L690.03 1092.38 L694.73 1092.38 L699.31 1092.38 L704.01 1092.38 L708.59 1092.38 L713.29 1092.38 L718.00 1092.38 L722.58 1092.38 L727.28 1092.38 L731.86 1092.38 L736.56 1092.38 L741.26 1092.38 L745.84 1092.38 L750.54 1092.38 L755.12 1092.38 L759.83 1092.38 L764.53 1092.38 L769.11 1092.38 L773.81 1092.38 L778.39 1092.38 L783.09 1092.38 L787.79 1092.38 L792.37 1092.38 L797.07 1092.38 L801.65 1092.38 L806.36 1092.38 L810.93 1092.38 L815.64 1092.38 L820.34 1092.38 L824.92 1092.38 L829.62 1092.38 L834.20 1092.38 L838.90 1092.38 L843.60 1092.38 L848.18 1092.38 L852.88 1092.38 L857.46 1092.38 L862.17 1092.38 L866.87 1092.38 L871.45 1092.38 L876.15 1092.38 L880.73 1092.38 L885.43 1092.38 L890.13 1092.38 L894.71 1092.38 L899.41 1092.38 L903.99 1092.38 L908.70 1092.38 L913.27 1092.38 L917.98 1092.38 L922.68 1092.38 L927.26 1092.38 L931.96 1092.38 L936.54 1092.38 L941.24 1092.38 L945.95 1092.38 L950.52 1092.38 L955.23 1092.38 L959.80 1092.38 L964.51 1092.38 L969.21 1092.38 L973.79 1092.38 L978.49 1092.38 L983.07 1092.38 L987.77 1092.38 L992.48 1092.38 L997.05 1092.38 L1001.76 1092.38 L1006.34 1092.38 L1011.04 1092.38 L1015.62 1092.38 L1020.32 1092.38 L1025.02 1092.38 L1029.60 1092.38 L1034.30 1092.38 L1038.88 1092.38 L1043.58 1092.38 L1048.29 1092.38 L1052.87 1092.38 L1057.57 1092.38 L1062.15 1092.38 L1066.85 1092.38 L1071.55 1092.38 L1076.13 1092.38 L1080.83 1092.38 L1085.41 1092.38 L1090.11 1092.38 L1094.82 1092.38 L1099.39 1092.38 L1104.10 1092.38 L1108.68 1092.38 L1113.38 1092.38 L1117.96 1092.38 L1122.66 1092.38 L1127.36 1092.38 L1131.94 1092.38 L1136.64 1092.38 L1141.22 1092.38 L1145.92 1092.38 L1150.63 1092.38 L1155.21 1092.38 L1159.91 1092.38 L1164.49 1092.38 L1169.19 1092.38 L1173.89 1092.38 L1178.47 1092.38 L1183.17 1092.38 L1187.75 1092.38 L1192.45 1092.38 L1197.03 1092.38 L1201.74 1092.38 L1206.44 1092.38 L1211.02 1092.38 L1215.72 1092.38 L1220.30 1092.38 L1225.00 1092.38 L1229.70 1092.38 L1234.28 1092.38 L1238.98 1092.38 L1243.56 1092.38 L1248.27 1092.38 L1252.97 1092.38 L1257.55 1092.38 L1262.25 1092.38 L1266.83 1092.38 L1271.53 1092.38 L1276.23 1092.38 L1280.81 1092.38 L1285.52 1092.38 L1290.09 1092.38 L1294.80 1092.38 L1299.38 1092.38 L1304.08 1092.38 L1308.78 1092.38 L1313.36 1092.38 L1318.06 1092.38 L1322.64 1092.38 L1327.34 1092.38 L1332.05 1092.38 L1336.62 1092.38 L1341.33 1092.38 L1345.90 1092.38 L1350.61 1092.38 L1355.31 1092.38 L1359.89 1092.38 L1364.59 1092.38 L1369.17 1092.38 L1373.87 1092.38 L1378.58 1092.38 L1383.15 1092.38 L1387.86 1092.38 L1392.43 1092.38 L1397.14 1092.38 L1401.72 1092.38 L1406.42 1092.38 L1411.12 1092.38 L1415.70 1092.38 L1420.40 1092.38 L1424.98 1092.38 L1429.68 1092.38 L1434.39 1092.38 L1438.96 1092.38 L1443.67 1092.38 L1448.25 1092.38 L1452.95 1092.38 L1457.65 1092.38 L1462.23 1092.38 L1466.93 1092.38 L1471.51 1092.38 L1476.21 1092.38 L1480.92 1092.38 L1485.49 1092.38 L1490.20 1092.38 L1494.78 1092.38 L1499.48 1092.38 L1504.06 1092.38 L1508.76 1092.38 L1513.46 1092.38 L1518.04 1092.38 L1522.74 1092.38 L1527.32 1092.38 L1532.03 1092.38 L1536.73 1092.38 L1541.31 1092.38 L1546.01 1092.38 L1550.59 1092.38 L1555.29 1092.38 L1559.99 1092.38 L1564.57 1092.38 L1569.27 1092.38 L1573.85 1092.38 L1578.56 1092.38 L1583.26 1092.38 L1587.84 1092.38 L1592.54 1092.38 L1597.12 1092.38 L1601.82 1092.38 L1606.40 1092.38 L1611.10 1092.38 L1615.80 1092.38 L1620.38 1092.38 L1625.09 1092.38 L1629.66 1092.38 L1634.37 1092.38 L1639.07 1092.38 L1643.65 1092.38 L1648.35 1092.38 L1652.93 1092.38 L1657.63 1092.38 L1662.33 1092.38 L1666.91 1092.38 L1671.62 1092.38 L1676.19 1092.38 L1680.90 1092.38 L1685.60 1092.38 L1690.18 1092.38 L1694.88 1092.38 L1699.46 1092.38 L1704.16 1092.38 L1708.74 1092.38 L1713.44 1092.38 L1718.14 1092.38 L1722.72 1092.38 L1727.43 1092.38 L1732.01 1092.38 L1736.71 1092.38 L1741.41 1092.38 L1745.99 1092.38 L1750.69 1092.38 L1755.27 1092.38 L1759.97 1092.38 L1764.67 1092.38 L1769.25 1092.38 L1773.96 1092.38 L1778.54 1092.38 L1783.24 1092.38 L1787.94 1092.38 L1792.52 1092.38 L1797.22 1092.38 L1801.80 1092.38 L1806.50 1092.38 L1811.08 1092.38 L1815.78 1092.38 L1820.49 1092.38 L1825.07 1092.38 L1829.77 1092.38 L1834.35 1092.38 L1839.05 1092.38 L1843.75 1092.38 L1848.33 1092.38 L1853.03 1092.38 L1857.61 1092.38 L1862.31 1092.38 L1867.02 1092.38 L1871.60 1092.38 L1876.30 1092.38 L1880.88 1092.38" style="fill:none;stroke:#2d6d66;stroke-width:6.48"/><line x1="425.95" x2="425.95" y1="1092.38" y2="247.38" style="stroke:#000;stroke-width:4.32"/><line x1="425.95" x2="396" y1="1092.38" y2="1092.38" style="stroke:#000;stroke-width:4.32"/><text x="358.47" y="1092.38" text-anchor="middle" transform="rotate(-90 358.47,1092.38)" style="font-family:'Helvetica';font-size:74.99px;fill:#000">0</text><line x1="425.95" x2="396" y1="942.51" y2="942.51" style="stroke:#000;stroke-width:4.32"/><text x="358.47" y="942.51" text-anchor="middle" transform="rotate(-90 358.47,942.51)" style="font-family:'Helvetica';font-size:74.99px;fill:#000">.02</text><line x1="425.95" x2="396" y1="792.64" y2="792.64" style="stroke:#000;stroke-width:4.32"/><text x="358.47" y="792.64" text-anchor="middle" transform="rotate(-90 358.47,792.64)" style="font-family:'Helvetica';font-size:74.99px;fill:#000">.04</text><line x1="425.95" x2="396" y1="642.78" y2="642.78" style="stroke:#000;stroke-width:4.32"/><text x="358.47" y="642.78" text-anchor="middle" transform="rotate(-90 358.47,642.78)" style="font-family:'Helvetica';font-size:74.99px;fill:#000">.06</text><line x1="425.95" x2="396" y1="492.91" y2="492.91" style="stroke:#000;stroke-width:4.32"/><text x="358.47" y="492.91" text-anchor="middle" transform="rotate(-90 358.47,492.91)" style="font-family:'Helvetica';font-size:74.99px;fill:#000">.08</text><line x1="425.95" x2="396" y1="343.05" y2="343.05" style="stroke:#000;stroke-width:4.32"/><text x="358.47" y="343.05" text-anchor="middle" transform="rotate(-90 358.47,343.05)" style="font-family:'Helvetica';font-size:74.99px;fill:#000">.1</text><line x1="425.95" x2="1976.66" y1="1092.38" y2="1092.38" style="stroke:#000;stroke-width:4.32"/><line x1="490.05" x2="490.05" y1="1092.38" y2="1122.32" style="stroke:#000;stroke-width:4.32"/><text x="490.05" y="1189.73" text-anchor="middle" style="font-family:'Helvetica';font-size:74.99px;fill:#000">0</text><line x1="849.79" x2="849.79" y1="1092.38" y2="1122.32" style="stroke:#000;stroke-width:4.32"/><text x="849.79" y="1189.73" text-anchor="middle" style="font-family:'Helvetica';font-size:74.99px;fill:#000">100</text><line x1="1209.53" x2="1209.53" y1="1092.38" y2="1122.32" style="stroke:#000;stroke-width:4.32"/><text x="1209.53" y="1189.73" text-anchor="middle" style="font-family:'Helvetica';font-size:74.99px;fill:#000">200</text><line x1="1569.4" x2="1569.4" y1="1092.38" y2="1122.32" style="stroke:#000;stroke-width:4.32"/><text x="1569.4" y="1189.73" text-anchor="middle" style="font-family:'Helvetica';font-size:74.99px;fill:#000">300</text><line x1="1929.14" x2="1929.14" y1="1092.38" y2="1122.32" style="stroke:#000;stroke-width:4.32"/><text x="1929.14" y="1189.73" text-anchor="middle" style="font-family:'Helvetica';font-size:74.99px;fill:#000">400</text><text x="1201.37" y="209.56" text-anchor="middle" style="font-family:'Helvetica';font-size:82.54px;fill:#000">cubic</text><rect width="1844.25" height="1247.07" x="2052.27" y="63.36" style="fill:#eaf2f3"/><rect width="1839.93" height="1242.75" x="2054.43" y="65.52" style="fill:none;stroke:#eaf2f3;stroke-width:4.32"/><rect width="1550.59" height="844.99" x="2270.32" y="247.38" style="fill:#fff"/><rect width="1546.27" height="840.67" x="2272.48" y="249.54" style="fill:none;stroke:#fff;stroke-width:4.32"/><line x1="2270.32" x2="3820.91" y1="1092.38" y2="1092.38" style="stroke:#eaf2f3;stroke-width:6.48"/><line x1="2270.32" x2="3820.91" y1="893.01" y2="893.01" style="stroke:#eaf2f3;stroke-width:6.48"/><line x1="2270.32" x2="3820.91" y1="693.64" y2="693.64" style="stroke:#eaf2f3;stroke-width:6.48"/><line x1="2270.32" x2="3820.91" y1="494.27" y2="494.27" style="stroke:#eaf2f3;stroke-width:6.48"/><line x1="2270.32" x2="3820.91" y1="294.91" y2="294.91" style="stroke:#eaf2f3;stroke-width:6.48"/><rect width="34.28" height="735.84" x="2334.91" y="356.53" style="fill:#cac27e"/><rect width="27.8" height="729.36" x="2338.15" y="359.77" style="fill:none;stroke:#d7d29e;stroke-width:6.48"/><rect width="34.28" height="27.47" x="2369.19" y="1064.9" style="fill:#cac27e"/><rect width="27.8" height="20.99" x="2372.43" y="1068.14" style="fill:none;stroke:#d7d29e;stroke-width:6.48"/><rect width="34.28" height="7.18" x="2403.47" y="1085.2" style="fill:#cac27e"/><rect width="27.8" height=".7" x="2406.71" y="1088.44" style="fill:none;stroke:#d7d29e;stroke-width:6.48"/><rect width="34.16" height="4.83" x="2437.75" y="1087.55" style="fill:#cac27e"/><rect width="27.68" height="1.65" x="2440.99" y="1089.14" style="fill:none;stroke:#d7d29e;stroke-width:6.48"/><rect width="34.28" height="2.85" x="2471.91" y="1089.53" style="fill:#cac27e"/><rect width="27.8" height="3.63" x="2475.15" y="1089.14" style="fill:none;stroke:#d7d29e;stroke-width:6.48"/><rect width="34.28" height="2.23" x="2506.18" y="1090.15" style="fill:#cac27e"/><rect width="27.8" height="4.25" x="2509.42" y="1089.14" style="fill:none;stroke:#d7d29e;stroke-width:6.48"/><rect width="34.28" height="1.49" x="2540.46" y="1090.89" style="fill:#cac27e"/><rect width="27.8" height="4.99" x="2543.7" y="1089.14" style="fill:none;stroke:#d7d29e;stroke-width:6.48"/><rect width="34.16" height="1.49" x="2574.74" y="1090.89" style="fill:#cac27e"/><rect width="27.68" height="4.99" x="2577.98" y="1089.14" style="fill:none;stroke:#d7d29e;stroke-width:6.48"/><rect width="34.28" height=".62" x="2608.9" y="1091.76" style="fill:#cac27e"/><rect width="27.8" height="5.86" x="2612.14" y="1089.14" style="fill:none;stroke:#d7d29e;stroke-width:6.48"/><rect width="34.28" height=".62" x="2643.18" y="1091.76" style="fill:#cac27e"/><rect width="27.8" height="5.86" x="2646.42" y="1089.14" style="fill:none;stroke:#d7d29e;stroke-width:6.48"/><rect width="34.28" height=".5" x="2677.45" y="1091.88" style="fill:#cac27e"/><rect width="27.8" height="5.98" x="2680.69" y="1089.14" style="fill:none;stroke:#d7d29e;stroke-width:6.48"/><rect width="34.16" height=".25" x="2711.73" y="1092.13" style="fill:#cac27e"/><rect width="27.68" height="6.23" x="2714.97" y="1089.14" style="fill:none;stroke:#d7d29e;stroke-width:6.48"/><rect width="34.28" height=".5" x="2745.89" y="1091.88" style="fill:#cac27e"/><rect width="27.8" height="5.98" x="2749.13" y="1089.14" style="fill:none;stroke:#d7d29e;stroke-width:6.48"/><rect width="34.28" height=".87" x="2780.17" y="1091.51" style="fill:#cac27e"/><rect width="27.8" height="5.61" x="2783.41" y="1089.14" style="fill:none;stroke:#d7d29e;stroke-width:6.48"/><rect width="34.28" height=".25" x="2814.45" y="1092.13" style="fill:#cac27e"/><rect width="27.8" height="6.23" x="2817.69" y="1089.14" style="fill:none;stroke:#d7d29e;stroke-width:6.48"/><rect width="34.16" height=".25" x="2848.72" y="1092.13" style="fill:#cac27e"/><rect width="27.68" height="6.23" x="2851.96" y="1089.14" style="fill:none;stroke:#d7d29e;stroke-width:6.48"/><rect width="34.28" height=".25" x="2882.88" y="1092.13" style="fill:#cac27e"/><rect width="27.8" height="6.23" x="2886.12" y="1089.14" style="fill:none;stroke:#d7d29e;stroke-width:6.48"/><rect width="34.28" height=".25" x="2917.16" y="1092.13" style="fill:#cac27e"/><rect width="27.8" height="6.23" x="2920.4" y="1089.14" style="fill:none;stroke:#d7d29e;stroke-width:6.48"/><rect width="34.28" height=".25" x="2951.44" y="1092.13" style="fill:#cac27e"/><rect width="27.8" height="6.23" x="2954.68" y="1089.14" style="fill:none;stroke:#d7d29e;stroke-width:6.48"/><rect width="34.16" height=".5" x="2985.72" y="1091.88" style="fill:#cac27e"/><rect width="27.68" height="5.98" x="2988.96" y="1089.14" style="fill:none;stroke:#d7d29e;stroke-width:6.48"/><rect width="34.28" height=".25" x="3019.87" y="1092.13" style="fill:#cac27e"/><rect width="27.8" height="6.23" x="3023.11" y="1089.14" style="fill:none;stroke:#d7d29e;stroke-width:6.48"/><rect width="34.28" height=".25" x="3088.43" y="1092.13" style="fill:#cac27e"/><rect width="27.8" height="6.23" x="3091.67" y="1089.14" style="fill:none;stroke:#d7d29e;stroke-width:6.48"/><rect width="34.28" height=".25" x="3191.14" y="1092.13" style="fill:#cac27e"/><rect width="27.8" height="6.23" x="3194.38" y="1089.14" style="fill:none;stroke:#d7d29e;stroke-width:6.48"/><rect width="34.28" height=".25" x="3739.11" y="1092.13" style="fill:#cac27e"/><rect width="27.8" height="6.23" x="3742.35" y="1089.14" style="fill:none;stroke:#d7d29e;stroke-width:6.48"/><path stroke-linejoin="round" d="M2334.91 898.33 L2339.74 895.24 L2344.57 893.63 L2349.27 893.63 L2354.10 895.24 L2358.92 898.33 L2363.75 902.78 L2368.57 908.72 L2373.40 915.90 L2378.23 924.07 L2383.05 933.10 L2387.76 942.76 L2392.58 953.03 L2397.41 963.67 L2402.24 974.31 L2407.06 984.96 L2411.89 995.48 L2416.71 1005.62 L2421.54 1015.28 L2426.24 1024.43 L2431.07 1032.97 L2435.89 1040.89 L2440.72 1048.07 L2445.55 1054.51 L2450.37 1060.32 L2455.20 1065.40 L2460.03 1069.85 L2464.73 1073.81 L2469.55 1077.15 L2474.38 1080.00 L2479.21 1082.35 L2484.03 1084.33 L2488.86 1085.94 L2493.69 1087.30 L2498.51 1088.42 L2503.22 1089.28 L2508.04 1090.02 L2512.87 1090.64 L2517.69 1091.01 L2522.52 1091.39 L2527.35 1091.63 L2532.17 1091.88 L2537.00 1092.00 L2541.70 1092.13 L2546.53 1092.25 L2551.35 1092.25 L2556.18 1092.25 L2561.01 1092.38 L2565.83 1092.38 L2570.66 1092.38 L2575.49 1092.38 L2580.19 1092.38 L2585.01 1092.38 L2589.84 1092.38 L2594.67 1092.38 L2599.49 1092.38 L2604.32 1092.38 L2609.14 1092.38 L2613.97 1092.38 L2618.67 1092.38 L2623.50 1092.38 L2628.33 1092.38 L2633.15 1092.38 L2637.98 1092.38 L2642.80 1092.38 L2647.63 1092.38 L2652.46 1092.38 L2657.16 1092.38 L2661.99 1092.38 L2666.81 1092.38 L2671.64 1092.38 L2676.47 1092.38 L2681.29 1092.38 L2686.12 1092.38 L2690.94 1092.38 L2695.65 1092.38 L2700.47 1092.38 L2705.30 1092.38 L2710.12 1092.38 L2714.95 1092.38 L2719.78 1092.38 L2724.60 1092.38 L2729.43 1092.38 L2734.13 1092.38 L2738.96 1092.38 L2743.78 1092.38 L2748.61 1092.38 L2753.44 1092.38 L2758.26 1092.38 L2763.09 1092.38 L2767.92 1092.38 L2772.62 1092.38 L2777.45 1092.38 L2782.27 1092.38 L2787.10 1092.38 L2791.92 1092.38 L2796.75 1092.38 L2801.58 1092.38 L2806.40 1092.38 L2811.11 1092.38 L2815.93 1092.38 L2820.76 1092.38 L2825.58 1092.38 L2830.41 1092.38 L2835.24 1092.38 L2840.06 1092.38 L2844.89 1092.38 L2849.59 1092.38 L2854.42 1092.38 L2859.24 1092.38 L2864.07 1092.38 L2868.90 1092.38 L2873.72 1092.38 L2878.55 1092.38 L2883.38 1092.38 L2888.08 1092.38 L2892.90 1092.38 L2897.73 1092.38 L2902.56 1092.38 L2907.38 1092.38 L2912.21 1092.38 L2917.03 1092.38 L2921.86 1092.38 L2926.56 1092.38 L2931.39 1092.38 L2936.22 1092.38 L2941.04 1092.38 L2945.87 1092.38 L2950.70 1092.38 L2955.52 1092.38 L2960.35 1092.38 L2965.05 1092.38 L2969.88 1092.38 L2974.70 1092.38 L2979.53 1092.38 L2984.36 1092.38 L2989.18 1092.38 L2994.01 1092.38 L2998.83 1092.38 L3003.66 1092.38 L3008.36 1092.38 L3013.19 1092.38 L3018.01 1092.38 L3022.84 1092.38 L3027.67 1092.38 L3032.49 1092.38 L3037.32 1092.38 L3042.15 1092.38 L3046.85 1092.38 L3051.68 1092.38 L3056.50 1092.38 L3061.33 1092.38 L3066.15 1092.38 L3070.98 1092.38 L3075.81 1092.38 L3080.63 1092.38 L3085.34 1092.38 L3090.16 1092.38 L3094.99 1092.38 L3099.81 1092.38 L3104.64 1092.38 L3109.47 1092.38 L3114.29 1092.38 L3119.12 1092.38 L3123.82 1092.38 L3128.65 1092.38 L3133.47 1092.38 L3138.30 1092.38 L3143.13 1092.38 L3147.95 1092.38 L3152.78 1092.38 L3157.61 1092.38 L3162.31 1092.38 L3167.13 1092.38 L3171.96 1092.38 L3176.79 1092.38 L3181.61 1092.38 L3186.44 1092.38 L3191.26 1092.38 L3196.09 1092.38 L3200.79 1092.38 L3205.62 1092.38 L3210.45 1092.38 L3215.27 1092.38 L3220.10 1092.38 L3224.93 1092.38 L3229.75 1092.38 L3234.58 1092.38 L3239.28 1092.38 L3244.11 1092.38 L3248.93 1092.38 L3253.76 1092.38 L3258.59 1092.38 L3263.41 1092.38 L3268.24 1092.38 L3273.06 1092.38 L3277.77 1092.38 L3282.59 1092.38 L3287.42 1092.38 L3292.24 1092.38 L3297.07 1092.38 L3301.90 1092.38 L3306.72 1092.38 L3311.55 1092.38 L3316.25 1092.38 L3321.08 1092.38 L3325.91 1092.38 L3330.73 1092.38 L3335.56 1092.38 L3340.38 1092.38 L3345.21 1092.38 L3350.04 1092.38 L3354.74 1092.38 L3359.57 1092.38 L3364.39 1092.38 L3369.22 1092.38 L3374.04 1092.38 L3378.87 1092.38 L3383.70 1092.38 L3388.52 1092.38 L3393.22 1092.38 L3398.05 1092.38 L3402.88 1092.38 L3407.70 1092.38 L3412.53 1092.38 L3417.36 1092.38 L3422.18 1092.38 L3427.01 1092.38 L3431.71 1092.38 L3436.54 1092.38 L3441.36 1092.38 L3446.19 1092.38 L3451.02 1092.38 L3455.84 1092.38 L3460.67 1092.38 L3465.49 1092.38 L3470.20 1092.38 L3475.02 1092.38 L3479.85 1092.38 L3484.68 1092.38 L3489.50 1092.38 L3494.33 1092.38 L3499.16 1092.38 L3503.98 1092.38 L3508.68 1092.38 L3513.51 1092.38 L3518.34 1092.38 L3523.16 1092.38 L3527.99 1092.38 L3532.82 1092.38 L3537.64 1092.38 L3542.47 1092.38 L3547.17 1092.38 L3552.00 1092.38 L3556.82 1092.38 L3561.65 1092.38 L3566.47 1092.38 L3571.30 1092.38 L3576.13 1092.38 L3580.95 1092.38 L3585.66 1092.38 L3590.48 1092.38 L3595.31 1092.38 L3600.14 1092.38 L3604.96 1092.38 L3609.79 1092.38 L3614.61 1092.38 L3619.44 1092.38 L3624.14 1092.38 L3628.97 1092.38 L3633.80 1092.38 L3638.62 1092.38 L3643.45 1092.38 L3648.27 1092.38 L3653.10 1092.38 L3657.93 1092.38 L3662.63 1092.38 L3667.45 1092.38 L3672.28 1092.38 L3677.11 1092.38 L3681.93 1092.38 L3686.76 1092.38 L3691.59 1092.38 L3696.41 1092.38 L3701.24 1092.38 L3705.94 1092.38 L3710.77 1092.38 L3715.59 1092.38 L3720.42 1092.38 L3725.25 1092.38 L3730.07 1092.38 L3734.90 1092.38 L3739.72 1092.38 L3744.43 1092.38 L3749.25 1092.38 L3754.08 1092.38 L3758.91 1092.38 L3763.73 1092.38 L3768.56 1092.38 L3773.39 1092.38" style="fill:none;stroke:#2d6d66;stroke-width:6.48"/><line x1="2270.32" x2="2270.32" y1="1092.38" y2="247.38" style="stroke:#000;stroke-width:4.32"/><line x1="2270.32" x2="2240.25" y1="1092.38" y2="1092.38" style="stroke:#000;stroke-width:4.32"/><text x="2202.71" y="1092.38" text-anchor="middle" transform="rotate(-90 2202.71,1092.38)" style="font-family:'Helvetica';font-size:74.99px;fill:#000">0</text><line x1="2270.32" x2="2240.25" y1="893.01" y2="893.01" style="stroke:#000;stroke-width:4.32"/><text x="2202.71" y="893.01" text-anchor="middle" transform="rotate(-90 2202.71,893.01)" style="font-family:'Helvetica';font-size:74.99px;fill:#000">.2</text><line x1="2270.32" x2="2240.25" y1="693.64" y2="693.64" style="stroke:#000;stroke-width:4.32"/><text x="2202.71" y="693.64" text-anchor="middle" transform="rotate(-90 2202.71,693.64)" style="font-family:'Helvetica';font-size:74.99px;fill:#000">.4</text><line x1="2270.32" x2="2240.25" y1="494.27" y2="494.27" style="stroke:#000;stroke-width:4.32"/><text x="2202.71" y="494.27" text-anchor="middle" transform="rotate(-90 2202.71,494.27)" style="font-family:'Helvetica';font-size:74.99px;fill:#000">.6</text><line x1="2270.32" x2="2240.25" y1="294.91" y2="294.91" style="stroke:#000;stroke-width:4.32"/><text x="2202.71" y="294.91" text-anchor="middle" transform="rotate(-90 2202.71,294.91)" style="font-family:'Helvetica';font-size:74.99px;fill:#000">.8</text><line x1="2270.32" x2="3820.91" y1="1092.38" y2="1092.38" style="stroke:#000;stroke-width:4.32"/><line x1="2334.91" x2="2334.91" y1="1092.38" y2="1122.32" style="stroke:#000;stroke-width:4.32"/><text x="2334.91" y="1189.73" text-anchor="middle" style="font-family:'Helvetica';font-size:74.99px;fill:#000">0</text><line x1="2605.93" x2="2605.93" y1="1092.38" y2="1122.32" style="stroke:#000;stroke-width:4.32"/><text x="2605.93" y="1189.73" text-anchor="middle" style="font-family:'Helvetica';font-size:74.99px;fill:#000">10</text><line x1="2877.06" x2="2877.06" y1="1092.38" y2="1122.32" style="stroke:#000;stroke-width:4.32"/><text x="2877.06" y="1189.73" text-anchor="middle" style="font-family:'Helvetica';font-size:74.99px;fill:#000">20</text><line x1="3148.08" x2="3148.08" y1="1092.38" y2="1122.32" style="stroke:#000;stroke-width:4.32"/><text x="3148.08" y="1189.73" text-anchor="middle" style="font-family:'Helvetica';font-size:74.99px;fill:#000">30</text><line x1="3419.09" x2="3419.09" y1="1092.38" y2="1122.32" style="stroke:#000;stroke-width:4.32"/><text x="3419.09" y="1189.73" text-anchor="middle" style="font-family:'Helvetica';font-size:74.99px;fill:#000">40</text><line x1="3690.1" x2="3690.1" y1="1092.38" y2="1122.32" style="stroke:#000;stroke-width:4.32"/><text x="3690.1" y="1189.73" text-anchor="middle" style="font-family:'Helvetica';font-size:74.99px;fill:#000">50</text><text x="3045.61" y="209.56" text-anchor="middle" style="font-family:'Helvetica';font-size:82.54px;fill:#000">square</text><rect width="1844.37" height="1247.07" x="207.9" y="1310.43" style="fill:#eaf2f3"/><rect width="1840.05" height="1242.75" x="210.06" y="1312.59" style="fill:none;stroke:#eaf2f3;stroke-width:4.32"/><rect width="1550.71" height="844.99" x="425.95" y="1494.45" style="fill:#fff"/><rect width="1546.39" height="840.67" x="428.11" y="1496.61" style="fill:none;stroke:#fff;stroke-width:4.32"/><line x1="425.95" x2="1976.66" y1="2339.44" y2="2339.44" style="stroke:#eaf2f3;stroke-width:6.48"/><line x1="425.95" x2="1976.66" y1="2140.08" y2="2140.08" style="stroke:#eaf2f3;stroke-width:6.48"/><line x1="425.95" x2="1976.66" y1="1940.71" y2="1940.71" style="stroke:#eaf2f3;stroke-width:6.48"/><line x1="425.95" x2="1976.66" y1="1741.34" y2="1741.34" style="stroke:#eaf2f3;stroke-width:6.48"/><rect width="31.19" height="661.34" x="489.18" y="1678.1" style="fill:#cac27e"/><rect width="24.71" height="654.86" x="492.42" y="1681.34" style="fill:none;stroke:#d7d29e;stroke-width:6.48"/><rect width="31.19" height="144.92" x="520.37" y="2194.53" style="fill:#cac27e"/><rect width="24.71" height="138.44" x="523.61" y="2197.77" style="fill:none;stroke:#d7d29e;stroke-width:6.48"/><rect width="31.18" height="92.82" x="551.55" y="2246.63" style="fill:#cac27e"/><rect width="24.71" height="86.34" x="554.79" y="2249.87" style="fill:none;stroke:#d7d29e;stroke-width:6.48"/><rect width="31.31" height="78.34" x="582.74" y="2261.11" style="fill:#cac27e"/><rect width="24.83" height="71.86" x="585.98" y="2264.35" style="fill:none;stroke:#d7d29e;stroke-width:6.48"/><rect width="31.18" height="53.09" x="614.05" y="2286.35" style="fill:#cac27e"/><rect width="24.71" height="46.61" x="617.29" y="2289.59" style="fill:none;stroke:#d7d29e;stroke-width:6.48"/><rect width="31.19" height="29.08" x="645.23" y="2310.36" style="fill:#cac27e"/><rect width="24.71" height="22.6" x="648.47" y="2313.6" style="fill:none;stroke:#d7d29e;stroke-width:6.48"/><rect width="31.31" height="23.64" x="676.42" y="2315.81" style="fill:#cac27e"/><rect width="24.83" height="17.16" x="679.66" y="2319.05" style="fill:none;stroke:#d7d29e;stroke-width:6.48"/><rect width="31.18" height="15.1" x="707.73" y="2324.35" style="fill:#cac27e"/><rect width="24.71" height="8.62" x="710.97" y="2327.59" style="fill:none;stroke:#d7d29e;stroke-width:6.48"/><rect width="31.19" height="12.99" x="738.91" y="2326.45" style="fill:#cac27e"/><rect width="24.71" height="6.51" x="742.15" y="2329.69" style="fill:none;stroke:#d7d29e;stroke-width:6.48"/><rect width="31.18" height="5.07" x="770.1" y="2334.37" style="fill:#cac27e"/><rect width="24.71" height="1.41" x="773.34" y="2336.2" style="fill:none;stroke:#d7d29e;stroke-width:6.48"/><rect width="31.31" height="5.07" x="801.28" y="2334.37" style="fill:#cac27e"/><rect width="24.83" height="1.41" x="804.52" y="2336.2" style="fill:none;stroke:#d7d29e;stroke-width:6.48"/><rect width="31.18" height="4.7" x="832.59" y="2334.74" style="fill:#cac27e"/><rect width="24.71" height="1.78" x="835.83" y="2336.2" style="fill:none;stroke:#d7d29e;stroke-width:6.48"/><rect width="31.19" height="3.47" x="863.77" y="2335.98" style="fill:#cac27e"/><rect width="24.71" height="3.01" x="867.01" y="2336.2" style="fill:none;stroke:#d7d29e;stroke-width:6.48"/><rect width="31.31" height="2.23" x="894.96" y="2337.22" style="fill:#cac27e"/><rect width="24.83" height="4.25" x="898.2" y="2336.2" style="fill:none;stroke:#d7d29e;stroke-width:6.48"/><rect width="31.19" height="3.09" x="926.27" y="2336.35" style="fill:#cac27e"/><rect width="24.71" height="3.39" x="929.51" y="2336.2" style="fill:none;stroke:#d7d29e;stroke-width:6.48"/><rect width="31.18" height="1.86" x="957.45" y="2337.59" style="fill:#cac27e"/><rect width="24.71" height="4.62" x="960.69" y="2336.2" style="fill:none;stroke:#d7d29e;stroke-width:6.48"/><rect width="31.19" height="1.86" x="988.64" y="2337.59" style="fill:#cac27e"/><rect width="24.71" height="4.62" x="991.88" y="2336.2" style="fill:none;stroke:#d7d29e;stroke-width:6.48"/><rect width="31.31" height="1.86" x="1019.82" y="2337.59" style="fill:#cac27e"/><rect width="24.83" height="4.62" x="1023.06" y="2336.2" style="fill:none;stroke:#d7d29e;stroke-width:6.48"/><rect width="31.19" height="1.61" x="1051.13" y="2337.83" style="fill:#cac27e"/><rect width="24.71" height="4.87" x="1054.37" y="2336.2" style="fill:none;stroke:#d7d29e;stroke-width:6.48"/><rect width="31.18" height=".37" x="1082.32" y="2339.07" style="fill:#cac27e"/><rect width="24.71" height="6.11" x="1085.56" y="2336.2" style="fill:none;stroke:#d7d29e;stroke-width:6.48"/><rect width="31.31" height=".99" x="1113.5" y="2338.45" style="fill:#cac27e"/><rect width="24.83" height="5.49" x="1116.74" y="2336.2" style="fill:none;stroke:#d7d29e;stroke-width:6.48"/><rect width="31.18" height=".37" x="1144.81" y="2339.07" style="fill:#cac27e"/><rect width="24.71" height="6.11" x="1148.05" y="2336.2" style="fill:none;stroke:#d7d29e;stroke-width:6.48"/><rect width="31.19" height=".62" x="1176" y="2338.82" style="fill:#cac27e"/><rect width="24.71" height="5.86" x="1179.24" y="2336.2" style="fill:none;stroke:#d7d29e;stroke-width:6.48"/><rect width="31.18" height="1.61" x="1207.18" y="2337.83" style="fill:#cac27e"/><rect width="24.71" height="4.87" x="1210.42" y="2336.2" style="fill:none;stroke:#d7d29e;stroke-width:6.48"/><rect width="31.31" height=".37" x="1238.37" y="2339.07" style="fill:#cac27e"/><rect width="24.83" height="6.11" x="1241.61" y="2336.2" style="fill:none;stroke:#d7d29e;stroke-width:6.48"/><rect width="31.18" height=".37" x="1269.67" y="2339.07" style="fill:#cac27e"/><rect width="24.71" height="6.11" x="1272.91" y="2336.2" style="fill:none;stroke:#d7d29e;stroke-width:6.48"/><rect width="31.19" height=".37" x="1300.86" y="2339.07" style="fill:#cac27e"/><rect width="24.71" height="6.11" x="1304.1" y="2336.2" style="fill:none;stroke:#d7d29e;stroke-width:6.48"/><rect width="31.31" height=".37" x="1332.05" y="2339.07" style="fill:#cac27e"/><rect width="24.83" height="6.11" x="1335.28" y="2336.2" style="fill:none;stroke:#d7d29e;stroke-width:6.48"/><rect width="31.18" height=".99" x="1363.35" y="2338.45" style="fill:#cac27e"/><rect width="24.71" height="5.49" x="1366.59" y="2336.2" style="fill:none;stroke:#d7d29e;stroke-width:6.48"/><rect width="31.19" height=".37" x="1394.54" y="2339.07" style="fill:#cac27e"/><rect width="24.71" height="6.11" x="1397.78" y="2336.2" style="fill:none;stroke:#d7d29e;stroke-width:6.48"/><rect width="31.31" height=".37" x="1425.72" y="2339.07" style="fill:#cac27e"/><rect width="24.83" height="6.11" x="1428.96" y="2336.2" style="fill:none;stroke:#d7d29e;stroke-width:6.48"/><rect width="31.19" height=".37" x="1519.4" y="2339.07" style="fill:#cac27e"/><rect width="24.71" height="6.11" x="1522.64" y="2336.2" style="fill:none;stroke:#d7d29e;stroke-width:6.48"/><rect width="31.31" height=".37" x="1769.13" y="2339.07" style="fill:#cac27e"/><rect width="24.83" height="6.11" x="1772.37" y="2336.2" style="fill:none;stroke:#d7d29e;stroke-width:6.48"/><path stroke-linejoin="round" d="M489.06 2222.87 L493.51 2220.02 L497.85 2217.42 L502.18 2214.82 L506.63 2212.47 L510.96 2210.37 L515.42 2208.39 L519.75 2206.66 L524.21 2205.17 L528.54 2203.81 L532.87 2202.82 L537.32 2201.95 L541.65 2201.33 L546.11 2201.09 L550.44 2200.96 L554.89 2201.21 L559.23 2201.58 L563.68 2202.20 L568.01 2203.19 L572.34 2204.30 L576.80 2205.67 L581.13 2207.27 L585.59 2209.01 L589.92 2211.11 L594.37 2213.34 L598.70 2215.69 L603.03 2218.29 L607.49 2221.01 L611.82 2223.86 L616.27 2226.95 L620.61 2230.04 L625.06 2233.26 L629.39 2236.60 L633.85 2239.94 L638.18 2243.41 L642.51 2247.00 L646.97 2250.46 L651.30 2254.05 L655.75 2257.64 L660.08 2261.23 L664.54 2264.70 L668.87 2268.28 L673.20 2271.75 L677.65 2275.09 L681.99 2278.43 L686.44 2281.77 L690.77 2284.99 L695.23 2288.09 L699.56 2291.06 L704.01 2294.03 L708.35 2296.87 L712.68 2299.59 L717.13 2302.19 L721.46 2304.67 L725.92 2307.14 L730.25 2309.37 L734.70 2311.60 L739.03 2313.70 L743.49 2315.56 L747.82 2317.41 L752.15 2319.15 L756.61 2320.88 L760.94 2322.37 L765.39 2323.85 L769.73 2325.09 L774.18 2326.45 L778.51 2327.56 L782.84 2328.68 L787.30 2329.67 L791.63 2330.53 L796.08 2331.40 L800.41 2332.27 L804.87 2332.88 L809.20 2333.63 L813.66 2334.25 L817.99 2334.74 L822.32 2335.24 L826.77 2335.73 L831.11 2336.10 L835.56 2336.47 L839.89 2336.84 L844.35 2337.09 L848.68 2337.34 L853.01 2337.59 L857.46 2337.83 L861.79 2338.08 L866.25 2338.21 L870.58 2338.45 L875.04 2338.58 L879.37 2338.70 L883.82 2338.82 L888.15 2338.82 L892.49 2338.95 L896.94 2339.07 L901.27 2339.07 L905.73 2339.20 L910.06 2339.20 L914.51 2339.20 L918.84 2339.32 L923.17 2339.32 L927.63 2339.32 L931.96 2339.32 L936.42 2339.44 L940.75 2339.44 L945.20 2339.44 L949.53 2339.44 L953.99 2339.44 L958.32 2339.44 L962.65 2339.44 L967.11 2339.44 L971.44 2339.44 L975.89 2339.44 L980.22 2339.44 L984.68 2339.44 L989.01 2339.44 L993.34 2339.44 L997.80 2339.44 L1002.13 2339.44 L1006.58 2339.44 L1010.91 2339.44 L1015.37 2339.44 L1019.70 2339.57 L1024.15 2339.57 L1028.49 2339.57 L1032.82 2339.57 L1037.27 2339.57 L1041.60 2339.57 L1046.06 2339.57 L1050.39 2339.57 L1054.85 2339.57 L1059.18 2339.57 L1063.63 2339.57 L1067.96 2339.57 L1072.29 2339.57 L1076.75 2339.57 L1081.08 2339.57 L1085.54 2339.57 L1089.87 2339.57 L1094.32 2339.57 L1098.65 2339.57 L1102.98 2339.57 L1107.44 2339.57 L1111.77 2339.57 L1116.22 2339.57 L1120.56 2339.57 L1125.01 2339.57 L1129.34 2339.57 L1133.80 2339.57 L1138.13 2339.57 L1142.46 2339.57 L1146.91 2339.57 L1151.25 2339.57 L1155.70 2339.57 L1160.03 2339.57 L1164.49 2339.57 L1168.82 2339.57 L1173.15 2339.57 L1177.61 2339.57 L1181.94 2339.57 L1186.39 2339.57 L1190.72 2339.57 L1195.18 2339.57 L1199.51 2339.57 L1203.96 2339.57 L1208.30 2339.57 L1212.63 2339.57 L1217.08 2339.57 L1221.41 2339.57 L1225.87 2339.57 L1230.20 2339.57 L1234.65 2339.57 L1238.98 2339.57 L1243.32 2339.57 L1247.77 2339.57 L1252.10 2339.57 L1256.56 2339.57 L1260.89 2339.57 L1265.34 2339.57 L1269.67 2339.57 L1274.13 2339.57 L1278.46 2339.57 L1282.79 2339.57 L1287.25 2339.57 L1291.58 2339.57 L1296.03 2339.57 L1300.37 2339.57 L1304.82 2339.57 L1309.15 2339.57 L1313.61 2339.57 L1317.94 2339.57 L1322.27 2339.57 L1326.72 2339.57 L1331.06 2339.57 L1335.51 2339.57 L1339.84 2339.57 L1344.30 2339.57 L1348.63 2339.57 L1352.96 2339.57 L1357.41 2339.57 L1361.74 2339.57 L1366.20 2339.57 L1370.53 2339.57 L1374.99 2339.57 L1379.32 2339.57 L1383.77 2339.57 L1388.10 2339.57 L1392.43 2339.57 L1396.89 2339.57 L1401.22 2339.57 L1405.68 2339.57 L1410.01 2339.57 L1414.46 2339.57 L1418.79 2339.57 L1423.12 2339.57 L1427.58 2339.57 L1431.91 2339.57 L1436.37 2339.57 L1440.70 2339.57 L1445.15 2339.57 L1449.48 2339.57 L1453.94 2339.57 L1458.27 2339.57 L1462.60 2339.57 L1467.06 2339.57 L1471.39 2339.57 L1475.84 2339.57 L1480.17 2339.57 L1484.63 2339.57 L1488.96 2339.57 L1493.29 2339.57 L1497.75 2339.57 L1502.08 2339.57 L1506.53 2339.57 L1510.86 2339.57 L1515.32 2339.57 L1519.65 2339.57 L1524.11 2339.57 L1528.44 2339.57 L1532.77 2339.57 L1537.22 2339.57 L1541.55 2339.57 L1546.01 2339.57 L1550.34 2339.57 L1554.80 2339.57 L1559.13 2339.57 L1563.58 2339.57 L1567.91 2339.57 L1572.24 2339.57 L1576.70 2339.57 L1581.03 2339.57 L1585.48 2339.57 L1589.82 2339.57 L1594.27 2339.57 L1598.60 2339.57 L1602.93 2339.57 L1607.39 2339.57 L1611.72 2339.57 L1616.17 2339.57 L1620.51 2339.57 L1624.96 2339.57 L1629.29 2339.57 L1633.75 2339.57 L1638.08 2339.57 L1642.41 2339.57 L1646.87 2339.57 L1651.20 2339.57 L1655.65 2339.57 L1659.98 2339.57 L1664.44 2339.57 L1668.77 2339.57 L1673.10 2339.57 L1677.56 2339.57 L1681.89 2339.57 L1686.34 2339.57 L1690.67 2339.57 L1695.13 2339.57 L1699.46 2339.57 L1703.91 2339.57 L1708.24 2339.57 L1712.58 2339.57 L1717.03 2339.57 L1721.36 2339.57 L1725.82 2339.57 L1730.15 2339.57 L1734.60 2339.57 L1738.93 2339.57 L1743.27 2339.57 L1747.72 2339.57 L1752.05 2339.57 L1756.51 2339.57 L1760.84 2339.57 L1765.29 2339.57 L1769.62 2339.57 L1774.08 2339.57 L1778.41 2339.57 L1782.74 2339.57 L1787.20 2339.57 L1791.53 2339.57 L1795.98 2339.57 L1800.32 2339.57" style="fill:none;stroke:#2d6d66;stroke-width:6.48"/><line x1="425.95" x2="425.95" y1="2339.44" y2="1494.45" style="stroke:#000;stroke-width:4.32"/><line x1="425.95" x2="396" y1="2339.44" y2="2339.44" style="stroke:#000;stroke-width:4.32"/><text x="358.47" y="2339.44" text-anchor="middle" transform="rotate(-90 358.47,2339.44)" style="font-family:'Helvetica';font-size:74.99px;fill:#000">0</text><line x1="425.95" x2="396" y1="2140.08" y2="2140.08" style="stroke:#000;stroke-width:4.32"/><text x="358.47" y="2140.08" text-anchor="middle" transform="rotate(-90 358.47,2140.08)" style="font-family:'Helvetica';font-size:74.99px;fill:#000">1</text><line x1="425.95" x2="396" y1="1940.71" y2="1940.71" style="stroke:#000;stroke-width:4.32"/><text x="358.47" y="1940.71" text-anchor="middle" transform="rotate(-90 358.47,1940.71)" style="font-family:'Helvetica';font-size:74.99px;fill:#000">2</text><line x1="425.95" x2="396" y1="1741.34" y2="1741.34" style="stroke:#000;stroke-width:4.32"/><text x="358.47" y="1741.34" text-anchor="middle" transform="rotate(-90 358.47,1741.34)" style="font-family:'Helvetica';font-size:74.99px;fill:#000">3</text><line x1="425.95" x2="396" y1="1541.97" y2="1541.97" style="stroke:#000;stroke-width:4.32"/><text x="358.47" y="1541.97" text-anchor="middle" transform="rotate(-90 358.47,1541.97)" style="font-family:'Helvetica';font-size:74.99px;fill:#000">4</text><line x1="425.95" x2="1976.66" y1="2339.44" y2="2339.44" style="stroke:#000;stroke-width:4.32"/><line x1="489.18" x2="489.18" y1="2339.44" y2="2369.39" style="stroke:#000;stroke-width:4.32"/><text x="489.18" y="2436.92" text-anchor="middle" style="font-family:'Helvetica';font-size:74.99px;fill:#000">0</text><line x1="849.17" x2="849.17" y1="2339.44" y2="2369.39" style="stroke:#000;stroke-width:4.32"/><text x="849.17" y="2436.92" text-anchor="middle" style="font-family:'Helvetica';font-size:74.99px;fill:#000">2</text><line x1="1209.16" x2="1209.16" y1="2339.44" y2="2369.39" style="stroke:#000;stroke-width:4.32"/><text x="1209.16" y="2436.92" text-anchor="middle" style="font-family:'Helvetica';font-size:74.99px;fill:#000">4</text><line x1="1569.15" x2="1569.15" y1="2339.44" y2="2369.39" style="stroke:#000;stroke-width:4.32"/><text x="1569.15" y="2436.92" text-anchor="middle" style="font-family:'Helvetica';font-size:74.99px;fill:#000">6</text><line x1="1929.14" x2="1929.14" y1="2339.44" y2="2369.39" style="stroke:#000;stroke-width:4.32"/><text x="1929.14" y="2436.92" text-anchor="middle" style="font-family:'Helvetica';font-size:74.99px;fill:#000">8</text><text x="1201.37" y="1456.63" text-anchor="middle" style="font-family:'Helvetica';font-size:82.54px;fill:#000">identity</text><rect width="1844.25" height="1247.07" x="2052.27" y="1310.43" style="fill:#eaf2f3"/><rect width="1839.93" height="1242.75" x="2054.43" y="1312.59" style="fill:none;stroke:#eaf2f3;stroke-width:4.32"/><rect width="1550.59" height="844.99" x="2270.32" y="1494.45" style="fill:#fff"/><rect width="1546.27" height="840.67" x="2272.48" y="1496.61" style="fill:none;stroke:#fff;stroke-width:4.32"/><line x1="2270.32" x2="3820.91" y1="2339.44" y2="2339.44" style="stroke:#eaf2f3;stroke-width:6.48"/><line x1="2270.32" x2="3820.91" y1="2140.08" y2="2140.08" style="stroke:#eaf2f3;stroke-width:6.48"/><line x1="2270.32" x2="3820.91" y1="1940.71" y2="1940.71" style="stroke:#eaf2f3;stroke-width:6.48"/><line x1="2270.32" x2="3820.91" y1="1741.34" y2="1741.34" style="stroke:#eaf2f3;stroke-width:6.48"/><line x1="2270.32" x2="3820.91" y1="1541.97" y2="1541.97" style="stroke:#eaf2f3;stroke-width:6.48"/><rect width="30.81" height="710.59" x="2333.31" y="1628.85" style="fill:#cac27e"/><rect width="24.33" height="704.11" x="2336.55" y="1632.09" style="fill:none;stroke:#d7d29e;stroke-width:6.48"/><rect width="30.81" height="753.17" x="2364.12" y="1586.28" style="fill:#cac27e"/><rect width="24.33" height="746.69" x="2367.36" y="1589.52" style="fill:none;stroke:#d7d29e;stroke-width:6.48"/><rect width="30.81" height="690.18" x="2394.93" y="1649.27" style="fill:#cac27e"/><rect width="24.33" height="683.7" x="2398.17" y="1652.51" style="fill:none;stroke:#d7d29e;stroke-width:6.48"/><rect width="30.94" height="540.19" x="2425.75" y="1799.26" style="fill:#cac27e"/><rect width="24.46" height="533.71" x="2428.99" y="1802.5" style="fill:none;stroke:#d7d29e;stroke-width:6.48"/><rect width="30.81" height="345.89" x="2456.68" y="1993.55" style="fill:#cac27e"/><rect width="24.33" height="339.41" x="2459.92" y="1996.79" style="fill:none;stroke:#d7d29e;stroke-width:6.48"/><rect width="30.81" height="347.62" x="2487.5" y="1991.82" style="fill:#cac27e"/><rect width="24.33" height="341.14" x="2490.74" y="1995.06" style="fill:none;stroke:#d7d29e;stroke-width:6.48"/><rect width="30.94" height="354.43" x="2518.31" y="1985.01" style="fill:#cac27e"/><rect width="24.46" height="347.95" x="2521.55" y="1988.25" style="fill:none;stroke:#d7d29e;stroke-width:6.48"/><rect width="30.81" height="327.21" x="2549.25" y="2012.24" style="fill:#cac27e"/><rect width="24.33" height="320.73" x="2552.49" y="2015.48" style="fill:none;stroke:#d7d29e;stroke-width:6.48"/><rect width="30.81" height="241.94" x="2580.06" y="2097.5" style="fill:#cac27e"/><rect width="24.33" height="235.46" x="2583.3" y="2100.74" style="fill:none;stroke:#d7d29e;stroke-width:6.48"/><rect width="30.81" height="228.33" x="2610.88" y="2111.12" style="fill:#cac27e"/><rect width="24.33" height="221.85" x="2614.12" y="2114.36" style="fill:none;stroke:#d7d29e;stroke-width:6.48"/><rect width="30.94" height="272.63" x="2641.69" y="2066.81" style="fill:#cac27e"/><rect width="24.46" height="266.15" x="2644.93" y="2070.05" style="fill:none;stroke:#d7d29e;stroke-width:6.48"/><rect width="30.81" height="230.06" x="2672.63" y="2109.38" style="fill:#cac27e"/><rect width="24.33" height="223.58" x="2675.87" y="2112.62" style="fill:none;stroke:#d7d29e;stroke-width:6.48"/><rect width="30.81" height="241.94" x="2703.44" y="2097.5" style="fill:#cac27e"/><rect width="24.33" height="235.46" x="2706.68" y="2100.74" style="fill:none;stroke:#d7d29e;stroke-width:6.48"/><rect width="30.94" height="189.1" x="2734.26" y="2150.35" style="fill:#cac27e"/><rect width="24.46" height="182.62" x="2737.5" y="2153.59" style="fill:none;stroke:#d7d29e;stroke-width:6.48"/><rect width="30.81" height="146.52" x="2765.19" y="2192.92" style="fill:#cac27e"/><rect width="24.33" height="140.04" x="2768.43" y="2196.16" style="fill:none;stroke:#d7d29e;stroke-width:6.48"/><rect width="30.81" height="112.49" x="2796.01" y="2226.95" style="fill:#cac27e"/><rect width="24.33" height="106.01" x="2799.25" y="2230.19" style="fill:none;stroke:#d7d29e;stroke-width:6.48"/><rect width="30.81" height="103.95" x="2826.82" y="2235.49" style="fill:#cac27e"/><rect width="24.33" height="97.47" x="2830.06" y="2238.73" style="fill:none;stroke:#d7d29e;stroke-width:6.48"/><rect width="30.94" height="74.99" x="2857.64" y="2264.45" style="fill:#cac27e"/><rect width="24.46" height="68.52" x="2860.87" y="2267.69" style="fill:none;stroke:#d7d29e;stroke-width:6.48"/><rect width="30.81" height="57.92" x="2888.57" y="2281.53" style="fill:#cac27e"/><rect width="24.33" height="51.44" x="2891.81" y="2284.77" style="fill:none;stroke:#d7d29e;stroke-width:6.48"/><rect width="30.81" height="44.3" x="2919.39" y="2295.14" style="fill:#cac27e"/><rect width="24.33" height="37.82" x="2922.63" y="2298.38" style="fill:none;stroke:#d7d29e;stroke-width:6.48"/><rect width="30.94" height="23.88" x="2950.2" y="2315.56" style="fill:#cac27e"/><rect width="24.46" height="17.4" x="2953.44" y="2318.8" style="fill:none;stroke:#d7d29e;stroke-width:6.48"/><rect width="30.81" height="27.23" x="2981.14" y="2312.22" style="fill:#cac27e"/><rect width="24.33" height="20.75" x="2984.38" y="2315.46" style="fill:none;stroke:#d7d29e;stroke-width:6.48"/><rect width="30.81" height="27.23" x="3011.95" y="2312.22" style="fill:#cac27e"/><rect width="24.33" height="20.75" x="3015.19" y="2315.46" style="fill:none;stroke:#d7d29e;stroke-width:6.48"/><rect width="30.94" height="10.27" x="3042.76" y="2329.17" style="fill:#cac27e"/><rect width="24.46" height="3.79" x="3046" y="2332.41" style="fill:none;stroke:#d7d29e;stroke-width:6.48"/><rect width="30.81" height="23.88" x="3073.7" y="2315.56" style="fill:#cac27e"/><rect width="24.33" height="17.4" x="3076.94" y="2318.8" style="fill:none;stroke:#d7d29e;stroke-width:6.48"/><rect width="30.81" height="11.88" x="3104.52" y="2327.56" style="fill:#cac27e"/><rect width="24.33" height="5.4" x="3107.76" y="2330.8" style="fill:none;stroke:#d7d29e;stroke-width:6.48"/><rect width="30.81" height="13.61" x="3135.33" y="2325.83" style="fill:#cac27e"/><rect width="24.33" height="7.13" x="3138.57" y="2329.07" style="fill:none;stroke:#d7d29e;stroke-width:6.48"/><rect width="30.94" height="11.88" x="3166.14" y="2327.56" style="fill:#cac27e"/><rect width="24.46" height="5.4" x="3169.38" y="2330.8" style="fill:none;stroke:#d7d29e;stroke-width:6.48"/><rect width="30.81" height="3.34" x="3197.08" y="2336.1" style="fill:#cac27e"/><rect width="24.33" height="3.14" x="3200.32" y="2336.2" style="fill:none;stroke:#d7d29e;stroke-width:6.48"/><rect width="30.81" height="6.81" x="3227.89" y="2332.64" style="fill:#cac27e"/><rect width="24.33" height=".33" x="3231.13" y="2335.88" style="fill:none;stroke:#d7d29e;stroke-width:6.48"/><rect width="30.94" height="3.34" x="3258.71" y="2336.1" style="fill:#cac27e"/><rect width="24.46" height="3.14" x="3261.95" y="2336.2" style="fill:none;stroke:#d7d29e;stroke-width:6.48"/><rect width="30.81" height="8.54" x="3289.65" y="2330.9" style="fill:#cac27e"/><rect width="24.33" height="2.06" x="3292.89" y="2334.14" style="fill:none;stroke:#d7d29e;stroke-width:6.48"/><rect width="30.81" height="3.34" x="3320.46" y="2336.1" style="fill:#cac27e"/><rect width="24.33" height="3.14" x="3323.7" y="2336.2" style="fill:none;stroke:#d7d29e;stroke-width:6.48"/><rect width="30.81" height="3.34" x="3351.27" y="2336.1" style="fill:#cac27e"/><rect width="24.33" height="3.14" x="3354.51" y="2336.2" style="fill:none;stroke:#d7d29e;stroke-width:6.48"/><rect width="30.94" height="5.07" x="3382.09" y="2334.37" style="fill:#cac27e"/><rect width="24.46" height="1.41" x="3385.33" y="2336.2" style="fill:none;stroke:#d7d29e;stroke-width:6.48"/><rect width="30.81" height="1.73" x="3413.03" y="2337.71" style="fill:#cac27e"/><rect width="24.33" height="4.75" x="3416.26" y="2336.2" style="fill:none;stroke:#d7d29e;stroke-width:6.48"/><rect width="30.81" height="1.73" x="3443.84" y="2337.71" style="fill:#cac27e"/><rect width="24.33" height="4.75" x="3447.08" y="2336.2" style="fill:none;stroke:#d7d29e;stroke-width:6.48"/><rect width="30.94" height="1.73" x="3474.65" y="2337.71" style="fill:#cac27e"/><rect width="24.46" height="4.75" x="3477.89" y="2336.2" style="fill:none;stroke:#d7d29e;stroke-width:6.48"/><rect width="30.94" height="1.73" x="3598.03" y="2337.71" style="fill:#cac27e"/><rect width="24.46" height="4.75" x="3601.27" y="2336.2" style="fill:none;stroke:#d7d29e;stroke-width:6.48"/><path stroke-linejoin="round" d="M2333.18 2123.37 L2337.51 2117.55 L2341.84 2111.61 L2346.18 2105.67 L2350.51 2099.73 L2354.84 2093.79 L2359.17 2087.85 L2363.50 2081.79 L2367.83 2075.85 L2372.16 2069.91 L2376.49 2063.97 L2380.83 2058.03 L2385.16 2052.21 L2389.49 2046.27 L2393.82 2040.58 L2398.15 2034.76 L2402.48 2029.07 L2406.81 2023.50 L2411.14 2017.93 L2415.48 2012.61 L2419.81 2007.16 L2424.14 2001.97 L2428.47 1996.89 L2432.80 1991.82 L2437.13 1986.99 L2441.46 1982.17 L2445.80 1977.59 L2450.13 1973.13 L2454.58 1968.80 L2458.91 1964.59 L2463.24 1960.63 L2467.57 1956.80 L2471.91 1953.08 L2476.24 1949.62 L2480.57 1946.40 L2484.90 1943.31 L2489.23 1940.46 L2493.56 1937.74 L2497.89 1935.26 L2502.22 1933.04 L2506.56 1930.93 L2510.89 1929.20 L2515.22 1927.59 L2519.55 1926.23 L2523.88 1924.99 L2528.21 1924.13 L2532.54 1923.38 L2536.88 1923.01 L2541.21 1922.76 L2545.54 1922.76 L2549.87 1923.01 L2554.20 1923.51 L2558.53 1924.13 L2562.86 1925.12 L2567.19 1926.23 L2571.53 1927.71 L2575.86 1929.32 L2580.19 1931.18 L2584.52 1933.16 L2588.85 1935.51 L2593.18 1937.99 L2597.51 1940.58 L2601.84 1943.55 L2606.18 1946.65 L2610.51 1949.99 L2614.84 1953.45 L2619.17 1957.04 L2623.50 1960.88 L2627.83 1964.96 L2632.16 1969.05 L2636.49 1973.38 L2640.82 1977.96 L2645.16 1982.54 L2649.49 1987.36 L2653.82 1992.19 L2658.15 1997.26 L2662.48 2002.34 L2666.81 2007.66 L2671.14 2012.98 L2675.47 2018.43 L2679.81 2023.99 L2684.14 2029.56 L2688.47 2035.26 L2692.80 2040.95 L2697.13 2046.77 L2701.59 2052.58 L2705.92 2058.52 L2710.25 2064.46 L2714.58 2070.40 L2718.91 2076.34 L2723.24 2082.28 L2727.57 2088.22 L2731.91 2094.29 L2736.24 2100.23 L2740.57 2106.17 L2744.90 2112.11 L2749.23 2118.05 L2753.56 2123.86 L2757.89 2129.68 L2762.22 2135.50 L2766.55 2141.31 L2770.89 2146.88 L2775.22 2152.57 L2779.55 2158.14 L2783.88 2163.59 L2788.21 2169.03 L2792.54 2174.48 L2796.87 2179.68 L2801.20 2184.87 L2805.54 2189.95 L2809.87 2195.02 L2814.20 2199.97 L2818.53 2204.80 L2822.86 2209.50 L2827.19 2214.20 L2831.52 2218.66 L2835.86 2223.11 L2840.19 2227.45 L2844.52 2231.78 L2848.85 2235.86 L2853.18 2239.94 L2857.51 2243.91 L2861.84 2247.74 L2866.17 2251.45 L2870.51 2255.04 L2874.84 2258.51 L2879.17 2261.97 L2883.50 2265.31 L2887.83 2268.53 L2892.16 2271.63 L2896.49 2274.60 L2900.82 2277.57 L2905.16 2280.29 L2909.49 2283.01 L2913.82 2285.73 L2918.15 2288.21 L2922.48 2290.68 L2926.81 2293.04 L2931.14 2295.26 L2935.47 2297.49 L2939.80 2299.47 L2944.26 2301.57 L2948.59 2303.43 L2952.92 2305.29 L2957.25 2307.02 L2961.59 2308.75 L2965.92 2310.36 L2970.25 2311.97 L2974.58 2313.45 L2978.91 2314.82 L2983.24 2316.18 L2987.57 2317.54 L2991.90 2318.78 L2996.24 2319.89 L3000.57 2321.00 L3004.90 2322.12 L3009.23 2323.11 L3013.56 2324.10 L3017.89 2324.96 L3022.22 2325.83 L3026.55 2326.70 L3030.89 2327.44 L3035.22 2328.18 L3039.55 2328.92 L3043.88 2329.54 L3048.21 2330.16 L3052.54 2330.78 L3056.87 2331.28 L3061.20 2331.89 L3065.53 2332.39 L3069.87 2332.76 L3074.20 2333.26 L3078.53 2333.63 L3082.86 2334.12 L3087.19 2334.49 L3091.52 2334.74 L3095.85 2335.11 L3100.18 2335.36 L3104.52 2335.73 L3108.85 2335.98 L3113.18 2336.23 L3117.51 2336.47 L3121.84 2336.72 L3126.17 2336.84 L3130.50 2337.09 L3134.84 2337.22 L3139.17 2337.46 L3143.50 2337.59 L3147.83 2337.71 L3152.16 2337.83 L3156.49 2337.96 L3160.82 2338.08 L3165.15 2338.21 L3169.49 2338.33 L3173.82 2338.45 L3178.15 2338.45 L3182.48 2338.58 L3186.81 2338.70 L3191.26 2338.70 L3195.60 2338.82 L3199.93 2338.82 L3204.26 2338.95 L3208.59 2338.95 L3212.92 2338.95 L3217.25 2339.07 L3221.58 2339.07 L3225.91 2339.07 L3230.25 2339.20 L3234.58 2339.20 L3238.91 2339.20 L3243.24 2339.20 L3247.57 2339.20 L3251.90 2339.32 L3256.23 2339.32 L3260.57 2339.32 L3264.90 2339.32 L3269.23 2339.32 L3273.56 2339.32 L3277.89 2339.32 L3282.22 2339.44 L3286.55 2339.44 L3290.88 2339.44 L3295.22 2339.44 L3299.55 2339.44 L3303.88 2339.44 L3308.21 2339.44 L3312.54 2339.44 L3316.87 2339.44 L3321.20 2339.44 L3325.53 2339.44 L3329.86 2339.44 L3334.20 2339.44 L3338.53 2339.44 L3342.86 2339.44 L3347.19 2339.44 L3351.52 2339.44 L3355.85 2339.44 L3360.18 2339.44 L3364.51 2339.44 L3368.85 2339.44 L3373.18 2339.44 L3377.51 2339.44 L3381.84 2339.44 L3386.17 2339.44 L3390.50 2339.44 L3394.83 2339.44 L3399.16 2339.44 L3403.50 2339.44 L3407.83 2339.44 L3412.16 2339.44 L3416.49 2339.57 L3420.82 2339.57 L3425.15 2339.57 L3429.48 2339.57 L3433.82 2339.57 L3438.27 2339.57 L3442.60 2339.57 L3446.93 2339.57 L3451.26 2339.57 L3455.59 2339.57 L3459.93 2339.57 L3464.26 2339.57 L3468.59 2339.57 L3472.92 2339.57 L3477.25 2339.57 L3481.58 2339.57 L3485.91 2339.57 L3490.24 2339.57 L3494.58 2339.57 L3498.91 2339.57 L3503.24 2339.57 L3507.57 2339.57 L3511.90 2339.57 L3516.23 2339.57 L3520.56 2339.57 L3524.89 2339.57 L3529.23 2339.57 L3533.56 2339.57 L3537.89 2339.57 L3542.22 2339.57 L3546.55 2339.57 L3550.88 2339.57 L3555.21 2339.57 L3559.55 2339.57 L3563.88 2339.57 L3568.21 2339.57 L3572.54 2339.57 L3576.87 2339.57 L3581.20 2339.57 L3585.53 2339.57 L3589.86 2339.57 L3594.20 2339.57 L3598.53 2339.57 L3602.86 2339.57 L3607.19 2339.57 L3611.52 2339.57 L3615.85 2339.57 L3620.18 2339.57 L3624.51 2339.57 L3628.84 2339.57" style="fill:none;stroke:#2d6d66;stroke-width:6.48"/><line x1="2270.32" x2="2270.32" y1="2339.44" y2="1494.45" style="stroke:#000;stroke-width:4.32"/><line x1="2270.32" x2="2240.25" y1="2339.44" y2="2339.44" style="stroke:#000;stroke-width:4.32"/><text x="2202.71" y="2339.44" text-anchor="middle" transform="rotate(-90 2202.71,2339.44)" style="font-family:'Helvetica';font-size:74.99px;fill:#000">0</text><line x1="2270.32" x2="2240.25" y1="2140.08" y2="2140.08" style="stroke:#000;stroke-width:4.32"/><text x="2202.71" y="2140.08" text-anchor="middle" transform="rotate(-90 2202.71,2140.08)" style="font-family:'Helvetica';font-size:74.99px;fill:#000">.5</text><line x1="2270.32" x2="2240.25" y1="1940.71" y2="1940.71" style="stroke:#000;stroke-width:4.32"/><text x="2202.71" y="1940.71" text-anchor="middle" transform="rotate(-90 2202.71,1940.71)" style="font-family:'Helvetica';font-size:74.99px;fill:#000">1</text><line x1="2270.32" x2="2240.25" y1="1741.34" y2="1741.34" style="stroke:#000;stroke-width:4.32"/><text x="2202.71" y="1741.34" text-anchor="middle" transform="rotate(-90 2202.71,1741.34)" style="font-family:'Helvetica';font-size:74.99px;fill:#000">1.5</text><line x1="2270.32" x2="2240.25" y1="1541.97" y2="1541.97" style="stroke:#000;stroke-width:4.32"/><text x="2202.71" y="1541.97" text-anchor="middle" transform="rotate(-90 2202.71,1541.97)" style="font-family:'Helvetica';font-size:74.99px;fill:#000">2</text><line x1="2270.32" x2="3820.91" y1="2339.44" y2="2339.44" style="stroke:#000;stroke-width:4.32"/><line x1="2333.31" x2="2333.31" y1="2339.44" y2="2369.39" style="stroke:#000;stroke-width:4.32"/><text x="2333.31" y="2436.92" text-anchor="middle" style="font-family:'Helvetica';font-size:74.99px;fill:#000">0</text><line x1="2813.33" x2="2813.33" y1="2339.44" y2="2369.39" style="stroke:#000;stroke-width:4.32"/><text x="2813.33" y="2436.92" text-anchor="middle" style="font-family:'Helvetica';font-size:74.99px;fill:#000">1</text><line x1="3293.36" x2="3293.36" y1="2339.44" y2="2369.39" style="stroke:#000;stroke-width:4.32"/><text x="3293.36" y="2436.92" text-anchor="middle" style="font-family:'Helvetica';font-size:74.99px;fill:#000">2</text><line x1="3773.39" x2="3773.39" y1="2339.44" y2="2369.39" style="stroke:#000;stroke-width:4.32"/><text x="3773.39" y="2436.92" text-anchor="middle" style="font-family:'Helvetica';font-size:74.99px;fill:#000">3</text><text x="3045.61" y="1456.63" text-anchor="middle" style="font-family:'Helvetica';font-size:82.54px;fill:#000">sqrt</text><text x="157.51" y="1310.43" text-anchor="middle" transform="rotate(-90 157.51,1310.43)" style="font-family:'Helvetica';font-size:110.01px;fill:#000">Density</text><text x="2052.27" y="2651.77" text-anchor="middle" style="font-family:'Helvetica';font-size:110.01px;fill:#000">new_tests_per_thousand</text><text x="225.22" y="2775.27" style="font-family:'Helvetica';font-size:79.94px;fill:#000">Histograms by transformation</text></svg>