<svg xmlns="http://www.w3.org/2000/svg" xmlns:xlink="http://www.w3.org/1999/xlink" width="720" height="524" version="1.1" viewBox="0 0 3960 2880"><desc>Stata Graph - Graph</desc><rect width="3960" height="2880" x="0" y="0" style="fill:#eaf2f3;stroke:none"/><rect width="3959.88" height="2880" x="0" y="0" style="fill:#eaf2f3"/><rect width="3954.12" height="2874.24" x="2.88" y="2.88" style="fill:none;stroke:#eaf2f3;stroke-width:5.76"/><rect width="3468.22" height="2388.33" x="390.8" y="100.86" style="fill:#fff"/><rect width="3462.46" height="2382.57" x="393.68" y="103.74" style="fill:none;stroke:#fff;stroke-width:5.76"/><line x1="390.8" x2="3859.02" y1="2489.19" y2="2489.19" style="stroke:#eaf2f3;stroke-width:8.64"/><line x1="390.8" x2="3859.02" y1="1714.24" y2="1714.24" style="stroke:#eaf2f3;stroke-width:8.64"/><line x1="390.8" x2="3859.02" y1="939.17" y2="939.17" style="stroke:#eaf2f3;stroke-width:8.64"/><line x1="390.8" x2="3859.02" y1="164.22" y2="164.22" style="stroke:#eaf2f3;stroke-width:8.64"/><rect width="85.76" height="2269.27" x="497.1" y="219.91" style="fill:#cac27e"/><rect width="77.12" height="2260.63" x="501.42" y="224.23" style="fill:none;stroke:#d7d29e;stroke-width:8.64"/><rect width="85.88" height="464.32" x="582.86" y="2024.86" style="fill:#cac27e"/><rect width="77.24" height="455.68" x="587.18" y="2029.18" style="fill:none;stroke:#d7d29e;stroke-width:8.64"/><rect width="85.76" height="337.48" x="668.75" y="2151.71" style="fill:#cac27e"/><rect width="77.12" height="328.84" x="673.06" y="2156.03" style="fill:none;stroke:#d7d29e;stroke-width:8.64"/><rect width="85.88" height="233.15" x="754.5" y="2256.03" style="fill:#cac27e"/><rect width="77.24" height="224.51" x="758.82" y="2260.35" style="fill:none;stroke:#d7d29e;stroke-width:8.64"/><rect width="85.76" height="127.84" x="840.39" y="2361.35" style="fill:#cac27e"/><rect width="77.12" height="119.2" x="844.71" y="2365.67" style="fill:none;stroke:#d7d29e;stroke-width:8.64"/><rect width="85.88" height="86.88" x="926.14" y="2402.31" style="fill:#cac27e"/><rect width="77.24" height="78.24" x="930.46" y="2406.63" style="fill:none;stroke:#d7d29e;stroke-width:8.64"/><rect width="85.76" height="57.3" x="1012.03" y="2431.89" style="fill:#cac27e"/><rect width="77.12" height="48.66" x="1016.35" y="2436.21" style="fill:none;stroke:#d7d29e;stroke-width:8.64"/><rect width="85.88" height="32.67" x="1097.79" y="2456.51" style="fill:#cac27e"/><rect width="77.24" height="24.03" x="1102.11" y="2460.83" style="fill:none;stroke:#d7d29e;stroke-width:8.64"/><rect width="85.76" height="21.41" x="1183.67" y="2467.78" style="fill:#cac27e"/><rect width="77.12" height="12.77" x="1187.99" y="2472.1" style="fill:none;stroke:#d7d29e;stroke-width:8.64"/><rect width="85.88" height="17.33" x="1269.43" y="2471.86" style="fill:#cac27e"/><rect width="77.24" height="8.69" x="1273.75" y="2476.18" style="fill:none;stroke:#d7d29e;stroke-width:8.64"/><rect width="85.76" height="12.25" x="1355.31" y="2476.93" style="fill:#cac27e"/><rect width="77.12" height="3.61" x="1359.63" y="2481.25" style="fill:none;stroke:#d7d29e;stroke-width:8.64"/><rect width="85.88" height="12.25" x="1441.07" y="2476.93" style="fill:#cac27e"/><rect width="77.24" height="3.61" x="1445.39" y="2481.25" style="fill:none;stroke:#d7d29e;stroke-width:8.64"/><rect width="85.76" height="8.17" x="1526.95" y="2481.02" style="fill:#cac27e"/><rect width="77.12" height=".47" x="1531.27" y="2484.87" style="fill:none;stroke:#d7d29e;stroke-width:8.64"/><rect width="85.88" height="5.07" x="1612.71" y="2484.11" style="fill:#cac27e"/><rect width="77.24" height="3.57" x="1617.03" y="2484.87" style="fill:none;stroke:#d7d29e;stroke-width:8.64"/><rect width="85.88" height="9.16" x="1698.59" y="2480.03" style="fill:#cac27e"/><rect width="77.24" height=".52" x="1702.91" y="2484.35" style="fill:none;stroke:#d7d29e;stroke-width:8.64"/><rect width="85.76" height="5.07" x="1784.47" y="2484.11" style="fill:#cac27e"/><rect width="77.12" height="3.57" x="1788.79" y="2484.87" style="fill:none;stroke:#d7d29e;stroke-width:8.64"/><rect width="85.88" height="1.98" x="1870.23" y="2487.21" style="fill:#cac27e"/><rect width="77.24" height="6.66" x="1874.55" y="2484.87" style="fill:none;stroke:#d7d29e;stroke-width:8.64"/><rect width="85.76" height="3.09" x="1956.12" y="2486.09" style="fill:#cac27e"/><rect width="77.12" height="5.55" x="1960.44" y="2484.87" style="fill:none;stroke:#d7d29e;stroke-width:8.64"/><rect width="85.88" height="1.98" x="2041.88" y="2487.21" style="fill:#cac27e"/><rect width="77.24" height="6.66" x="2046.19" y="2484.87" style="fill:none;stroke:#d7d29e;stroke-width:8.64"/><rect width="85.76" height="5.07" x="2127.76" y="2484.11" style="fill:#cac27e"/><rect width="77.12" height="3.57" x="2132.08" y="2484.87" style="fill:none;stroke:#d7d29e;stroke-width:8.64"/><rect width="85.88" height=".99" x="2213.52" y="2488.2" style="fill:#cac27e"/><rect width="77.24" height="7.65" x="2217.84" y="2484.87" style="fill:none;stroke:#d7d29e;stroke-width:8.64"/><rect width="85.76" height="1.98" x="2299.4" y="2487.21" style="fill:#cac27e"/><rect width="77.12" height="6.66" x="2303.72" y="2484.87" style="fill:none;stroke:#d7d29e;stroke-width:8.64"/><rect width="85.88" height=".99" x="2385.16" y="2488.2" style="fill:#cac27e"/><rect width="77.24" height="7.65" x="2389.48" y="2484.87" style="fill:none;stroke:#d7d29e;stroke-width:8.64"/><rect width="85.76" height="1.98" x="2471.04" y="2487.21" style="fill:#cac27e"/><rect width="77.12" height="6.66" x="2475.36" y="2484.87" style="fill:none;stroke:#d7d29e;stroke-width:8.64"/><rect width="85.88" height="1.98" x="2556.8" y="2487.21" style="fill:#cac27e"/><rect width="77.24" height="6.66" x="2561.12" y="2484.87" style="fill:none;stroke:#d7d29e;stroke-width:8.64"/><rect width="85.76" height=".99" x="2642.68" y="2488.2" style="fill:#cac27e"/><rect width="77.12" height="7.65" x="2647" y="2484.87" style="fill:none;stroke:#d7d29e;stroke-width:8.64"/><rect width="85.76" height=".99" x="2814.32" y="2488.2" style="fill:#cac27e"/><rect width="77.12" height="7.65" x="2818.64" y="2484.87" style="fill:none;stroke:#d7d29e;stroke-width:8.64"/><rect width="85.76" height=".99" x="3415.13" y="2488.2" style="fill:#cac27e"/><rect width="77.12" height="7.65" x="3419.45" y="2484.87" style="fill:none;stroke:#d7d29e;stroke-width:8.64"/><line x1="390.8" x2="390.8" y1="2489.19" y2="100.86" style="stroke:#000;stroke-width:5.76"/><line x1="390.8" x2="350.83" y1="2489.19" y2="2489.19" style="stroke:#000;stroke-width:5.76"/><text x="300.72" y="2489.19" text-anchor="middle" transform="rotate(-90 300.72,2489.19)" style="font-family:'Helvetica';font-size:99.99px;fill:#000">0</text><line x1="390.8" x2="350.83" y1="1714.24" y2="1714.24" style="stroke:#000;stroke-width:5.76"/><text x="300.72" y="1714.24" text-anchor="middle" transform="rotate(-90 300.72,1714.24)" style="font-family:'Helvetica';font-size:99.99px;fill:#000">1</text><line x1="390.8" x2="350.83" y1="939.17" y2="939.17" style="stroke:#000;stroke-width:5.76"/><text x="300.72" y="939.17" text-anchor="middle" transform="rotate(-90 300.72,939.17)" style="font-family:'Helvetica';font-size:99.99px;fill:#000">2</text><line x1="390.8" x2="350.83" y1="164.22" y2="164.22" style="stroke:#000;stroke-width:5.76"/><text x="300.72" y="164.22" text-anchor="middle" transform="rotate(-90 300.72,164.22)" style="font-family:'Helvetica';font-size:99.99px;fill:#000">3</text><text x="190.71" y="1294.96" text-anchor="middle" transform="rotate(-90 190.71,1294.96)" style="font-family:'Helvetica';font-size:99.99px;fill:#000">Density</text><line x1="390.8" x2="3859.02" y1="2489.19" y2="2489.19" style="stroke:#000;stroke-width:5.76"/><line x1="497.1" x2="497.1" y1="2489.19" y2="2529.16" style="stroke:#000;stroke-width:5.76"/><text x="497.1" y="2619.14" text-anchor="middle" style="font-family:'Helvetica';font-size:99.99px;fill:#000">0</text><line x1="1321.77" x2="1321.77" y1="2489.19" y2="2529.16" style="stroke:#000;stroke-width:5.76"/><text x="1321.77" y="2619.14" text-anchor="middle" style="font-family:'Helvetica';font-size:99.99px;fill:#000">2</text><line x1="2146.44" x2="2146.44" y1="2489.19" y2="2529.16" style="stroke:#000;stroke-width:5.76"/><text x="2146.44" y="2619.14" text-anchor="middle" style="font-family:'Helvetica';font-size:99.99px;fill:#000">4</text><line x1="2971.11" x2="2971.11" y1="2489.19" y2="2529.16" style="stroke:#000;stroke-width:5.76"/><text x="2971.11" y="2619.14" text-anchor="middle" style="font-family:'Helvetica';font-size:99.99px;fill:#000">6</text><line x1="3795.66" x2="3795.66" y1="2489.19" y2="2529.16" style="stroke:#000;stroke-width:5.76"/><text x="3795.66" y="2619.14" text-anchor="middle" style="font-family:'Helvetica';font-size:99.99px;fill:#000">8</text><text x="2124.91" y="2729.16" text-anchor="middle" style="font-family:'Helvetica';font-size:99.99px;fill:#000">new_tests_per_thousand</text></svg>