<svg xmlns="http://www.w3.org/2000/svg" xmlns:xlink="http://www.w3.org/1999/xlink" width="720" height="507" version="1.1" viewBox="0 0 6571 4631"><desc>Stata Graph - Graph</desc><rect width="6571" height="4631" x="0" y="0" style="fill:#fff;stroke:none"/><rect width="6570.79" height="4631" x="0" y="0" style="fill:#fff"/><rect width="6565.03" height="4625.24" x="2.88" y="2.88" style="fill:none;stroke:#fff;stroke-width:5.76"/><rect width="6490.71" height="4550.92" x="40.04" y="40.04" style="fill:#fff"/><rect width="6484.95" height="4545.16" x="42.92" y="42.92" style="fill:none;stroke:#fff;stroke-width:5.76"/><rect width="6490.71" height="4441.06" x="40.04" y="40.04" style="fill:#fff"/><rect width="6484.95" height="4435.3" x="42.92" y="42.92" style="fill:none;stroke:#fff;stroke-width:5.76"/><rect width="6410.63" height="4360.98" x="80.08" y="80.08" style="fill:#fff"/><rect width="6404.87" height="4355.22" x="82.96" y="82.96" style="fill:none;stroke:#fff;stroke-width:5.76"/><text x="100" y="580.26" style="font-family:'Helvetica';font-size:110.06px;fill:#000">Morton</text><text x="100" y="767.73" style="font-family:'Helvetica';font-size:110.06px;fill:#000">Rasmussen</text><text x="100" y="955.2" style="font-family:'Helvetica';font-size:110.06px;fill:#000">Smith</text><text x="100" y="1142.68" style="font-family:'Helvetica';font-size:110.06px;fill:#000">Abraham</text><text x="100" y="1329.95" style="font-family:'Helvetica';font-size:110.06px;fill:#000">Feldstedt</text><text x="100" y="1517.42" style="font-family:'Helvetica';font-size:110.06px;fill:#000">Schechter</text><text x="100" y="1704.9" style="font-family:'Helvetica';font-size:110.06px;fill:#000">Ceremuzynski</text><text x="100" y="1892.16" style="font-family:'Helvetica';font-size:110.06px;fill:#000">Bertschat</text><text x="100" y="2079.64" style="font-family:'Helvetica';font-size:110.06px;fill:#000">Singh</text><text x="100" y="2267.11" style="font-family:'Helvetica';font-size:110.06px;fill:#000">Pereira</text><text x="100" y="2454.59" style="font-family:'Helvetica';font-size:110.06px;fill:#000">Schechter 1</text><text x="100" y="2641.85" style="font-family:'Helvetica';font-size:110.06px;fill:#000">Golf</text><text x="100" y="2829.33" style="font-family:'Helvetica';font-size:110.06px;fill:#000">Thogersen</text><text x="100" y="3016.8" style="font-family:'Helvetica';font-size:110.06px;fill:#000">LIMIT-2</text><text x="100" y="3204.07" style="font-family:'Helvetica';font-size:110.06px;fill:#000">Schechter 2</text><text x="100" y="3391.55" style="font-family:'Helvetica';font-size:110.06px;fill:#000">ISIS-4</text><text x="100" y="3618.44" style="font-family:'Helvetica';font-weight:700;font-size:110.06px;fill:#000">Overall</text><text x="100" y="3805.92" style="fill:#000"><tspan style="font-family:'Helvetica';font-size:110.06px">Heterogeneity: I</tspan> <tspan dy="-57.65" style="font-family:'Helvetica';font-size:64.17px">2</tspan> <tspan dy="57.65" style="font-family:'Helvetica';font-size:110.06px"> = 66.79%, H</tspan> <tspan dy="-57.65" style="font-family:'Helvetica';font-size:64.17px">2</tspan> <tspan dy="57.65" style="font-family:'Helvetica';font-size:110.06px"> = 3.01</tspan></text><text x="100" y="3993.19" style="fill:#000"><tspan style="font-family:'Helvetica';font-size:110.06px">Test of θ</tspan> <tspan dy="15.72" style="font-family:'Helvetica';font-size:64.17px">i</tspan> <tspan dy="-15.72" style="font-family:'Helvetica';font-size:110.06px"> = θ</tspan> <tspan dy="15.72" style="font-family:'Helvetica';font-size:64.17px">j</tspan> <tspan dy="-15.72" style="font-family:'Helvetica';font-size:110.06px">: Q(15) = 45.17, p = 0.00</tspan></text><text x="100" y="4180.66" style="font-family:'Helvetica';font-size:110.06px;fill:#000">Test of θ = 0: z = 0.20, p = 0.84</text><text x="100" y="326.84" style="font-family:'Helvetica';font-size:110.06px;fill:#000">Study</text><text x="1174.36" y="580.26" text-anchor="end" style="font-family:'Helvetica';font-size:110.06px;fill:#000">1</text><text x="1174.36" y="767.73" text-anchor="end" style="font-family:'Helvetica';font-size:110.06px;fill:#000">9</text><text x="1174.36" y="955.2" text-anchor="end" style="font-family:'Helvetica';font-size:110.06px;fill:#000">2</text><text x="1174.36" y="1142.68" text-anchor="end" style="font-family:'Helvetica';font-size:110.06px;fill:#000">1</text><text x="1174.36" y="1329.95" text-anchor="end" style="font-family:'Helvetica';font-size:110.06px;fill:#000">10</text><text x="1174.36" y="1517.42" text-anchor="end" style="font-family:'Helvetica';font-size:110.06px;fill:#000">1</text><text x="1174.36" y="1704.9" text-anchor="end" style="font-family:'Helvetica';font-size:110.06px;fill:#000">1</text><text x="1174.36" y="1892.16" text-anchor="end" style="font-family:'Helvetica';font-size:110.06px;fill:#000">0</text><text x="1174.36" y="2079.64" text-anchor="end" style="font-family:'Helvetica';font-size:110.06px;fill:#000">6</text><text x="1174.36" y="2267.11" text-anchor="end" style="font-family:'Helvetica';font-size:110.06px;fill:#000">1</text><text x="1174.36" y="2454.59" text-anchor="end" style="font-family:'Helvetica';font-size:110.06px;fill:#000">2</text><text x="1174.36" y="2641.85" text-anchor="end" style="font-family:'Helvetica';font-size:110.06px;fill:#000">5</text><text x="1174.36" y="2829.33" text-anchor="end" style="font-family:'Helvetica';font-size:110.06px;fill:#000">4</text><text x="1174.36" y="3016.8" text-anchor="end" style="font-family:'Helvetica';font-size:110.06px;fill:#000">90</text><text x="1174.36" y="3204.07" text-anchor="end" style="font-family:'Helvetica';font-size:110.06px;fill:#000">4</text><text x="1174.36" y="3391.55" text-anchor="end" style="font-family:'Helvetica';font-size:110.06px;fill:#000">2,216</text><text x="1053" y="326.84" text-anchor="middle" style="font-family:'Helvetica';font-size:110.06px;fill:#000">Yes</text><text x="1265.53" y="176.94" text-anchor="middle" style="font-family:'Helvetica';font-size:110.06px;fill:#000">Treatment</text><text x="1599.83" y="580.26" text-anchor="end" style="font-family:'Helvetica';font-size:110.06px;fill:#000">39</text><text x="1599.83" y="767.73" text-anchor="end" style="font-family:'Helvetica';font-size:110.06px;fill:#000">126</text><text x="1599.83" y="955.2" text-anchor="end" style="font-family:'Helvetica';font-size:110.06px;fill:#000">198</text><text x="1599.83" y="1142.68" text-anchor="end" style="font-family:'Helvetica';font-size:110.06px;fill:#000">47</text><text x="1599.83" y="1329.95" text-anchor="end" style="font-family:'Helvetica';font-size:110.06px;fill:#000">140</text><text x="1599.83" y="1517.42" text-anchor="end" style="font-family:'Helvetica';font-size:110.06px;fill:#000">58</text><text x="1599.83" y="1704.9" text-anchor="end" style="font-family:'Helvetica';font-size:110.06px;fill:#000">24</text><text x="1599.83" y="1892.16" text-anchor="end" style="font-family:'Helvetica';font-size:110.06px;fill:#000">22</text><text x="1599.83" y="2079.64" text-anchor="end" style="font-family:'Helvetica';font-size:110.06px;fill:#000">70</text><text x="1599.83" y="2267.11" text-anchor="end" style="font-family:'Helvetica';font-size:110.06px;fill:#000">26</text><text x="1599.83" y="2454.59" text-anchor="end" style="font-family:'Helvetica';font-size:110.06px;fill:#000">87</text><text x="1599.83" y="2641.85" text-anchor="end" style="font-family:'Helvetica';font-size:110.06px;fill:#000">18</text><text x="1599.83" y="2829.33" text-anchor="end" style="font-family:'Helvetica';font-size:110.06px;fill:#000">126</text><text x="1599.83" y="3016.8" text-anchor="end" style="font-family:'Helvetica';font-size:110.06px;fill:#000">1,069</text><text x="1599.83" y="3204.07" text-anchor="end" style="font-family:'Helvetica';font-size:110.06px;fill:#000">103</text><text x="1599.83" y="3391.55" text-anchor="end" style="font-family:'Helvetica';font-size:110.06px;fill:#000">26,795</text><text x="1447.06" y="326.84" text-anchor="middle" style="font-family:'Helvetica';font-size:110.06px;fill:#000">No</text><text x="1962.68" y="580.26" text-anchor="end" style="font-family:'Helvetica';font-size:110.06px;fill:#000">2</text><text x="1962.68" y="767.73" text-anchor="end" style="font-family:'Helvetica';font-size:110.06px;fill:#000">23</text><text x="1962.68" y="955.2" text-anchor="end" style="font-family:'Helvetica';font-size:110.06px;fill:#000">7</text><text x="1962.68" y="1142.68" text-anchor="end" style="font-family:'Helvetica';font-size:110.06px;fill:#000">1</text><text x="1962.68" y="1329.95" text-anchor="end" style="font-family:'Helvetica';font-size:110.06px;fill:#000">8</text><text x="1962.68" y="1517.42" text-anchor="end" style="font-family:'Helvetica';font-size:110.06px;fill:#000">9</text><text x="1962.68" y="1704.9" text-anchor="end" style="font-family:'Helvetica';font-size:110.06px;fill:#000">3</text><text x="1962.68" y="1892.16" text-anchor="end" style="font-family:'Helvetica';font-size:110.06px;fill:#000">1</text><text x="1962.68" y="2079.64" text-anchor="end" style="font-family:'Helvetica';font-size:110.06px;fill:#000">11</text><text x="1962.68" y="2267.11" text-anchor="end" style="font-family:'Helvetica';font-size:110.06px;fill:#000">7</text><text x="1962.68" y="2454.59" text-anchor="end" style="font-family:'Helvetica';font-size:110.06px;fill:#000">12</text><text x="1962.68" y="2641.85" text-anchor="end" style="font-family:'Helvetica';font-size:110.06px;fill:#000">13</text><text x="1962.68" y="2829.33" text-anchor="end" style="font-family:'Helvetica';font-size:110.06px;fill:#000">8</text><text x="1962.68" y="3016.8" text-anchor="end" style="font-family:'Helvetica';font-size:110.06px;fill:#000">118</text><text x="1962.68" y="3204.07" text-anchor="end" style="font-family:'Helvetica';font-size:110.06px;fill:#000">17</text><text x="1962.68" y="3391.55" text-anchor="end" style="font-family:'Helvetica';font-size:110.06px;fill:#000">2,103</text><text x="1841.11" y="326.84" text-anchor="middle" style="font-family:'Helvetica';font-size:110.06px;fill:#000">Yes</text><text x="2053.85" y="176.94" text-anchor="middle" style="font-family:'Helvetica';font-size:110.06px;fill:#000">Control</text><text x="2387.94" y="580.26" text-anchor="end" style="font-family:'Helvetica';font-size:110.06px;fill:#000">34</text><text x="2387.94" y="767.73" text-anchor="end" style="font-family:'Helvetica';font-size:110.06px;fill:#000">112</text><text x="2387.94" y="955.2" text-anchor="end" style="font-family:'Helvetica';font-size:110.06px;fill:#000">193</text><text x="2387.94" y="1142.68" text-anchor="end" style="font-family:'Helvetica';font-size:110.06px;fill:#000">45</text><text x="2387.94" y="1329.95" text-anchor="end" style="font-family:'Helvetica';font-size:110.06px;fill:#000">140</text><text x="2387.94" y="1517.42" text-anchor="end" style="font-family:'Helvetica';font-size:110.06px;fill:#000">47</text><text x="2387.94" y="1704.9" text-anchor="end" style="font-family:'Helvetica';font-size:110.06px;fill:#000">20</text><text x="2387.94" y="1892.16" text-anchor="end" style="font-family:'Helvetica';font-size:110.06px;fill:#000">20</text><text x="2387.94" y="2079.64" text-anchor="end" style="font-family:'Helvetica';font-size:110.06px;fill:#000">64</text><text x="2387.94" y="2267.11" text-anchor="end" style="font-family:'Helvetica';font-size:110.06px;fill:#000">20</text><text x="2387.94" y="2454.59" text-anchor="end" style="font-family:'Helvetica';font-size:110.06px;fill:#000">68</text><text x="2387.94" y="2641.85" text-anchor="end" style="font-family:'Helvetica';font-size:110.06px;fill:#000">20</text><text x="2387.94" y="2829.33" text-anchor="end" style="font-family:'Helvetica';font-size:110.06px;fill:#000">114</text><text x="2387.94" y="3016.8" text-anchor="end" style="font-family:'Helvetica';font-size:110.06px;fill:#000">1,039</text><text x="2387.94" y="3204.07" text-anchor="end" style="font-family:'Helvetica';font-size:110.06px;fill:#000">91</text><text x="2387.94" y="3391.55" text-anchor="end" style="font-family:'Helvetica';font-size:110.06px;fill:#000">26,936</text><text x="2235.37" y="326.84" text-anchor="middle" style="font-family:'Helvetica';font-size:110.06px;fill:#000">No</text><line x1="4279.98" x2="3774.01" y1="541.68" y2="541.68" style="stroke:#1a476f;stroke-width:8.64"/><line x1="4250" x2="4092.71" y1="729.16" y2="729.16" style="stroke:#1a476f;stroke-width:8.64"/><line x1="4182.44" x2="3847.94" y1="916.63" y2="916.63" style="stroke:#1a476f;stroke-width:8.64"/><line x1="4442.2" x2="3853.69" y1="1104.11" y2="1104.11" style="stroke:#1a476f;stroke-width:8.64"/><line x1="4496.41" x2="4302.98" y1="1291.37" y2="1291.37" style="stroke:#1a476f;stroke-width:8.64"/><line x1="3968.68" x2="3532.32" y1="1478.85" y2="1478.85" style="stroke:#1a476f;stroke-width:8.64"/><line x1="4197.64" x2="3727.4" y1="1666.32" y2="1666.32" style="stroke:#1a476f;stroke-width:8.64"/><line x1="4206.06" x2="3530.68" y1="1853.59" y2="1853.59" style="stroke:#1a476f;stroke-width:8.64"/><line x1="4318.38" x2="4116.32" y1="2041.07" y2="2041.07" style="stroke:#1a476f;stroke-width:8.64"/><line x1="4033.77" x2="3598.85" y1="2228.54" y2="2228.54" style="stroke:#1a476f;stroke-width:8.64"/><line x1="4044.04" x2="3729.25" y1="2416.01" y2="2416.01" style="stroke:#1a476f;stroke-width:8.64"/><line x1="4323.72" x2="4134.19" y1="2603.28" y2="2603.28" style="stroke:#1a476f;stroke-width:8.64"/><line x1="4289.01" x2="4036.85" y1="2790.76" y2="2790.76" style="stroke:#1a476f;stroke-width:8.64"/><line x1="4392.92" x2="4336.65" y1="2978.23" y2="2978.23" style="stroke:#1a476f;stroke-width:8.64"/><line x1="4142.81" x2="3916.32" y1="3165.5" y2="3165.5" style="stroke:#1a476f;stroke-width:8.64"/><line x1="4462.74" x2="4450.42" y1="3352.97" y2="3352.97" style="stroke:#1a476f;stroke-width:8.64"/><line x1="3774.01" x2="3774.01" y1="541.68" y2="541.68" stroke-linecap="round" style="stroke:#1a476f;stroke-width:8.64"/><line x1="3774.01" x2="3774.01" y1="541.68" y2="541.68" stroke-linecap="round" style="stroke:#1a476f;stroke-width:8.64"/><line x1="4092.71" x2="4092.71" y1="729.16" y2="729.16" stroke-linecap="round" style="stroke:#1a476f;stroke-width:8.64"/><line x1="4092.71" x2="4092.71" y1="729.16" y2="729.16" stroke-linecap="round" style="stroke:#1a476f;stroke-width:8.64"/><line x1="3847.94" x2="3847.94" y1="916.63" y2="916.63" stroke-linecap="round" style="stroke:#1a476f;stroke-width:8.64"/><line x1="3847.94" x2="3847.94" y1="916.63" y2="916.63" stroke-linecap="round" style="stroke:#1a476f;stroke-width:8.64"/><line x1="3853.69" x2="3853.69" y1="1104.11" y2="1104.11" stroke-linecap="round" style="stroke:#1a476f;stroke-width:8.64"/><line x1="3853.69" x2="3853.69" y1="1104.11" y2="1104.11" stroke-linecap="round" style="stroke:#1a476f;stroke-width:8.64"/><line x1="4302.98" x2="4302.98" y1="1291.37" y2="1291.37" stroke-linecap="round" style="stroke:#1a476f;stroke-width:8.64"/><line x1="4302.98" x2="4302.98" y1="1291.37" y2="1291.37" stroke-linecap="round" style="stroke:#1a476f;stroke-width:8.64"/><line x1="3532.32" x2="3532.32" y1="1478.85" y2="1478.85" stroke-linecap="round" style="stroke:#1a476f;stroke-width:8.64"/><line x1="3532.32" x2="3532.32" y1="1478.85" y2="1478.85" stroke-linecap="round" style="stroke:#1a476f;stroke-width:8.64"/><line x1="3727.4" x2="3727.4" y1="1666.32" y2="1666.32" stroke-linecap="round" style="stroke:#1a476f;stroke-width:8.64"/><line x1="3727.4" x2="3727.4" y1="1666.32" y2="1666.32" stroke-linecap="round" style="stroke:#1a476f;stroke-width:8.64"/><line x1="3530.68" x2="3530.68" y1="1853.59" y2="1853.59" stroke-linecap="round" style="stroke:#1a476f;stroke-width:8.64"/><line x1="3530.68" x2="3530.68" y1="1853.59" y2="1853.59" stroke-linecap="round" style="stroke:#1a476f;stroke-width:8.64"/><line x1="4116.32" x2="4116.32" y1="2041.07" y2="2041.07" stroke-linecap="round" style="stroke:#1a476f;stroke-width:8.64"/><line x1="4116.32" x2="4116.32" y1="2041.07" y2="2041.07" stroke-linecap="round" style="stroke:#1a476f;stroke-width:8.64"/><line x1="3598.85" x2="3598.85" y1="2228.54" y2="2228.54" stroke-linecap="round" style="stroke:#1a476f;stroke-width:8.64"/><line x1="3598.85" x2="3598.85" y1="2228.54" y2="2228.54" stroke-linecap="round" style="stroke:#1a476f;stroke-width:8.64"/><line x1="3729.25" x2="3729.25" y1="2416.01" y2="2416.01" stroke-linecap="round" style="stroke:#1a476f;stroke-width:8.64"/><line x1="3729.25" x2="3729.25" y1="2416.01" y2="2416.01" stroke-linecap="round" style="stroke:#1a476f;stroke-width:8.64"/><line x1="4134.19" x2="4134.19" y1="2603.28" y2="2603.28" stroke-linecap="round" style="stroke:#1a476f;stroke-width:8.64"/><line x1="4134.19" x2="4134.19" y1="2603.28" y2="2603.28" stroke-linecap="round" style="stroke:#1a476f;stroke-width:8.64"/><line x1="4036.85" x2="4036.85" y1="2790.76" y2="2790.76" stroke-linecap="round" style="stroke:#1a476f;stroke-width:8.64"/><line x1="4036.85" x2="4036.85" y1="2790.76" y2="2790.76" stroke-linecap="round" style="stroke:#1a476f;stroke-width:8.64"/><line x1="4336.65" x2="4336.65" y1="2978.23" y2="2978.23" stroke-linecap="round" style="stroke:#1a476f;stroke-width:8.64"/><line x1="4336.65" x2="4336.65" y1="2978.23" y2="2978.23" stroke-linecap="round" style="stroke:#1a476f;stroke-width:8.64"/><line x1="3916.32" x2="3916.32" y1="3165.5" y2="3165.5" stroke-linecap="round" style="stroke:#1a476f;stroke-width:8.64"/><line x1="3916.32" x2="3916.32" y1="3165.5" y2="3165.5" stroke-linecap="round" style="stroke:#1a476f;stroke-width:8.64"/><line x1="4450.42" x2="4450.42" y1="3352.97" y2="3352.97" stroke-linecap="round" style="stroke:#1a476f;stroke-width:8.64"/><line x1="4450.42" x2="4450.42" y1="3352.97" y2="3352.97" stroke-linecap="round" style="stroke:#1a476f;stroke-width:8.64"/><line x1="4279.98" x2="4785.95" y1="541.68" y2="541.68" style="stroke:#1a476f;stroke-width:8.64"/><line x1="4250" x2="4407.29" y1="729.16" y2="729.16" style="stroke:#1a476f;stroke-width:8.64"/><line x1="4182.44" x2="4517.15" y1="916.63" y2="916.63" style="stroke:#1a476f;stroke-width:8.64"/><line x1="4442.2" x2="5030.72" y1="1104.11" y2="1104.11" style="stroke:#1a476f;stroke-width:8.64"/><line x1="4496.41" x2="4689.85" y1="1291.37" y2="1291.37" style="stroke:#1a476f;stroke-width:8.64"/><line x1="3968.68" x2="4405.03" y1="1478.85" y2="1478.85" style="stroke:#1a476f;stroke-width:8.64"/><line x1="4197.64" x2="4667.87" y1="1666.32" y2="1666.32" style="stroke:#1a476f;stroke-width:8.64"/><line x1="4206.06" x2="4881.43" y1="1853.59" y2="1853.59" style="stroke:#1a476f;stroke-width:8.64"/><line x1="4318.38" x2="4520.64" y1="2041.07" y2="2041.07" style="stroke:#1a476f;stroke-width:8.64"/><line x1="4033.77" x2="4468.69" y1="2228.54" y2="2228.54" style="stroke:#1a476f;stroke-width:8.64"/><line x1="4044.04" x2="4358.63" y1="2416.01" y2="2416.01" style="stroke:#1a476f;stroke-width:8.64"/><line x1="4323.72" x2="4513.25" y1="2603.28" y2="2603.28" style="stroke:#1a476f;stroke-width:8.64"/><line x1="4289.01" x2="4540.97" y1="2790.76" y2="2790.76" style="stroke:#1a476f;stroke-width:8.64"/><line x1="4392.92" x2="4448.98" y1="2978.23" y2="2978.23" style="stroke:#1a476f;stroke-width:8.64"/><line x1="4142.81" x2="4369.51" y1="3165.5" y2="3165.5" style="stroke:#1a476f;stroke-width:8.64"/><line x1="4462.74" x2="4475.06" y1="3352.97" y2="3352.97" style="stroke:#1a476f;stroke-width:8.64"/><line x1="4785.95" x2="4785.95" y1="541.68" y2="541.68" stroke-linecap="round" style="stroke:#1a476f;stroke-width:8.64"/><line x1="4785.95" x2="4785.95" y1="541.68" y2="541.68" stroke-linecap="round" style="stroke:#1a476f;stroke-width:8.64"/><line x1="4407.29" x2="4407.29" y1="729.16" y2="729.16" stroke-linecap="round" style="stroke:#1a476f;stroke-width:8.64"/><line x1="4407.29" x2="4407.29" y1="729.16" y2="729.16" stroke-linecap="round" style="stroke:#1a476f;stroke-width:8.64"/><line x1="4517.15" x2="4517.15" y1="916.63" y2="916.63" stroke-linecap="round" style="stroke:#1a476f;stroke-width:8.64"/><line x1="4517.15" x2="4517.15" y1="916.63" y2="916.63" stroke-linecap="round" style="stroke:#1a476f;stroke-width:8.64"/><line x1="5030.72" x2="5030.72" y1="1104.11" y2="1104.11" stroke-linecap="round" style="stroke:#1a476f;stroke-width:8.64"/><line x1="5030.72" x2="5030.72" y1="1104.11" y2="1104.11" stroke-linecap="round" style="stroke:#1a476f;stroke-width:8.64"/><line x1="4689.85" x2="4689.85" y1="1291.37" y2="1291.37" stroke-linecap="round" style="stroke:#1a476f;stroke-width:8.64"/><line x1="4689.85" x2="4689.85" y1="1291.37" y2="1291.37" stroke-linecap="round" style="stroke:#1a476f;stroke-width:8.64"/><line x1="4405.03" x2="4405.03" y1="1478.85" y2="1478.85" stroke-linecap="round" style="stroke:#1a476f;stroke-width:8.64"/><line x1="4405.03" x2="4405.03" y1="1478.85" y2="1478.85" stroke-linecap="round" style="stroke:#1a476f;stroke-width:8.64"/><line x1="4667.87" x2="4667.87" y1="1666.32" y2="1666.32" stroke-linecap="round" style="stroke:#1a476f;stroke-width:8.64"/><line x1="4667.87" x2="4667.87" y1="1666.32" y2="1666.32" stroke-linecap="round" style="stroke:#1a476f;stroke-width:8.64"/><line x1="4881.43" x2="4881.43" y1="1853.59" y2="1853.59" stroke-linecap="round" style="stroke:#1a476f;stroke-width:8.64"/><line x1="4881.43" x2="4881.43" y1="1853.59" y2="1853.59" stroke-linecap="round" style="stroke:#1a476f;stroke-width:8.64"/><line x1="4520.64" x2="4520.64" y1="2041.07" y2="2041.07" stroke-linecap="round" style="stroke:#1a476f;stroke-width:8.64"/><line x1="4520.64" x2="4520.64" y1="2041.07" y2="2041.07" stroke-linecap="round" style="stroke:#1a476f;stroke-width:8.64"/><line x1="4468.69" x2="4468.69" y1="2228.54" y2="2228.54" stroke-linecap="round" style="stroke:#1a476f;stroke-width:8.64"/><line x1="4468.69" x2="4468.69" y1="2228.54" y2="2228.54" stroke-linecap="round" style="stroke:#1a476f;stroke-width:8.64"/><line x1="4358.63" x2="4358.63" y1="2416.01" y2="2416.01" stroke-linecap="round" style="stroke:#1a476f;stroke-width:8.64"/><line x1="4358.63" x2="4358.63" y1="2416.01" y2="2416.01" stroke-linecap="round" style="stroke:#1a476f;stroke-width:8.64"/><line x1="4513.25" x2="4513.25" y1="2603.28" y2="2603.28" stroke-linecap="round" style="stroke:#1a476f;stroke-width:8.64"/><line x1="4513.25" x2="4513.25" y1="2603.28" y2="2603.28" stroke-linecap="round" style="stroke:#1a476f;stroke-width:8.64"/><line x1="4540.97" x2="4540.97" y1="2790.76" y2="2790.76" stroke-linecap="round" style="stroke:#1a476f;stroke-width:8.64"/><line x1="4540.97" x2="4540.97" y1="2790.76" y2="2790.76" stroke-linecap="round" style="stroke:#1a476f;stroke-width:8.64"/><line x1="4448.98" x2="4448.98" y1="2978.23" y2="2978.23" stroke-linecap="round" style="stroke:#1a476f;stroke-width:8.64"/><line x1="4448.98" x2="4448.98" y1="2978.23" y2="2978.23" stroke-linecap="round" style="stroke:#1a476f;stroke-width:8.64"/><line x1="4369.51" x2="4369.51" y1="3165.5" y2="3165.5" stroke-linecap="round" style="stroke:#1a476f;stroke-width:8.64"/><line x1="4369.51" x2="4369.51" y1="3165.5" y2="3165.5" stroke-linecap="round" style="stroke:#1a476f;stroke-width:8.64"/><line x1="4475.06" x2="4475.06" y1="3352.97" y2="3352.97" stroke-linecap="round" style="stroke:#1a476f;stroke-width:8.64"/><line x1="4475.06" x2="4475.06" y1="3352.97" y2="3352.97" stroke-linecap="round" style="stroke:#1a476f;stroke-width:8.64"/><rect width="11.93" height="11.93" x="4274.02" y="535.93" style="fill:#1a476f"/><rect width="3.29" height="3.29" x="4278.34" y="540.25" style="fill:none;stroke:#1a476f;stroke-width:8.64"/><rect width="20.14" height="20.14" x="4239.93" y="719.29" style="fill:#1a476f"/><rect width="11.5" height="11.5" x="4244.25" y="723.61" style="fill:none;stroke:#1a476f;stroke-width:8.64"/><rect width="14.8" height="14.8" x="4175.04" y="909.23" style="fill:#1a476f"/><rect width="6.16" height="6.16" x="4179.36" y="913.55" style="fill:none;stroke:#1a476f;stroke-width:8.64"/><rect width="11.1" height="11.1" x="4436.65" y="1098.55" style="fill:#1a476f"/><rect width="2.46" height="2.46" x="4440.97" y="1102.87" style="fill:none;stroke:#1a476f;stroke-width:8.64"/><rect width="15.62" height="15.62" x="4488.4" y="1283.77" style="fill:#1a476f"/><rect width="6.98" height="6.98" x="4492.72" y="1288.09" style="fill:none;stroke:#1a476f;stroke-width:8.64"/><rect width="16.03" height="16.03" x="3960.46" y="1471.04" style="fill:#1a476f"/><rect width="7.39" height="7.39" x="3964.78" y="1475.36" style="fill:none;stroke:#1a476f;stroke-width:8.64"/><rect width="12.75" height="12.75" x="4191.26" y="1659.95" style="fill:#1a476f"/><rect width="4.11" height="4.11" x="4195.58" y="1664.27" style="fill:none;stroke:#1a476f;stroke-width:8.64"/><rect width="11.51" height="11.51" x="4200.09" y="1848.04" style="fill:#1a476f"/><rect width="2.87" height="2.87" x="4204.41" y="1852.36" style="fill:none;stroke:#1a476f;stroke-width:8.64"/><rect width="16.44" height="16.44" x="4310.16" y="2033.05" style="fill:#1a476f"/><rect width="7.8" height="7.8" x="4314.48" y="2037.37" style="fill:none;stroke:#1a476f;stroke-width:8.64"/><rect width="14.8" height="14.8" x="4026.17" y="2221.14" style="fill:#1a476f"/><rect width="6.16" height="6.16" x="4030.49" y="2225.46" style="fill:none;stroke:#1a476f;stroke-width:8.64"/><rect width="17.26" height="17.26" x="4035.2" y="2407.38" style="fill:#1a476f"/><rect width="8.62" height="8.62" x="4039.52" y="2411.7" style="fill:none;stroke:#1a476f;stroke-width:8.64"/><rect width="16.44" height="16.44" x="4315.5" y="2595.27" style="fill:#1a476f"/><rect width="7.8" height="7.8" x="4319.82" y="2599.59" style="fill:none;stroke:#1a476f;stroke-width:8.64"/><rect width="15.62" height="15.62" x="4281" y="2783.15" style="fill:#1a476f"/><rect width="6.98" height="6.98" x="4285.32" y="2787.47" style="fill:none;stroke:#1a476f;stroke-width:8.64"/><rect width="34.92" height="34.92" x="4375.25" y="2960.77" style="fill:#1a476f"/><rect width="26.28" height="26.28" x="4379.57" y="2965.09" style="fill:none;stroke:#1a476f;stroke-width:8.64"/><rect width="18.5" height="18.5" x="4133.56" y="3156.46" style="fill:#1a476f"/><rect width="9.86" height="9.86" x="4137.88" y="3160.78" style="fill:none;stroke:#1a476f;stroke-width:8.64"/><rect width="118.7" height="118.7" x="4403.38" y="3293.83" style="fill:#1a476f"/><rect width="110.06" height="110.06" x="4407.7" y="3298.15" style="fill:none;stroke:#1a476f;stroke-width:8.64"/><defs><path id="path_mLPUEsGU" stroke-linejoin="round" d="M4462.74 3353.18 M4440.76 3579.87 L4452.47 3634.08 L4464.38 3579.87 L4452.47 3525.66 Z"/></defs><defs><clipPath id="clipPath_HaiKRzJu"><use xlink:href="#path_mLPUEsGU"/></clipPath></defs><use xlink:href="#path_mLPUEsGU" style="stroke:none;fill:#55752f"/><use style="fill:none;stroke:#55752f;stroke-width:17.28" clip-path="url(#clipPath_HaiKRzJu)" xlink:href="#path_mLPUEsGU"/><line x1="3530.68" x2="5030.72" y1="4241.06" y2="4241.06" style="stroke:#000;stroke-width:5.76"/><line x1="3592.9" x2="3592.9" y1="4241.06" y2="4281.1" style="stroke:#000;stroke-width:5.76"/><text x="3592.9" y="4377.96" text-anchor="middle" style="font-family:'Helvetica';font-size:110.06px;fill:#000">-4</text><line x1="4022.07" x2="4022.07" y1="4241.06" y2="4281.1" style="stroke:#000;stroke-width:5.76"/><text x="4022.07" y="4377.96" text-anchor="middle" style="font-family:'Helvetica';font-size:110.06px;fill:#000">-2</text><line x1="4451.44" x2="4451.44" y1="4241.06" y2="4281.1" style="stroke:#000;stroke-width:5.76"/><text x="4451.44" y="4377.96" text-anchor="middle" style="font-family:'Helvetica';font-size:110.06px;fill:#000">0</text><line x1="4880.61" x2="4880.61" y1="4241.06" y2="4281.1" style="stroke:#000;stroke-width:5.76"/><text x="4880.61" y="4377.96" text-anchor="middle" style="font-family:'Helvetica';font-size:110.06px;fill:#000">2</text><text x="5544.49" y="326.84" text-anchor="middle" style="font-family:'Helvetica';font-size:110.06px;fill:#000">with 95% CI</text><text x="5544.49" y="176.94" text-anchor="middle" style="font-family:'Helvetica';font-size:110.06px;fill:#000">Log Risk-Ratio</text><text x="5375.28" y="580.26" text-anchor="end" style="font-family:'Helvetica';font-size:110.06px;fill:#000">-0.80 [</text><text x="5375.28" y="767.73" text-anchor="end" style="font-family:'Helvetica';font-size:110.06px;fill:#000">-0.94 [</text><text x="5375.28" y="955.2" text-anchor="end" style="font-family:'Helvetica';font-size:110.06px;fill:#000">-1.25 [</text><text x="5375.28" y="1142.68" text-anchor="end" style="font-family:'Helvetica';font-size:110.06px;fill:#000">-0.04 [</text><text x="5375.28" y="1329.95" text-anchor="end" style="font-family:'Helvetica';font-size:110.06px;fill:#000">0.21 [</text><text x="5375.28" y="1517.42" text-anchor="end" style="font-family:'Helvetica';font-size:110.06px;fill:#000">-2.25 [</text><text x="5375.28" y="1704.9" text-anchor="end" style="font-family:'Helvetica';font-size:110.06px;fill:#000">-1.18 [</text><text x="5375.28" y="1892.16" text-anchor="end" style="font-family:'Helvetica';font-size:110.06px;fill:#000">-1.14 [</text><text x="5375.28" y="2079.64" text-anchor="end" style="font-family:'Helvetica';font-size:110.06px;fill:#000">-0.62 [</text><text x="5375.28" y="2267.11" text-anchor="end" style="font-family:'Helvetica';font-size:110.06px;fill:#000">-1.95 [</text><text x="5375.28" y="2454.59" text-anchor="end" style="font-family:'Helvetica';font-size:110.06px;fill:#000">-1.90 [</text><text x="5375.28" y="2641.85" text-anchor="end" style="font-family:'Helvetica';font-size:110.06px;fill:#000">-0.59 [</text><text x="5375.28" y="2829.33" text-anchor="end" style="font-family:'Helvetica';font-size:110.06px;fill:#000">-0.76 [</text><text x="5375.28" y="3016.8" text-anchor="end" style="font-family:'Helvetica';font-size:110.06px;fill:#000">-0.27 [</text><text x="5375.28" y="3204.07" text-anchor="end" style="font-family:'Helvetica';font-size:110.06px;fill:#000">-1.44 [</text><text x="5375.28" y="3391.55" text-anchor="end" style="font-family:'Helvetica';font-size:110.06px;fill:#000">0.05 [</text><text x="5375.28" y="3618.44" text-anchor="end" style="font-family:'Helvetica';font-size:110.06px;fill:#000">0.01 [</text><text x="5687.41" y="580.26" text-anchor="end" style="font-family:'Helvetica';font-size:110.06px;fill:#000">-3.16,</text><text x="5687.41" y="767.73" text-anchor="end" style="font-family:'Helvetica';font-size:110.06px;fill:#000">-1.67,</text><text x="5687.41" y="955.2" text-anchor="end" style="font-family:'Helvetica';font-size:110.06px;fill:#000">-2.81,</text><text x="5687.41" y="1142.68" text-anchor="end" style="font-family:'Helvetica';font-size:110.06px;fill:#000">-2.78,</text><text x="5687.41" y="1329.95" text-anchor="end" style="font-family:'Helvetica';font-size:110.06px;fill:#000">-0.69,</text><text x="5687.41" y="1517.42" text-anchor="end" style="font-family:'Helvetica';font-size:110.06px;fill:#000">-4.28,</text><text x="5687.41" y="1704.9" text-anchor="end" style="font-family:'Helvetica';font-size:110.06px;fill:#000">-3.37,</text><text x="5687.41" y="1892.16" text-anchor="end" style="font-family:'Helvetica';font-size:110.06px;fill:#000">-4.29,</text><text x="5687.41" y="2079.64" text-anchor="end" style="font-family:'Helvetica';font-size:110.06px;fill:#000">-1.56,</text><text x="5687.41" y="2267.11" text-anchor="end" style="font-family:'Helvetica';font-size:110.06px;fill:#000">-3.97,</text><text x="5687.41" y="2454.59" text-anchor="end" style="font-family:'Helvetica';font-size:110.06px;fill:#000">-3.36,</text><text x="5687.41" y="2641.85" text-anchor="end" style="font-family:'Helvetica';font-size:110.06px;fill:#000">-1.48,</text><text x="5687.41" y="2829.33" text-anchor="end" style="font-family:'Helvetica';font-size:110.06px;fill:#000">-1.93,</text><text x="5687.41" y="3016.8" text-anchor="end" style="font-family:'Helvetica';font-size:110.06px;fill:#000">-0.53,</text><text x="5687.41" y="3204.07" text-anchor="end" style="font-family:'Helvetica';font-size:110.06px;fill:#000">-2.49,</text><text x="5687.41" y="3391.55" text-anchor="end" style="font-family:'Helvetica';font-size:110.06px;fill:#000">-0.00,</text><text x="5687.41" y="3618.44" text-anchor="end" style="font-family:'Helvetica';font-size:110.06px;fill:#000">-0.05,</text><text x="6018.42" y="580.26" text-anchor="end" style="font-family:'Helvetica';font-size:110.06px;fill:#000">1.56]</text><text x="6018.42" y="767.73" text-anchor="end" style="font-family:'Helvetica';font-size:110.06px;fill:#000">-0.21]</text><text x="6018.42" y="955.2" text-anchor="end" style="font-family:'Helvetica';font-size:110.06px;fill:#000">0.31]</text><text x="6018.42" y="1142.68" text-anchor="end" style="font-family:'Helvetica';font-size:110.06px;fill:#000">2.70]</text><text x="6018.42" y="1329.95" text-anchor="end" style="font-family:'Helvetica';font-size:110.06px;fill:#000">1.11]</text><text x="6018.42" y="1517.42" text-anchor="end" style="font-family:'Helvetica';font-size:110.06px;fill:#000">-0.22]</text><text x="6018.42" y="1704.9" text-anchor="end" style="font-family:'Helvetica';font-size:110.06px;fill:#000">1.01]</text><text x="6018.42" y="1892.16" text-anchor="end" style="font-family:'Helvetica';font-size:110.06px;fill:#000">2.00]</text><text x="6018.42" y="2079.64" text-anchor="end" style="font-family:'Helvetica';font-size:110.06px;fill:#000">0.32]</text><text x="6018.42" y="2267.11" text-anchor="end" style="font-family:'Helvetica';font-size:110.06px;fill:#000">0.08]</text><text x="6018.42" y="2454.59" text-anchor="end" style="font-family:'Helvetica';font-size:110.06px;fill:#000">-0.43]</text><text x="6018.42" y="2641.85" text-anchor="end" style="font-family:'Helvetica';font-size:110.06px;fill:#000">0.29]</text><text x="6018.42" y="2829.33" text-anchor="end" style="font-family:'Helvetica';font-size:110.06px;fill:#000">0.42]</text><text x="6018.42" y="3016.8" text-anchor="end" style="font-family:'Helvetica';font-size:110.06px;fill:#000">-0.01]</text><text x="6018.42" y="3204.07" text-anchor="end" style="font-family:'Helvetica';font-size:110.06px;fill:#000">-0.38]</text><text x="6018.42" y="3391.55" text-anchor="end" style="font-family:'Helvetica';font-size:110.06px;fill:#000">0.11]</text><text x="6018.42" y="3618.44" text-anchor="end" style="font-family:'Helvetica';font-size:110.06px;fill:#000">0.06]</text><text x="6396.05" y="580.26" text-anchor="end" style="font-family:'Helvetica';font-size:110.06px;fill:#000">0.09</text><text x="6396.05" y="767.73" text-anchor="end" style="font-family:'Helvetica';font-size:110.06px;fill:#000">0.98</text><text x="6396.05" y="955.2" text-anchor="end" style="font-family:'Helvetica';font-size:110.06px;fill:#000">0.30</text><text x="6396.05" y="1142.68" text-anchor="end" style="font-family:'Helvetica';font-size:110.06px;fill:#000">0.04</text><text x="6396.05" y="1329.95" text-anchor="end" style="font-family:'Helvetica';font-size:110.06px;fill:#000">0.34</text><text x="6396.05" y="1517.42" text-anchor="end" style="font-family:'Helvetica';font-size:110.06px;fill:#000">0.39</text><text x="6396.05" y="1704.9" text-anchor="end" style="font-family:'Helvetica';font-size:110.06px;fill:#000">0.13</text><text x="6396.05" y="1892.16" text-anchor="end" style="font-family:'Helvetica';font-size:110.06px;fill:#000">0.07</text><text x="6396.05" y="2079.64" text-anchor="end" style="font-family:'Helvetica';font-size:110.06px;fill:#000">0.47</text><text x="6396.05" y="2267.11" text-anchor="end" style="font-family:'Helvetica';font-size:110.06px;fill:#000">0.30</text><text x="6396.05" y="2454.59" text-anchor="end" style="font-family:'Helvetica';font-size:110.06px;fill:#000">0.54</text><text x="6396.05" y="2641.85" text-anchor="end" style="font-family:'Helvetica';font-size:110.06px;fill:#000">0.46</text><text x="6396.05" y="2829.33" text-anchor="end" style="font-family:'Helvetica';font-size:110.06px;fill:#000">0.35</text><text x="6396.05" y="3016.8" text-anchor="end" style="font-family:'Helvetica';font-size:110.06px;fill:#000">5.04</text><text x="6396.05" y="3204.07" text-anchor="end" style="font-family:'Helvetica';font-size:110.06px;fill:#000">0.72</text><text x="6396.05" y="3391.55" text-anchor="end" style="font-family:'Helvetica';font-size:110.06px;fill:#000">89.76</text><text x="6274.69" y="326.84" text-anchor="middle" style="font-family:'Helvetica';font-size:110.06px;fill:#000">(%)</text><text x="6274.69" y="176.94" text-anchor="middle" style="font-family:'Helvetica';font-size:110.06px;fill:#000">Weight</text><line x1="80.08" x2="6490.71" y1="384.39" y2="384.39" style="stroke:#000;stroke-width:8.64"/><text x="40.04" y="4574.5" style="font-family:'Helvetica';font-size:110.06px;fill:#000">Fixed-effects Mantel-Haenszel model</text></svg>