<svg xmlns="http://www.w3.org/2000/svg" xmlns:xlink="http://www.w3.org/1999/xlink" width="720" height="512" version="1.1" viewBox="0 0 6519 4631"><desc>Stata Graph - Graph</desc><rect width="6519" height="4631" x="0" y="0" style="fill:#fff;stroke:none"/><rect width="6518.8" height="4631" x="0" y="0" style="fill:#fff"/><rect width="6513.04" height="4625.24" x="2.88" y="2.88" style="fill:none;stroke:#fff;stroke-width:5.76"/><rect width="6438.94" height="4551.14" x="39.93" y="39.93" style="fill:#fff"/><rect width="6433.18" height="4545.38" x="42.81" y="42.81" style="fill:none;stroke:#fff;stroke-width:5.76"/><rect width="6438.94" height="4441.14" x="39.93" y="39.93" style="fill:#fff"/><rect width="6433.18" height="4435.38" x="42.81" y="42.81" style="fill:none;stroke:#fff;stroke-width:5.76"/><rect width="6358.67" height="4360.88" x="80.06" y="80.06" style="fill:#fff"/><rect width="6352.91" height="4355.12" x="82.94" y="82.94" style="fill:none;stroke:#fff;stroke-width:5.76"/><text x="100.03" y="580.43" style="font-family:'Helvetica';font-size:110.01px;fill:#000">Morton</text><text x="100.03" y="767.84" style="font-family:'Helvetica';font-size:110.01px;fill:#000">Rasmussen</text><text x="100.03" y="955.26" style="font-family:'Helvetica';font-size:110.01px;fill:#000">Smith</text><text x="100.03" y="1142.68" style="font-family:'Helvetica';font-size:110.01px;fill:#000">Abraham</text><text x="100.03" y="1330.09" style="font-family:'Helvetica';font-size:110.01px;fill:#000">Feldstedt</text><text x="100.03" y="1517.3" style="font-family:'Helvetica';font-size:110.01px;fill:#000">Schechter</text><text x="100.03" y="1704.72" style="font-family:'Helvetica';font-size:110.01px;fill:#000">Ceremuzynski</text><text x="100.03" y="1892.13" style="font-family:'Helvetica';font-size:110.01px;fill:#000">Bertschat</text><text x="100.03" y="2079.55" style="font-family:'Helvetica';font-size:110.01px;fill:#000">Singh</text><text x="100.03" y="2266.97" style="font-family:'Helvetica';font-size:110.01px;fill:#000">Pereira</text><text x="100.03" y="2454.38" style="font-family:'Helvetica';font-size:110.01px;fill:#000">Schechter 1</text><text x="100.03" y="2641.8" style="font-family:'Helvetica';font-size:110.01px;fill:#000">Golf</text><text x="100.03" y="2829.21" style="font-family:'Helvetica';font-size:110.01px;fill:#000">Thogersen</text><text x="100.03" y="3016.63" style="font-family:'Helvetica';font-size:110.01px;fill:#000">LIMIT-2</text><text x="100.03" y="3204.04" style="font-family:'Helvetica';font-size:110.01px;fill:#000">Schechter 2</text><text x="100.03" y="3391.46" style="font-family:'Helvetica';font-size:110.01px;fill:#000">ISIS-4</text><text x="100.03" y="3618.4" style="font-family:'Helvetica';font-weight:700;font-size:110.01px;fill:#000">Overall</text><text x="100.03" y="3805.81" style="fill:#000"><tspan style="font-family:'Helvetica';font-size:110.01px">Heterogeneity: I</tspan> <tspan dy="-57.62" style="font-family:'Helvetica';font-size:64.13px">2</tspan> <tspan dy="57.62" style="font-family:'Helvetica';font-size:110.01px"> = 66.79%, H</tspan> <tspan dy="-57.62" style="font-family:'Helvetica';font-size:64.13px">2</tspan> <tspan dy="57.62" style="font-family:'Helvetica';font-size:110.01px"> = 3.01</tspan></text><text x="100.03" y="3993.23" style="fill:#000"><tspan style="font-family:'Helvetica';font-size:110.01px">Test of θ</tspan> <tspan dy="15.71" style="font-family:'Helvetica';font-size:64.13px">i</tspan> <tspan dy="-15.71" style="font-family:'Helvetica';font-size:110.01px"> = θ</tspan> <tspan dy="15.71" style="font-family:'Helvetica';font-size:64.13px">j</tspan> <tspan dy="-15.71" style="font-family:'Helvetica';font-size:110.01px">: Q(15) = 45.17, p = 0.00</tspan></text><text x="100.03" y="4180.64" style="font-family:'Helvetica';font-size:110.01px;fill:#000">Test of θ = 0: z = 0.20, p = 0.84</text><text x="100.03" y="326.86" style="font-family:'Helvetica';font-size:110.01px;fill:#000">Study</text><text x="1174.44" y="580.43" text-anchor="end" style="font-family:'Helvetica';font-size:110.01px;fill:#000">1</text><text x="1174.44" y="767.84" text-anchor="end" style="font-family:'Helvetica';font-size:110.01px;fill:#000">9</text><text x="1174.44" y="955.26" text-anchor="end" style="font-family:'Helvetica';font-size:110.01px;fill:#000">2</text><text x="1174.44" y="1142.68" text-anchor="end" style="font-family:'Helvetica';font-size:110.01px;fill:#000">1</text><text x="1174.44" y="1330.09" text-anchor="end" style="font-family:'Helvetica';font-size:110.01px;fill:#000">10</text><text x="1174.44" y="1517.3" text-anchor="end" style="font-family:'Helvetica';font-size:110.01px;fill:#000">1</text><text x="1174.44" y="1704.72" text-anchor="end" style="font-family:'Helvetica';font-size:110.01px;fill:#000">1</text><text x="1174.44" y="1892.13" text-anchor="end" style="font-family:'Helvetica';font-size:110.01px;fill:#000">0</text><text x="1174.44" y="2079.55" text-anchor="end" style="font-family:'Helvetica';font-size:110.01px;fill:#000">6</text><text x="1174.44" y="2266.97" text-anchor="end" style="font-family:'Helvetica';font-size:110.01px;fill:#000">1</text><text x="1174.44" y="2454.38" text-anchor="end" style="font-family:'Helvetica';font-size:110.01px;fill:#000">2</text><text x="1174.44" y="2641.8" text-anchor="end" style="font-family:'Helvetica';font-size:110.01px;fill:#000">5</text><text x="1174.44" y="2829.21" text-anchor="end" style="font-family:'Helvetica';font-size:110.01px;fill:#000">4</text><text x="1174.44" y="3016.63" text-anchor="end" style="font-family:'Helvetica';font-size:110.01px;fill:#000">90</text><text x="1174.44" y="3204.04" text-anchor="end" style="font-family:'Helvetica';font-size:110.01px;fill:#000">4</text><text x="1174.44" y="3391.46" text-anchor="end" style="font-family:'Helvetica';font-size:110.01px;fill:#000">2,216</text><text x="1053.02" y="326.86" text-anchor="middle" style="font-family:'Helvetica';font-size:110.01px;fill:#000">Yes</text><text x="1265.5" y="176.92" text-anchor="middle" style="font-family:'Helvetica';font-size:110.01px;fill:#000">Treatment</text><text x="1599.8" y="580.43" text-anchor="end" style="font-family:'Helvetica';font-size:110.01px;fill:#000">39</text><text x="1599.8" y="767.84" text-anchor="end" style="font-family:'Helvetica';font-size:110.01px;fill:#000">126</text><text x="1599.8" y="955.26" text-anchor="end" style="font-family:'Helvetica';font-size:110.01px;fill:#000">198</text><text x="1599.8" y="1142.68" text-anchor="end" style="font-family:'Helvetica';font-size:110.01px;fill:#000">47</text><text x="1599.8" y="1330.09" text-anchor="end" style="font-family:'Helvetica';font-size:110.01px;fill:#000">140</text><text x="1599.8" y="1517.3" text-anchor="end" style="font-family:'Helvetica';font-size:110.01px;fill:#000">58</text><text x="1599.8" y="1704.72" text-anchor="end" style="font-family:'Helvetica';font-size:110.01px;fill:#000">24</text><text x="1599.8" y="1892.13" text-anchor="end" style="font-family:'Helvetica';font-size:110.01px;fill:#000">22</text><text x="1599.8" y="2079.55" text-anchor="end" style="font-family:'Helvetica';font-size:110.01px;fill:#000">70</text><text x="1599.8" y="2266.97" text-anchor="end" style="font-family:'Helvetica';font-size:110.01px;fill:#000">26</text><text x="1599.8" y="2454.38" text-anchor="end" style="font-family:'Helvetica';font-size:110.01px;fill:#000">87</text><text x="1599.8" y="2641.8" text-anchor="end" style="font-family:'Helvetica';font-size:110.01px;fill:#000">18</text><text x="1599.8" y="2829.21" text-anchor="end" style="font-family:'Helvetica';font-size:110.01px;fill:#000">126</text><text x="1599.8" y="3016.63" text-anchor="end" style="font-family:'Helvetica';font-size:110.01px;fill:#000">1,069</text><text x="1599.8" y="3204.04" text-anchor="end" style="font-family:'Helvetica';font-size:110.01px;fill:#000">103</text><text x="1599.8" y="3391.46" text-anchor="end" style="font-family:'Helvetica';font-size:110.01px;fill:#000">26,795</text><text x="1447.01" y="326.86" text-anchor="middle" style="font-family:'Helvetica';font-size:110.01px;fill:#000">No</text><text x="1962.63" y="580.43" text-anchor="end" style="font-family:'Helvetica';font-size:110.01px;fill:#000">2</text><text x="1962.63" y="767.84" text-anchor="end" style="font-family:'Helvetica';font-size:110.01px;fill:#000">23</text><text x="1962.63" y="955.26" text-anchor="end" style="font-family:'Helvetica';font-size:110.01px;fill:#000">7</text><text x="1962.63" y="1142.68" text-anchor="end" style="font-family:'Helvetica';font-size:110.01px;fill:#000">1</text><text x="1962.63" y="1330.09" text-anchor="end" style="font-family:'Helvetica';font-size:110.01px;fill:#000">8</text><text x="1962.63" y="1517.3" text-anchor="end" style="font-family:'Helvetica';font-size:110.01px;fill:#000">9</text><text x="1962.63" y="1704.72" text-anchor="end" style="font-family:'Helvetica';font-size:110.01px;fill:#000">3</text><text x="1962.63" y="1892.13" text-anchor="end" style="font-family:'Helvetica';font-size:110.01px;fill:#000">1</text><text x="1962.63" y="2079.55" text-anchor="end" style="font-family:'Helvetica';font-size:110.01px;fill:#000">11</text><text x="1962.63" y="2266.97" text-anchor="end" style="font-family:'Helvetica';font-size:110.01px;fill:#000">7</text><text x="1962.63" y="2454.38" text-anchor="end" style="font-family:'Helvetica';font-size:110.01px;fill:#000">12</text><text x="1962.63" y="2641.8" text-anchor="end" style="font-family:'Helvetica';font-size:110.01px;fill:#000">13</text><text x="1962.63" y="2829.21" text-anchor="end" style="font-family:'Helvetica';font-size:110.01px;fill:#000">8</text><text x="1962.63" y="3016.63" text-anchor="end" style="font-family:'Helvetica';font-size:110.01px;fill:#000">118</text><text x="1962.63" y="3204.04" text-anchor="end" style="font-family:'Helvetica';font-size:110.01px;fill:#000">17</text><text x="1962.63" y="3391.46" text-anchor="end" style="font-family:'Helvetica';font-size:110.01px;fill:#000">2,103</text><text x="1841.21" y="326.86" text-anchor="middle" style="font-family:'Helvetica';font-size:110.01px;fill:#000">Yes</text><text x="2053.89" y="176.92" text-anchor="middle" style="font-family:'Helvetica';font-size:110.01px;fill:#000">Control</text><text x="2387.99" y="580.43" text-anchor="end" style="font-family:'Helvetica';font-size:110.01px;fill:#000">34</text><text x="2387.99" y="767.84" text-anchor="end" style="font-family:'Helvetica';font-size:110.01px;fill:#000">112</text><text x="2387.99" y="955.26" text-anchor="end" style="font-family:'Helvetica';font-size:110.01px;fill:#000">193</text><text x="2387.99" y="1142.68" text-anchor="end" style="font-family:'Helvetica';font-size:110.01px;fill:#000">45</text><text x="2387.99" y="1330.09" text-anchor="end" style="font-family:'Helvetica';font-size:110.01px;fill:#000">140</text><text x="2387.99" y="1517.3" text-anchor="end" style="font-family:'Helvetica';font-size:110.01px;fill:#000">47</text><text x="2387.99" y="1704.72" text-anchor="end" style="font-family:'Helvetica';font-size:110.01px;fill:#000">20</text><text x="2387.99" y="1892.13" text-anchor="end" style="font-family:'Helvetica';font-size:110.01px;fill:#000">20</text><text x="2387.99" y="2079.55" text-anchor="end" style="font-family:'Helvetica';font-size:110.01px;fill:#000">64</text><text x="2387.99" y="2266.97" text-anchor="end" style="font-family:'Helvetica';font-size:110.01px;fill:#000">20</text><text x="2387.99" y="2454.38" text-anchor="end" style="font-family:'Helvetica';font-size:110.01px;fill:#000">68</text><text x="2387.99" y="2641.8" text-anchor="end" style="font-family:'Helvetica';font-size:110.01px;fill:#000">20</text><text x="2387.99" y="2829.21" text-anchor="end" style="font-family:'Helvetica';font-size:110.01px;fill:#000">114</text><text x="2387.99" y="3016.63" text-anchor="end" style="font-family:'Helvetica';font-size:110.01px;fill:#000">1,039</text><text x="2387.99" y="3204.04" text-anchor="end" style="font-family:'Helvetica';font-size:110.01px;fill:#000">91</text><text x="2387.99" y="3391.46" text-anchor="end" style="font-family:'Helvetica';font-size:110.01px;fill:#000">26,936</text><text x="2235.41" y="326.86" text-anchor="middle" style="font-family:'Helvetica';font-size:110.01px;fill:#000">No</text><line x1="4451.46" x2="4451.46" y1="4241.09" y2="388.68" style="stroke:gray;stroke-width:5.76"/><line x1="4279.93" x2="3774.09" y1="541.88" y2="541.88" style="stroke:#1a476f;stroke-width:8.64"/><line x1="4249.98" x2="4092.71" y1="729.29" y2="729.29" style="stroke:#1a476f;stroke-width:8.64"/><line x1="4182.55" x2="3847.84" y1="916.71" y2="916.71" style="stroke:#1a476f;stroke-width:8.64"/><line x1="4442.29" x2="3853.75" y1="1104.12" y2="1104.12" style="stroke:#1a476f;stroke-width:8.64"/><line x1="4496.28" x2="4302.95" y1="1291.54" y2="1291.54" style="stroke:#1a476f;stroke-width:8.64"/><line x1="3968.64" x2="3532.28" y1="1478.75" y2="1478.75" style="stroke:#1a476f;stroke-width:8.64"/><line x1="4197.62" x2="3727.44" y1="1666.17" y2="1666.17" style="stroke:#1a476f;stroke-width:8.64"/><line x1="4205.98" x2="3530.85" y1="1853.58" y2="1853.58" style="stroke:#1a476f;stroke-width:8.64"/><line x1="4318.43" x2="4116.34" y1="2041" y2="2041" style="stroke:#1a476f;stroke-width:8.64"/><line x1="4033.83" x2="3598.9" y1="2228.41" y2="2228.41" style="stroke:#1a476f;stroke-width:8.64"/><line x1="4044.02" x2="3729.28" y1="2415.83" y2="2415.83" style="stroke:#1a476f;stroke-width:8.64"/><line x1="4323.73" x2="4134.27" y1="2603.24" y2="2603.24" style="stroke:#1a476f;stroke-width:8.64"/><line x1="4288.89" x2="4036.89" y1="2790.66" y2="2790.66" style="stroke:#1a476f;stroke-width:8.64"/><line x1="4392.79" x2="4336.56" y1="2978.08" y2="2978.08" style="stroke:#1a476f;stroke-width:8.64"/><line x1="4142.82" x2="3916.29" y1="3165.49" y2="3165.49" style="stroke:#1a476f;stroke-width:8.64"/><line x1="4462.87" x2="4450.44" y1="3352.91" y2="3352.91" style="stroke:#1a476f;stroke-width:8.64"/><line x1="3774.09" x2="3774.09" y1="541.88" y2="541.88" stroke-linecap="round" style="stroke:#1a476f;stroke-width:8.64"/><line x1="3774.09" x2="3774.09" y1="541.88" y2="541.88" stroke-linecap="round" style="stroke:#1a476f;stroke-width:8.64"/><line x1="4092.71" x2="4092.71" y1="729.29" y2="729.29" stroke-linecap="round" style="stroke:#1a476f;stroke-width:8.64"/><line x1="4092.71" x2="4092.71" y1="729.29" y2="729.29" stroke-linecap="round" style="stroke:#1a476f;stroke-width:8.64"/><line x1="3847.84" x2="3847.84" y1="916.71" y2="916.71" stroke-linecap="round" style="stroke:#1a476f;stroke-width:8.64"/><line x1="3847.84" x2="3847.84" y1="916.71" y2="916.71" stroke-linecap="round" style="stroke:#1a476f;stroke-width:8.64"/><line x1="3853.75" x2="3853.75" y1="1104.12" y2="1104.12" stroke-linecap="round" style="stroke:#1a476f;stroke-width:8.64"/><line x1="3853.75" x2="3853.75" y1="1104.12" y2="1104.12" stroke-linecap="round" style="stroke:#1a476f;stroke-width:8.64"/><line x1="4302.95" x2="4302.95" y1="1291.54" y2="1291.54" stroke-linecap="round" style="stroke:#1a476f;stroke-width:8.64"/><line x1="4302.95" x2="4302.95" y1="1291.54" y2="1291.54" stroke-linecap="round" style="stroke:#1a476f;stroke-width:8.64"/><line x1="3532.28" x2="3532.28" y1="1478.75" y2="1478.75" stroke-linecap="round" style="stroke:#1a476f;stroke-width:8.64"/><line x1="3532.28" x2="3532.28" y1="1478.75" y2="1478.75" stroke-linecap="round" style="stroke:#1a476f;stroke-width:8.64"/><line x1="3727.44" x2="3727.44" y1="1666.17" y2="1666.17" stroke-linecap="round" style="stroke:#1a476f;stroke-width:8.64"/><line x1="3727.44" x2="3727.44" y1="1666.17" y2="1666.17" stroke-linecap="round" style="stroke:#1a476f;stroke-width:8.64"/><line x1="3530.85" x2="3530.85" y1="1853.58" y2="1853.58" stroke-linecap="round" style="stroke:#1a476f;stroke-width:8.64"/><line x1="3530.85" x2="3530.85" y1="1853.58" y2="1853.58" stroke-linecap="round" style="stroke:#1a476f;stroke-width:8.64"/><line x1="4116.34" x2="4116.34" y1="2041" y2="2041" stroke-linecap="round" style="stroke:#1a476f;stroke-width:8.64"/><line x1="4116.34" x2="4116.34" y1="2041" y2="2041" stroke-linecap="round" style="stroke:#1a476f;stroke-width:8.64"/><line x1="3598.9" x2="3598.9" y1="2228.41" y2="2228.41" stroke-linecap="round" style="stroke:#1a476f;stroke-width:8.64"/><line x1="3598.9" x2="3598.9" y1="2228.41" y2="2228.41" stroke-linecap="round" style="stroke:#1a476f;stroke-width:8.64"/><line x1="3729.28" x2="3729.28" y1="2415.83" y2="2415.83" stroke-linecap="round" style="stroke:#1a476f;stroke-width:8.64"/><line x1="3729.28" x2="3729.28" y1="2415.83" y2="2415.83" stroke-linecap="round" style="stroke:#1a476f;stroke-width:8.64"/><line x1="4134.27" x2="4134.27" y1="2603.24" y2="2603.24" stroke-linecap="round" style="stroke:#1a476f;stroke-width:8.64"/><line x1="4134.27" x2="4134.27" y1="2603.24" y2="2603.24" stroke-linecap="round" style="stroke:#1a476f;stroke-width:8.64"/><line x1="4036.89" x2="4036.89" y1="2790.66" y2="2790.66" stroke-linecap="round" style="stroke:#1a476f;stroke-width:8.64"/><line x1="4036.89" x2="4036.89" y1="2790.66" y2="2790.66" stroke-linecap="round" style="stroke:#1a476f;stroke-width:8.64"/><line x1="4336.56" x2="4336.56" y1="2978.08" y2="2978.08" stroke-linecap="round" style="stroke:#1a476f;stroke-width:8.64"/><line x1="4336.56" x2="4336.56" y1="2978.08" y2="2978.08" stroke-linecap="round" style="stroke:#1a476f;stroke-width:8.64"/><line x1="3916.29" x2="3916.29" y1="3165.49" y2="3165.49" stroke-linecap="round" style="stroke:#1a476f;stroke-width:8.64"/><line x1="3916.29" x2="3916.29" y1="3165.49" y2="3165.49" stroke-linecap="round" style="stroke:#1a476f;stroke-width:8.64"/><line x1="4450.44" x2="4450.44" y1="3352.91" y2="3352.91" stroke-linecap="round" style="stroke:#1a476f;stroke-width:8.64"/><line x1="4450.44" x2="4450.44" y1="3352.91" y2="3352.91" stroke-linecap="round" style="stroke:#1a476f;stroke-width:8.64"/><line x1="4279.93" x2="4785.96" y1="541.88" y2="541.88" style="stroke:#1a476f;stroke-width:8.64"/><line x1="4249.98" x2="4407.25" y1="729.29" y2="729.29" style="stroke:#1a476f;stroke-width:8.64"/><line x1="4182.55" x2="4517.06" y1="916.71" y2="916.71" style="stroke:#1a476f;stroke-width:8.64"/><line x1="4442.29" x2="5030.63" y1="1104.12" y2="1104.12" style="stroke:#1a476f;stroke-width:8.64"/><line x1="4496.28" x2="4689.81" y1="1291.54" y2="1291.54" style="stroke:#1a476f;stroke-width:8.64"/><line x1="3968.64" x2="4405.01" y1="1478.75" y2="1478.75" style="stroke:#1a476f;stroke-width:8.64"/><line x1="4197.62" x2="4668.01" y1="1666.17" y2="1666.17" style="stroke:#1a476f;stroke-width:8.64"/><line x1="4205.98" x2="4881.3" y1="1853.58" y2="1853.58" style="stroke:#1a476f;stroke-width:8.64"/><line x1="4318.43" x2="4520.72" y1="2041" y2="2041" style="stroke:#1a476f;stroke-width:8.64"/><line x1="4033.83" x2="4468.57" y1="2228.41" y2="2228.41" style="stroke:#1a476f;stroke-width:8.64"/><line x1="4044.02" x2="4358.56" y1="2415.83" y2="2415.83" style="stroke:#1a476f;stroke-width:8.64"/><line x1="4323.73" x2="4513.39" y1="2603.24" y2="2603.24" style="stroke:#1a476f;stroke-width:8.64"/><line x1="4288.89" x2="4541.09" y1="2790.66" y2="2790.66" style="stroke:#1a476f;stroke-width:8.64"/><line x1="4392.79" x2="4449.01" y1="2978.08" y2="2978.08" style="stroke:#1a476f;stroke-width:8.64"/><line x1="4142.82" x2="4369.36" y1="3165.49" y2="3165.49" style="stroke:#1a476f;stroke-width:8.64"/><line x1="4462.87" x2="4475.09" y1="3352.91" y2="3352.91" style="stroke:#1a476f;stroke-width:8.64"/><line x1="4785.96" x2="4785.96" y1="541.88" y2="541.88" stroke-linecap="round" style="stroke:#1a476f;stroke-width:8.64"/><line x1="4785.96" x2="4785.96" y1="541.88" y2="541.88" stroke-linecap="round" style="stroke:#1a476f;stroke-width:8.64"/><line x1="4407.25" x2="4407.25" y1="729.29" y2="729.29" stroke-linecap="round" style="stroke:#1a476f;stroke-width:8.64"/><line x1="4407.25" x2="4407.25" y1="729.29" y2="729.29" stroke-linecap="round" style="stroke:#1a476f;stroke-width:8.64"/><line x1="4517.06" x2="4517.06" y1="916.71" y2="916.71" stroke-linecap="round" style="stroke:#1a476f;stroke-width:8.64"/><line x1="4517.06" x2="4517.06" y1="916.71" y2="916.71" stroke-linecap="round" style="stroke:#1a476f;stroke-width:8.64"/><line x1="5030.63" x2="5030.63" y1="1104.12" y2="1104.12" stroke-linecap="round" style="stroke:#1a476f;stroke-width:8.64"/><line x1="5030.63" x2="5030.63" y1="1104.12" y2="1104.12" stroke-linecap="round" style="stroke:#1a476f;stroke-width:8.64"/><line x1="4689.81" x2="4689.81" y1="1291.54" y2="1291.54" stroke-linecap="round" style="stroke:#1a476f;stroke-width:8.64"/><line x1="4689.81" x2="4689.81" y1="1291.54" y2="1291.54" stroke-linecap="round" style="stroke:#1a476f;stroke-width:8.64"/><line x1="4405.01" x2="4405.01" y1="1478.75" y2="1478.75" stroke-linecap="round" style="stroke:#1a476f;stroke-width:8.64"/><line x1="4405.01" x2="4405.01" y1="1478.75" y2="1478.75" stroke-linecap="round" style="stroke:#1a476f;stroke-width:8.64"/><line x1="4668.01" x2="4668.01" y1="1666.17" y2="1666.17" stroke-linecap="round" style="stroke:#1a476f;stroke-width:8.64"/><line x1="4668.01" x2="4668.01" y1="1666.17" y2="1666.17" stroke-linecap="round" style="stroke:#1a476f;stroke-width:8.64"/><line x1="4881.3" x2="4881.3" y1="1853.58" y2="1853.58" stroke-linecap="round" style="stroke:#1a476f;stroke-width:8.64"/><line x1="4881.3" x2="4881.3" y1="1853.58" y2="1853.58" stroke-linecap="round" style="stroke:#1a476f;stroke-width:8.64"/><line x1="4520.72" x2="4520.72" y1="2041" y2="2041" stroke-linecap="round" style="stroke:#1a476f;stroke-width:8.64"/><line x1="4520.72" x2="4520.72" y1="2041" y2="2041" stroke-linecap="round" style="stroke:#1a476f;stroke-width:8.64"/><line x1="4468.57" x2="4468.57" y1="2228.41" y2="2228.41" stroke-linecap="round" style="stroke:#1a476f;stroke-width:8.64"/><line x1="4468.57" x2="4468.57" y1="2228.41" y2="2228.41" stroke-linecap="round" style="stroke:#1a476f;stroke-width:8.64"/><line x1="4358.56" x2="4358.56" y1="2415.83" y2="2415.83" stroke-linecap="round" style="stroke:#1a476f;stroke-width:8.64"/><line x1="4358.56" x2="4358.56" y1="2415.83" y2="2415.83" stroke-linecap="round" style="stroke:#1a476f;stroke-width:8.64"/><line x1="4513.39" x2="4513.39" y1="2603.24" y2="2603.24" stroke-linecap="round" style="stroke:#1a476f;stroke-width:8.64"/><line x1="4513.39" x2="4513.39" y1="2603.24" y2="2603.24" stroke-linecap="round" style="stroke:#1a476f;stroke-width:8.64"/><line x1="4541.09" x2="4541.09" y1="2790.66" y2="2790.66" stroke-linecap="round" style="stroke:#1a476f;stroke-width:8.64"/><line x1="4541.09" x2="4541.09" y1="2790.66" y2="2790.66" stroke-linecap="round" style="stroke:#1a476f;stroke-width:8.64"/><line x1="4449.01" x2="4449.01" y1="2978.08" y2="2978.08" stroke-linecap="round" style="stroke:#1a476f;stroke-width:8.64"/><line x1="4449.01" x2="4449.01" y1="2978.08" y2="2978.08" stroke-linecap="round" style="stroke:#1a476f;stroke-width:8.64"/><line x1="4369.36" x2="4369.36" y1="3165.49" y2="3165.49" stroke-linecap="round" style="stroke:#1a476f;stroke-width:8.64"/><line x1="4369.36" x2="4369.36" y1="3165.49" y2="3165.49" stroke-linecap="round" style="stroke:#1a476f;stroke-width:8.64"/><line x1="4475.09" x2="4475.09" y1="3352.91" y2="3352.91" stroke-linecap="round" style="stroke:#1a476f;stroke-width:8.64"/><line x1="4475.09" x2="4475.09" y1="3352.91" y2="3352.91" stroke-linecap="round" style="stroke:#1a476f;stroke-width:8.64"/><rect width="12.31" height="12.31" x="4273.77" y="535.72" style="fill:#1a476f"/><rect width="3.67" height="3.67" x="4278.09" y="540.04" style="fill:none;stroke:#1a476f;stroke-width:8.64"/><rect width="20.05" height="20.05" x="4239.96" y="719.27" style="fill:#1a476f"/><rect width="11.41" height="11.41" x="4244.28" y="723.59" style="fill:none;stroke:#1a476f;stroke-width:8.64"/><rect width="15.16" height="15.16" x="4174.77" y="909.13" style="fill:#1a476f"/><rect width="6.52" height="6.52" x="4179.09" y="913.45" style="fill:none;stroke:#1a476f;stroke-width:8.64"/><rect width="11.08" height="11.08" x="4436.55" y="1098.58" style="fill:#1a476f"/><rect width="2.44" height="2.44" x="4440.87" y="1102.9" style="fill:none;stroke:#1a476f;stroke-width:8.64"/><rect width="15.57" height="15.57" x="4488.49" y="1283.76" style="fill:#1a476f"/><rect width="6.93" height="6.93" x="4492.81" y="1288.08" style="fill:none;stroke:#1a476f;stroke-width:8.64"/><rect width="15.97" height="15.97" x="3960.66" y="1470.97" style="fill:#1a476f"/><rect width="7.33" height="7.33" x="3964.98" y="1475.29" style="fill:none;stroke:#1a476f;stroke-width:8.64"/><rect width="12.71" height="12.71" x="4191.27" y="1660.01" style="fill:#1a476f"/><rect width="4.07" height="4.07" x="4195.59" y="1664.33" style="fill:none;stroke:#1a476f;stroke-width:8.64"/><rect width="11.49" height="11.49" x="4200.23" y="1848.04" style="fill:#1a476f"/><rect width="2.85" height="2.85" x="4204.55" y="1852.36" style="fill:none;stroke:#1a476f;stroke-width:8.64"/><rect width="16.79" height="16.79" x="4310.04" y="2032.81" style="fill:#1a476f"/><rect width="8.15" height="8.15" x="4314.36" y="2037.13" style="fill:none;stroke:#1a476f;stroke-width:8.64"/><rect width="15.16" height="15.16" x="4026.05" y="2221.04" style="fill:#1a476f"/><rect width="6.52" height="6.52" x="4030.37" y="2225.36" style="fill:none;stroke:#1a476f;stroke-width:8.64"/><rect width="17.2" height="17.2" x="4035.22" y="2407.43" style="fill:#1a476f"/><rect width="8.56" height="8.56" x="4039.54" y="2411.75" style="fill:none;stroke:#1a476f;stroke-width:8.64"/><rect width="16.38" height="16.38" x="4315.54" y="2595.26" style="fill:#1a476f"/><rect width="7.74" height="7.74" x="4319.86" y="2599.58" style="fill:none;stroke:#1a476f;stroke-width:8.64"/><rect width="15.57" height="15.57" x="4281.11" y="2783.08" style="fill:#1a476f"/><rect width="6.93" height="6.93" x="4285.43" y="2787.4" style="fill:none;stroke:#1a476f;stroke-width:8.64"/><rect width="34.72" height="34.71" x="4375.43" y="2960.92" style="fill:#1a476f"/><rect width="26.08" height="26.08" x="4379.75" y="2965.24" style="fill:none;stroke:#1a476f;stroke-width:8.64"/><rect width="18.42" height="18.42" x="4133.62" y="3156.49" style="fill:#1a476f"/><rect width="9.78" height="9.78" x="4137.94" y="3160.81" style="fill:none;stroke:#1a476f;stroke-width:8.64"/><rect width="118.65" height="118.64" x="4403.34" y="3293.79" style="fill:#1a476f"/><rect width="110.01" height="110" x="4407.66" y="3298.11" style="fill:none;stroke:#1a476f;stroke-width:8.64"/><defs><path id="path_qRRHytkF" stroke-linejoin="round" d="M4462.66 3353.11 M4440.87 3579.84 L4452.48 3634.03 L4464.29 3579.84 L4452.48 3525.66 Z"/></defs><defs><clipPath id="clipPath_WqSOgxja"><use xlink:href="#path_qRRHytkF"/></clipPath></defs><use xlink:href="#path_qRRHytkF" style="stroke:none;fill:#55752f"/><use style="fill:none;stroke:#55752f;stroke-width:17.28" clip-path="url(#clipPath_WqSOgxja)" xlink:href="#path_qRRHytkF"/><line x1="3530.85" x2="5030.63" y1="4241.09" y2="4241.09" style="stroke:#000;stroke-width:5.76"/><line x1="3558.97" x2="3558.97" y1="4241.09" y2="4281.02" style="stroke:#000;stroke-width:5.76"/><text x="3558.97" y="4377.89" text-anchor="middle" style="font-family:'Helvetica';font-size:110.01px;fill:#000">1/64</text><line x1="4005.11" x2="4005.11" y1="4241.09" y2="4281.02" style="stroke:#000;stroke-width:5.76"/><text x="4005.11" y="4377.89" text-anchor="middle" style="font-family:'Helvetica';font-size:110.01px;fill:#000">1/8</text><line x1="4451.46" x2="4451.46" y1="4241.09" y2="4281.02" style="stroke:#000;stroke-width:5.76"/><text x="4451.46" y="4377.89" text-anchor="middle" style="font-family:'Helvetica';font-size:110.01px;fill:#000">1</text><line x1="4897.6" x2="4897.6" y1="4241.09" y2="4281.02" style="stroke:#000;stroke-width:5.76"/><text x="4897.6" y="4377.89" text-anchor="middle" style="font-family:'Helvetica';font-size:110.01px;fill:#000">8</text><text x="5518.54" y="326.86" text-anchor="middle" style="font-family:'Helvetica';font-size:110.01px;fill:#000">with 95% CI</text><text x="5518.54" y="176.92" text-anchor="middle" style="font-family:'Helvetica';font-size:110.01px;fill:#000">Risk Ratio</text><text x="5337.23" y="580.43" text-anchor="end" style="font-family:'Helvetica';font-size:110.01px;fill:#000">0.45 [</text><text x="5337.23" y="767.84" text-anchor="end" style="font-family:'Helvetica';font-size:110.01px;fill:#000">0.39 [</text><text x="5337.23" y="955.26" text-anchor="end" style="font-family:'Helvetica';font-size:110.01px;fill:#000">0.29 [</text><text x="5337.23" y="1142.68" text-anchor="end" style="font-family:'Helvetica';font-size:110.01px;fill:#000">0.96 [</text><text x="5337.23" y="1330.09" text-anchor="end" style="font-family:'Helvetica';font-size:110.01px;fill:#000">1.23 [</text><text x="5337.23" y="1517.3" text-anchor="end" style="font-family:'Helvetica';font-size:110.01px;fill:#000">0.11 [</text><text x="5337.23" y="1704.72" text-anchor="end" style="font-family:'Helvetica';font-size:110.01px;fill:#000">0.31 [</text><text x="5337.23" y="1892.13" text-anchor="end" style="font-family:'Helvetica';font-size:110.01px;fill:#000">0.32 [</text><text x="5337.23" y="2079.55" text-anchor="end" style="font-family:'Helvetica';font-size:110.01px;fill:#000">0.54 [</text><text x="5337.23" y="2266.97" text-anchor="end" style="font-family:'Helvetica';font-size:110.01px;fill:#000">0.14 [</text><text x="5337.23" y="2454.38" text-anchor="end" style="font-family:'Helvetica';font-size:110.01px;fill:#000">0.15 [</text><text x="5337.23" y="2641.8" text-anchor="end" style="font-family:'Helvetica';font-size:110.01px;fill:#000">0.55 [</text><text x="5337.23" y="2829.21" text-anchor="end" style="font-family:'Helvetica';font-size:110.01px;fill:#000">0.47 [</text><text x="5337.23" y="3016.63" text-anchor="end" style="font-family:'Helvetica';font-size:110.01px;fill:#000">0.76 [</text><text x="5337.23" y="3204.04" text-anchor="end" style="font-family:'Helvetica';font-size:110.01px;fill:#000">0.24 [</text><text x="5337.23" y="3391.46" text-anchor="end" style="font-family:'Helvetica';font-size:110.01px;fill:#000">1.05 [</text><text x="5337.23" y="3618.4" text-anchor="end" style="font-family:'Helvetica';font-size:110.01px;fill:#000">1.01 [</text><text x="5611.23" y="580.43" text-anchor="end" style="font-family:'Helvetica';font-size:110.01px;fill:#000">0.04,</text><text x="5611.23" y="767.84" text-anchor="end" style="font-family:'Helvetica';font-size:110.01px;fill:#000">0.19,</text><text x="5611.23" y="955.26" text-anchor="end" style="font-family:'Helvetica';font-size:110.01px;fill:#000">0.06,</text><text x="5611.23" y="1142.68" text-anchor="end" style="font-family:'Helvetica';font-size:110.01px;fill:#000">0.06,</text><text x="5611.23" y="1330.09" text-anchor="end" style="font-family:'Helvetica';font-size:110.01px;fill:#000">0.50,</text><text x="5611.23" y="1517.3" text-anchor="end" style="font-family:'Helvetica';font-size:110.01px;fill:#000">0.01,</text><text x="5611.23" y="1704.72" text-anchor="end" style="font-family:'Helvetica';font-size:110.01px;fill:#000">0.03,</text><text x="5611.23" y="1892.13" text-anchor="end" style="font-family:'Helvetica';font-size:110.01px;fill:#000">0.01,</text><text x="5611.23" y="2079.55" text-anchor="end" style="font-family:'Helvetica';font-size:110.01px;fill:#000">0.21,</text><text x="5611.23" y="2266.97" text-anchor="end" style="font-family:'Helvetica';font-size:110.01px;fill:#000">0.02,</text><text x="5611.23" y="2454.38" text-anchor="end" style="font-family:'Helvetica';font-size:110.01px;fill:#000">0.03,</text><text x="5611.23" y="2641.8" text-anchor="end" style="font-family:'Helvetica';font-size:110.01px;fill:#000">0.23,</text><text x="5611.23" y="2829.21" text-anchor="end" style="font-family:'Helvetica';font-size:110.01px;fill:#000">0.14,</text><text x="5611.23" y="3016.63" text-anchor="end" style="font-family:'Helvetica';font-size:110.01px;fill:#000">0.59,</text><text x="5611.23" y="3204.04" text-anchor="end" style="font-family:'Helvetica';font-size:110.01px;fill:#000">0.08,</text><text x="5611.23" y="3391.46" text-anchor="end" style="font-family:'Helvetica';font-size:110.01px;fill:#000">1.00,</text><text x="5611.23" y="3618.4" text-anchor="end" style="font-family:'Helvetica';font-size:110.01px;fill:#000">0.95,</text><text x="5966.51" y="580.43" text-anchor="end" style="font-family:'Helvetica';font-size:110.01px;fill:#000">4.76]</text><text x="5966.51" y="767.84" text-anchor="end" style="font-family:'Helvetica';font-size:110.01px;fill:#000">0.81]</text><text x="5966.51" y="955.26" text-anchor="end" style="font-family:'Helvetica';font-size:110.01px;fill:#000">1.36]</text><text x="5966.51" y="1142.68" text-anchor="end" style="font-family:'Helvetica';font-size:110.01px;fill:#000">14.87]</text><text x="5966.51" y="1330.09" text-anchor="end" style="font-family:'Helvetica';font-size:110.01px;fill:#000">3.04]</text><text x="5966.51" y="1517.3" text-anchor="end" style="font-family:'Helvetica';font-size:110.01px;fill:#000">0.81]</text><text x="5966.51" y="1704.72" text-anchor="end" style="font-family:'Helvetica';font-size:110.01px;fill:#000">2.74]</text><text x="5966.51" y="1892.13" text-anchor="end" style="font-family:'Helvetica';font-size:110.01px;fill:#000">7.42]</text><text x="5966.51" y="2079.55" text-anchor="end" style="font-family:'Helvetica';font-size:110.01px;fill:#000">1.38]</text><text x="5966.51" y="2266.97" text-anchor="end" style="font-family:'Helvetica';font-size:110.01px;fill:#000">1.08]</text><text x="5966.51" y="2454.38" text-anchor="end" style="font-family:'Helvetica';font-size:110.01px;fill:#000">0.65]</text><text x="5966.51" y="2641.8" text-anchor="end" style="font-family:'Helvetica';font-size:110.01px;fill:#000">1.33]</text><text x="5966.51" y="2829.21" text-anchor="end" style="font-family:'Helvetica';font-size:110.01px;fill:#000">1.52]</text><text x="5966.51" y="3016.63" text-anchor="end" style="font-family:'Helvetica';font-size:110.01px;fill:#000">0.99]</text><text x="5966.51" y="3204.04" text-anchor="end" style="font-family:'Helvetica';font-size:110.01px;fill:#000">0.68]</text><text x="5966.51" y="3391.46" text-anchor="end" style="font-family:'Helvetica';font-size:110.01px;fill:#000">1.12]</text><text x="5966.51" y="3618.4" text-anchor="end" style="font-family:'Helvetica';font-size:110.01px;fill:#000">1.06]</text><text x="6344.21" y="580.43" text-anchor="end" style="font-family:'Helvetica';font-size:110.01px;fill:#000">0.09</text><text x="6344.21" y="767.84" text-anchor="end" style="font-family:'Helvetica';font-size:110.01px;fill:#000">0.98</text><text x="6344.21" y="955.26" text-anchor="end" style="font-family:'Helvetica';font-size:110.01px;fill:#000">0.30</text><text x="6344.21" y="1142.68" text-anchor="end" style="font-family:'Helvetica';font-size:110.01px;fill:#000">0.04</text><text x="6344.21" y="1330.09" text-anchor="end" style="font-family:'Helvetica';font-size:110.01px;fill:#000">0.34</text><text x="6344.21" y="1517.3" text-anchor="end" style="font-family:'Helvetica';font-size:110.01px;fill:#000">0.39</text><text x="6344.21" y="1704.72" text-anchor="end" style="font-family:'Helvetica';font-size:110.01px;fill:#000">0.13</text><text x="6344.21" y="1892.13" text-anchor="end" style="font-family:'Helvetica';font-size:110.01px;fill:#000">0.07</text><text x="6344.21" y="2079.55" text-anchor="end" style="font-family:'Helvetica';font-size:110.01px;fill:#000">0.47</text><text x="6344.21" y="2266.97" text-anchor="end" style="font-family:'Helvetica';font-size:110.01px;fill:#000">0.30</text><text x="6344.21" y="2454.38" text-anchor="end" style="font-family:'Helvetica';font-size:110.01px;fill:#000">0.54</text><text x="6344.21" y="2641.8" text-anchor="end" style="font-family:'Helvetica';font-size:110.01px;fill:#000">0.46</text><text x="6344.21" y="2829.21" text-anchor="end" style="font-family:'Helvetica';font-size:110.01px;fill:#000">0.35</text><text x="6344.21" y="3016.63" text-anchor="end" style="font-family:'Helvetica';font-size:110.01px;fill:#000">5.04</text><text x="6344.21" y="3204.04" text-anchor="end" style="font-family:'Helvetica';font-size:110.01px;fill:#000">0.72</text><text x="6344.21" y="3391.46" text-anchor="end" style="font-family:'Helvetica';font-size:110.01px;fill:#000">89.76</text><text x="6222.59" y="326.86" text-anchor="middle" style="font-family:'Helvetica';font-size:110.01px;fill:#000">(%)</text><text x="6222.59" y="176.92" text-anchor="middle" style="font-family:'Helvetica';font-size:110.01px;fill:#000">Weight</text><line x1="80.06" x2="6438.73" y1="384.2" y2="384.2" style="stroke:#000;stroke-width:8.64"/><text x="39.93" y="4574.62" style="font-family:'Helvetica';font-size:110.01px;fill:#000">Fixed-effects Mantel-Haenszel model</text></svg>