<svg xmlns="http://www.w3.org/2000/svg" xmlns:xlink="http://www.w3.org/1999/xlink" width="720" height="524" version="1.1" viewBox="0 0 3960 2880"><desc>Stata Graph - Graph</desc><rect width="3960" height="2880" x="0" y="0" style="fill:#eaf2f3;stroke:none"/><rect width="3959.88" height="2880" x="0" y="0" style="fill:#eaf2f3"/><rect width="3954.12" height="2874.24" x="2.88" y="2.88" style="fill:none;stroke:#eaf2f3;stroke-width:5.76"/><rect width="3468.22" height="1678.35" x="390.8" y="275.35" style="fill:#fff"/><rect width="3462.46" height="1672.59" x="393.68" y="278.23" style="fill:none;stroke:#fff;stroke-width:5.76"/><line x1="390.8" x2="3859.02" y1="338.71" y2="338.71" style="stroke:#eaf2f3;stroke-width:8.64"/><line x1="390.8" x2="3859.02" y1="821.97" y2="821.97" style="stroke:#eaf2f3;stroke-width:8.64"/><line x1="390.8" x2="3859.02" y1="1305.11" y2="1305.11" style="stroke:#eaf2f3;stroke-width:8.64"/><line x1="390.8" x2="3859.02" y1="1788.37" y2="1788.37" style="stroke:#eaf2f3;stroke-width:8.64"/><defs><path id="path_XEYzHyPF" stroke-linejoin="round" d="M2124.91 338.71 L2124.91 338.71 L3795.66 1890.34 L454.16 1890.34 L2124.91 338.71 L2124.91 338.71 Z"/></defs><defs><clipPath id="clipPath_DWLfcQeu"><use xlink:href="#path_XEYzHyPF"/></clipPath></defs><use xlink:href="#path_XEYzHyPF" style="stroke:none;fill:#cacaca"/><use style="fill:none;stroke:#cacaca;stroke-width:17.28" clip-path="url(#clipPath_DWLfcQeu)" xlink:href="#path_XEYzHyPF"/><defs><path id="path_wbddahqZ" stroke-linejoin="round" d="M2124.91 338.71 L2124.91 338.71 L3396.20 1890.34 L853.63 1890.34 L2124.91 338.71 L2124.91 338.71 Z"/></defs><defs><clipPath id="clipPath_wESvVZJa"><use xlink:href="#path_wbddahqZ"/></clipPath></defs><use xlink:href="#path_wbddahqZ" style="stroke:none;fill:#959595"/><use style="fill:none;stroke:#959595;stroke-width:17.28" clip-path="url(#clipPath_wESvVZJa)" xlink:href="#path_wbddahqZ"/><defs><path id="path_Xeinreyr" stroke-linejoin="round" d="M2124.91 338.71 L2124.91 338.71 L3191.88 1890.34 L1058.06 1890.34 L2124.91 338.71 L2124.91 338.71 Z"/></defs><defs><clipPath id="clipPath_cRyvsKTa"><use xlink:href="#path_Xeinreyr"/></clipPath></defs><use xlink:href="#path_Xeinreyr" style="stroke:none;fill:#606060"/><use style="fill:none;stroke:#606060;stroke-width:17.28" clip-path="url(#clipPath_cRyvsKTa)" xlink:href="#path_Xeinreyr"/><circle cx="1802.3" cy="1501.38" r="26.35" style="fill:#1a476f"/><circle cx="1802.3" cy="1501.38" r="22.03" style="fill:none;stroke:#1a476f;stroke-width:8.64"/><circle cx="1745.87" cy="700.08" r="26.35" style="fill:#1a476f"/><circle cx="1745.87" cy="700.08" r="22.03" style="fill:none;stroke:#1a476f;stroke-width:8.64"/><circle cx="1618.77" cy="1107.6" r="26.35" style="fill:#1a476f"/><circle cx="1618.77" cy="1107.6" r="22.03" style="fill:none;stroke:#1a476f;stroke-width:8.64"/><circle cx="2107.71" cy="1690.85" r="26.35" style="fill:#1a476f"/><circle cx="2107.71" cy="1690.85" r="22.03" style="fill:none;stroke:#1a476f;stroke-width:8.64"/><circle cx="2209.56" cy="783.36" r="26.35" style="fill:#1a476f"/><circle cx="2209.56" cy="783.36" r="22.03" style="fill:none;stroke:#1a476f;stroke-width:8.64"/><circle cx="1216.09" cy="1341.37" r="26.35" style="fill:#1a476f"/><circle cx="1216.09" cy="1341.37" r="22.03" style="fill:none;stroke:#1a476f;stroke-width:8.64"/><circle cx="1647.36" cy="1419.21" r="26.35" style="fill:#1a476f"/><circle cx="1647.36" cy="1419.21" r="22.03" style="fill:none;stroke:#1a476f;stroke-width:8.64"/><circle cx="1663.08" cy="1890.34" r="26.35" style="fill:#1a476f"/><circle cx="1663.08" cy="1890.34" r="22.03" style="fill:none;stroke:#1a476f;stroke-width:8.64"/><circle cx="1874.69" cy="803.41" r="26.35" style="fill:#1a476f"/><circle cx="1874.69" cy="803.41" r="22.03" style="fill:none;stroke:#1a476f;stroke-width:8.64"/><circle cx="1338.73" cy="1337.9" r="26.35" style="fill:#1a476f"/><circle cx="1338.73" cy="1337.9" r="22.03" style="fill:none;stroke:#1a476f;stroke-width:8.64"/><circle cx="1357.91" cy="1061.68" r="26.35" style="fill:#1a476f"/><circle cx="1357.91" cy="1061.68" r="22.03" style="fill:none;stroke:#1a476f;stroke-width:8.64"/><circle cx="1884.71" cy="774.33" r="26.35" style="fill:#1a476f"/><circle cx="1884.71" cy="774.33" r="22.03" style="fill:none;stroke:#1a476f;stroke-width:8.64"/><circle cx="1819.12" cy="917.88" r="26.35" style="fill:#1a476f"/><circle cx="1819.12" cy="917.88" r="22.03" style="fill:none;stroke:#1a476f;stroke-width:8.64"/><circle cx="2014.77" cy="467.91" r="26.35" style="fill:#1a476f"/><circle cx="2014.77" cy="467.91" r="22.03" style="fill:none;stroke:#1a476f;stroke-width:8.64"/><circle cx="1544.03" cy="859.47" r="26.35" style="fill:#1a476f"/><circle cx="1544.03" cy="859.47" r="22.03" style="fill:none;stroke:#1a476f;stroke-width:8.64"/><circle cx="2146.44" cy="367.05" r="26.35" style="fill:#1a476f"/><circle cx="2146.44" cy="367.05" r="22.03" style="fill:none;stroke:#1a476f;stroke-width:8.64"/><path stroke-linejoin="round" d="M1986.06 338.84 L1986.06 1890.34" style="fill:none;stroke:#c10534;stroke-width:8.64"/><circle cx="2345.93" cy="1890.34" r="26.35" style="fill:#c10534"/><circle cx="2345.93" cy="1890.34" r="22.03" style="fill:none;stroke:#c10534;stroke-width:8.64"/><circle cx="2361.64" cy="1419.21" r="26.35" style="fill:#c10534"/><circle cx="2361.64" cy="1419.21" r="22.03" style="fill:none;stroke:#c10534;stroke-width:8.64"/><circle cx="2390.23" cy="1107.6" r="26.35" style="fill:#c10534"/><circle cx="2390.23" cy="1107.6" r="22.03" style="fill:none;stroke:#c10534;stroke-width:8.64"/><circle cx="2464.98" cy="859.47" r="26.35" style="fill:#c10534"/><circle cx="2464.98" cy="859.47" r="22.03" style="fill:none;stroke:#c10534;stroke-width:8.64"/><circle cx="2651.1" cy="1061.68" r="26.35" style="fill:#c10534"/><circle cx="2651.1" cy="1061.68" r="22.03" style="fill:none;stroke:#c10534;stroke-width:8.64"/><circle cx="2670.28" cy="1337.9" r="26.35" style="fill:#c10534"/><circle cx="2670.28" cy="1337.9" r="22.03" style="fill:none;stroke:#c10534;stroke-width:8.64"/><circle cx="2792.91" cy="1341.37" r="26.35" style="fill:#c10534"/><circle cx="2792.91" cy="1341.37" r="22.03" style="fill:none;stroke:#c10534;stroke-width:8.64"/><line x1="390.8" x2="390.8" y1="1953.7" y2="275.35" style="stroke:#000;stroke-width:5.76"/><line x1="390.8" x2="350.83" y1="338.71" y2="338.71" style="stroke:#000;stroke-width:5.76"/><text x="300.72" y="338.71" text-anchor="middle" transform="rotate(-90 300.72,338.71)" style="font-family:'Helvetica';font-size:99.99px;fill:#000">0</text><line x1="390.8" x2="350.83" y1="821.97" y2="821.97" style="stroke:#000;stroke-width:5.76"/><text x="300.72" y="821.97" text-anchor="middle" transform="rotate(-90 300.72,821.97)" style="font-family:'Helvetica';font-size:99.99px;fill:#000">.5</text><line x1="390.8" x2="350.83" y1="1305.11" y2="1305.11" style="stroke:#000;stroke-width:5.76"/><text x="300.72" y="1305.11" text-anchor="middle" transform="rotate(-90 300.72,1305.11)" style="font-family:'Helvetica';font-size:99.99px;fill:#000">1</text><line x1="390.8" x2="350.83" y1="1788.37" y2="1788.37" style="stroke:#000;stroke-width:5.76"/><text x="300.72" y="1788.37" text-anchor="middle" transform="rotate(-90 300.72,1788.37)" style="font-family:'Helvetica';font-size:99.99px;fill:#000">1.5</text><text x="190.71" y="1114.53" text-anchor="middle" transform="rotate(-90 190.71,1114.53)" style="font-family:'Helvetica';font-size:99.99px;fill:#000">Standard error</text><line x1="390.8" x2="3859.02" y1="1953.7" y2="1953.7" style="stroke:#000;stroke-width:5.76"/><line x1="508.86" x2="508.86" y1="1953.7" y2="1993.67" style="stroke:#000;stroke-width:5.76"/><text x="508.86" y="2083.66" text-anchor="middle" style="font-family:'Helvetica';font-size:99.99px;fill:#000">-4</text><line x1="1316.95" x2="1316.95" y1="1953.7" y2="1993.67" style="stroke:#000;stroke-width:5.76"/><text x="1316.95" y="2083.66" text-anchor="middle" style="font-family:'Helvetica';font-size:99.99px;fill:#000">-2</text><line x1="2124.91" x2="2124.91" y1="1953.7" y2="1993.67" style="stroke:#000;stroke-width:5.76"/><text x="2124.91" y="2083.66" text-anchor="middle" style="font-family:'Helvetica';font-size:99.99px;fill:#000">0</text><line x1="2933" x2="2933" y1="1953.7" y2="1993.67" style="stroke:#000;stroke-width:5.76"/><text x="2933" y="2083.66" text-anchor="middle" style="font-family:'Helvetica';font-size:99.99px;fill:#000">2</text><line x1="3740.96" x2="3740.96" y1="1953.7" y2="1993.67" style="stroke:#000;stroke-width:5.76"/><text x="3740.96" y="2083.66" text-anchor="middle" style="font-family:'Helvetica';font-size:99.99px;fill:#000">4</text><text x="2124.91" y="2193.67" text-anchor="middle" style="font-family:'Helvetica';font-size:99.99px;fill:#000">Log risk-ratio</text><rect width="3288.53" height="466.3" x="480.64" y="2278.31" style="fill:#fff"/><rect width="3282.77" height="460.54" x="483.52" y="2281.19" style="fill:none;stroke:#000;stroke-width:5.76"/><rect width="374.47" height="99.99" x="523.83" y="2321.5" style="fill:#cacaca"/><rect width="365.83" height="91.35" x="528.15" y="2325.82" style="fill:none;stroke:#cacaca;stroke-width:8.64"/><rect width="374.47" height="99.99" x="2492.57" y="2321.5" style="fill:#959595"/><rect width="365.83" height="91.35" x="2496.89" y="2325.82" style="fill:none;stroke:#959595;stroke-width:8.64"/><rect width="374.47" height="99.99" x="523.83" y="2461.46" style="fill:#606060"/><rect width="365.83" height="91.35" x="528.15" y="2465.78" style="fill:none;stroke:#606060;stroke-width:8.64"/><circle cx="2679.81" cy="2511.46" r="26.35" style="fill:#1a476f"/><circle cx="2679.81" cy="2511.46" r="22.03" style="fill:none;stroke:#1a476f;stroke-width:8.64"/><line x1="523.83" x2="898.3" y1="2651.43" y2="2651.43" style="stroke:#c10534;stroke-width:8.64"/><circle cx="2679.81" cy="2651.43" r="26.35" style="fill:#c10534"/><circle cx="2679.81" cy="2651.43" r="22.03" style="fill:none;stroke:#c10534;stroke-width:8.64"/><text x="958.2" y="2406.52" style="font-family:'Helvetica';font-size:99.99px;fill:#000">1% &lt; p &lt; 5%</text><text x="2926.93" y="2406.52" style="font-family:'Helvetica';font-size:99.99px;fill:#000">5% &lt; p &lt; 10%</text><text x="958.2" y="2546.49" style="font-family:'Helvetica';font-size:99.99px;fill:#000">p &gt; 10%</text><text x="2926.93" y="2546.49" style="font-family:'Helvetica';font-size:99.99px;fill:#000">Observed studies</text><text x="958.2" y="2686.46" style="fill:#000"><tspan style="font-family:'Helvetica';font-size:99.99px">Estimated θ</tspan> <tspan dy="14.28" style="font-family:'Helvetica';font-size:58.29px">REML</tspan></text><text x="2926.93" y="2686.46" style="font-family:'Helvetica';font-size:99.99px;fill:#000">Imputed studies</text><text x="2124.91" y="215.98" text-anchor="middle" style="font-family:'Helvetica';font-size:139.96px;fill:#1e2d53">Contour-enhanced funnel plot</text></svg>