<?xml version="1.0" encoding="UTF-8" standalone="no"?>
<!-- This is a Stata 16.1 generated SVG file (http://www.stata.com) -->

<svg version="1.1" width="720px" height="637px" viewBox="0 0 4391 3886" xmlns="http://www.w3.org/2000/svg" xmlns:xlink="http://www.w3.org/1999/xlink">
	<desc>Stata Graph - Graph</desc>
	<rect x="0" y="0" width="4391" height="3886" style="fill:#FFFFFF;stroke:none"/>
	<rect x="0.00" y="0.00" width="4391.00" height="3886.00" style="fill:#FFFFFF"/>
	<rect x="2.88" y="2.88" width="4385.24" height="3880.24" style="fill:none;stroke:#FFFFFF;stroke-width:5.76"/>
	<rect x="39.93" y="39.93" width="4311.00" height="3806.14" style="fill:#FFFFFF"/>
	<rect x="42.81" y="42.81" width="4305.24" height="3800.38" style="fill:none;stroke:#FFFFFF;stroke-width:5.76"/>
	<rect x="39.93" y="39.93" width="4311.00" height="3696.10" style="fill:#FFFFFF"/>
	<rect x="42.81" y="42.81" width="4305.24" height="3690.34" style="fill:none;stroke:#FFFFFF;stroke-width:5.76"/>
	<rect x="80.00" y="79.99" width="4231.00" height="3615.97" style="fill:#FFFFFF"/>
	<rect x="82.88" y="82.87" width="4225.24" height="3610.21" style="fill:none;stroke:#FFFFFF;stroke-width:5.76"/>
	<text x="100.03" y="579.85" style="font-family:'Helvetica';font-size:110.05px;fill:#000000">Morton</text>
	<text x="100.03" y="766.74" style="font-family:'Helvetica';font-size:110.05px;fill:#000000">Rasmussen</text>
	<text x="100.03" y="953.48" style="font-family:'Helvetica';font-size:110.05px;fill:#000000">Smith</text>
	<text x="100.03" y="1140.23" style="font-family:'Helvetica';font-size:110.05px;fill:#000000">Abraham</text>
	<text x="100.03" y="1327.11" style="font-family:'Helvetica';font-size:110.05px;fill:#000000">Feldstedt</text>
	<text x="100.03" y="1513.86" style="font-family:'Helvetica';font-size:110.05px;fill:#000000">Schechter</text>
	<text x="100.03" y="1700.61" style="font-family:'Helvetica';font-size:110.05px;fill:#000000">Ceremuzynski</text>
	<text x="100.03" y="1887.49" style="font-family:'Helvetica';font-size:110.05px;fill:#000000">Bertschat</text>
	<text x="100.03" y="2074.24" style="font-family:'Helvetica';font-size:110.05px;fill:#000000">Singh</text>
	<text x="100.03" y="2261.12" style="font-family:'Helvetica';font-size:110.05px;fill:#000000">Pereira</text>
	<text x="100.03" y="2447.87" style="font-family:'Helvetica';font-size:110.05px;fill:#000000">Schechter 1</text>
	<text x="100.03" y="2634.61" style="font-family:'Helvetica';font-size:110.05px;fill:#000000">Golf</text>
	<text x="100.03" y="2821.50" style="font-family:'Helvetica';font-size:110.05px;fill:#000000">Thogersen</text>
	<text x="100.03" y="3008.24" style="font-family:'Helvetica';font-size:110.05px;fill:#000000">LIMIT-2</text>
	<text x="100.03" y="3195.13" style="font-family:'Helvetica';font-size:110.05px;fill:#000000">Schechter 2</text>
	<text x="100.03" y="3381.87" style="font-family:'Helvetica';font-size:110.05px;fill:#000000">ISIS-4</text>
	<text x="100.03" y="326.83" style="font-family:'Helvetica';font-size:110.05px;fill:#000000">Study</text>
	<line x1="1951.39" y1="3496.04" x2="1951.39" y2="388.59" style="stroke:#808080;stroke-width:5.76"/>
	<line x1="1735.82" y1="541.30" x2="1099.26" y2="541.30" style="stroke:#55752F;stroke-width:8.64"/>
	<line x1="1701.38" y1="728.19" x2="1512.43" y2="728.19" style="stroke:#55752F;stroke-width:8.64"/>
	<line x1="1686.56" y1="914.93" x2="1514.21" y2="914.93" style="stroke:#55752F;stroke-width:8.64"/>
	<line x1="1699.59" y1="1101.68" x2="1531.77" y2="1101.68" style="stroke:#55752F;stroke-width:8.64"/>
	<line x1="1800.86" y1="1288.56" x2="1609.03" y2="1288.56" style="stroke:#55752F;stroke-width:8.64"/>
	<line x1="1754.07" y1="1475.31" x2="1558.39" y2="1475.31" style="stroke:#55752F;stroke-width:8.64"/>
	<line x1="1746.79" y1="1662.06" x2="1566.35" y2="1662.06" style="stroke:#55752F;stroke-width:8.64"/>
	<line x1="1744.19" y1="1848.94" x2="1570.61" y2="1848.94" style="stroke:#55752F;stroke-width:8.64"/>
	<line x1="1759.14" y1="2035.69" x2="1621.38" y2="2035.69" style="stroke:#55752F;stroke-width:8.64"/>
	<line x1="1738.70" y1="2222.57" x2="1601.07" y2="2222.57" style="stroke:#55752F;stroke-width:8.64"/>
	<line x1="1705.49" y1="2409.32" x2="1565.39" y2="2409.32" style="stroke:#55752F;stroke-width:8.64"/>
	<line x1="1726.76" y1="2596.06" x2="1609.71" y2="2596.06" style="stroke:#55752F;stroke-width:8.64"/>
	<line x1="1733.62" y1="2782.95" x2="1629.75" y2="2782.95" style="stroke:#55752F;stroke-width:8.64"/>
	<line x1="1766.55" y1="2969.69" x2="1669.54" y2="2969.69" style="stroke:#55752F;stroke-width:8.64"/>
	<line x1="1745.01" y1="3156.58" x2="1646.90" y2="3156.58" style="stroke:#55752F;stroke-width:8.64"/>
	<line x1="1770.40" y1="3343.32" x2="1669.81" y2="3343.32" style="stroke:#55752F;stroke-width:8.64"/>
	<line x1="1099.26" y1="541.30" x2="1099.26" y2="541.30" stroke-linecap="round" style="stroke:#55752F;stroke-width:8.64"/>
	<line x1="1099.26" y1="541.30" x2="1099.26" y2="541.30" stroke-linecap="round" style="stroke:#55752F;stroke-width:8.64"/>
	<line x1="1512.43" y1="728.19" x2="1512.43" y2="728.19" stroke-linecap="round" style="stroke:#55752F;stroke-width:8.64"/>
	<line x1="1512.43" y1="728.19" x2="1512.43" y2="728.19" stroke-linecap="round" style="stroke:#55752F;stroke-width:8.64"/>
	<line x1="1514.21" y1="914.93" x2="1514.21" y2="914.93" stroke-linecap="round" style="stroke:#55752F;stroke-width:8.64"/>
	<line x1="1514.21" y1="914.93" x2="1514.21" y2="914.93" stroke-linecap="round" style="stroke:#55752F;stroke-width:8.64"/>
	<line x1="1531.77" y1="1101.68" x2="1531.77" y2="1101.68" stroke-linecap="round" style="stroke:#55752F;stroke-width:8.64"/>
	<line x1="1531.77" y1="1101.68" x2="1531.77" y2="1101.68" stroke-linecap="round" style="stroke:#55752F;stroke-width:8.64"/>
	<line x1="1609.03" y1="1288.56" x2="1609.03" y2="1288.56" stroke-linecap="round" style="stroke:#55752F;stroke-width:8.64"/>
	<line x1="1609.03" y1="1288.56" x2="1609.03" y2="1288.56" stroke-linecap="round" style="stroke:#55752F;stroke-width:8.64"/>
	<line x1="1558.39" y1="1475.31" x2="1558.39" y2="1475.31" stroke-linecap="round" style="stroke:#55752F;stroke-width:8.64"/>
	<line x1="1558.39" y1="1475.31" x2="1558.39" y2="1475.31" stroke-linecap="round" style="stroke:#55752F;stroke-width:8.64"/>
	<line x1="1566.35" y1="1662.06" x2="1566.35" y2="1662.06" stroke-linecap="round" style="stroke:#55752F;stroke-width:8.64"/>
	<line x1="1566.35" y1="1662.06" x2="1566.35" y2="1662.06" stroke-linecap="round" style="stroke:#55752F;stroke-width:8.64"/>
	<line x1="1570.61" y1="1848.94" x2="1570.61" y2="1848.94" stroke-linecap="round" style="stroke:#55752F;stroke-width:8.64"/>
	<line x1="1570.61" y1="1848.94" x2="1570.61" y2="1848.94" stroke-linecap="round" style="stroke:#55752F;stroke-width:8.64"/>
	<line x1="1621.38" y1="2035.69" x2="1621.38" y2="2035.69" stroke-linecap="round" style="stroke:#55752F;stroke-width:8.64"/>
	<line x1="1621.38" y1="2035.69" x2="1621.38" y2="2035.69" stroke-linecap="round" style="stroke:#55752F;stroke-width:8.64"/>
	<line x1="1601.07" y1="2222.57" x2="1601.07" y2="2222.57" stroke-linecap="round" style="stroke:#55752F;stroke-width:8.64"/>
	<line x1="1601.07" y1="2222.57" x2="1601.07" y2="2222.57" stroke-linecap="round" style="stroke:#55752F;stroke-width:8.64"/>
	<line x1="1565.39" y1="2409.32" x2="1565.39" y2="2409.32" stroke-linecap="round" style="stroke:#55752F;stroke-width:8.64"/>
	<line x1="1565.39" y1="2409.32" x2="1565.39" y2="2409.32" stroke-linecap="round" style="stroke:#55752F;stroke-width:8.64"/>
	<line x1="1609.71" y1="2596.06" x2="1609.71" y2="2596.06" stroke-linecap="round" style="stroke:#55752F;stroke-width:8.64"/>
	<line x1="1609.71" y1="2596.06" x2="1609.71" y2="2596.06" stroke-linecap="round" style="stroke:#55752F;stroke-width:8.64"/>
	<line x1="1629.75" y1="2782.95" x2="1629.75" y2="2782.95" stroke-linecap="round" style="stroke:#55752F;stroke-width:8.64"/>
	<line x1="1629.75" y1="2782.95" x2="1629.75" y2="2782.95" stroke-linecap="round" style="stroke:#55752F;stroke-width:8.64"/>
	<line x1="1669.54" y1="2969.69" x2="1669.54" y2="2969.69" stroke-linecap="round" style="stroke:#55752F;stroke-width:8.64"/>
	<line x1="1669.54" y1="2969.69" x2="1669.54" y2="2969.69" stroke-linecap="round" style="stroke:#55752F;stroke-width:8.64"/>
	<line x1="1646.90" y1="3156.58" x2="1646.90" y2="3156.58" stroke-linecap="round" style="stroke:#55752F;stroke-width:8.64"/>
	<line x1="1646.90" y1="3156.58" x2="1646.90" y2="3156.58" stroke-linecap="round" style="stroke:#55752F;stroke-width:8.64"/>
	<line x1="1669.81" y1="3343.32" x2="1669.81" y2="3343.32" stroke-linecap="round" style="stroke:#55752F;stroke-width:8.64"/>
	<line x1="1669.81" y1="3343.32" x2="1669.81" y2="3343.32" stroke-linecap="round" style="stroke:#55752F;stroke-width:8.64"/>
	<line x1="1735.82" y1="541.30" x2="2372.37" y2="541.30" style="stroke:#55752F;stroke-width:8.64"/>
	<line x1="1701.38" y1="728.19" x2="1890.33" y2="728.19" style="stroke:#55752F;stroke-width:8.64"/>
	<line x1="1686.56" y1="914.93" x2="1859.04" y2="914.93" style="stroke:#55752F;stroke-width:8.64"/>
	<line x1="1699.59" y1="1101.68" x2="1867.55" y2="1101.68" style="stroke:#55752F;stroke-width:8.64"/>
	<line x1="1800.86" y1="1288.56" x2="1992.69" y2="1288.56" style="stroke:#55752F;stroke-width:8.64"/>
	<line x1="1754.07" y1="1475.31" x2="1949.74" y2="1475.31" style="stroke:#55752F;stroke-width:8.64"/>
	<line x1="1746.79" y1="1662.06" x2="1927.24" y2="1662.06" style="stroke:#55752F;stroke-width:8.64"/>
	<line x1="1744.19" y1="1848.94" x2="1917.63" y2="1848.94" style="stroke:#55752F;stroke-width:8.64"/>
	<line x1="1759.14" y1="2035.69" x2="1896.91" y2="2035.69" style="stroke:#55752F;stroke-width:8.64"/>
	<line x1="1738.70" y1="2222.57" x2="1876.47" y2="2222.57" style="stroke:#55752F;stroke-width:8.64"/>
	<line x1="1705.49" y1="2409.32" x2="1845.73" y2="2409.32" style="stroke:#55752F;stroke-width:8.64"/>
	<line x1="1726.76" y1="2596.06" x2="1843.67" y2="2596.06" style="stroke:#55752F;stroke-width:8.64"/>
	<line x1="1733.62" y1="2782.95" x2="1837.50" y2="2782.95" style="stroke:#55752F;stroke-width:8.64"/>
	<line x1="1766.55" y1="2969.69" x2="1863.57" y2="2969.69" style="stroke:#55752F;stroke-width:8.64"/>
	<line x1="1745.01" y1="3156.58" x2="1843.12" y2="3156.58" style="stroke:#55752F;stroke-width:8.64"/>
	<line x1="1770.40" y1="3343.32" x2="1870.98" y2="3343.32" style="stroke:#55752F;stroke-width:8.64"/>
	<line x1="2372.37" y1="541.30" x2="2372.37" y2="541.30" stroke-linecap="round" style="stroke:#55752F;stroke-width:8.64"/>
	<line x1="2372.37" y1="541.30" x2="2372.37" y2="541.30" stroke-linecap="round" style="stroke:#55752F;stroke-width:8.64"/>
	<line x1="1890.33" y1="728.19" x2="1890.33" y2="728.19" stroke-linecap="round" style="stroke:#55752F;stroke-width:8.64"/>
	<line x1="1890.33" y1="728.19" x2="1890.33" y2="728.19" stroke-linecap="round" style="stroke:#55752F;stroke-width:8.64"/>
	<line x1="1859.04" y1="914.93" x2="1859.04" y2="914.93" stroke-linecap="round" style="stroke:#55752F;stroke-width:8.64"/>
	<line x1="1859.04" y1="914.93" x2="1859.04" y2="914.93" stroke-linecap="round" style="stroke:#55752F;stroke-width:8.64"/>
	<line x1="1867.55" y1="1101.68" x2="1867.55" y2="1101.68" stroke-linecap="round" style="stroke:#55752F;stroke-width:8.64"/>
	<line x1="1867.55" y1="1101.68" x2="1867.55" y2="1101.68" stroke-linecap="round" style="stroke:#55752F;stroke-width:8.64"/>
	<line x1="1992.69" y1="1288.56" x2="1992.69" y2="1288.56" stroke-linecap="round" style="stroke:#55752F;stroke-width:8.64"/>
	<line x1="1992.69" y1="1288.56" x2="1992.69" y2="1288.56" stroke-linecap="round" style="stroke:#55752F;stroke-width:8.64"/>
	<line x1="1949.74" y1="1475.31" x2="1949.74" y2="1475.31" stroke-linecap="round" style="stroke:#55752F;stroke-width:8.64"/>
	<line x1="1949.74" y1="1475.31" x2="1949.74" y2="1475.31" stroke-linecap="round" style="stroke:#55752F;stroke-width:8.64"/>
	<line x1="1927.24" y1="1662.06" x2="1927.24" y2="1662.06" stroke-linecap="round" style="stroke:#55752F;stroke-width:8.64"/>
	<line x1="1927.24" y1="1662.06" x2="1927.24" y2="1662.06" stroke-linecap="round" style="stroke:#55752F;stroke-width:8.64"/>
	<line x1="1917.63" y1="1848.94" x2="1917.63" y2="1848.94" stroke-linecap="round" style="stroke:#55752F;stroke-width:8.64"/>
	<line x1="1917.63" y1="1848.94" x2="1917.63" y2="1848.94" stroke-linecap="round" style="stroke:#55752F;stroke-width:8.64"/>
	<line x1="1896.91" y1="2035.69" x2="1896.91" y2="2035.69" stroke-linecap="round" style="stroke:#55752F;stroke-width:8.64"/>
	<line x1="1896.91" y1="2035.69" x2="1896.91" y2="2035.69" stroke-linecap="round" style="stroke:#55752F;stroke-width:8.64"/>
	<line x1="1876.47" y1="2222.57" x2="1876.47" y2="2222.57" stroke-linecap="round" style="stroke:#55752F;stroke-width:8.64"/>
	<line x1="1876.47" y1="2222.57" x2="1876.47" y2="2222.57" stroke-linecap="round" style="stroke:#55752F;stroke-width:8.64"/>
	<line x1="1845.73" y1="2409.32" x2="1845.73" y2="2409.32" stroke-linecap="round" style="stroke:#55752F;stroke-width:8.64"/>
	<line x1="1845.73" y1="2409.32" x2="1845.73" y2="2409.32" stroke-linecap="round" style="stroke:#55752F;stroke-width:8.64"/>
	<line x1="1843.67" y1="2596.06" x2="1843.67" y2="2596.06" stroke-linecap="round" style="stroke:#55752F;stroke-width:8.64"/>
	<line x1="1843.67" y1="2596.06" x2="1843.67" y2="2596.06" stroke-linecap="round" style="stroke:#55752F;stroke-width:8.64"/>
	<line x1="1837.50" y1="2782.95" x2="1837.50" y2="2782.95" stroke-linecap="round" style="stroke:#55752F;stroke-width:8.64"/>
	<line x1="1837.50" y1="2782.95" x2="1837.50" y2="2782.95" stroke-linecap="round" style="stroke:#55752F;stroke-width:8.64"/>
	<line x1="1863.57" y1="2969.69" x2="1863.57" y2="2969.69" stroke-linecap="round" style="stroke:#55752F;stroke-width:8.64"/>
	<line x1="1863.57" y1="2969.69" x2="1863.57" y2="2969.69" stroke-linecap="round" style="stroke:#55752F;stroke-width:8.64"/>
	<line x1="1843.12" y1="3156.58" x2="1843.12" y2="3156.58" stroke-linecap="round" style="stroke:#55752F;stroke-width:8.64"/>
	<line x1="1843.12" y1="3156.58" x2="1843.12" y2="3156.58" stroke-linecap="round" style="stroke:#55752F;stroke-width:8.64"/>
	<line x1="1870.98" y1="3343.32" x2="1870.98" y2="3343.32" stroke-linecap="round" style="stroke:#55752F;stroke-width:8.64"/>
	<line x1="1870.98" y1="3343.32" x2="1870.98" y2="3343.32" stroke-linecap="round" style="stroke:#55752F;stroke-width:8.64"/>
	<circle cx="1735.82" cy="541.44" r="19.28" style="fill:#55752F"/>
	<circle cx="1735.82" cy="541.44" r="14.96" style="fill:none;stroke:#55752F;stroke-width:8.64"/>
	<circle cx="1701.38" cy="728.19" r="19.28" style="fill:#55752F"/>
	<circle cx="1701.38" cy="728.19" r="14.96" style="fill:none;stroke:#55752F;stroke-width:8.64"/>
	<circle cx="1686.56" cy="914.93" r="19.28" style="fill:#55752F"/>
	<circle cx="1686.56" cy="914.93" r="14.96" style="fill:none;stroke:#55752F;stroke-width:8.64"/>
	<circle cx="1699.59" cy="1101.82" r="19.28" style="fill:#55752F"/>
	<circle cx="1699.59" cy="1101.82" r="14.96" style="fill:none;stroke:#55752F;stroke-width:8.64"/>
	<circle cx="1800.86" cy="1288.56" r="19.28" style="fill:#55752F"/>
	<circle cx="1800.86" cy="1288.56" r="14.96" style="fill:none;stroke:#55752F;stroke-width:8.64"/>
	<circle cx="1754.07" cy="1475.45" r="19.28" style="fill:#55752F"/>
	<circle cx="1754.07" cy="1475.45" r="14.96" style="fill:none;stroke:#55752F;stroke-width:8.64"/>
	<circle cx="1746.79" cy="1662.19" r="19.28" style="fill:#55752F"/>
	<circle cx="1746.79" cy="1662.19" r="14.96" style="fill:none;stroke:#55752F;stroke-width:8.64"/>
	<circle cx="1744.05" cy="1848.94" r="19.28" style="fill:#55752F"/>
	<circle cx="1744.05" cy="1848.94" r="14.96" style="fill:none;stroke:#55752F;stroke-width:8.64"/>
	<circle cx="1759.01" cy="2035.82" r="19.28" style="fill:#55752F"/>
	<circle cx="1759.01" cy="2035.82" r="14.96" style="fill:none;stroke:#55752F;stroke-width:8.64"/>
	<circle cx="1738.70" cy="2222.57" r="19.28" style="fill:#55752F"/>
	<circle cx="1738.70" cy="2222.57" r="14.96" style="fill:none;stroke:#55752F;stroke-width:8.64"/>
	<circle cx="1705.49" cy="2409.45" r="19.28" style="fill:#55752F"/>
	<circle cx="1705.49" cy="2409.45" r="14.96" style="fill:none;stroke:#55752F;stroke-width:8.64"/>
	<circle cx="1726.62" cy="2596.20" r="19.28" style="fill:#55752F"/>
	<circle cx="1726.62" cy="2596.20" r="14.96" style="fill:none;stroke:#55752F;stroke-width:8.64"/>
	<circle cx="1733.62" cy="2782.95" r="19.28" style="fill:#55752F"/>
	<circle cx="1733.62" cy="2782.95" r="14.96" style="fill:none;stroke:#55752F;stroke-width:8.64"/>
	<circle cx="1766.55" cy="2969.83" r="19.28" style="fill:#55752F"/>
	<circle cx="1766.55" cy="2969.83" r="14.96" style="fill:none;stroke:#55752F;stroke-width:8.64"/>
	<circle cx="1744.87" cy="3156.58" r="19.28" style="fill:#55752F"/>
	<circle cx="1744.87" cy="3156.58" r="14.96" style="fill:none;stroke:#55752F;stroke-width:8.64"/>
	<circle cx="1770.26" cy="3343.32" r="19.28" style="fill:#55752F"/>
	<circle cx="1770.26" cy="3343.32" r="14.96" style="fill:none;stroke:#55752F;stroke-width:8.64"/>
	<line x1="871.48" y1="3496.04" x2="2491.34" y2="3496.04" style="stroke:#000000;stroke-width:5.76"/>
	<line x1="871.48" y1="3496.04" x2="871.48" y2="3535.97" style="stroke:#000000;stroke-width:5.76"/>
	<text x="871.48" y="3632.97" style="font-family:'Helvetica';font-size:110.05px;fill:#000000" text-anchor="middle">-4</text>
	<line x1="1411.43" y1="3496.04" x2="1411.43" y2="3535.97" style="stroke:#000000;stroke-width:5.76"/>
	<text x="1411.43" y="3632.97" style="font-family:'Helvetica';font-size:110.05px;fill:#000000" text-anchor="middle">-2</text>
	<line x1="1951.39" y1="3496.04" x2="1951.39" y2="3535.97" style="stroke:#000000;stroke-width:5.76"/>
	<text x="1951.39" y="3632.97" style="font-family:'Helvetica';font-size:110.05px;fill:#000000" text-anchor="middle">0</text>
	<line x1="2491.34" y1="3496.04" x2="2491.34" y2="3535.97" style="stroke:#000000;stroke-width:5.76"/>
	<text x="2491.34" y="3632.97" style="font-family:'Helvetica';font-size:110.05px;fill:#000000" text-anchor="middle">2</text>
	<text x="3005.23" y="326.83" style="font-family:'Helvetica';font-size:110.05px;fill:#000000" text-anchor="middle">with 95% CI</text>
	<text x="3005.23" y="176.85" style="font-family:'Helvetica';font-size:110.05px;fill:#000000" text-anchor="middle">Log Risk-Ratio</text>
	<text x="2835.90" y="579.85" style="font-family:'Helvetica';font-size:110.05px;fill:#000000" text-anchor="end">-0.80 [</text>
	<text x="2835.90" y="766.74" style="font-family:'Helvetica';font-size:110.05px;fill:#000000" text-anchor="end">-0.93 [</text>
	<text x="2835.90" y="953.48" style="font-family:'Helvetica';font-size:110.05px;fill:#000000" text-anchor="end">-0.98 [</text>
	<text x="2835.90" y="1140.23" style="font-family:'Helvetica';font-size:110.05px;fill:#000000" text-anchor="end">-0.93 [</text>
	<text x="2835.90" y="1327.11" style="font-family:'Helvetica';font-size:110.05px;fill:#000000" text-anchor="end">-0.56 [</text>
	<text x="2835.90" y="1513.86" style="font-family:'Helvetica';font-size:110.05px;fill:#000000" text-anchor="end">-0.73 [</text>
	<text x="2835.90" y="1700.61" style="font-family:'Helvetica';font-size:110.05px;fill:#000000" text-anchor="end">-0.76 [</text>
	<text x="2835.90" y="1887.49" style="font-family:'Helvetica';font-size:110.05px;fill:#000000" text-anchor="end">-0.77 [</text>
	<text x="2835.90" y="2074.24" style="font-family:'Helvetica';font-size:110.05px;fill:#000000" text-anchor="end">-0.71 [</text>
	<text x="2835.90" y="2261.12" style="font-family:'Helvetica';font-size:110.05px;fill:#000000" text-anchor="end">-0.79 [</text>
	<text x="2835.90" y="2447.87" style="font-family:'Helvetica';font-size:110.05px;fill:#000000" text-anchor="end">-0.91 [</text>
	<text x="2835.90" y="2634.61" style="font-family:'Helvetica';font-size:110.05px;fill:#000000" text-anchor="end">-0.83 [</text>
	<text x="2835.90" y="2821.50" style="font-family:'Helvetica';font-size:110.05px;fill:#000000" text-anchor="end">-0.81 [</text>
	<text x="2835.90" y="3008.24" style="font-family:'Helvetica';font-size:110.05px;fill:#000000" text-anchor="end">-0.68 [</text>
	<text x="2835.90" y="3195.13" style="font-family:'Helvetica';font-size:110.05px;fill:#000000" text-anchor="end">-0.76 [</text>
	<text x="2835.90" y="3381.87" style="font-family:'Helvetica';font-size:110.05px;fill:#000000" text-anchor="end">-0.67 [</text>
	<text x="3148.07" y="579.85" style="font-family:'Helvetica';font-size:110.05px;fill:#000000" text-anchor="end">-3.16,</text>
	<text x="3148.07" y="766.74" style="font-family:'Helvetica';font-size:110.05px;fill:#000000" text-anchor="end">-1.63,</text>
	<text x="3148.07" y="953.48" style="font-family:'Helvetica';font-size:110.05px;fill:#000000" text-anchor="end">-1.62,</text>
	<text x="3148.07" y="1140.23" style="font-family:'Helvetica';font-size:110.05px;fill:#000000" text-anchor="end">-1.55,</text>
	<text x="3148.07" y="1327.11" style="font-family:'Helvetica';font-size:110.05px;fill:#000000" text-anchor="end">-1.27,</text>
	<text x="3148.07" y="1513.86" style="font-family:'Helvetica';font-size:110.05px;fill:#000000" text-anchor="end">-1.46,</text>
	<text x="3148.07" y="1700.61" style="font-family:'Helvetica';font-size:110.05px;fill:#000000" text-anchor="end">-1.43,</text>
	<text x="3148.07" y="1887.49" style="font-family:'Helvetica';font-size:110.05px;fill:#000000" text-anchor="end">-1.41,</text>
	<text x="3148.07" y="2074.24" style="font-family:'Helvetica';font-size:110.05px;fill:#000000" text-anchor="end">-1.22,</text>
	<text x="3148.07" y="2261.12" style="font-family:'Helvetica';font-size:110.05px;fill:#000000" text-anchor="end">-1.30,</text>
	<text x="3148.07" y="2447.87" style="font-family:'Helvetica';font-size:110.05px;fill:#000000" text-anchor="end">-1.43,</text>
	<text x="3148.07" y="2634.61" style="font-family:'Helvetica';font-size:110.05px;fill:#000000" text-anchor="end">-1.27,</text>
	<text x="3148.07" y="2821.50" style="font-family:'Helvetica';font-size:110.05px;fill:#000000" text-anchor="end">-1.19,</text>
	<text x="3148.07" y="3008.24" style="font-family:'Helvetica';font-size:110.05px;fill:#000000" text-anchor="end">-1.04,</text>
	<text x="3148.07" y="3195.13" style="font-family:'Helvetica';font-size:110.05px;fill:#000000" text-anchor="end">-1.13,</text>
	<text x="3148.07" y="3381.87" style="font-family:'Helvetica';font-size:110.05px;fill:#000000" text-anchor="end">-1.04,</text>
	<text x="3479.18" y="579.85" style="font-family:'Helvetica';font-size:110.05px;fill:#000000" text-anchor="end">1.56]</text>
	<text x="3479.18" y="766.74" style="font-family:'Helvetica';font-size:110.05px;fill:#000000" text-anchor="end">-0.23]</text>
	<text x="3479.18" y="953.48" style="font-family:'Helvetica';font-size:110.05px;fill:#000000" text-anchor="end">-0.34]</text>
	<text x="3479.18" y="1140.23" style="font-family:'Helvetica';font-size:110.05px;fill:#000000" text-anchor="end">-0.31]</text>
	<text x="3479.18" y="1327.11" style="font-family:'Helvetica';font-size:110.05px;fill:#000000" text-anchor="end">0.15]</text>
	<text x="3479.18" y="1513.86" style="font-family:'Helvetica';font-size:110.05px;fill:#000000" text-anchor="end">-0.01]</text>
	<text x="3479.18" y="1700.61" style="font-family:'Helvetica';font-size:110.05px;fill:#000000" text-anchor="end">-0.09]</text>
	<text x="3479.18" y="1887.49" style="font-family:'Helvetica';font-size:110.05px;fill:#000000" text-anchor="end">-0.12]</text>
	<text x="3479.18" y="2074.24" style="font-family:'Helvetica';font-size:110.05px;fill:#000000" text-anchor="end">-0.20]</text>
	<text x="3479.18" y="2261.12" style="font-family:'Helvetica';font-size:110.05px;fill:#000000" text-anchor="end">-0.28]</text>
	<text x="3479.18" y="2447.87" style="font-family:'Helvetica';font-size:110.05px;fill:#000000" text-anchor="end">-0.39]</text>
	<text x="3479.18" y="2634.61" style="font-family:'Helvetica';font-size:110.05px;fill:#000000" text-anchor="end">-0.40]</text>
	<text x="3479.18" y="2821.50" style="font-family:'Helvetica';font-size:110.05px;fill:#000000" text-anchor="end">-0.42]</text>
	<text x="3479.18" y="3008.24" style="font-family:'Helvetica';font-size:110.05px;fill:#000000" text-anchor="end">-0.33]</text>
	<text x="3479.18" y="3195.13" style="font-family:'Helvetica';font-size:110.05px;fill:#000000" text-anchor="end">-0.40]</text>
	<text x="3479.18" y="3381.87" style="font-family:'Helvetica';font-size:110.05px;fill:#000000" text-anchor="end">-0.30]</text>
	<text x="3871.76" y="579.85" style="font-family:'Helvetica';font-size:110.05px;fill:#000000" text-anchor="end">0.507</text>
	<text x="3871.76" y="766.74" style="font-family:'Helvetica';font-size:110.05px;fill:#000000" text-anchor="end">0.009</text>
	<text x="3871.76" y="953.48" style="font-family:'Helvetica';font-size:110.05px;fill:#000000" text-anchor="end">0.003</text>
	<text x="3871.76" y="1140.23" style="font-family:'Helvetica';font-size:110.05px;fill:#000000" text-anchor="end">0.003</text>
	<text x="3871.76" y="1327.11" style="font-family:'Helvetica';font-size:110.05px;fill:#000000" text-anchor="end">0.124</text>
	<text x="3871.76" y="1513.86" style="font-family:'Helvetica';font-size:110.05px;fill:#000000" text-anchor="end">0.048</text>
	<text x="3871.76" y="1700.61" style="font-family:'Helvetica';font-size:110.05px;fill:#000000" text-anchor="end">0.026</text>
	<text x="3871.76" y="1887.49" style="font-family:'Helvetica';font-size:110.05px;fill:#000000" text-anchor="end">0.019</text>
	<text x="3871.76" y="2074.24" style="font-family:'Helvetica';font-size:110.05px;fill:#000000" text-anchor="end">0.006</text>
	<text x="3871.76" y="2261.12" style="font-family:'Helvetica';font-size:110.05px;fill:#000000" text-anchor="end">0.002</text>
	<text x="3871.76" y="2447.87" style="font-family:'Helvetica';font-size:110.05px;fill:#000000" text-anchor="end">0.001</text>
	<text x="3871.76" y="2634.61" style="font-family:'Helvetica';font-size:110.05px;fill:#000000" text-anchor="end">0.000</text>
	<text x="3871.76" y="2821.50" style="font-family:'Helvetica';font-size:110.05px;fill:#000000" text-anchor="end">0.000</text>
	<text x="3871.76" y="3008.24" style="font-family:'Helvetica';font-size:110.05px;fill:#000000" text-anchor="end">0.000</text>
	<text x="3871.76" y="3195.13" style="font-family:'Helvetica';font-size:110.05px;fill:#000000" text-anchor="end">0.000</text>
	<text x="3871.76" y="3381.87" style="font-family:'Helvetica';font-size:110.05px;fill:#000000" text-anchor="end">0.000</text>
	<text x="3750.33" y="326.83" style="font-family:'Helvetica';font-size:110.05px;fill:#000000" text-anchor="middle">P-value</text>
	<text x="4250.90" y="579.85" style="font-family:'Helvetica';font-size:110.05px;fill:#000000" text-anchor="end">1984</text>
	<text x="4250.90" y="766.74" style="font-family:'Helvetica';font-size:110.05px;fill:#000000" text-anchor="end">1986</text>
	<text x="4250.90" y="953.48" style="font-family:'Helvetica';font-size:110.05px;fill:#000000" text-anchor="end">1986</text>
	<text x="4250.90" y="1140.23" style="font-family:'Helvetica';font-size:110.05px;fill:#000000" text-anchor="end">1987</text>
	<text x="4250.90" y="1327.11" style="font-family:'Helvetica';font-size:110.05px;fill:#000000" text-anchor="end">1988</text>
	<text x="4250.90" y="1513.86" style="font-family:'Helvetica';font-size:110.05px;fill:#000000" text-anchor="end">1989</text>
	<text x="4250.90" y="1700.61" style="font-family:'Helvetica';font-size:110.05px;fill:#000000" text-anchor="end">1989</text>
	<text x="4250.90" y="1887.49" style="font-family:'Helvetica';font-size:110.05px;fill:#000000" text-anchor="end">1989</text>
	<text x="4250.90" y="2074.24" style="font-family:'Helvetica';font-size:110.05px;fill:#000000" text-anchor="end">1990</text>
	<text x="4250.90" y="2261.12" style="font-family:'Helvetica';font-size:110.05px;fill:#000000" text-anchor="end">1990</text>
	<text x="4250.90" y="2447.87" style="font-family:'Helvetica';font-size:110.05px;fill:#000000" text-anchor="end">1991</text>
	<text x="4250.90" y="2634.61" style="font-family:'Helvetica';font-size:110.05px;fill:#000000" text-anchor="end">1991</text>
	<text x="4250.90" y="2821.50" style="font-family:'Helvetica';font-size:110.05px;fill:#000000" text-anchor="end">1991</text>
	<text x="4250.90" y="3008.24" style="font-family:'Helvetica';font-size:110.05px;fill:#000000" text-anchor="end">1992</text>
	<text x="4250.90" y="3195.13" style="font-family:'Helvetica';font-size:110.05px;fill:#000000" text-anchor="end">1995</text>
	<text x="4250.90" y="3381.87" style="font-family:'Helvetica';font-size:110.05px;fill:#000000" text-anchor="end">1995</text>
	<text x="4146.20" y="326.83" style="font-family:'Helvetica';font-size:110.05px;fill:#000000" text-anchor="middle">year</text>
	<line x1="80.00" y1="384.33" x2="4311.00" y2="384.33" style="stroke:#000000;stroke-width:8.64"/>
	<text x="39.93" y="3829.60" style="font-family:'Helvetica';font-size:110.05px;fill:#000000">Random-effects REML model</text>
</svg>
