<?xml version="1.0" encoding="UTF-8" standalone="no"?>
<!-- This is a Stata 16.1 generated SVG file (http://www.stata.com) -->

<svg version="1.1" width="720px" height="524px" viewBox="0 0 3960 2880" xmlns="http://www.w3.org/2000/svg" xmlns:xlink="http://www.w3.org/1999/xlink">
	<desc>Stata Graph - Graph</desc>
	<rect x="0" y="0" width="3960" height="2880" style="fill:#EAF2F3;stroke:none"/>
	<rect x="0.00" y="0.00" width="3959.88" height="2880.00" style="fill:#EAF2F3"/>
	<rect x="2.88" y="2.88" width="3954.12" height="2874.24" style="fill:none;stroke:#EAF2F3;stroke-width:5.76"/>
	<rect x="390.80" y="275.35" width="3468.22" height="1678.35" style="fill:#FFFFFF"/>
	<rect x="393.68" y="278.23" width="3462.46" height="1672.59" style="fill:none;stroke:#FFFFFF;stroke-width:5.76"/>
	<line x1="390.80" y1="338.71" x2="3859.02" y2="338.71" style="stroke:#EAF2F3;stroke-width:8.64"/>
	<line x1="390.80" y1="821.97" x2="3859.02" y2="821.97" style="stroke:#EAF2F3;stroke-width:8.64"/>
	<line x1="390.80" y1="1305.11" x2="3859.02" y2="1305.11" style="stroke:#EAF2F3;stroke-width:8.64"/>
	<line x1="390.80" y1="1788.37" x2="3859.02" y2="1788.37" style="stroke:#EAF2F3;stroke-width:8.64"/>
	<defs>
		<path id="path_yNbCrjic" d="M2124.91 338.71 L2124.91 338.71 L3795.66 1890.34 L454.16 1890.34 L2124.91 338.71 L2124.91 338.71 Z" stroke-linejoin="round"/>
	</defs>
	<defs>
		<clipPath id="clipPath_dujHDiHT">
			<use xlink:href="#path_yNbCrjic"/>
		</clipPath>
	</defs>
	<use xlink:href="#path_yNbCrjic" style="stroke:none;fill:#CACACA"/>
	<use xlink:href="#path_yNbCrjic" style="fill:none;stroke:#CACACA;stroke-width:17.28" clip-path="url(#clipPath_dujHDiHT)"/>
	<defs>
		<path id="path_byKHrQpM" d="M2124.91 338.71 L2124.91 338.71 L3396.20 1890.34 L853.63 1890.34 L2124.91 338.71 L2124.91 338.71 Z" stroke-linejoin="round"/>
	</defs>
	<defs>
		<clipPath id="clipPath_HIPFNafi">
			<use xlink:href="#path_byKHrQpM"/>
		</clipPath>
	</defs>
	<use xlink:href="#path_byKHrQpM" style="stroke:none;fill:#959595"/>
	<use xlink:href="#path_byKHrQpM" style="fill:none;stroke:#959595;stroke-width:17.28" clip-path="url(#clipPath_HIPFNafi)"/>
	<defs>
		<path id="path_sYBbfrPI" d="M2124.91 338.71 L2124.91 338.71 L3191.88 1890.34 L1058.06 1890.34 L2124.91 338.71 L2124.91 338.71 Z" stroke-linejoin="round"/>
	</defs>
	<defs>
		<clipPath id="clipPath_nrmDwnEr">
			<use xlink:href="#path_sYBbfrPI"/>
		</clipPath>
	</defs>
	<use xlink:href="#path_sYBbfrPI" style="stroke:none;fill:#606060"/>
	<use xlink:href="#path_sYBbfrPI" style="fill:none;stroke:#606060;stroke-width:17.28" clip-path="url(#clipPath_nrmDwnEr)"/>
	<circle cx="1802.30" cy="1501.38" r="26.35" style="fill:#1A476F"/>
	<circle cx="1802.30" cy="1501.38" r="22.03" style="fill:none;stroke:#1A476F;stroke-width:8.64"/>
	<circle cx="1745.87" cy="700.08" r="26.35" style="fill:#1A476F"/>
	<circle cx="1745.87" cy="700.08" r="22.03" style="fill:none;stroke:#1A476F;stroke-width:8.64"/>
	<circle cx="1618.77" cy="1107.60" r="26.35" style="fill:#1A476F"/>
	<circle cx="1618.77" cy="1107.60" r="22.03" style="fill:none;stroke:#1A476F;stroke-width:8.64"/>
	<circle cx="2107.71" cy="1690.85" r="26.35" style="fill:#1A476F"/>
	<circle cx="2107.71" cy="1690.85" r="22.03" style="fill:none;stroke:#1A476F;stroke-width:8.64"/>
	<circle cx="2209.56" cy="783.36" r="26.35" style="fill:#1A476F"/>
	<circle cx="2209.56" cy="783.36" r="22.03" style="fill:none;stroke:#1A476F;stroke-width:8.64"/>
	<circle cx="1216.09" cy="1341.37" r="26.35" style="fill:#1A476F"/>
	<circle cx="1216.09" cy="1341.37" r="22.03" style="fill:none;stroke:#1A476F;stroke-width:8.64"/>
	<circle cx="1647.36" cy="1419.21" r="26.35" style="fill:#1A476F"/>
	<circle cx="1647.36" cy="1419.21" r="22.03" style="fill:none;stroke:#1A476F;stroke-width:8.64"/>
	<circle cx="1663.08" cy="1890.34" r="26.35" style="fill:#1A476F"/>
	<circle cx="1663.08" cy="1890.34" r="22.03" style="fill:none;stroke:#1A476F;stroke-width:8.64"/>
	<circle cx="1874.69" cy="803.41" r="26.35" style="fill:#1A476F"/>
	<circle cx="1874.69" cy="803.41" r="22.03" style="fill:none;stroke:#1A476F;stroke-width:8.64"/>
	<circle cx="1338.73" cy="1337.90" r="26.35" style="fill:#1A476F"/>
	<circle cx="1338.73" cy="1337.90" r="22.03" style="fill:none;stroke:#1A476F;stroke-width:8.64"/>
	<circle cx="1357.91" cy="1061.68" r="26.35" style="fill:#1A476F"/>
	<circle cx="1357.91" cy="1061.68" r="22.03" style="fill:none;stroke:#1A476F;stroke-width:8.64"/>
	<circle cx="1884.71" cy="774.33" r="26.35" style="fill:#1A476F"/>
	<circle cx="1884.71" cy="774.33" r="22.03" style="fill:none;stroke:#1A476F;stroke-width:8.64"/>
	<circle cx="1819.12" cy="917.88" r="26.35" style="fill:#1A476F"/>
	<circle cx="1819.12" cy="917.88" r="22.03" style="fill:none;stroke:#1A476F;stroke-width:8.64"/>
	<circle cx="2014.77" cy="467.91" r="26.35" style="fill:#1A476F"/>
	<circle cx="2014.77" cy="467.91" r="22.03" style="fill:none;stroke:#1A476F;stroke-width:8.64"/>
	<circle cx="1544.03" cy="859.47" r="26.35" style="fill:#1A476F"/>
	<circle cx="1544.03" cy="859.47" r="22.03" style="fill:none;stroke:#1A476F;stroke-width:8.64"/>
	<circle cx="2146.44" cy="367.05" r="26.35" style="fill:#1A476F"/>
	<circle cx="2146.44" cy="367.05" r="22.03" style="fill:none;stroke:#1A476F;stroke-width:8.64"/>
	<path d=" M2130.36 338.84 L2130.36 1890.34" stroke-linejoin="round" style="fill:none;stroke:#C10534;stroke-width:8.64"/>
	<line x1="390.80" y1="1953.70" x2="390.80" y2="275.35" style="stroke:#000000;stroke-width:5.76"/>
	<line x1="390.80" y1="338.71" x2="350.83" y2="338.71" style="stroke:#000000;stroke-width:5.76"/>
	<text x="300.72" y="338.71" style="font-family:'Helvetica';font-size:99.99px;fill:#000000" transform="rotate(-90 300.72,338.71)" text-anchor="middle">0</text>
	<line x1="390.80" y1="821.97" x2="350.83" y2="821.97" style="stroke:#000000;stroke-width:5.76"/>
	<text x="300.72" y="821.97" style="font-family:'Helvetica';font-size:99.99px;fill:#000000" transform="rotate(-90 300.72,821.97)" text-anchor="middle">.5</text>
	<line x1="390.80" y1="1305.11" x2="350.83" y2="1305.11" style="stroke:#000000;stroke-width:5.76"/>
	<text x="300.72" y="1305.11" style="font-family:'Helvetica';font-size:99.99px;fill:#000000" transform="rotate(-90 300.72,1305.11)" text-anchor="middle">1</text>
	<line x1="390.80" y1="1788.37" x2="350.83" y2="1788.37" style="stroke:#000000;stroke-width:5.76"/>
	<text x="300.72" y="1788.37" style="font-family:'Helvetica';font-size:99.99px;fill:#000000" transform="rotate(-90 300.72,1788.37)" text-anchor="middle">1.5</text>
	<text x="190.71" y="1114.53" style="font-family:'Helvetica';font-size:99.99px;fill:#000000" transform="rotate(-90 190.71,1114.53)" text-anchor="middle">Standard error</text>
	<line x1="390.80" y1="1953.70" x2="3859.02" y2="1953.70" style="stroke:#000000;stroke-width:5.76"/>
	<line x1="508.86" y1="1953.70" x2="508.86" y2="1993.67" style="stroke:#000000;stroke-width:5.76"/>
	<text x="508.86" y="2083.66" style="font-family:'Helvetica';font-size:99.99px;fill:#000000" text-anchor="middle">-4</text>
	<line x1="1316.95" y1="1953.70" x2="1316.95" y2="1993.67" style="stroke:#000000;stroke-width:5.76"/>
	<text x="1316.95" y="2083.66" style="font-family:'Helvetica';font-size:99.99px;fill:#000000" text-anchor="middle">-2</text>
	<line x1="2124.91" y1="1953.70" x2="2124.91" y2="1993.67" style="stroke:#000000;stroke-width:5.76"/>
	<text x="2124.91" y="2083.66" style="font-family:'Helvetica';font-size:99.99px;fill:#000000" text-anchor="middle">0</text>
	<line x1="2933.00" y1="1953.70" x2="2933.00" y2="1993.67" style="stroke:#000000;stroke-width:5.76"/>
	<text x="2933.00" y="2083.66" style="font-family:'Helvetica';font-size:99.99px;fill:#000000" text-anchor="middle">2</text>
	<line x1="3740.96" y1="1953.70" x2="3740.96" y2="1993.67" style="stroke:#000000;stroke-width:5.76"/>
	<text x="3740.96" y="2083.66" style="font-family:'Helvetica';font-size:99.99px;fill:#000000" text-anchor="middle">4</text>
	<text x="2124.91" y="2193.67" style="font-family:'Helvetica';font-size:99.99px;fill:#000000" text-anchor="middle">Log risk-ratio</text>
	<rect x="649.19" y="2278.31" width="2951.44" height="466.30" style="fill:#FFFFFF"/>
	<rect x="652.07" y="2281.19" width="2945.68" height="460.54" style="fill:none;stroke:#000000;stroke-width:5.76"/>
	<rect x="692.38" y="2321.50" width="374.34" height="99.99" style="fill:#CACACA"/>
	<rect x="696.70" y="2325.82" width="365.70" height="91.35" style="fill:none;stroke:#CACACA;stroke-width:8.64"/>
	<rect x="2472.15" y="2321.50" width="374.34" height="99.99" style="fill:#959595"/>
	<rect x="2476.47" y="2325.82" width="365.70" height="91.35" style="fill:none;stroke:#959595;stroke-width:8.64"/>
	<rect x="692.38" y="2461.46" width="374.34" height="99.99" style="fill:#606060"/>
	<rect x="696.70" y="2465.78" width="365.70" height="91.35" style="fill:none;stroke:#606060;stroke-width:8.64"/>
	<circle cx="2659.26" cy="2511.46" r="26.35" style="fill:#1A476F"/>
	<circle cx="2659.26" cy="2511.46" r="22.03" style="fill:none;stroke:#1A476F;stroke-width:8.64"/>
	<line x1="692.38" y1="2651.43" x2="1066.72" y2="2651.43" style="stroke:#C10534;stroke-width:8.64"/>
	<text x="1126.74" y="2406.52" style="font-family:'Helvetica';font-size:99.99px;fill:#000000">1% &lt; p &lt; 5%</text>
	<text x="2906.52" y="2406.52" style="font-family:'Helvetica';font-size:99.99px;fill:#000000">5% &lt; p &lt; 10%</text>
	<text x="1126.74" y="2546.49" style="font-family:'Helvetica';font-size:99.99px;fill:#000000">p &gt; 10%</text>
	<text x="2906.52" y="2546.49" style="font-family:'Helvetica';font-size:99.99px;fill:#000000">Studies</text>
	<text x="1126.74" y="2686.46" style="fill:#000000">
		<tspan style="font-family:'Helvetica';font-size:99.99px">Estimated θ</tspan>
		<tspan dy="14.28px" style="font-family:'Helvetica';font-size:58.29px">IV</tspan>
	</text>
	<text x="2124.91" y="215.98" style="font-family:'Helvetica';font-size:139.96px;fill:#1E2D53" text-anchor="middle">Contour-enhanced funnel plot</text>
</svg>
