<?xml version="1.0" encoding="UTF-8" standalone="no"?>
<!-- This is a Stata 16.1 generated SVG file (http://www.stata.com) -->

<svg version="1.1" width="720px" height="524px" viewBox="0 0 3960 2880" xmlns="http://www.w3.org/2000/svg" xmlns:xlink="http://www.w3.org/1999/xlink">
	<desc>Stata Graph - Graph</desc>
	<rect x="0" y="0" width="3960" height="2880" style="fill:#EAF2F3;stroke:none"/>
	<rect x="0.00" y="0.00" width="3959.88" height="2880.00" style="fill:#EAF2F3"/>
	<rect x="2.88" y="2.88" width="3954.12" height="2874.24" style="fill:none;stroke:#EAF2F3;stroke-width:5.76"/>
	<rect x="390.80" y="275.35" width="3468.22" height="1818.32" style="fill:#FFFFFF"/>
	<rect x="393.68" y="278.23" width="3462.46" height="1812.56" style="fill:none;stroke:#FFFFFF;stroke-width:5.76"/>
	<line x1="390.80" y1="338.71" x2="3859.02" y2="338.71" style="stroke:#EAF2F3;stroke-width:8.64"/>
	<line x1="390.80" y1="865.53" x2="3859.02" y2="865.53" style="stroke:#EAF2F3;stroke-width:8.64"/>
	<line x1="390.80" y1="1392.35" x2="3859.02" y2="1392.35" style="stroke:#EAF2F3;stroke-width:8.64"/>
	<line x1="390.80" y1="1919.17" x2="3859.02" y2="1919.17" style="stroke:#EAF2F3;stroke-width:8.64"/>
	<path d=" M2130.60 338.84 L3444.95 2030.43" stroke-linejoin="round" style="fill:none;stroke:#C0C0C0;stroke-width:8.64"/>
	<path d=" M2130.60 338.84 L816.13 2030.43" stroke-linejoin="round" style="fill:none;stroke:#C0C0C0;stroke-width:8.64"/>
	<circle cx="1791.28" cy="1606.33" r="26.35" style="fill:#1A476F"/>
	<circle cx="1791.28" cy="1606.33" r="22.03" style="fill:none;stroke:#1A476F;stroke-width:8.64"/>
	<circle cx="1732.99" cy="732.75" r="26.35" style="fill:#1A476F"/>
	<circle cx="1732.99" cy="732.75" r="22.03" style="fill:none;stroke:#1A476F;stroke-width:8.64"/>
	<circle cx="1601.57" cy="1176.90" r="26.35" style="fill:#1A476F"/>
	<circle cx="1601.57" cy="1176.90" r="22.03" style="fill:none;stroke:#1A476F;stroke-width:8.64"/>
	<circle cx="2107.09" cy="1812.87" r="26.35" style="fill:#1A476F"/>
	<circle cx="2107.09" cy="1812.87" r="22.03" style="fill:none;stroke:#1A476F;stroke-width:8.64"/>
	<circle cx="2212.53" cy="823.46" r="26.35" style="fill:#1A476F"/>
	<circle cx="2212.53" cy="823.46" r="22.03" style="fill:none;stroke:#1A476F;stroke-width:8.64"/>
	<circle cx="1185.28" cy="1431.83" r="26.35" style="fill:#1A476F"/>
	<circle cx="1185.28" cy="1431.83" r="22.03" style="fill:none;stroke:#1A476F;stroke-width:8.64"/>
	<circle cx="1631.15" cy="1516.73" r="26.35" style="fill:#1A476F"/>
	<circle cx="1631.15" cy="1516.73" r="22.03" style="fill:none;stroke:#1A476F;stroke-width:8.64"/>
	<circle cx="1647.36" cy="2030.43" r="26.35" style="fill:#1A476F"/>
	<circle cx="1647.36" cy="2030.43" r="22.03" style="fill:none;stroke:#1A476F;stroke-width:8.64"/>
	<circle cx="1866.15" cy="845.24" r="26.35" style="fill:#1A476F"/>
	<circle cx="1866.15" cy="845.24" r="22.03" style="fill:none;stroke:#1A476F;stroke-width:8.64"/>
	<circle cx="1312.12" cy="1428.00" r="26.35" style="fill:#1A476F"/>
	<circle cx="1312.12" cy="1428.00" r="22.03" style="fill:none;stroke:#1A476F;stroke-width:8.64"/>
	<circle cx="1331.92" cy="1126.90" r="26.35" style="fill:#1A476F"/>
	<circle cx="1331.92" cy="1126.90" r="22.03" style="fill:none;stroke:#1A476F;stroke-width:8.64"/>
	<circle cx="1876.55" cy="813.68" r="26.35" style="fill:#1A476F"/>
	<circle cx="1876.55" cy="813.68" r="22.03" style="fill:none;stroke:#1A476F;stroke-width:8.64"/>
	<circle cx="1808.85" cy="970.23" r="26.35" style="fill:#1A476F"/>
	<circle cx="1808.85" cy="970.23" r="22.03" style="fill:none;stroke:#1A476F;stroke-width:8.64"/>
	<circle cx="2011.06" cy="479.55" r="26.35" style="fill:#1A476F"/>
	<circle cx="2011.06" cy="479.55" r="22.03" style="fill:none;stroke:#1A476F;stroke-width:8.64"/>
	<circle cx="1524.35" cy="906.37" r="26.35" style="fill:#1A476F"/>
	<circle cx="1524.35" cy="906.37" r="22.03" style="fill:none;stroke:#1A476F;stroke-width:8.64"/>
	<circle cx="2147.19" cy="369.65" r="26.35" style="fill:#1A476F"/>
	<circle cx="2147.19" cy="369.65" r="22.03" style="fill:none;stroke:#1A476F;stroke-width:8.64"/>
	<path d=" M2130.60 338.84 L2130.60 2030.43" stroke-linejoin="round" style="fill:none;stroke:#C10534;stroke-width:8.64"/>
	<line x1="390.80" y1="2093.67" x2="390.80" y2="275.35" style="stroke:#000000;stroke-width:5.76"/>
	<line x1="390.80" y1="338.71" x2="350.83" y2="338.71" style="stroke:#000000;stroke-width:5.76"/>
	<text x="300.72" y="338.71" style="font-family:'Helvetica';font-size:99.99px;fill:#000000" transform="rotate(-90 300.72,338.71)" text-anchor="middle">0</text>
	<line x1="390.80" y1="865.53" x2="350.83" y2="865.53" style="stroke:#000000;stroke-width:5.76"/>
	<text x="300.72" y="865.53" style="font-family:'Helvetica';font-size:99.99px;fill:#000000" transform="rotate(-90 300.72,865.53)" text-anchor="middle">.5</text>
	<line x1="390.80" y1="1392.35" x2="350.83" y2="1392.35" style="stroke:#000000;stroke-width:5.76"/>
	<text x="300.72" y="1392.35" style="font-family:'Helvetica';font-size:99.99px;fill:#000000" transform="rotate(-90 300.72,1392.35)" text-anchor="middle">1</text>
	<line x1="390.80" y1="1919.17" x2="350.83" y2="1919.17" style="stroke:#000000;stroke-width:5.76"/>
	<text x="300.72" y="1919.17" style="font-family:'Helvetica';font-size:99.99px;fill:#000000" transform="rotate(-90 300.72,1919.17)" text-anchor="middle">1.5</text>
	<text x="190.71" y="1184.57" style="font-family:'Helvetica';font-size:99.99px;fill:#000000" transform="rotate(-90 190.71,1184.57)" text-anchor="middle">Standard error</text>
	<line x1="390.80" y1="2093.67" x2="3859.02" y2="2093.67" style="stroke:#000000;stroke-width:5.76"/>
	<line x1="454.16" y1="2093.67" x2="454.16" y2="2133.64" style="stroke:#000000;stroke-width:5.76"/>
	<text x="454.16" y="2223.62" style="font-family:'Helvetica';font-size:99.99px;fill:#000000" text-anchor="middle">-4</text>
	<line x1="1289.47" y1="2093.67" x2="1289.47" y2="2133.64" style="stroke:#000000;stroke-width:5.76"/>
	<text x="1289.47" y="2223.62" style="font-family:'Helvetica';font-size:99.99px;fill:#000000" text-anchor="middle">-2</text>
	<line x1="2124.91" y1="2093.67" x2="2124.91" y2="2133.64" style="stroke:#000000;stroke-width:5.76"/>
	<text x="2124.91" y="2223.62" style="font-family:'Helvetica';font-size:99.99px;fill:#000000" text-anchor="middle">0</text>
	<line x1="2960.35" y1="2093.67" x2="2960.35" y2="2133.64" style="stroke:#000000;stroke-width:5.76"/>
	<text x="2960.35" y="2223.62" style="font-family:'Helvetica';font-size:99.99px;fill:#000000" text-anchor="middle">2</text>
	<line x1="3795.66" y1="2093.67" x2="3795.66" y2="2133.64" style="stroke:#000000;stroke-width:5.76"/>
	<text x="3795.66" y="2223.62" style="font-family:'Helvetica';font-size:99.99px;fill:#000000" text-anchor="middle">4</text>
	<text x="2124.91" y="2333.64" style="font-family:'Helvetica';font-size:99.99px;fill:#000000" text-anchor="middle">Log risk-ratio</text>
	<rect x="968.72" y="2418.27" width="2312.39" height="326.34" style="fill:#FFFFFF"/>
	<rect x="971.59" y="2421.15" width="2306.63" height="320.58" style="fill:none;stroke:#000000;stroke-width:5.76"/>
	<line x1="1011.90" y1="2511.46" x2="1386.25" y2="2511.46" style="stroke:#C0C0C0;stroke-width:8.64"/>
	<circle cx="2813.70" cy="2511.46" r="26.35" style="fill:#1A476F"/>
	<circle cx="2813.70" cy="2511.46" r="22.03" style="fill:none;stroke:#1A476F;stroke-width:8.64"/>
	<line x1="1011.90" y1="2651.43" x2="1386.25" y2="2651.43" style="stroke:#C10534;stroke-width:8.64"/>
	<text x="1446.27" y="2546.49" style="font-family:'Helvetica';font-size:99.99px;fill:#000000">Pseudo 95% CI</text>
	<text x="2895.63" y="2546.49" style="font-family:'Helvetica';font-size:99.99px;fill:#000000">Studies</text>
	<text x="1446.27" y="2686.46" style="fill:#000000">
		<tspan style="font-family:'Helvetica';font-size:99.99px">Estimated θ</tspan>
		<tspan dy="14.28px" style="font-family:'Helvetica';font-size:58.29px">IV</tspan>
	</text>
	<text x="2124.91" y="215.98" style="font-family:'Helvetica';font-size:139.96px;fill:#1E2D53" text-anchor="middle">Funnel plot</text>
</svg>
