<svg xmlns="http://www.w3.org/2000/svg" xmlns:xlink="http://www.w3.org/1999/xlink" width="720" height="524" version="1.1" viewBox="0 0 3960 2880"><desc>Stata Graph - Graph</desc><rect width="3960" height="2880" x="0" y="0" style="fill:#eaf2f3;stroke:none"/><rect width="3959.88" height="2880" x="0" y="0" style="fill:#eaf2f3"/><rect width="3954.12" height="2874.24" x="2.88" y="2.88" style="fill:none;stroke:#eaf2f3;stroke-width:5.76"/><rect width="3468.22" height="1818.32" x="390.8" y="275.35" style="fill:#fff"/><rect width="3462.46" height="1812.56" x="393.68" y="278.23" style="fill:none;stroke:#fff;stroke-width:5.76"/><line x1="390.8" x2="3859.02" y1="338.71" y2="338.71" style="stroke:#eaf2f3;stroke-width:8.64"/><line x1="390.8" x2="3859.02" y1="865.53" y2="865.53" style="stroke:#eaf2f3;stroke-width:8.64"/><line x1="390.8" x2="3859.02" y1="1392.35" y2="1392.35" style="stroke:#eaf2f3;stroke-width:8.64"/><line x1="390.8" x2="3859.02" y1="1919.17" y2="1919.17" style="stroke:#eaf2f3;stroke-width:8.64"/><path stroke-linejoin="round" d="M2130.60 338.84 L3444.95 2030.43" style="fill:none;stroke:silver;stroke-width:8.64"/><path stroke-linejoin="round" d="M2130.60 338.84 L816.13 2030.43" style="fill:none;stroke:silver;stroke-width:8.64"/><circle cx="1791.28" cy="1606.33" r="26.35" style="fill:#1a476f"/><circle cx="1791.28" cy="1606.33" r="22.03" style="fill:none;stroke:#1a476f;stroke-width:8.64"/><circle cx="1732.99" cy="732.75" r="26.35" style="fill:#1a476f"/><circle cx="1732.99" cy="732.75" r="22.03" style="fill:none;stroke:#1a476f;stroke-width:8.64"/><circle cx="1601.57" cy="1176.9" r="26.35" style="fill:#1a476f"/><circle cx="1601.57" cy="1176.9" r="22.03" style="fill:none;stroke:#1a476f;stroke-width:8.64"/><circle cx="2107.09" cy="1812.87" r="26.35" style="fill:#1a476f"/><circle cx="2107.09" cy="1812.87" r="22.03" style="fill:none;stroke:#1a476f;stroke-width:8.64"/><circle cx="2212.53" cy="823.46" r="26.35" style="fill:#1a476f"/><circle cx="2212.53" cy="823.46" r="22.03" style="fill:none;stroke:#1a476f;stroke-width:8.64"/><circle cx="1185.28" cy="1431.83" r="26.35" style="fill:#1a476f"/><circle cx="1185.28" cy="1431.83" r="22.03" style="fill:none;stroke:#1a476f;stroke-width:8.64"/><circle cx="1631.15" cy="1516.73" r="26.35" style="fill:#1a476f"/><circle cx="1631.15" cy="1516.73" r="22.03" style="fill:none;stroke:#1a476f;stroke-width:8.64"/><circle cx="1647.36" cy="2030.43" r="26.35" style="fill:#1a476f"/><circle cx="1647.36" cy="2030.43" r="22.03" style="fill:none;stroke:#1a476f;stroke-width:8.64"/><circle cx="1866.15" cy="845.24" r="26.35" style="fill:#1a476f"/><circle cx="1866.15" cy="845.24" r="22.03" style="fill:none;stroke:#1a476f;stroke-width:8.64"/><circle cx="1312.12" cy="1428" r="26.35" style="fill:#1a476f"/><circle cx="1312.12" cy="1428" r="22.03" style="fill:none;stroke:#1a476f;stroke-width:8.64"/><circle cx="1331.92" cy="1126.9" r="26.35" style="fill:#1a476f"/><circle cx="1331.92" cy="1126.9" r="22.03" style="fill:none;stroke:#1a476f;stroke-width:8.64"/><circle cx="1876.55" cy="813.68" r="26.35" style="fill:#1a476f"/><circle cx="1876.55" cy="813.68" r="22.03" style="fill:none;stroke:#1a476f;stroke-width:8.64"/><circle cx="1808.85" cy="970.23" r="26.35" style="fill:#1a476f"/><circle cx="1808.85" cy="970.23" r="22.03" style="fill:none;stroke:#1a476f;stroke-width:8.64"/><circle cx="2011.06" cy="479.55" r="26.35" style="fill:#1a476f"/><circle cx="2011.06" cy="479.55" r="22.03" style="fill:none;stroke:#1a476f;stroke-width:8.64"/><circle cx="1524.35" cy="906.37" r="26.35" style="fill:#1a476f"/><circle cx="1524.35" cy="906.37" r="22.03" style="fill:none;stroke:#1a476f;stroke-width:8.64"/><circle cx="2147.19" cy="369.65" r="26.35" style="fill:#1a476f"/><circle cx="2147.19" cy="369.65" r="22.03" style="fill:none;stroke:#1a476f;stroke-width:8.64"/><path stroke-linejoin="round" d="M2130.60 338.84 L2130.60 2030.43" style="fill:none;stroke:#c10534;stroke-width:8.64"/><line x1="390.8" x2="390.8" y1="2093.67" y2="275.35" style="stroke:#000;stroke-width:5.76"/><line x1="390.8" x2="350.83" y1="338.71" y2="338.71" style="stroke:#000;stroke-width:5.76"/><text x="300.72" y="338.71" text-anchor="middle" transform="rotate(-90 300.72,338.71)" style="font-family:'Helvetica';font-size:99.99px;fill:#000">0</text><line x1="390.8" x2="350.83" y1="865.53" y2="865.53" style="stroke:#000;stroke-width:5.76"/><text x="300.72" y="865.53" text-anchor="middle" transform="rotate(-90 300.72,865.53)" style="font-family:'Helvetica';font-size:99.99px;fill:#000">.5</text><line x1="390.8" x2="350.83" y1="1392.35" y2="1392.35" style="stroke:#000;stroke-width:5.76"/><text x="300.72" y="1392.35" text-anchor="middle" transform="rotate(-90 300.72,1392.35)" style="font-family:'Helvetica';font-size:99.99px;fill:#000">1</text><line x1="390.8" x2="350.83" y1="1919.17" y2="1919.17" style="stroke:#000;stroke-width:5.76"/><text x="300.72" y="1919.17" text-anchor="middle" transform="rotate(-90 300.72,1919.17)" style="font-family:'Helvetica';font-size:99.99px;fill:#000">1.5</text><text x="190.71" y="1184.57" text-anchor="middle" transform="rotate(-90 190.71,1184.57)" style="font-family:'Helvetica';font-size:99.99px;fill:#000">Standard error</text><line x1="390.8" x2="3859.02" y1="2093.67" y2="2093.67" style="stroke:#000;stroke-width:5.76"/><line x1="454.16" x2="454.16" y1="2093.67" y2="2133.64" style="stroke:#000;stroke-width:5.76"/><text x="454.16" y="2223.62" text-anchor="middle" style="font-family:'Helvetica';font-size:99.99px;fill:#000">-4</text><line x1="1289.47" x2="1289.47" y1="2093.67" y2="2133.64" style="stroke:#000;stroke-width:5.76"/><text x="1289.47" y="2223.62" text-anchor="middle" style="font-family:'Helvetica';font-size:99.99px;fill:#000">-2</text><line x1="2124.91" x2="2124.91" y1="2093.67" y2="2133.64" style="stroke:#000;stroke-width:5.76"/><text x="2124.91" y="2223.62" text-anchor="middle" style="font-family:'Helvetica';font-size:99.99px;fill:#000">0</text><line x1="2960.35" x2="2960.35" y1="2093.67" y2="2133.64" style="stroke:#000;stroke-width:5.76"/><text x="2960.35" y="2223.62" text-anchor="middle" style="font-family:'Helvetica';font-size:99.99px;fill:#000">2</text><line x1="3795.66" x2="3795.66" y1="2093.67" y2="2133.64" style="stroke:#000;stroke-width:5.76"/><text x="3795.66" y="2223.62" text-anchor="middle" style="font-family:'Helvetica';font-size:99.99px;fill:#000">4</text><text x="2124.91" y="2333.64" text-anchor="middle" style="font-family:'Helvetica';font-size:99.99px;fill:#000">Log risk-ratio</text><rect width="2312.39" height="326.34" x="968.72" y="2418.27" style="fill:#fff"/><rect width="2306.63" height="320.58" x="971.59" y="2421.15" style="fill:none;stroke:#000;stroke-width:5.76"/><line x1="1011.9" x2="1386.25" y1="2511.46" y2="2511.46" style="stroke:silver;stroke-width:8.64"/><circle cx="2813.7" cy="2511.46" r="26.35" style="fill:#1a476f"/><circle cx="2813.7" cy="2511.46" r="22.03" style="fill:none;stroke:#1a476f;stroke-width:8.64"/><line x1="1011.9" x2="1386.25" y1="2651.43" y2="2651.43" style="stroke:#c10534;stroke-width:8.64"/><text x="1446.27" y="2546.49" style="font-family:'Helvetica';font-size:99.99px;fill:#000">Pseudo 95% CI</text><text x="2895.63" y="2546.49" style="font-family:'Helvetica';font-size:99.99px;fill:#000">Studies</text><text x="1446.27" y="2686.46" style="fill:#000"><tspan style="font-family:'Helvetica';font-size:99.99px">Estimated θ</tspan> <tspan dy="14.28" style="font-family:'Helvetica';font-size:58.29px">IV</tspan></text><text x="2124.91" y="215.98" text-anchor="middle" style="font-family:'Helvetica';font-size:139.96px;fill:#1e2d53">Funnel plot</text></svg>