<svg xmlns="http://www.w3.org/2000/svg" xmlns:xlink="http://www.w3.org/1999/xlink" width="720" height="524" version="1.1" viewBox="0 0 3960 2880"><desc>Stata Graph - Graph</desc><rect width="3960" height="2880" x="0" y="0" style="fill:#eaf2f3;stroke:none"/><rect width="3959.88" height="2880" x="0" y="0" style="fill:#eaf2f3"/><rect width="3954.12" height="2874.24" x="2.88" y="2.88" style="fill:none;stroke:#eaf2f3;stroke-width:5.76"/><rect width="3468.22" height="1703.84" x="390.8" y="275.35" style="fill:#fff"/><rect width="3462.46" height="1698.08" x="393.68" y="278.23" style="fill:none;stroke:#fff;stroke-width:5.76"/><line x1="390.8" x2="3859.02" y1="1915.83" y2="1915.83" style="stroke:#eaf2f3;stroke-width:8.64"/><line x1="390.8" x2="3859.02" y1="1430.59" y2="1430.59" style="stroke:#eaf2f3;stroke-width:8.64"/><line x1="390.8" x2="3859.02" y1="945.23" y2="945.23" style="stroke:#eaf2f3;stroke-width:8.64"/><line x1="390.8" x2="3859.02" y1="459.99" y2="459.99" style="stroke:#eaf2f3;stroke-width:8.64"/><defs><path id="path_udzXCjRi" stroke-linejoin="round" d="M454.16 1869.30 L454.16 1869.30 L487.95 1855.69 L521.61 1842.08 L555.39 1828.34 L589.17 1814.73 L622.96 1801.24 L656.62 1787.62 L690.40 1774.14 L724.18 1760.52 L757.97 1747.03 L791.63 1733.54 L825.41 1720.18 L859.20 1706.81 L892.98 1693.32 L926.64 1680.08 L960.42 1666.72 L994.21 1653.48 L1027.99 1640.23 L1061.65 1626.99 L1095.43 1613.75 L1129.22 1600.63 L1163.00 1587.64 L1196.66 1574.52 L1230.45 1561.53 L1264.23 1548.66 L1298.01 1535.79 L1331.67 1522.92 L1365.46 1510.17 L1399.24 1497.42 L1433.03 1484.80 L1466.68 1472.30 L1500.47 1459.80 L1534.25 1447.30 L1568.04 1435.05 L1601.70 1422.67 L1635.48 1410.55 L1669.26 1398.54 L1703.05 1386.54 L1736.71 1374.66 L1770.49 1362.90 L1804.28 1351.14 L1838.06 1339.64 L1871.72 1328.25 L1905.50 1316.99 L1939.29 1305.85 L1973.07 1294.84 L2006.85 1283.95 L2040.51 1273.30 L2074.30 1262.66 L2108.08 1252.27 L2141.86 1242.12 L2175.53 1232.09 L2209.31 1222.19 L2243.09 1212.54 L2276.88 1203.14 L2310.54 1193.85 L2344.32 1184.70 L2378.10 1175.79 L2411.89 1167.12 L2445.55 1158.71 L2479.33 1150.42 L2513.11 1142.37 L2546.90 1134.45 L2580.56 1126.78 L2614.34 1119.35 L2648.13 1112.18 L2681.91 1105.12 L2715.57 1098.19 L2749.35 1091.51 L2783.14 1085.07 L2816.92 1078.76 L2850.58 1072.57 L2884.36 1066.63 L2918.15 1060.82 L2951.93 1055.13 L2985.59 1049.56 L3019.38 1044.24 L3053.16 1039.04 L3086.94 1033.96 L3120.60 1029.01 L3154.39 1024.06 L3188.17 1019.36 L3221.95 1014.78 L3255.61 1010.20 L3289.40 1005.87 L3323.18 1001.54 L3356.97 997.33 L3390.63 993.12 L3424.41 989.04 L3458.19 985.08 L3491.98 981.24 L3525.64 977.28 L3559.42 973.57 L3593.20 969.86 L3626.99 966.27 L3660.65 962.56 L3694.43 959.09 L3728.22 955.63 L3762.00 952.16 L3795.66 948.82 L3795.66 350.10 L3762.00 363.22 L3728.22 376.21 L3694.43 389.21 L3660.65 402.08 L3626.99 414.95 L3593.20 427.69 L3559.42 440.44 L3525.64 453.19 L3491.98 465.81 L3458.19 478.31 L3424.41 490.81 L3390.63 503.18 L3356.97 515.43 L3323.18 527.69 L3289.40 539.81 L3255.61 551.82 L3221.95 563.82 L3188.17 575.58 L3154.39 587.34 L3120.60 598.97 L3086.94 610.48 L3053.16 621.74 L3019.38 633.00 L2985.59 644.14 L2951.93 655.03 L2918.15 665.80 L2884.36 676.44 L2850.58 686.96 L2816.92 697.23 L2783.14 707.38 L2749.35 717.40 L2715.57 727.18 L2681.91 736.71 L2648.13 746.11 L2614.34 755.27 L2580.56 764.30 L2546.90 773.09 L2513.11 781.63 L2479.33 790.04 L2445.55 798.21 L2411.89 806.26 L2378.10 814.05 L2344.32 821.60 L2310.54 828.90 L2276.88 836.08 L2243.09 843.14 L2209.31 849.82 L2175.53 856.50 L2141.86 862.94 L2108.08 869.12 L2074.30 875.19 L2040.51 881.13 L2006.85 886.82 L1973.07 892.39 L1939.29 897.83 L1905.50 903.16 L1871.72 908.35 L1838.06 913.43 L1804.28 918.25 L1770.49 923.08 L1736.71 927.78 L1703.05 932.36 L1669.26 936.82 L1635.48 941.15 L1601.70 945.48 L1568.04 949.69 L1534.25 953.77 L1500.47 957.73 L1466.68 961.69 L1433.03 965.65 L1399.24 969.49 L1365.46 973.20 L1331.67 976.91 L1298.01 980.50 L1264.23 984.09 L1230.45 987.56 L1196.66 991.02 L1163.00 994.49 L1129.22 997.83 L1095.43 1001.17 L1061.65 1004.39 L1027.99 1007.73 L994.21 1010.82 L960.42 1014.04 L926.64 1017.13 L892.98 1020.23 L859.20 1023.32 L825.41 1026.41 L791.63 1029.38 L757.97 1032.35 L724.18 1035.32 L690.40 1038.29 L656.62 1041.14 L622.96 1044.11 L589.17 1046.96 L555.39 1049.80 L521.61 1052.65 L487.95 1055.37 L454.16 1058.22 L454.16 1869.30 Z"/></defs><defs><clipPath id="clipPath_VoBQLLVT"><use xlink:href="#path_udzXCjRi"/></clipPath></defs><use xlink:href="#path_udzXCjRi" style="stroke:none;fill:silver"/><use style="fill:none;stroke:silver;stroke-width:17.28" clip-path="url(#clipPath_VoBQLLVT)" xlink:href="#path_udzXCjRi"/><circle cx="454.04" cy="1687.76" r="16.09" style="fill:none;stroke:#1a476f;stroke-width:8.64"/><circle cx="1289.47" cy="979.26" r="15.72" style="fill:none;stroke:#1a476f;stroke-width:8.64"/><circle cx="2960.22" cy="1479.11" r="16.09" style="fill:none;stroke:#1a476f;stroke-width:8.64"/><circle cx="2124.91" cy="1042.38" r="14.97" style="fill:none;stroke:#1a476f;stroke-width:8.64"/><circle cx="2124.91" cy="857.99" r="11.26" style="fill:none;stroke:#1a476f;stroke-width:8.64"/><circle cx="2124.91" cy="867.76" r="13.98" style="fill:none;stroke:#1a476f;stroke-width:8.64"/><circle cx="2542.57" cy="1022.95" r="23.02" style="fill:none;stroke:#1a476f;stroke-width:8.64"/><circle cx="2960.22" cy="678.42" r="18.93" style="fill:none;stroke:#1a476f;stroke-width:8.64"/><circle cx="3795.66" cy="338.84" r="12.62" style="fill:none;stroke:#1a476f;stroke-width:8.64"/><circle cx="3795.66" cy="717.28" r="26.85" style="fill:none;stroke:#1a476f;stroke-width:8.64"/><path stroke-linejoin="round" d="M454.04 1463.76 L487.82 1455.59 L521.61 1447.43 L555.39 1439.13 L589.05 1430.97 L622.83 1422.67 L656.62 1414.51 L690.40 1406.22 L724.06 1398.05 L757.85 1389.76 L791.63 1381.59 L825.41 1373.30 L859.07 1365.13 L892.86 1356.84 L926.64 1348.67 L960.42 1340.50 L994.08 1332.21 L1027.87 1324.04 L1061.65 1315.75 L1095.43 1307.58 L1129.10 1299.29 L1162.88 1291.12 L1196.66 1282.83 L1230.45 1274.66 L1264.11 1266.37 L1297.89 1258.21 L1331.67 1249.91 L1365.46 1241.75 L1399.12 1233.45 L1432.90 1225.29 L1466.68 1217.12 L1500.47 1208.83 L1534.13 1200.66 L1567.91 1192.37 L1601.70 1184.20 L1635.48 1175.91 L1669.14 1167.74 L1702.92 1159.45 L1736.71 1151.28 L1770.49 1142.99 L1804.15 1134.82 L1837.93 1126.53 L1871.72 1118.36 L1905.50 1110.07 L1939.29 1101.90 L1972.95 1093.74 L2006.73 1085.45 L2040.51 1077.28 L2074.30 1068.99 L2107.96 1060.82 L2141.74 1052.53 L2175.53 1044.36 L2209.31 1036.07 L2242.97 1027.90 L2276.75 1019.61 L2310.54 1011.44 L2344.32 1003.15 L2377.98 994.98 L2411.76 986.81 L2445.55 978.52 L2479.33 970.35 L2512.99 962.06 L2546.78 953.89 L2580.56 945.60 L2614.34 937.44 L2648.00 929.14 L2681.79 920.98 L2715.57 912.68 L2749.35 904.52 L2783.01 896.23 L2816.80 888.06 L2850.58 879.77 L2884.36 871.60 L2918.03 863.43 L2951.81 855.14 L2985.59 846.97 L3019.38 838.68 L3053.04 830.51 L3086.82 822.22 L3120.60 814.05 L3154.39 805.76 L3188.05 797.59 L3221.83 789.30 L3255.61 781.13 L3289.40 772.84 L3323.06 764.68 L3356.84 756.38 L3390.63 748.22 L3424.41 740.05 L3458.07 731.76 L3491.85 723.59 L3525.64 715.30 L3559.42 707.13 L3593.08 698.84 L3626.86 690.67 L3660.65 682.38 L3694.43 674.21 L3728.09 665.92 L3761.88 657.75 L3795.66 649.46" style="fill:none;stroke:#90353b;stroke-width:8.64"/><line x1="390.8" x2="390.8" y1="1979.2" y2="275.35" style="stroke:#000;stroke-width:5.76"/><line x1="390.8" x2="350.83" y1="1915.83" y2="1915.83" style="stroke:#000;stroke-width:5.76"/><text x="300.72" y="1915.83" text-anchor="middle" transform="rotate(-90 300.72,1915.83)" style="font-family:'Helvetica';font-size:99.99px;fill:#000">-3</text><line x1="390.8" x2="350.83" y1="1430.59" y2="1430.59" style="stroke:#000;stroke-width:5.76"/><text x="300.72" y="1430.59" text-anchor="middle" transform="rotate(-90 300.72,1430.59)" style="font-family:'Helvetica';font-size:99.99px;fill:#000">-2</text><line x1="390.8" x2="350.83" y1="945.23" y2="945.23" style="stroke:#000;stroke-width:5.76"/><text x="300.72" y="945.23" text-anchor="middle" transform="rotate(-90 300.72,945.23)" style="font-family:'Helvetica';font-size:99.99px;fill:#000">-1</text><line x1="390.8" x2="350.83" y1="459.99" y2="459.99" style="stroke:#000;stroke-width:5.76"/><text x="300.72" y="459.99" text-anchor="middle" transform="rotate(-90 300.72,459.99)" style="font-family:'Helvetica';font-size:99.99px;fill:#000">0</text><text x="190.71" y="1127.27" text-anchor="middle" transform="rotate(-90 190.71,1127.27)" style="font-family:'Helvetica';font-size:99.99px;fill:#000">Std. Mean Diff.</text><line x1="390.8" x2="3859.02" y1="1979.2" y2="1979.2" style="stroke:#000;stroke-width:5.76"/><line x1="454.16" x2="454.16" y1="1979.2" y2="2019.17" style="stroke:#000;stroke-width:5.76"/><text x="454.16" y="2109.03" text-anchor="middle" style="font-family:'Helvetica';font-size:99.99px;fill:#000">4</text><line x1="1289.47" x2="1289.47" y1="1979.2" y2="2019.17" style="stroke:#000;stroke-width:5.76"/><text x="1289.47" y="2109.03" text-anchor="middle" style="font-family:'Helvetica';font-size:99.99px;fill:#000">6</text><line x1="2124.91" x2="2124.91" y1="1979.2" y2="2019.17" style="stroke:#000;stroke-width:5.76"/><text x="2124.91" y="2109.03" text-anchor="middle" style="font-family:'Helvetica';font-size:99.99px;fill:#000">8</text><line x1="2960.35" x2="2960.35" y1="1979.2" y2="2019.17" style="stroke:#000;stroke-width:5.76"/><text x="2960.35" y="2109.03" text-anchor="middle" style="font-family:'Helvetica';font-size:99.99px;fill:#000">10</text><line x1="3795.66" x2="3795.66" y1="1979.2" y2="2019.17" style="stroke:#000;stroke-width:5.76"/><text x="3795.66" y="2109.03" text-anchor="middle" style="font-family:'Helvetica';font-size:99.99px;fill:#000">12</text><text x="2124.91" y="2219.04" text-anchor="middle" style="font-family:'Helvetica';font-size:99.99px;fill:#000">Duration of follow-up (weeks)</text><rect width="1835.09" height="326.46" x="1207.43" y="2303.68" style="fill:#fff"/><rect width="1829.33" height="320.7" x="1210.31" y="2306.56" style="fill:none;stroke:#000;stroke-width:5.76"/><rect width="374.34" height="99.99" x="1250.62" y="2346.87" style="fill:silver"/><rect width="365.7" height="91.35" x="1254.94" y="2351.19" style="fill:none;stroke:silver;stroke-width:8.64"/><circle cx="2589.47" cy="2396.86" r="7.55" style="fill:none;stroke:#1a476f;stroke-width:8.64"/><line x1="1250.62" x2="1624.96" y1="2536.95" y2="2536.95" style="stroke:#90353b;stroke-width:8.64"/><text x="1684.98" y="2431.89" style="font-family:'Helvetica';font-size:99.99px;fill:#000">95% CI</text><text x="2657.04" y="2431.89" style="font-family:'Helvetica';font-size:99.99px;fill:#000">Studies</text><text x="1684.98" y="2571.98" style="font-family:'Helvetica';font-size:99.99px;fill:#000">Linear prediction</text><text x="408" y="2737.89" style="font-family:'Helvetica';font-size:79.94px;fill:#000">Weights: Inverse-variance</text><text x="2124.91" y="215.98" text-anchor="middle" style="font-family:'Helvetica';font-size:139.96px;fill:#1e2d53">Bubble plot</text></svg>