<?xml version="1.0" encoding="UTF-8" standalone="no"?>
<!-- This is a Stata 16.1 generated SVG file (http://www.stata.com) -->

<svg version="1.1" width="720px" height="361px" viewBox="0 0 6963 3491" xmlns="http://www.w3.org/2000/svg" xmlns:xlink="http://www.w3.org/1999/xlink">
	<desc>Stata Graph - Graph</desc>
	<rect x="0" y="0" width="6963" height="3491" style="fill:#FFFFFF;stroke:none"/>
	<rect x="0.00" y="0.00" width="6963.00" height="3491.00" style="fill:#FFFFFF"/>
	<rect x="2.88" y="2.88" width="6957.24" height="3485.24" style="fill:none;stroke:#FFFFFF;stroke-width:5.76"/>
	<rect x="40.04" y="40.03" width="6882.93" height="3410.94" style="fill:#FFFFFF"/>
	<rect x="42.92" y="42.91" width="6877.17" height="3405.18" style="fill:none;stroke:#FFFFFF;stroke-width:5.76"/>
	<rect x="40.04" y="40.03" width="6882.93" height="3301.07" style="fill:#FFFFFF"/>
	<rect x="42.92" y="42.91" width="6877.17" height="3295.31" style="fill:none;stroke:#FFFFFF;stroke-width:5.76"/>
	<rect x="80.07" y="80.06" width="6802.85" height="3221.01" style="fill:#FFFFFF"/>
	<rect x="82.95" y="82.94" width="6797.09" height="3215.25" style="fill:none;stroke:#FFFFFF;stroke-width:5.76"/>
	<text x="100.09" y="579.66" style="font-family:'Helvetica';font-size:110.10px;fill:#000000">Mutrie</text>
	<text x="100.09" y="765.89" style="font-family:'Helvetica';font-size:110.10px;fill:#000000">McNeil</text>
	<text x="100.09" y="952.35" style="font-family:'Helvetica';font-size:110.10px;fill:#000000">Reuter</text>
	<text x="100.09" y="1138.58" style="font-family:'Helvetica';font-size:110.10px;fill:#000000">Doyne</text>
	<text x="100.09" y="1325.03" style="font-family:'Helvetica';font-size:110.10px;fill:#000000">Hess-Homeier</text>
	<text x="100.09" y="1511.26" style="font-family:'Helvetica';font-size:110.10px;fill:#000000">Epstein</text>
	<text x="100.09" y="1697.49" style="font-family:'Helvetica';font-size:110.10px;fill:#000000">Martinsen</text>
	<text x="100.09" y="1883.95" style="font-family:'Helvetica';font-size:110.10px;fill:#000000">Singh</text>
	<text x="100.09" y="2070.18" style="font-family:'Helvetica';font-size:110.10px;fill:#000000">Klein</text>
	<text x="100.09" y="2256.63" style="font-family:'Helvetica';font-size:110.10px;fill:#000000">Veale</text>
	<text x="100.09" y="2482.24" style="font-family:'Helvetica';font-weight:bold;font-size:110.10px;fill:#000000">Overall</text>
	<text x="100.09" y="2668.47" style="fill:#000000">
		<tspan style="font-family:'Helvetica';font-size:110.10px">Heterogeneity: τ</tspan>
		<tspan dy="-57.66px" style="font-family:'Helvetica';font-size:64.19px">2</tspan>
		<tspan dy="57.66px" style="font-family:'Helvetica';font-size:110.10px"> = 0.45, I</tspan>
		<tspan dy="-57.66px" style="font-family:'Helvetica';font-size:64.19px">2</tspan>
		<tspan dy="57.66px" style="font-family:'Helvetica';font-size:110.10px"> = 76.33%, H</tspan>
		<tspan dy="-57.66px" style="font-family:'Helvetica';font-size:64.19px">2</tspan>
		<tspan dy="57.66px" style="font-family:'Helvetica';font-size:110.10px"> = 4.22</tspan>
	</text>
	<text x="100.09" y="2854.92" style="fill:#000000">
		<tspan style="font-family:'Helvetica';font-size:110.10px">Test of θ</tspan>
		<tspan dy="15.73px" style="font-family:'Helvetica';font-size:64.19px">i</tspan>
		<tspan dy="-15.73px" style="font-family:'Helvetica';font-size:110.10px"> = θ</tspan>
		<tspan dy="15.73px" style="font-family:'Helvetica';font-size:64.19px">j</tspan>
		<tspan dy="-15.73px" style="font-family:'Helvetica';font-size:110.10px">: Q(9) = 35.43, p = 0.00</tspan>
	</text>
	<text x="100.09" y="3041.16" style="font-family:'Helvetica';font-size:110.10px;fill:#000000">Test of θ = 0: z = -4.26, p = 0.00</text>
	<text x="100.09" y="326.93" style="font-family:'Helvetica';font-size:110.10px;fill:#000000">Study</text>
	<line x1="4869.31" y1="3101.13" x2="4869.31" y2="388.57" style="stroke:#808080;stroke-width:5.76"/>
	<line x1="4169.31" y1="541.08" x2="3952.37" y2="541.08" style="stroke:#1A476F;stroke-width:8.64"/>
	<line x1="4573.39" y1="727.31" x2="4351.00" y2="727.31" style="stroke:#1A476F;stroke-width:8.64"/>
	<line x1="4288.34" y1="913.76" x2="4071.40" y2="913.76" style="stroke:#1A476F;stroke-width:8.64"/>
	<line x1="4537.26" y1="1099.99" x2="4304.22" y2="1099.99" style="stroke:#1A476F;stroke-width:8.64"/>
	<line x1="4642.58" y1="1286.44" x2="4333.38" y2="1286.44" style="stroke:#1A476F;stroke-width:8.64"/>
	<line x1="4636.92" y1="1472.68" x2="4387.56" y2="1472.68" style="stroke:#1A476F;stroke-width:8.64"/>
	<line x1="4548.36" y1="1658.91" x2="4396.70" y2="1658.91" style="stroke:#1A476F;stroke-width:8.64"/>
	<line x1="4744.85" y1="1845.36" x2="4560.55" y2="1845.36" style="stroke:#1A476F;stroke-width:8.64"/>
	<line x1="4938.51" y1="2031.59" x2="4661.95" y2="2031.59" style="stroke:#1A476F;stroke-width:8.64"/>
	<line x1="4722.65" y1="2218.04" x2="4592.53" y2="2218.04" style="stroke:#1A476F;stroke-width:8.64"/>
	<line x1="3952.37" y1="541.08" x2="3952.37" y2="541.08" stroke-linecap="round" style="stroke:#1A476F;stroke-width:8.64"/>
	<line x1="3952.37" y1="541.08" x2="3952.37" y2="541.08" stroke-linecap="round" style="stroke:#1A476F;stroke-width:8.64"/>
	<line x1="4351.00" y1="727.31" x2="4351.00" y2="727.31" stroke-linecap="round" style="stroke:#1A476F;stroke-width:8.64"/>
	<line x1="4351.00" y1="727.31" x2="4351.00" y2="727.31" stroke-linecap="round" style="stroke:#1A476F;stroke-width:8.64"/>
	<line x1="4071.40" y1="913.76" x2="4071.40" y2="913.76" stroke-linecap="round" style="stroke:#1A476F;stroke-width:8.64"/>
	<line x1="4071.40" y1="913.76" x2="4071.40" y2="913.76" stroke-linecap="round" style="stroke:#1A476F;stroke-width:8.64"/>
	<line x1="4304.22" y1="1099.99" x2="4304.22" y2="1099.99" stroke-linecap="round" style="stroke:#1A476F;stroke-width:8.64"/>
	<line x1="4304.22" y1="1099.99" x2="4304.22" y2="1099.99" stroke-linecap="round" style="stroke:#1A476F;stroke-width:8.64"/>
	<line x1="4333.38" y1="1286.44" x2="4333.38" y2="1286.44" stroke-linecap="round" style="stroke:#1A476F;stroke-width:8.64"/>
	<line x1="4333.38" y1="1286.44" x2="4333.38" y2="1286.44" stroke-linecap="round" style="stroke:#1A476F;stroke-width:8.64"/>
	<line x1="4387.56" y1="1472.68" x2="4387.56" y2="1472.68" stroke-linecap="round" style="stroke:#1A476F;stroke-width:8.64"/>
	<line x1="4387.56" y1="1472.68" x2="4387.56" y2="1472.68" stroke-linecap="round" style="stroke:#1A476F;stroke-width:8.64"/>
	<line x1="4396.70" y1="1658.91" x2="4396.70" y2="1658.91" stroke-linecap="round" style="stroke:#1A476F;stroke-width:8.64"/>
	<line x1="4396.70" y1="1658.91" x2="4396.70" y2="1658.91" stroke-linecap="round" style="stroke:#1A476F;stroke-width:8.64"/>
	<line x1="4560.55" y1="1845.36" x2="4560.55" y2="1845.36" stroke-linecap="round" style="stroke:#1A476F;stroke-width:8.64"/>
	<line x1="4560.55" y1="1845.36" x2="4560.55" y2="1845.36" stroke-linecap="round" style="stroke:#1A476F;stroke-width:8.64"/>
	<line x1="4661.95" y1="2031.59" x2="4661.95" y2="2031.59" stroke-linecap="round" style="stroke:#1A476F;stroke-width:8.64"/>
	<line x1="4661.95" y1="2031.59" x2="4661.95" y2="2031.59" stroke-linecap="round" style="stroke:#1A476F;stroke-width:8.64"/>
	<line x1="4592.53" y1="2218.04" x2="4592.53" y2="2218.04" stroke-linecap="round" style="stroke:#1A476F;stroke-width:8.64"/>
	<line x1="4592.53" y1="2218.04" x2="4592.53" y2="2218.04" stroke-linecap="round" style="stroke:#1A476F;stroke-width:8.64"/>
	<line x1="4169.31" y1="541.08" x2="4386.25" y2="541.08" style="stroke:#1A476F;stroke-width:8.64"/>
	<line x1="4573.39" y1="727.31" x2="4795.77" y2="727.31" style="stroke:#1A476F;stroke-width:8.64"/>
	<line x1="4288.34" y1="913.76" x2="4505.28" y2="913.76" style="stroke:#1A476F;stroke-width:8.64"/>
	<line x1="4537.26" y1="1099.99" x2="4770.53" y2="1099.99" style="stroke:#1A476F;stroke-width:8.64"/>
	<line x1="4642.58" y1="1286.44" x2="4951.56" y2="1286.44" style="stroke:#1A476F;stroke-width:8.64"/>
	<line x1="4636.92" y1="1472.68" x2="4886.50" y2="1472.68" style="stroke:#1A476F;stroke-width:8.64"/>
	<line x1="4548.36" y1="1658.91" x2="4700.24" y2="1658.91" style="stroke:#1A476F;stroke-width:8.64"/>
	<line x1="4744.85" y1="1845.36" x2="4929.15" y2="1845.36" style="stroke:#1A476F;stroke-width:8.64"/>
	<line x1="4938.51" y1="2031.59" x2="5215.07" y2="2031.59" style="stroke:#1A476F;stroke-width:8.64"/>
	<line x1="4722.65" y1="2218.04" x2="4852.99" y2="2218.04" style="stroke:#1A476F;stroke-width:8.64"/>
	<line x1="4386.25" y1="541.08" x2="4386.25" y2="541.08" stroke-linecap="round" style="stroke:#1A476F;stroke-width:8.64"/>
	<line x1="4386.25" y1="541.08" x2="4386.25" y2="541.08" stroke-linecap="round" style="stroke:#1A476F;stroke-width:8.64"/>
	<line x1="4795.77" y1="727.31" x2="4795.77" y2="727.31" stroke-linecap="round" style="stroke:#1A476F;stroke-width:8.64"/>
	<line x1="4795.77" y1="727.31" x2="4795.77" y2="727.31" stroke-linecap="round" style="stroke:#1A476F;stroke-width:8.64"/>
	<line x1="4505.28" y1="913.76" x2="4505.28" y2="913.76" stroke-linecap="round" style="stroke:#1A476F;stroke-width:8.64"/>
	<line x1="4505.28" y1="913.76" x2="4505.28" y2="913.76" stroke-linecap="round" style="stroke:#1A476F;stroke-width:8.64"/>
	<line x1="4770.53" y1="1099.99" x2="4770.53" y2="1099.99" stroke-linecap="round" style="stroke:#1A476F;stroke-width:8.64"/>
	<line x1="4770.53" y1="1099.99" x2="4770.53" y2="1099.99" stroke-linecap="round" style="stroke:#1A476F;stroke-width:8.64"/>
	<line x1="4951.56" y1="1286.44" x2="4951.56" y2="1286.44" stroke-linecap="round" style="stroke:#1A476F;stroke-width:8.64"/>
	<line x1="4951.56" y1="1286.44" x2="4951.56" y2="1286.44" stroke-linecap="round" style="stroke:#1A476F;stroke-width:8.64"/>
	<line x1="4886.50" y1="1472.68" x2="4886.50" y2="1472.68" stroke-linecap="round" style="stroke:#1A476F;stroke-width:8.64"/>
	<line x1="4886.50" y1="1472.68" x2="4886.50" y2="1472.68" stroke-linecap="round" style="stroke:#1A476F;stroke-width:8.64"/>
	<line x1="4700.24" y1="1658.91" x2="4700.24" y2="1658.91" stroke-linecap="round" style="stroke:#1A476F;stroke-width:8.64"/>
	<line x1="4700.24" y1="1658.91" x2="4700.24" y2="1658.91" stroke-linecap="round" style="stroke:#1A476F;stroke-width:8.64"/>
	<line x1="4929.15" y1="1845.36" x2="4929.15" y2="1845.36" stroke-linecap="round" style="stroke:#1A476F;stroke-width:8.64"/>
	<line x1="4929.15" y1="1845.36" x2="4929.15" y2="1845.36" stroke-linecap="round" style="stroke:#1A476F;stroke-width:8.64"/>
	<line x1="5215.07" y1="2031.59" x2="5215.07" y2="2031.59" stroke-linecap="round" style="stroke:#1A476F;stroke-width:8.64"/>
	<line x1="5215.07" y1="2031.59" x2="5215.07" y2="2031.59" stroke-linecap="round" style="stroke:#1A476F;stroke-width:8.64"/>
	<line x1="4852.99" y1="2218.04" x2="4852.99" y2="2218.04" stroke-linecap="round" style="stroke:#1A476F;stroke-width:8.64"/>
	<line x1="4852.99" y1="2218.04" x2="4852.99" y2="2218.04" stroke-linecap="round" style="stroke:#1A476F;stroke-width:8.64"/>
	<rect x="4114.73" y="486.50" width="109.17" height="109.15" style="fill:#1A476F"/>
	<rect x="4119.05" y="490.82" width="100.53" height="100.51" style="fill:none;stroke:#1A476F;stroke-width:8.64"/>
	<rect x="4519.02" y="673.39" width="108.30" height="108.28" style="fill:#1A476F"/>
	<rect x="4523.34" y="677.71" width="99.66" height="99.64" style="fill:none;stroke:#1A476F;stroke-width:8.64"/>
	<rect x="4233.75" y="859.18" width="109.17" height="109.15" style="fill:#1A476F"/>
	<rect x="4238.07" y="863.50" width="100.53" height="100.51" style="fill:none;stroke:#1A476F;stroke-width:8.64"/>
	<rect x="4483.77" y="1046.72" width="106.99" height="106.98" style="fill:#1A476F"/>
	<rect x="4488.09" y="1051.04" width="98.35" height="98.34" style="fill:none;stroke:#1A476F;stroke-width:8.64"/>
	<rect x="4593.44" y="1237.52" width="97.85" height="97.84" style="fill:#1A476F"/>
	<rect x="4597.76" y="1241.84" width="89.21" height="89.20" style="fill:none;stroke:#1A476F;stroke-width:8.64"/>
	<rect x="4584.30" y="1420.06" width="105.25" height="105.24" style="fill:#1A476F"/>
	<rect x="4588.62" y="1424.38" width="96.61" height="96.60" style="fill:none;stroke:#1A476F;stroke-width:8.64"/>
	<rect x="4490.08" y="1600.85" width="116.57" height="116.55" style="fill:#1A476F"/>
	<rect x="4494.40" y="1605.17" width="107.93" height="107.91" style="fill:none;stroke:#1A476F;stroke-width:8.64"/>
	<rect x="4688.31" y="1788.83" width="113.09" height="113.07" style="fill:#1A476F"/>
	<rect x="4692.63" y="1793.15" width="104.45" height="104.43" style="fill:none;stroke:#1A476F;stroke-width:8.64"/>
	<rect x="4887.62" y="1980.93" width="101.77" height="101.76" style="fill:#1A476F"/>
	<rect x="4891.94" y="1985.25" width="93.13" height="93.12" style="fill:none;stroke:#1A476F;stroke-width:8.64"/>
	<rect x="4663.28" y="2158.68" width="118.74" height="118.73" style="fill:#1A476F"/>
	<rect x="4667.60" y="2163.00" width="110.10" height="110.09" style="fill:none;stroke:#1A476F;stroke-width:8.64"/>
	<defs>
		<path id="path_fIQBBRZK" d="M4722.65 2218.04 M4443.05 2443.66 L4577.30 2497.61 L4711.56 2443.66 L4577.30 2389.70 Z" stroke-linejoin="round"/>
	</defs>
	<defs>
		<clipPath id="clipPath_BBmjEzaf">
			<use xlink:href="#path_fIQBBRZK"/>
		</clipPath>
	</defs>
	<use xlink:href="#path_fIQBBRZK" style="stroke:none;fill:#55752F"/>
	<use xlink:href="#path_fIQBBRZK" style="fill:none;stroke:#55752F;stroke-width:17.28" clip-path="url(#clipPath_BBmjEzaf)"/>
	<line x1="3762.63" y1="3101.13" x2="5422.65" y2="3101.13" style="stroke:#000000;stroke-width:5.76"/>
	<line x1="3762.63" y1="3101.13" x2="3762.63" y2="3140.94" style="stroke:#000000;stroke-width:5.76"/>
	<text x="3762.63" y="3237.91" style="font-family:'Helvetica';font-size:110.10px;fill:#000000" text-anchor="middle">-4.00</text>
	<line x1="4315.97" y1="3101.13" x2="4315.97" y2="3140.94" style="stroke:#000000;stroke-width:5.76"/>
	<text x="4315.97" y="3237.91" style="font-family:'Helvetica';font-size:110.10px;fill:#000000" text-anchor="middle">-2.00</text>
	<line x1="4869.31" y1="3101.13" x2="4869.31" y2="3140.94" style="stroke:#000000;stroke-width:5.76"/>
	<text x="4869.31" y="3237.91" style="font-family:'Helvetica';font-size:110.10px;fill:#000000" text-anchor="middle">0.00</text>
	<line x1="5422.65" y1="3101.13" x2="5422.65" y2="3140.94" style="stroke:#000000;stroke-width:5.76"/>
	<text x="5422.65" y="3237.91" style="font-family:'Helvetica';font-size:110.10px;fill:#000000" text-anchor="middle">2.00</text>
	<text x="5936.61" y="326.93" style="font-family:'Helvetica';font-size:110.10px;fill:#000000" text-anchor="middle">with 95% CI</text>
	<text x="5936.61" y="176.81" style="font-family:'Helvetica';font-size:110.10px;fill:#000000" text-anchor="middle">Std. Mean Diff.</text>
	<text x="5767.32" y="579.66" style="font-family:'Helvetica';font-size:110.10px;fill:#000000" text-anchor="end">-2.53 [</text>
	<text x="5767.32" y="765.89" style="font-family:'Helvetica';font-size:110.10px;fill:#000000" text-anchor="end">-1.07 [</text>
	<text x="5767.32" y="952.35" style="font-family:'Helvetica';font-size:110.10px;fill:#000000" text-anchor="end">-2.10 [</text>
	<text x="5767.32" y="1138.58" style="font-family:'Helvetica';font-size:110.10px;fill:#000000" text-anchor="end">-1.20 [</text>
	<text x="5767.32" y="1325.03" style="font-family:'Helvetica';font-size:110.10px;fill:#000000" text-anchor="end">-0.82 [</text>
	<text x="5767.32" y="1511.26" style="font-family:'Helvetica';font-size:110.10px;fill:#000000" text-anchor="end">-0.84 [</text>
	<text x="5767.32" y="1697.49" style="font-family:'Helvetica';font-size:110.10px;fill:#000000" text-anchor="end">-1.16 [</text>
	<text x="5767.32" y="1883.95" style="font-family:'Helvetica';font-size:110.10px;fill:#000000" text-anchor="end">-0.45 [</text>
	<text x="5767.32" y="2070.18" style="font-family:'Helvetica';font-size:110.10px;fill:#000000" text-anchor="end">0.25 [</text>
	<text x="5767.32" y="2256.63" style="font-family:'Helvetica';font-size:110.10px;fill:#000000" text-anchor="end">-0.53 [</text>
	<text x="5767.32" y="2482.24" style="font-family:'Helvetica';font-size:110.10px;fill:#000000" text-anchor="end">-1.06 [</text>
	<text x="6079.57" y="579.66" style="font-family:'Helvetica';font-size:110.10px;fill:#000000" text-anchor="end">-3.31,</text>
	<text x="6079.57" y="765.89" style="font-family:'Helvetica';font-size:110.10px;fill:#000000" text-anchor="end">-1.87,</text>
	<text x="6079.57" y="952.35" style="font-family:'Helvetica';font-size:110.10px;fill:#000000" text-anchor="end">-2.88,</text>
	<text x="6079.57" y="1138.58" style="font-family:'Helvetica';font-size:110.10px;fill:#000000" text-anchor="end">-2.04,</text>
	<text x="6079.57" y="1325.03" style="font-family:'Helvetica';font-size:110.10px;fill:#000000" text-anchor="end">-1.94,</text>
	<text x="6079.57" y="1511.26" style="font-family:'Helvetica';font-size:110.10px;fill:#000000" text-anchor="end">-1.74,</text>
	<text x="6079.57" y="1697.49" style="font-family:'Helvetica';font-size:110.10px;fill:#000000" text-anchor="end">-1.71,</text>
	<text x="6079.57" y="1883.95" style="font-family:'Helvetica';font-size:110.10px;fill:#000000" text-anchor="end">-1.12,</text>
	<text x="6079.57" y="2070.18" style="font-family:'Helvetica';font-size:110.10px;fill:#000000" text-anchor="end">-0.75,</text>
	<text x="6079.57" y="2256.63" style="font-family:'Helvetica';font-size:110.10px;fill:#000000" text-anchor="end">-1.00,</text>
	<text x="6079.57" y="2482.24" style="font-family:'Helvetica';font-size:110.10px;fill:#000000" text-anchor="end">-1.54,</text>
	<text x="6410.53" y="579.66" style="font-family:'Helvetica';font-size:110.10px;fill:#000000" text-anchor="end">-1.75]</text>
	<text x="6410.53" y="765.89" style="font-family:'Helvetica';font-size:110.10px;fill:#000000" text-anchor="end">-0.27]</text>
	<text x="6410.53" y="952.35" style="font-family:'Helvetica';font-size:110.10px;fill:#000000" text-anchor="end">-1.32]</text>
	<text x="6410.53" y="1138.58" style="font-family:'Helvetica';font-size:110.10px;fill:#000000" text-anchor="end">-0.36]</text>
	<text x="6410.53" y="1325.03" style="font-family:'Helvetica';font-size:110.10px;fill:#000000" text-anchor="end">0.30]</text>
	<text x="6410.53" y="1511.26" style="font-family:'Helvetica';font-size:110.10px;fill:#000000" text-anchor="end">0.06]</text>
	<text x="6410.53" y="1697.49" style="font-family:'Helvetica';font-size:110.10px;fill:#000000" text-anchor="end">-0.61]</text>
	<text x="6410.53" y="1883.95" style="font-family:'Helvetica';font-size:110.10px;fill:#000000" text-anchor="end">0.22]</text>
	<text x="6410.53" y="2070.18" style="font-family:'Helvetica';font-size:110.10px;fill:#000000" text-anchor="end">1.25]</text>
	<text x="6410.53" y="2256.63" style="font-family:'Helvetica';font-size:110.10px;fill:#000000" text-anchor="end">-0.06]</text>
	<text x="6410.53" y="2482.24" style="font-family:'Helvetica';font-size:110.10px;fill:#000000" text-anchor="end">-0.57]</text>
	<text x="6788.27" y="579.66" style="font-family:'Helvetica';font-size:110.10px;fill:#000000" text-anchor="end">10.05</text>
	<text x="6788.27" y="765.89" style="font-family:'Helvetica';font-size:110.10px;fill:#000000" text-anchor="end">9.92</text>
	<text x="6788.27" y="952.35" style="font-family:'Helvetica';font-size:110.10px;fill:#000000" text-anchor="end">10.05</text>
	<text x="6788.27" y="1138.58" style="font-family:'Helvetica';font-size:110.10px;fill:#000000" text-anchor="end">9.66</text>
	<text x="6788.27" y="1325.03" style="font-family:'Helvetica';font-size:110.10px;fill:#000000" text-anchor="end">7.91</text>
	<text x="6788.27" y="1511.26" style="font-family:'Helvetica';font-size:110.10px;fill:#000000" text-anchor="end">9.27</text>
	<text x="6788.27" y="1697.49" style="font-family:'Helvetica';font-size:110.10px;fill:#000000" text-anchor="end">11.60</text>
	<text x="6788.27" y="1883.95" style="font-family:'Helvetica';font-size:110.10px;fill:#000000" text-anchor="end">10.84</text>
	<text x="6788.27" y="2070.18" style="font-family:'Helvetica';font-size:110.10px;fill:#000000" text-anchor="end">8.63</text>
	<text x="6788.27" y="2256.63" style="font-family:'Helvetica';font-size:110.10px;fill:#000000" text-anchor="end">12.08</text>
	<text x="6666.85" y="326.93" style="font-family:'Helvetica';font-size:110.10px;fill:#000000" text-anchor="middle">(%)</text>
	<text x="6666.85" y="176.81" style="font-family:'Helvetica';font-size:110.10px;fill:#000000" text-anchor="middle">Weight</text>
	<line x1="80.07" y1="384.21" x2="6882.93" y2="384.21" style="stroke:#000000;stroke-width:8.64"/>
	<text x="40.04" y="3434.51" style="font-family:'Helvetica';font-size:110.10px;fill:#000000">Random-effects REML model</text>
</svg>
