<svg xmlns="http://www.w3.org/2000/svg" xmlns:xlink="http://www.w3.org/1999/xlink" width="720" height="524" version="1.1" viewBox="0 0 3960 2880"><desc>Stata Graph - Graph</desc><rect width="3960" height="2880" x="0" y="0" style="fill:#eaf2f3;stroke:none"/><rect width="3959.88" height="2880" x="0" y="0" style="fill:#eaf2f3"/><rect width="3954.12" height="2874.24" x="2.88" y="2.88" style="fill:none;stroke:#eaf2f3;stroke-width:5.76"/><rect width="3468.22" height="1818.32" x="390.8" y="275.35" style="fill:#fff"/><rect width="3462.46" height="1812.56" x="393.68" y="278.23" style="fill:none;stroke:#fff;stroke-width:5.76"/><line x1="390.8" x2="3859.02" y1="2030.31" y2="2030.31" style="stroke:#eaf2f3;stroke-width:8.64"/><line x1="390.8" x2="3859.02" y1="1713.12" y2="1713.12" style="stroke:#eaf2f3;stroke-width:8.64"/><line x1="390.8" x2="3859.02" y1="1395.94" y2="1395.94" style="stroke:#eaf2f3;stroke-width:8.64"/><line x1="390.8" x2="3859.02" y1="1078.76" y2="1078.76" style="stroke:#eaf2f3;stroke-width:8.64"/><line x1="390.8" x2="3859.02" y1="761.58" y2="761.58" style="stroke:#eaf2f3;stroke-width:8.64"/><line x1="390.8" x2="3859.02" y1="444.4" y2="444.4" style="stroke:#eaf2f3;stroke-width:8.64"/><path stroke-linejoin="round" d="M3646.05 1869.05 L3640.72 1863.86 L3635.53 1858.78 L3630.45 1853.71 L3625.26 1848.51 L3620.18 1843.44 L3615.23 1838.36 L3610.16 1833.17 L3605.33 1828.09 L3600.38 1823.02 L3595.56 1817.82 L3590.73 1812.75 L3586.03 1807.55 L3581.20 1802.48 L3576.62 1797.40 L3571.92 1792.20 L3567.34 1787.13 L3562.76 1782.06 L3558.18 1776.86 L3553.73 1771.78 L3549.27 1766.71 L3544.94 1761.51 L3540.49 1756.44 L3536.16 1751.36 L3531.82 1746.17 L3527.62 1741.09 L3523.41 1736.02 L3519.20 1730.82 L3514.99 1725.75 L3510.91 1720.55 L3506.83 1715.48 L3502.74 1710.40 L3498.66 1705.20 L3494.70 1700.13 L3490.74 1695.06 L3486.78 1689.86 L3482.94 1684.79 L3478.98 1679.71 L3475.15 1674.51 L3471.31 1669.44 L3467.60 1664.37 L3463.89 1659.17 L3460.05 1654.09 L3456.46 1648.90 L3452.75 1643.82 L3449.04 1638.75 L3445.45 1633.55 L3441.86 1628.48 L3438.39 1623.40 L3434.80 1618.21 L3431.34 1613.13 L3427.88 1608.06 L3424.41 1602.86 L3420.95 1597.79 L3417.60 1592.71 L3414.14 1587.51 L3410.80 1582.44 L3407.46 1577.24 L3404.24 1572.17 L3400.90 1567.10 L3397.68 1561.90 L3394.46 1556.82 L3391.24 1551.75 L3388.03 1546.55 L3384.81 1541.48 L3381.72 1536.40 L3378.62 1531.21 L3375.53 1526.13 L3372.43 1521.06 L3369.34 1515.86 L3366.37 1510.79 L3363.28 1505.71 L3360.31 1500.52 L3357.34 1495.44 L3354.37 1490.24 L3351.52 1485.17 L3348.55 1480.10 L3345.70 1474.90 L3342.86 1469.82 L3339.89 1464.75 L3337.17 1459.55 L3334.32 1454.48 L3331.47 1449.41 L3328.75 1444.21 L3326.03 1439.13 L3323.18 1434.06 L3320.46 1428.86 L3317.86 1423.79 L3315.14 1418.59 L3312.42 1413.52 L3309.82 1408.44 L3307.22 1403.25 L3304.50 1398.17 L3301.90 1393.10 L3299.42 1387.90 L3296.82 1382.83 L3294.22 1377.75 L3291.75 1372.55 L3289.15 1367.48 L3286.68 1362.41 L3284.20 1357.21 L3281.73 1352.13 L3279.25 1347.06 L3276.90 1341.86 L3274.43 1336.79 L3271.95 1331.59 L3269.60 1326.52 L3267.25 1321.44 L3264.90 1316.25 L3262.55 1311.17 L3260.19 1306.10 L3257.84 1300.90 L3255.49 1295.83 L3253.26 1290.75 L3251.04 1285.56 L3248.68 1280.48 L3246.46 1275.41 L3244.23 1270.21 L3242.00 1265.14 L3239.78 1259.94 L3237.55 1254.86 L3235.44 1249.79 L3233.22 1244.59 L3231.11 1239.52 L3228.89 1234.44 L3226.78 1229.25 L3224.68 1224.17 L3222.57 1219.10 L3220.47 1213.90 L3218.37 1208.83 L3216.26 1203.75 L3214.16 1198.56 L3212.18 1193.48 L3210.07 1188.28 L3208.09 1183.21 L3206.11 1178.14 L3204.01 1172.94 L3202.03 1167.87 L3200.05 1162.79 L3198.07 1157.59 L3196.22 1152.52 L3194.24 1147.45 L3192.26 1142.25 L3190.40 1137.17 L3188.42 1132.10 L3186.56 1126.90 L3184.58 1121.83 L3182.73 1116.75 L3180.87 1111.56 L3179.01 1106.48 L3177.16 1101.29 L3175.30 1096.21 L3173.45 1091.14 L3171.59 1085.94 L3169.86 1080.87 L3168.00 1075.79 L3166.27 1070.59 L3164.41 1065.52 L3162.68 1060.45 L3160.95 1055.25 L3159.09 1050.18 L3157.36 1045.10 L3155.62 1039.90 L3153.89 1034.83 L3152.16 1029.63 L3150.43 1024.56 L3148.82 1019.48 L3147.09 1014.29 L3145.35 1009.21 L3143.74 1004.14 L3142.01 998.94 L3140.40 993.87 L3138.80 988.79 L3137.06 983.60 L3135.45 978.52 L3133.84 973.45 L3132.24 968.25 L3130.63 963.18 L3129.02 958.10 L3127.41 952.90 L3125.80 947.83 L3124.32 942.63 L3122.71 937.56 L3121.10 932.49 L3119.61 927.29 L3118.01 922.21 L3116.52 917.14 L3114.91 911.94 L3113.43 906.87 L3111.94 901.79 L3110.46 896.60 L3108.97 891.52 L3107.36 886.45 L3105.88 881.25 L3104.39 876.18 L3103.03 870.98 L3101.55 865.91 L3100.06 860.83 L3098.58 855.63 L3097.22 850.56 L3095.73 845.49 L3094.24 840.29 L3092.88 835.21 L3091.40 830.14 L3090.04 824.94 L3088.68 819.87 L3087.19 814.80 L3085.83 809.60 L3084.47 804.52 L3083.11 799.45 L3081.75 794.25 L3080.39 789.18 L3079.02 783.98 L3077.66 778.91 L3076.30 773.83 L3074.94 768.64 L3073.58 763.56 L3072.34 758.49 L3070.98 753.29 L3069.62 748.22 L3068.38 743.14 L3067.02 737.94 L3065.78 732.87 L3064.42 727.80 L3063.18 722.60 L3061.95 717.52 L3060.59 712.33 L3059.35 707.25 L3058.11 702.18 L3056.87 696.98 L3055.64 691.91 L3054.40 686.83 L3053.16 681.64 L3051.92 676.56 L3050.68 671.49 L3049.45 666.29 L3048.21 661.22 L3046.97 656.14 L3045.86 650.95 L3044.62 645.87 L3043.38 640.67 L3042.27 635.60 L3041.03 630.53 L3039.80 625.33 L3038.68 620.25 L3037.44 615.18 L3036.33 609.98 L3035.22 604.91 L3033.98 599.83 L3032.86 594.64 L3031.75 589.56 L3030.64 584.49 L3029.40 579.29 L3028.29 574.22 L3027.17 569.14 L3026.06 563.95 L3024.95 558.87 L3023.83 553.67 L3022.72 548.60 L3021.60 543.53 L3020.49 538.33 L3019.50 533.26 L3018.39 528.18 L3017.27 522.98 L3016.16 517.91 L3015.17 512.84 L3014.05 507.64 L3012.94 502.56 L3011.95 497.49 L3010.84 492.29 L3009.85 487.22 L3008.73 482.02 L3007.74 476.95 L3006.63 471.87 L3005.64 466.68 L3004.65 461.60 L3003.54 456.53 L3002.55 451.33 L3001.56 446.26 L3000.57 441.18 L2999.45 435.98 L2998.46 430.91 L2997.47 425.84 L2996.48 420.64 L2995.49 415.57 L2994.50 410.49 L2993.51 405.29 L2992.52 400.22 L2991.53 395.02 L2990.54 389.95 L2989.55 384.87 L2988.69 379.68 L2987.70 374.60 L2986.71 369.53 L2985.72 364.33 L2984.85 359.26 L2983.86 354.18 L2982.87 348.99 L2982.00 343.91 L2981.01 338.84" style="fill:none;stroke:silver;stroke-width:8.64"/><path stroke-linejoin="round" d="M1348.75 1869.05 L1353.95 1863.86 L1359.15 1858.78 L1364.34 1853.71 L1369.42 1848.51 L1374.49 1843.44 L1379.57 1838.36 L1384.52 1833.17 L1389.46 1828.09 L1394.41 1823.02 L1399.24 1817.82 L1404.07 1812.75 L1408.77 1807.55 L1413.47 1802.48 L1418.17 1797.40 L1422.88 1792.20 L1427.46 1787.13 L1432.04 1782.06 L1436.49 1776.86 L1441.07 1771.78 L1445.52 1766.71 L1449.86 1761.51 L1454.31 1756.44 L1458.64 1751.36 L1462.85 1746.17 L1467.18 1741.09 L1471.39 1736.02 L1475.60 1730.82 L1479.80 1725.75 L1483.89 1720.55 L1487.97 1715.48 L1492.05 1710.40 L1496.01 1705.20 L1500.10 1700.13 L1504.06 1695.06 L1508.02 1689.86 L1511.85 1684.79 L1515.69 1679.71 L1519.65 1674.51 L1523.36 1669.44 L1527.20 1664.37 L1530.91 1659.17 L1534.62 1654.09 L1538.34 1648.90 L1542.05 1643.82 L1545.64 1638.75 L1549.23 1633.55 L1552.82 1628.48 L1556.40 1623.40 L1559.99 1618.21 L1563.46 1613.13 L1566.92 1608.06 L1570.39 1602.86 L1573.85 1597.79 L1577.19 1592.71 L1580.66 1587.51 L1584.00 1582.44 L1587.34 1577.24 L1590.56 1572.17 L1593.90 1567.10 L1597.12 1561.90 L1600.34 1556.82 L1603.55 1551.75 L1606.77 1546.55 L1609.86 1541.48 L1613.08 1536.40 L1616.17 1531.21 L1619.27 1526.13 L1622.36 1521.06 L1625.46 1515.86 L1628.43 1510.79 L1631.40 1505.71 L1634.49 1500.52 L1637.46 1495.44 L1640.31 1490.24 L1643.28 1485.17 L1646.25 1480.10 L1649.09 1474.90 L1651.94 1469.82 L1654.79 1464.75 L1657.63 1459.55 L1660.48 1454.48 L1663.20 1449.41 L1666.05 1444.21 L1668.77 1439.13 L1671.49 1434.06 L1674.21 1428.86 L1676.94 1423.79 L1679.66 1418.59 L1682.26 1413.52 L1684.98 1408.44 L1687.58 1403.25 L1690.18 1398.17 L1692.78 1393.10 L1695.38 1387.90 L1697.97 1382.83 L1700.57 1377.75 L1703.05 1372.55 L1705.52 1367.48 L1708.12 1362.41 L1710.60 1357.21 L1713.07 1352.13 L1715.42 1347.06 L1717.90 1341.86 L1720.37 1336.79 L1722.72 1331.59 L1725.20 1326.52 L1727.55 1321.44 L1729.90 1316.25 L1732.25 1311.17 L1734.60 1306.10 L1736.95 1300.90 L1739.18 1295.83 L1741.53 1290.75 L1743.76 1285.56 L1746.11 1280.48 L1748.34 1275.41 L1750.57 1270.21 L1752.80 1265.14 L1755.02 1259.94 L1757.25 1254.86 L1759.35 1249.79 L1761.58 1244.59 L1763.68 1239.52 L1765.91 1234.44 L1768.02 1229.25 L1770.12 1224.17 L1772.22 1219.10 L1774.33 1213.90 L1776.43 1208.83 L1778.54 1203.75 L1780.52 1198.56 L1782.62 1193.48 L1784.60 1188.28 L1786.70 1183.21 L1788.68 1178.14 L1790.66 1172.94 L1792.64 1167.87 L1794.62 1162.79 L1796.60 1157.59 L1798.58 1152.52 L1800.56 1147.45 L1802.54 1142.25 L1804.40 1137.17 L1806.38 1132.10 L1808.23 1126.90 L1810.09 1121.83 L1812.07 1116.75 L1813.93 1111.56 L1815.78 1106.48 L1817.64 1101.29 L1819.50 1096.21 L1821.35 1091.14 L1823.09 1085.94 L1824.94 1080.87 L1826.80 1075.79 L1828.53 1070.59 L1830.39 1065.52 L1832.12 1060.45 L1833.85 1055.25 L1835.58 1050.18 L1837.44 1045.10 L1839.17 1039.90 L1840.90 1034.83 L1842.51 1029.63 L1844.25 1024.56 L1845.98 1019.48 L1847.71 1014.29 L1849.32 1009.21 L1851.05 1004.14 L1852.66 998.94 L1854.39 993.87 L1856.00 988.79 L1857.61 983.60 L1859.34 978.52 L1860.95 973.45 L1862.56 968.25 L1864.17 963.18 L1865.78 958.10 L1867.39 952.90 L1868.87 947.83 L1870.48 942.63 L1872.09 937.56 L1873.70 932.49 L1875.18 927.29 L1876.79 922.21 L1878.28 917.14 L1879.76 911.94 L1881.37 906.87 L1882.86 901.79 L1884.34 896.60 L1885.83 891.52 L1887.31 886.45 L1888.80 881.25 L1890.28 876.18 L1891.77 870.98 L1893.25 865.91 L1894.74 860.83 L1896.10 855.63 L1897.58 850.56 L1899.07 845.49 L1900.43 840.29 L1901.91 835.21 L1903.28 830.14 L1904.76 824.94 L1906.12 819.87 L1907.48 814.80 L1908.97 809.60 L1910.33 804.52 L1911.69 799.45 L1913.05 794.25 L1914.41 789.18 L1915.77 783.98 L1917.13 778.91 L1918.50 773.83 L1919.73 768.64 L1921.10 763.56 L1922.46 758.49 L1923.82 753.29 L1925.06 748.22 L1926.42 743.14 L1927.65 737.94 L1929.02 732.87 L1930.25 727.80 L1931.61 722.60 L1932.85 717.52 L1934.09 712.33 L1935.33 707.25 L1936.69 702.18 L1937.92 696.98 L1939.16 691.91 L1940.40 686.83 L1941.64 681.64 L1942.88 676.56 L1944.11 671.49 L1945.35 666.29 L1946.59 661.22 L1947.70 656.14 L1948.94 650.95 L1950.18 645.87 L1951.41 640.67 L1952.53 635.60 L1953.77 630.53 L1954.88 625.33 L1956.12 620.25 L1957.23 615.18 L1958.47 609.98 L1959.58 604.91 L1960.69 599.83 L1961.93 594.64 L1963.05 589.56 L1964.16 584.49 L1965.27 579.29 L1966.39 574.22 L1967.62 569.14 L1968.74 563.95 L1969.85 558.87 L1970.97 553.67 L1972.08 548.60 L1973.19 543.53 L1974.18 538.33 L1975.30 533.26 L1976.41 528.18 L1977.53 522.98 L1978.52 517.91 L1979.63 512.84 L1980.74 507.64 L1981.73 502.56 L1982.85 497.49 L1983.96 492.29 L1984.95 487.22 L1986.06 482.02 L1987.05 476.95 L1988.04 471.87 L1989.16 466.68 L1990.15 461.60 L1991.14 456.53 L1992.25 451.33 L1993.24 446.26 L1994.23 441.18 L1995.22 435.98 L1996.21 430.91 L1997.33 425.84 L1998.32 420.64 L1999.31 415.57 L2000.30 410.49 L2001.29 405.29 L2002.28 400.22 L2003.27 395.02 L2004.13 389.95 L2005.12 384.87 L2006.11 379.68 L2007.10 374.60 L2008.09 369.53 L2008.96 364.33 L2009.95 359.26 L2010.94 354.18 L2011.80 348.99 L2012.79 343.91 L2013.78 338.84" style="fill:none;stroke:silver;stroke-width:8.64"/><circle cx="937.28" cy="1396.07" r="26.35" style="fill:#1a476f"/><circle cx="937.28" cy="1396.07" r="22.03" style="fill:none;stroke:#1a476f;stroke-width:8.64"/><circle cx="2438.49" cy="1434.68" r="26.35" style="fill:#1a476f"/><circle cx="2438.49" cy="1434.68" r="22.03" style="fill:none;stroke:#1a476f;stroke-width:8.64"/><circle cx="1379.44" cy="1396.07" r="26.35" style="fill:#1a476f"/><circle cx="1379.44" cy="1396.07" r="22.03" style="fill:none;stroke:#1a476f;stroke-width:8.64"/><circle cx="2304.84" cy="1506.7" r="26.35" style="fill:#1a476f"/><circle cx="2304.84" cy="1506.7" r="22.03" style="fill:none;stroke:#1a476f;stroke-width:8.64"/><circle cx="2695.52" cy="1869.05" r="26.35" style="fill:#1a476f"/><circle cx="2695.52" cy="1869.05" r="22.03" style="fill:none;stroke:#1a476f;stroke-width:8.64"/><circle cx="2674.98" cy="1602.86" r="26.35" style="fill:#1a476f"/><circle cx="2674.98" cy="1602.86" r="22.03" style="fill:none;stroke:#1a476f;stroke-width:8.64"/><circle cx="2345.93" cy="716.41" r="26.35" style="fill:#1a476f"/><circle cx="2345.93" cy="716.41" r="22.03" style="fill:none;stroke:#1a476f;stroke-width:8.64"/><circle cx="3075.93" cy="1116.14" r="26.35" style="fill:#1a476f"/><circle cx="3075.93" cy="1116.14" r="22.03" style="fill:none;stroke:#1a476f;stroke-width:8.64"/><circle cx="3795.66" cy="1738.12" r="26.35" style="fill:#1a476f"/><circle cx="3795.66" cy="1738.12" r="22.03" style="fill:none;stroke:#1a476f;stroke-width:8.64"/><circle cx="2993.64" cy="338.84" r="26.35" style="fill:#1a476f"/><circle cx="2993.64" cy="338.84" r="22.03" style="fill:none;stroke:#1a476f;stroke-width:8.64"/><path stroke-linejoin="round" d="M2497.40 1869.05 L2497.40 338.84" style="fill:none;stroke:#c10534;stroke-width:8.64"/><line x1="390.8" x2="390.8" y1="2093.67" y2="275.35" style="stroke:#000;stroke-width:5.76"/><line x1="390.8" x2="350.83" y1="2030.31" y2="2030.31" style="stroke:#000;stroke-width:5.76"/><text x="300.72" y="2030.31" text-anchor="middle" transform="rotate(-90 300.72,2030.31)" style="font-family:'Helvetica';font-size:99.99px;fill:#000">1.5</text><line x1="390.8" x2="350.83" y1="1713.12" y2="1713.12" style="stroke:#000;stroke-width:5.76"/><text x="300.72" y="1713.12" text-anchor="middle" transform="rotate(-90 300.72,1713.12)" style="font-family:'Helvetica';font-size:99.99px;fill:#000">2</text><line x1="390.8" x2="350.83" y1="1395.94" y2="1395.94" style="stroke:#000;stroke-width:5.76"/><text x="300.72" y="1395.94" text-anchor="middle" transform="rotate(-90 300.72,1395.94)" style="font-family:'Helvetica';font-size:99.99px;fill:#000">2.5</text><line x1="390.8" x2="350.83" y1="1078.76" y2="1078.76" style="stroke:#000;stroke-width:5.76"/><text x="300.72" y="1078.76" text-anchor="middle" transform="rotate(-90 300.72,1078.76)" style="font-family:'Helvetica';font-size:99.99px;fill:#000">3</text><line x1="390.8" x2="350.83" y1="761.58" y2="761.58" style="stroke:#000;stroke-width:5.76"/><text x="300.72" y="761.58" text-anchor="middle" transform="rotate(-90 300.72,761.58)" style="font-family:'Helvetica';font-size:99.99px;fill:#000">3.5</text><line x1="390.8" x2="350.83" y1="444.4" y2="444.4" style="stroke:#000;stroke-width:5.76"/><text x="300.72" y="444.4" text-anchor="middle" transform="rotate(-90 300.72,444.40)" style="font-family:'Helvetica';font-size:99.99px;fill:#000">4</text><text x="190.71" y="1184.57" text-anchor="middle" transform="rotate(-90 190.71,1184.57)" style="font-family:'Helvetica';font-size:99.99px;fill:#000">Inverse standard error</text><line x1="390.8" x2="3859.02" y1="2093.67" y2="2093.67" style="stroke:#000;stroke-width:5.76"/><line x1="454.16" x2="454.16" y1="2093.67" y2="2133.64" style="stroke:#000;stroke-width:5.76"/><text x="454.16" y="2223.62" text-anchor="middle" style="font-family:'Helvetica';font-size:99.99px;fill:#000">-3</text><line x1="1482.28" x2="1482.28" y1="2093.67" y2="2133.64" style="stroke:#000;stroke-width:5.76"/><text x="1482.28" y="2223.62" text-anchor="middle" style="font-family:'Helvetica';font-size:99.99px;fill:#000">-2</text><line x1="2510.52" x2="2510.52" y1="2093.67" y2="2133.64" style="stroke:#000;stroke-width:5.76"/><text x="2510.52" y="2223.62" text-anchor="middle" style="font-family:'Helvetica';font-size:99.99px;fill:#000">-1</text><line x1="3538.63" x2="3538.63" y1="2093.67" y2="2133.64" style="stroke:#000;stroke-width:5.76"/><text x="3538.63" y="2223.62" text-anchor="middle" style="font-family:'Helvetica';font-size:99.99px;fill:#000">0</text><text x="2124.91" y="2333.64" text-anchor="middle" style="font-family:'Helvetica';font-size:99.99px;fill:#000">Std. Mean Diff.</text><rect width="2312.39" height="326.34" x="968.72" y="2418.27" style="fill:#fff"/><rect width="2306.63" height="320.58" x="971.59" y="2421.15" style="fill:none;stroke:#000;stroke-width:5.76"/><line x1="1011.9" x2="1386.25" y1="2511.46" y2="2511.46" style="stroke:silver;stroke-width:8.64"/><circle cx="2813.7" cy="2511.46" r="26.35" style="fill:#1a476f"/><circle cx="2813.7" cy="2511.46" r="22.03" style="fill:none;stroke:#1a476f;stroke-width:8.64"/><line x1="1011.9" x2="1386.25" y1="2651.43" y2="2651.43" style="stroke:#c10534;stroke-width:8.64"/><text x="1446.27" y="2546.49" style="font-family:'Helvetica';font-size:99.99px;fill:#000">Pseudo 95% CI</text><text x="2895.63" y="2546.49" style="font-family:'Helvetica';font-size:99.99px;fill:#000">Studies</text><text x="1446.27" y="2686.46" style="fill:#000"><tspan style="font-family:'Helvetica';font-size:99.99px">Estimated θ</tspan> <tspan dy="14.28" style="font-family:'Helvetica';font-size:58.29px">IV</tspan></text><text x="2124.91" y="215.98" text-anchor="middle" style="font-family:'Helvetica';font-size:139.96px;fill:#1e2d53">Funnel plot</text></svg>