<svg xmlns="http://www.w3.org/2000/svg" xmlns:xlink="http://www.w3.org/1999/xlink" width="720" height="386" version="1.1" viewBox="0 0 6509 3491"><desc>Stata Graph - Graph</desc><rect width="6509" height="3491" x="0" y="0" style="fill:#fff;stroke:none"/><rect width="6509" height="3491" x="0" y="0" style="fill:#fff"/><rect width="6503.24" height="3485.24" x="2.88" y="2.88" style="fill:none;stroke:#fff;stroke-width:5.76"/><rect width="6428.86" height="3410.87" x="40.07" y="40.07" style="fill:#fff"/><rect width="6423.1" height="3405.11" x="42.95" y="42.95" style="fill:none;stroke:#fff;stroke-width:5.76"/><rect width="6428.86" height="3301.04" x="40.07" y="40.07" style="fill:#fff"/><rect width="6423.1" height="3295.28" x="42.95" y="42.95" style="fill:none;stroke:#fff;stroke-width:5.76"/><rect width="6348.92" height="3221.12" x="79.94" y="79.93" style="fill:#fff"/><rect width="6343.16" height="3215.36" x="82.82" y="82.81" style="fill:none;stroke:#fff;stroke-width:5.76"/><text x="100.08" y="579.55" style="font-family:'Helvetica';font-size:110.04px;fill:#000">Mutrie</text><text x="100.08" y="765.84" style="font-family:'Helvetica';font-size:110.04px;fill:#000">McNeil</text><text x="100.08" y="952.14" style="font-family:'Helvetica';font-size:110.04px;fill:#000">Reuter</text><text x="100.08" y="1138.64" style="font-family:'Helvetica';font-size:110.04px;fill:#000">Doyne</text><text x="100.08" y="1324.93" style="font-family:'Helvetica';font-size:110.04px;fill:#000">Hess-Homeier</text><text x="100.08" y="1511.23" style="font-family:'Helvetica';font-size:110.04px;fill:#000">Epstein</text><text x="100.08" y="1697.52" style="font-family:'Helvetica';font-size:110.04px;fill:#000">Martinsen</text><text x="100.08" y="1883.82" style="font-family:'Helvetica';font-size:110.04px;fill:#000">Singh</text><text x="100.08" y="2070.32" style="font-family:'Helvetica';font-size:110.04px;fill:#000">Klein</text><text x="100.08" y="2256.61" style="font-family:'Helvetica';font-size:110.04px;fill:#000">Veale</text><text x="100.08" y="2482.16" style="font-family:'Helvetica';font-weight:700;font-size:110.04px;fill:#000">Overall</text><text x="100.08" y="2668.45" style="fill:#000"><tspan style="font-family:'Helvetica';font-size:110.04px">Heterogeneity: I</tspan> <tspan dy="-57.63" style="font-family:'Helvetica';font-size:64.15px">2</tspan> <tspan dy="57.63" style="font-family:'Helvetica';font-size:110.04px"> = 74.60%, H</tspan> <tspan dy="-57.63" style="font-family:'Helvetica';font-size:64.15px">2</tspan> <tspan dy="57.63" style="font-family:'Helvetica';font-size:110.04px"> = 3.94</tspan></text><text x="100.08" y="2854.75" style="fill:#000"><tspan style="font-family:'Helvetica';font-size:110.04px">Test of θ</tspan> <tspan dy="15.72" style="font-family:'Helvetica';font-size:64.15px">i</tspan> <tspan dy="-15.72" style="font-family:'Helvetica';font-size:110.04px"> = θ</tspan> <tspan dy="15.72" style="font-family:'Helvetica';font-size:64.15px">j</tspan> <tspan dy="-15.72" style="font-family:'Helvetica';font-size:110.04px">: Q(9) = 35.43, p = 0.00</tspan></text><text x="100.08" y="3041.25" style="font-family:'Helvetica';font-size:110.04px;fill:#000">Test of θ = 0: z = -8.73, p = 0.00</text><text x="100.08" y="326.87" style="font-family:'Helvetica';font-size:110.04px;fill:#000">Study</text><line x1="4415.34" x2="4415.34" y1="3101.12" y2="388.66" style="stroke:gray;stroke-width:5.76"/><line x1="3715.42" x2="3498.38" y1="540.99" y2="540.99" style="stroke:#1a476f;stroke-width:8.64"/><line x1="4119.38" x2="3897.06" y1="727.28" y2="727.28" style="stroke:#1a476f;stroke-width:8.64"/><line x1="3834.41" x2="3617.38" y1="913.58" y2="913.58" style="stroke:#1a476f;stroke-width:8.64"/><line x1="4083.38" x2="3850.28" y1="1100.08" y2="1100.08" style="stroke:#1a476f;stroke-width:8.64"/><line x1="4188.54" x2="3879.36" y1="1286.37" y2="1286.37" style="stroke:#1a476f;stroke-width:8.64"/><line x1="4183.05" x2="3933.47" y1="1472.67" y2="1472.67" style="stroke:#1a476f;stroke-width:8.64"/><line x1="4094.36" x2="3942.62" y1="1658.96" y2="1658.96" style="stroke:#1a476f;stroke-width:8.64"/><line x1="4290.85" x2="4106.57" y1="1845.26" y2="1845.26" style="stroke:#1a476f;stroke-width:8.64"/><line x1="4484.5" x2="4208.07" y1="2031.76" y2="2031.76" style="stroke:#1a476f;stroke-width:8.64"/><line x1="4268.68" x2="4138.5" y1="2218.05" y2="2218.05" style="stroke:#1a476f;stroke-width:8.64"/><line x1="3498.38" x2="3498.38" y1="540.99" y2="540.99" stroke-linecap="round" style="stroke:#1a476f;stroke-width:8.64"/><line x1="3498.38" x2="3498.38" y1="540.99" y2="540.99" stroke-linecap="round" style="stroke:#1a476f;stroke-width:8.64"/><line x1="3897.06" x2="3897.06" y1="727.28" y2="727.28" stroke-linecap="round" style="stroke:#1a476f;stroke-width:8.64"/><line x1="3897.06" x2="3897.06" y1="727.28" y2="727.28" stroke-linecap="round" style="stroke:#1a476f;stroke-width:8.64"/><line x1="3617.38" x2="3617.38" y1="913.58" y2="913.58" stroke-linecap="round" style="stroke:#1a476f;stroke-width:8.64"/><line x1="3617.38" x2="3617.38" y1="913.58" y2="913.58" stroke-linecap="round" style="stroke:#1a476f;stroke-width:8.64"/><line x1="3850.28" x2="3850.28" y1="1100.08" y2="1100.08" stroke-linecap="round" style="stroke:#1a476f;stroke-width:8.64"/><line x1="3850.28" x2="3850.28" y1="1100.08" y2="1100.08" stroke-linecap="round" style="stroke:#1a476f;stroke-width:8.64"/><line x1="3879.36" x2="3879.36" y1="1286.37" y2="1286.37" stroke-linecap="round" style="stroke:#1a476f;stroke-width:8.64"/><line x1="3879.36" x2="3879.36" y1="1286.37" y2="1286.37" stroke-linecap="round" style="stroke:#1a476f;stroke-width:8.64"/><line x1="3933.47" x2="3933.47" y1="1472.67" y2="1472.67" stroke-linecap="round" style="stroke:#1a476f;stroke-width:8.64"/><line x1="3933.47" x2="3933.47" y1="1472.67" y2="1472.67" stroke-linecap="round" style="stroke:#1a476f;stroke-width:8.64"/><line x1="3942.62" x2="3942.62" y1="1658.96" y2="1658.96" stroke-linecap="round" style="stroke:#1a476f;stroke-width:8.64"/><line x1="3942.62" x2="3942.62" y1="1658.96" y2="1658.96" stroke-linecap="round" style="stroke:#1a476f;stroke-width:8.64"/><line x1="4106.57" x2="4106.57" y1="1845.26" y2="1845.26" stroke-linecap="round" style="stroke:#1a476f;stroke-width:8.64"/><line x1="4106.57" x2="4106.57" y1="1845.26" y2="1845.26" stroke-linecap="round" style="stroke:#1a476f;stroke-width:8.64"/><line x1="4208.07" x2="4208.07" y1="2031.76" y2="2031.76" stroke-linecap="round" style="stroke:#1a476f;stroke-width:8.64"/><line x1="4208.07" x2="4208.07" y1="2031.76" y2="2031.76" stroke-linecap="round" style="stroke:#1a476f;stroke-width:8.64"/><line x1="4138.5" x2="4138.5" y1="2218.05" y2="2218.05" stroke-linecap="round" style="stroke:#1a476f;stroke-width:8.64"/><line x1="4138.5" x2="4138.5" y1="2218.05" y2="2218.05" stroke-linecap="round" style="stroke:#1a476f;stroke-width:8.64"/><line x1="3715.42" x2="3932.25" y1="540.99" y2="540.99" style="stroke:#1a476f;stroke-width:8.64"/><line x1="4119.38" x2="4341.71" y1="727.28" y2="727.28" style="stroke:#1a476f;stroke-width:8.64"/><line x1="3834.41" x2="4051.24" y1="913.58" y2="913.58" style="stroke:#1a476f;stroke-width:8.64"/><line x1="4083.38" x2="4316.48" y1="1100.08" y2="1100.08" style="stroke:#1a476f;stroke-width:8.64"/><line x1="4188.54" x2="4497.52" y1="1286.37" y2="1286.37" style="stroke:#1a476f;stroke-width:8.64"/><line x1="4183.05" x2="4432.43" y1="1472.67" y2="1472.67" style="stroke:#1a476f;stroke-width:8.64"/><line x1="4094.36" x2="4246.31" y1="1658.96" y2="1658.96" style="stroke:#1a476f;stroke-width:8.64"/><line x1="4290.85" x2="4475.34" y1="1845.26" y2="1845.26" style="stroke:#1a476f;stroke-width:8.64"/><line x1="4484.5" x2="4761.13" y1="2031.76" y2="2031.76" style="stroke:#1a476f;stroke-width:8.64"/><line x1="4268.68" x2="4398.86" y1="2218.05" y2="2218.05" style="stroke:#1a476f;stroke-width:8.64"/><line x1="3932.25" x2="3932.25" y1="540.99" y2="540.99" stroke-linecap="round" style="stroke:#1a476f;stroke-width:8.64"/><line x1="3932.25" x2="3932.25" y1="540.99" y2="540.99" stroke-linecap="round" style="stroke:#1a476f;stroke-width:8.64"/><line x1="4341.71" x2="4341.71" y1="727.28" y2="727.28" stroke-linecap="round" style="stroke:#1a476f;stroke-width:8.64"/><line x1="4341.71" x2="4341.71" y1="727.28" y2="727.28" stroke-linecap="round" style="stroke:#1a476f;stroke-width:8.64"/><line x1="4051.24" x2="4051.24" y1="913.58" y2="913.58" stroke-linecap="round" style="stroke:#1a476f;stroke-width:8.64"/><line x1="4051.24" x2="4051.24" y1="913.58" y2="913.58" stroke-linecap="round" style="stroke:#1a476f;stroke-width:8.64"/><line x1="4316.48" x2="4316.48" y1="1100.08" y2="1100.08" stroke-linecap="round" style="stroke:#1a476f;stroke-width:8.64"/><line x1="4316.48" x2="4316.48" y1="1100.08" y2="1100.08" stroke-linecap="round" style="stroke:#1a476f;stroke-width:8.64"/><line x1="4497.52" x2="4497.52" y1="1286.37" y2="1286.37" stroke-linecap="round" style="stroke:#1a476f;stroke-width:8.64"/><line x1="4497.52" x2="4497.52" y1="1286.37" y2="1286.37" stroke-linecap="round" style="stroke:#1a476f;stroke-width:8.64"/><line x1="4432.43" x2="4432.43" y1="1472.67" y2="1472.67" stroke-linecap="round" style="stroke:#1a476f;stroke-width:8.64"/><line x1="4432.43" x2="4432.43" y1="1472.67" y2="1472.67" stroke-linecap="round" style="stroke:#1a476f;stroke-width:8.64"/><line x1="4246.31" x2="4246.31" y1="1658.96" y2="1658.96" stroke-linecap="round" style="stroke:#1a476f;stroke-width:8.64"/><line x1="4246.31" x2="4246.31" y1="1658.96" y2="1658.96" stroke-linecap="round" style="stroke:#1a476f;stroke-width:8.64"/><line x1="4475.34" x2="4475.34" y1="1845.26" y2="1845.26" stroke-linecap="round" style="stroke:#1a476f;stroke-width:8.64"/><line x1="4475.34" x2="4475.34" y1="1845.26" y2="1845.26" stroke-linecap="round" style="stroke:#1a476f;stroke-width:8.64"/><line x1="4761.13" x2="4761.13" y1="2031.76" y2="2031.76" stroke-linecap="round" style="stroke:#1a476f;stroke-width:8.64"/><line x1="4761.13" x2="4761.13" y1="2031.76" y2="2031.76" stroke-linecap="round" style="stroke:#1a476f;stroke-width:8.64"/><line x1="4398.86" x2="4398.86" y1="2218.05" y2="2218.05" stroke-linecap="round" style="stroke:#1a476f;stroke-width:8.64"/><line x1="4398.86" x2="4398.86" y1="2218.05" y2="2218.05" stroke-linecap="round" style="stroke:#1a476f;stroke-width:8.64"/><rect width="74.54" height="74.54" x="3677.94" y="503.92" style="fill:#1a476f"/><rect width="65.9" height="65.89" x="3682.26" y="508.24" style="fill:none;stroke:#1a476f;stroke-width:8.64"/><rect width="72.92" height="72.91" x="4082.72" y="691.03" style="fill:#1a476f"/><rect width="64.28" height="64.27" x="4087.04" y="695.35" style="fill:none;stroke:#1a476f;stroke-width:8.64"/><rect width="74.54" height="74.54" x="3796.94" y="876.51" style="fill:#1a476f"/><rect width="65.9" height="65.89" x="3801.26" y="880.83" style="fill:none;stroke:#1a476f;stroke-width:8.64"/><rect width="70.07" height="70.06" x="4048.14" y="1065.05" style="fill:#1a476f"/><rect width="61.43" height="61.42" x="4052.46" y="1069.37" style="fill:none;stroke:#1a476f;stroke-width:8.64"/><rect width="55.02" height="55.01" x="4160.83" y="1258.87" style="fill:#1a476f"/><rect width="46.38" height="46.37" x="4165.15" y="1263.19" style="fill:none;stroke:#1a476f;stroke-width:8.64"/><rect width="66" height="65.99" x="4149.85" y="1439.87" style="fill:#1a476f"/><rect width="57.36" height="57.35" x="4154.17" y="1444.19" style="fill:none;stroke:#1a476f;stroke-width:8.64"/><rect width="102.61" height="102.6" x="4043.06" y="1607.86" style="fill:#1a476f"/><rect width="93.97" height="93.96" x="4047.38" y="1612.19" style="fill:none;stroke:#1a476f;stroke-width:8.64"/><rect width="86.34" height="86.33" x="4247.68" y="1802.3" style="fill:#1a476f"/><rect width="77.7" height="77.69" x="4252" y="1806.62" style="fill:none;stroke:#1a476f;stroke-width:8.64"/><rect width="60.31" height="60.3" x="4454.34" y="2001.61" style="fill:#1a476f"/><rect width="51.67" height="51.66" x="4458.66" y="2005.93" style="fill:none;stroke:#1a476f;stroke-width:8.64"/><rect width="118.48" height="118.47" x="4209.44" y="2158.82" style="fill:#1a476f"/><rect width="109.84" height="109.82" x="4213.76" y="2163.14" style="fill:none;stroke:#1a476f;stroke-width:8.64"/><defs><path id="path_QlSfKuNR" stroke-linejoin="round" d="M4268.68 2218.05 M4072.19 2443.60 L4135.25 2497.49 L4198.10 2443.60 L4135.25 2389.70 Z"/></defs><defs><clipPath id="clipPath_xYJwplUd"><use xlink:href="#path_QlSfKuNR"/></clipPath></defs><use xlink:href="#path_QlSfKuNR" style="stroke:none;fill:#55752f"/><use style="fill:none;stroke:#55752f;stroke-width:17.28" clip-path="url(#clipPath_xYJwplUd)" xlink:href="#path_QlSfKuNR"/><line x1="3308.61" x2="4968.81" y1="3101.12" y2="3101.12" style="stroke:#000;stroke-width:5.76"/><line x1="3308.61" x2="3308.61" y1="3101.12" y2="3140.98" style="stroke:#000;stroke-width:5.76"/><text x="3308.61" y="3238.04" text-anchor="middle" style="font-family:'Helvetica';font-size:110.04px;fill:#000">-4.00</text><line x1="3862.07" x2="3862.07" y1="3101.12" y2="3140.98" style="stroke:#000;stroke-width:5.76"/><text x="3862.07" y="3238.04" text-anchor="middle" style="font-family:'Helvetica';font-size:110.04px;fill:#000">-2.00</text><line x1="4415.34" x2="4415.34" y1="3101.12" y2="3140.98" style="stroke:#000;stroke-width:5.76"/><text x="4415.34" y="3238.04" text-anchor="middle" style="font-family:'Helvetica';font-size:110.04px;fill:#000">0.00</text><line x1="4968.81" x2="4968.81" y1="3101.12" y2="3140.98" style="stroke:#000;stroke-width:5.76"/><text x="4968.81" y="3238.04" text-anchor="middle" style="font-family:'Helvetica';font-size:110.04px;fill:#000">2.00</text><text x="5482.61" y="326.87" text-anchor="middle" style="font-family:'Helvetica';font-size:110.04px;fill:#000">with 95% CI</text><text x="5482.61" y="176.78" text-anchor="middle" style="font-family:'Helvetica';font-size:110.04px;fill:#000">Std. Mean Diff.</text><text x="5313.38" y="579.55" text-anchor="end" style="font-family:'Helvetica';font-size:110.04px;fill:#000">-2.53 [</text><text x="5313.38" y="765.84" text-anchor="end" style="font-family:'Helvetica';font-size:110.04px;fill:#000">-1.07 [</text><text x="5313.38" y="952.14" text-anchor="end" style="font-family:'Helvetica';font-size:110.04px;fill:#000">-2.10 [</text><text x="5313.38" y="1138.64" text-anchor="end" style="font-family:'Helvetica';font-size:110.04px;fill:#000">-1.20 [</text><text x="5313.38" y="1324.93" text-anchor="end" style="font-family:'Helvetica';font-size:110.04px;fill:#000">-0.82 [</text><text x="5313.38" y="1511.23" text-anchor="end" style="font-family:'Helvetica';font-size:110.04px;fill:#000">-0.84 [</text><text x="5313.38" y="1697.52" text-anchor="end" style="font-family:'Helvetica';font-size:110.04px;fill:#000">-1.16 [</text><text x="5313.38" y="1883.82" text-anchor="end" style="font-family:'Helvetica';font-size:110.04px;fill:#000">-0.45 [</text><text x="5313.38" y="2070.32" text-anchor="end" style="font-family:'Helvetica';font-size:110.04px;fill:#000">0.25 [</text><text x="5313.38" y="2256.61" text-anchor="end" style="font-family:'Helvetica';font-size:110.04px;fill:#000">-0.53 [</text><text x="5313.38" y="2482.16" text-anchor="end" style="font-family:'Helvetica';font-size:110.04px;fill:#000">-1.01 [</text><text x="5625.61" y="579.55" text-anchor="end" style="font-family:'Helvetica';font-size:110.04px;fill:#000">-3.31,</text><text x="5625.61" y="765.84" text-anchor="end" style="font-family:'Helvetica';font-size:110.04px;fill:#000">-1.87,</text><text x="5625.61" y="952.14" text-anchor="end" style="font-family:'Helvetica';font-size:110.04px;fill:#000">-2.88,</text><text x="5625.61" y="1138.64" text-anchor="end" style="font-family:'Helvetica';font-size:110.04px;fill:#000">-2.04,</text><text x="5625.61" y="1324.93" text-anchor="end" style="font-family:'Helvetica';font-size:110.04px;fill:#000">-1.94,</text><text x="5625.61" y="1511.23" text-anchor="end" style="font-family:'Helvetica';font-size:110.04px;fill:#000">-1.74,</text><text x="5625.61" y="1697.52" text-anchor="end" style="font-family:'Helvetica';font-size:110.04px;fill:#000">-1.71,</text><text x="5625.61" y="1883.82" text-anchor="end" style="font-family:'Helvetica';font-size:110.04px;fill:#000">-1.12,</text><text x="5625.61" y="2070.32" text-anchor="end" style="font-family:'Helvetica';font-size:110.04px;fill:#000">-0.75,</text><text x="5625.61" y="2256.61" text-anchor="end" style="font-family:'Helvetica';font-size:110.04px;fill:#000">-1.00,</text><text x="5625.61" y="2482.16" text-anchor="end" style="font-family:'Helvetica';font-size:110.04px;fill:#000">-1.24,</text><text x="5956.55" y="579.55" text-anchor="end" style="font-family:'Helvetica';font-size:110.04px;fill:#000">-1.75]</text><text x="5956.55" y="765.84" text-anchor="end" style="font-family:'Helvetica';font-size:110.04px;fill:#000">-0.27]</text><text x="5956.55" y="952.14" text-anchor="end" style="font-family:'Helvetica';font-size:110.04px;fill:#000">-1.32]</text><text x="5956.55" y="1138.64" text-anchor="end" style="font-family:'Helvetica';font-size:110.04px;fill:#000">-0.36]</text><text x="5956.55" y="1324.93" text-anchor="end" style="font-family:'Helvetica';font-size:110.04px;fill:#000">0.30]</text><text x="5956.55" y="1511.23" text-anchor="end" style="font-family:'Helvetica';font-size:110.04px;fill:#000">0.06]</text><text x="5956.55" y="1697.52" text-anchor="end" style="font-family:'Helvetica';font-size:110.04px;fill:#000">-0.61]</text><text x="5956.55" y="1883.82" text-anchor="end" style="font-family:'Helvetica';font-size:110.04px;fill:#000">0.22]</text><text x="5956.55" y="2070.32" text-anchor="end" style="font-family:'Helvetica';font-size:110.04px;fill:#000">1.25]</text><text x="5956.55" y="2256.61" text-anchor="end" style="font-family:'Helvetica';font-size:110.04px;fill:#000">-0.06]</text><text x="5956.55" y="2482.16" text-anchor="end" style="font-family:'Helvetica';font-size:110.04px;fill:#000">-0.79]</text><text x="6334.27" y="579.55" text-anchor="end" style="font-family:'Helvetica';font-size:110.04px;fill:#000">8.41</text><text x="6334.27" y="765.84" text-anchor="end" style="font-family:'Helvetica';font-size:110.04px;fill:#000">8.01</text><text x="6334.27" y="952.14" text-anchor="end" style="font-family:'Helvetica';font-size:110.04px;fill:#000">8.41</text><text x="6334.27" y="1138.64" text-anchor="end" style="font-family:'Helvetica';font-size:110.04px;fill:#000">7.28</text><text x="6334.27" y="1324.93" text-anchor="end" style="font-family:'Helvetica';font-size:110.04px;fill:#000">4.14</text><text x="6334.27" y="1511.23" text-anchor="end" style="font-family:'Helvetica';font-size:110.04px;fill:#000">6.36</text><text x="6334.27" y="1697.52" text-anchor="end" style="font-family:'Helvetica';font-size:110.04px;fill:#000">17.17</text><text x="6334.27" y="1883.82" text-anchor="end" style="font-family:'Helvetica';font-size:110.04px;fill:#000">11.65</text><text x="6334.27" y="2070.32" text-anchor="end" style="font-family:'Helvetica';font-size:110.04px;fill:#000">5.18</text><text x="6334.27" y="2256.61" text-anchor="end" style="font-family:'Helvetica';font-size:110.04px;fill:#000">23.37</text><text x="6212.84" y="326.87" text-anchor="middle" style="font-family:'Helvetica';font-size:110.04px;fill:#000">(%)</text><text x="6212.84" y="176.78" text-anchor="middle" style="font-family:'Helvetica';font-size:110.04px;fill:#000">Weight</text><line x1="79.94" x2="6428.86" y1="384.39" y2="384.39" style="stroke:#000;stroke-width:8.64"/><text x="40.07" y="3434.58" style="font-family:'Helvetica';font-size:110.04px;fill:#000">Fixed-effects inverse-variance model</text></svg>