<?xml version="1.0" encoding="UTF-8" standalone="no"?>
<!-- This is a Stata 16.1 generated SVG file (http://www.stata.com) -->

<svg version="1.1" width="720px" height="524px" viewBox="0 0 3960 2880" xmlns="http://www.w3.org/2000/svg" xmlns:xlink="http://www.w3.org/1999/xlink">
	<desc>Stata Graph - Graph</desc>
	<rect x="0" y="0" width="3960" height="2880" style="fill:#EAF2F3;stroke:none"/>
	<rect x="0.00" y="0.00" width="3959.88" height="2880.00" style="fill:#EAF2F3"/>
	<rect x="2.88" y="2.88" width="3954.12" height="2874.24" style="fill:none;stroke:#EAF2F3;stroke-width:5.76"/>
	<rect x="390.80" y="275.35" width="3468.22" height="1818.32" style="fill:#FFFFFF"/>
	<rect x="393.68" y="278.23" width="3462.46" height="1812.56" style="fill:none;stroke:#FFFFFF;stroke-width:5.76"/>
	<line x1="390.80" y1="1923.38" x2="3859.02" y2="1923.38" style="stroke:#EAF2F3;stroke-width:8.64"/>
	<line x1="390.80" y1="1527.25" x2="3859.02" y2="1527.25" style="stroke:#EAF2F3;stroke-width:8.64"/>
	<line x1="390.80" y1="1130.99" x2="3859.02" y2="1130.99" style="stroke:#EAF2F3;stroke-width:8.64"/>
	<line x1="390.80" y1="734.85" x2="3859.02" y2="734.85" style="stroke:#EAF2F3;stroke-width:8.64"/>
	<path d=" M3239.90 2030.43 L3221.83 2025.73 L3204.38 2020.90 L3187.55 2016.20 L3171.09 2011.50 L3155.25 2006.79 L3139.78 2002.09 L3124.81 1997.39 L3110.33 1992.68 L3096.22 1987.86 L3082.49 1983.16 L3069.12 1978.45 L3056.13 1973.75 L3043.51 1969.05 L3031.26 1964.35 L3019.25 1959.64 L3007.62 1954.82 L2996.24 1950.11 L2985.22 1945.41 L2974.33 1940.71 L2963.81 1936.01 L2953.54 1931.30 L2943.52 1926.48 L2933.74 1921.77 L2924.21 1917.07 L2914.81 1912.37 L2905.77 1907.67 L2896.86 1902.96 L2888.08 1898.26 L2879.54 1893.43 L2871.25 1888.73 L2863.08 1884.03 L2855.04 1879.33 L2847.24 1874.62 L2839.57 1869.92 L2832.14 1865.22 L2824.72 1860.39 L2817.54 1855.69 L2810.49 1850.99 L2803.68 1846.28 L2796.87 1841.58 L2790.19 1836.88 L2783.76 1832.18 L2777.32 1827.35 L2771.13 1822.65 L2764.95 1817.94 L2758.88 1813.24 L2752.94 1808.54 L2747.25 1803.84 L2741.43 1799.13 L2735.86 1794.31 L2730.42 1789.60 L2724.97 1784.90 L2719.65 1780.20 L2714.46 1775.50 L2709.38 1770.79 L2704.31 1766.09 L2699.36 1761.27 L2694.53 1756.56 L2689.71 1751.86 L2685.00 1747.16 L2680.30 1742.45 L2675.72 1737.75 L2671.27 1732.93 L2666.94 1728.22 L2662.48 1723.52 L2658.27 1718.82 L2654.07 1714.11 L2649.86 1709.41 L2645.78 1704.71 L2641.82 1699.88 L2637.86 1695.18 L2633.89 1690.48 L2630.06 1685.78 L2626.35 1681.07 L2622.63 1676.37 L2618.92 1671.67 L2615.33 1666.84 L2611.74 1662.14 L2608.28 1657.44 L2604.81 1652.73 L2601.35 1648.03 L2598.01 1643.33 L2594.67 1638.62 L2591.32 1633.80 L2588.11 1629.10 L2584.89 1624.39 L2581.80 1619.69 L2578.70 1614.99 L2575.61 1610.29 L2572.64 1605.58 L2569.67 1600.76 L2566.70 1596.05 L2563.73 1591.35 L2560.88 1586.65 L2558.04 1581.95 L2555.31 1577.24 L2552.47 1572.42 L2549.74 1567.71 L2547.15 1563.01 L2544.42 1558.31 L2541.82 1553.61 L2539.23 1548.90 L2536.63 1544.20 L2534.15 1539.37 L2531.68 1534.67 L2529.20 1529.97 L2526.73 1525.27 L2524.25 1520.56 L2521.90 1515.86 L2519.55 1511.16 L2517.20 1506.33 L2514.97 1501.63 L2512.62 1496.93 L2510.39 1492.22 L2508.16 1487.52 L2505.94 1482.82 L2503.83 1478.12 L2501.61 1473.29 L2499.50 1468.59 L2497.40 1463.88 L2495.30 1459.18 L2493.32 1454.48 L2491.21 1449.78 L2489.23 1445.07 L2487.25 1440.25 L2485.27 1435.54 L2483.29 1430.84 L2481.43 1426.14 L2479.45 1421.44 L2477.60 1416.73 L2475.74 1412.03 L2473.89 1407.21 L2472.03 1402.50 L2470.30 1397.80 L2468.44 1393.10 L2466.71 1388.39 L2464.98 1383.69 L2463.24 1378.87 L2461.51 1374.16 L2459.78 1369.46 L2458.05 1364.76 L2456.44 1360.06 L2454.70 1355.35 L2453.10 1350.65 L2451.49 1345.82 L2449.88 1341.12 L2448.27 1336.42 L2446.66 1331.72 L2445.18 1327.01 L2443.57 1322.31 L2442.08 1317.61 L2440.60 1312.78 L2439.11 1308.08 L2437.50 1303.38 L2436.14 1298.67 L2434.66 1293.97 L2433.17 1289.27 L2431.69 1284.57 L2430.33 1279.74 L2428.97 1275.04 L2427.48 1270.33 L2426.12 1265.63 L2424.76 1260.93 L2423.40 1256.23 L2422.03 1251.52 L2420.67 1246.70 L2419.44 1241.99 L2418.07 1237.29 L2416.71 1232.59 L2415.48 1227.89 L2414.24 1223.18 L2412.88 1218.48 L2411.64 1213.65 L2410.40 1208.95 L2409.16 1204.25 L2407.93 1199.55 L2406.81 1194.84 L2405.58 1190.14 L2404.34 1185.31 L2403.22 1180.61 L2401.99 1175.91 L2400.87 1171.21 L2399.64 1166.50 L2398.52 1161.80 L2397.41 1157.10 L2396.30 1152.27 L2395.18 1147.57 L2394.07 1142.87 L2392.95 1138.16 L2391.84 1133.46 L2390.73 1128.76 L2389.74 1124.06 L2388.62 1119.23 L2387.51 1114.53 L2386.52 1109.82 L2385.41 1105.12 L2384.41 1100.42 L2383.43 1095.72 L2382.43 1091.01 L2381.32 1086.19 L2380.33 1081.49 L2379.34 1076.78 L2378.35 1072.08 L2377.36 1067.38 L2376.37 1062.67 L2375.51 1057.97 L2374.51 1053.15 L2373.53 1048.44 L2372.66 1043.74 L2371.67 1039.04 L2370.80 1034.33 L2369.81 1029.63 L2368.95 1024.93 L2367.96 1020.10 L2367.09 1015.40 L2366.22 1010.70 L2365.36 1006.00 L2364.37 1001.29 L2363.50 996.59 L2362.64 991.76 L2361.77 987.06 L2360.90 982.36 L2360.04 977.66 L2359.29 972.95 L2358.43 968.25 L2357.56 963.55 L2356.70 958.72 L2355.95 954.02 L2355.09 949.32 L2354.34 944.61 L2353.48 939.91 L2352.74 935.21 L2351.87 930.51 L2351.13 925.68 L2350.26 920.98 L2349.52 916.27 L2348.78 911.57 L2348.03 906.87 L2347.17 902.17 L2346.42 897.46 L2345.68 892.64 L2344.94 887.93 L2344.20 883.23 L2343.45 878.53 L2342.71 873.83 L2341.97 869.12 L2341.23 864.42 L2340.61 859.59 L2339.86 854.89 L2339.12 850.19 L2338.38 845.49 L2337.76 840.78 L2337.02 836.08 L2336.28 831.38 L2335.66 826.55 L2334.91 821.85 L2334.30 817.15 L2333.55 812.44 L2332.93 807.74 L2332.32 803.04 L2331.57 798.21 L2330.95 793.51 L2330.34 788.81 L2329.59 784.10 L2328.97 779.40 L2328.36 774.70 L2327.74 770.00 L2327.12 765.17 L2326.38 760.47 L2325.76 755.76 L2325.14 751.06 L2324.52 746.36 L2323.90 741.66 L2323.28 736.95 L2322.66 732.13 L2322.17 727.43 L2321.55 722.72 L2320.93 718.02 L2320.31 713.32 L2319.69 708.61 L2319.07 703.91 L2318.58 699.09 L2317.96 694.38 L2317.34 689.68 L2316.85 684.98 L2316.23 680.28 L2315.73 675.57 L2315.11 670.87 L2314.50 666.04 L2314.00 661.34 L2313.38 656.64 L2312.89 651.94 L2312.39 647.23 L2311.77 642.53 L2311.28 637.83 L2310.66 633.00 L2310.16 628.30 L2309.67 623.60 L2309.05 618.89" stroke-linejoin="round" style="fill:none;stroke:#C0C0C0;stroke-width:8.64"/>
	<path d=" M996.93 2030.43 L1015.00 2025.73 L1032.45 2020.90 L1049.28 2016.20 L1065.73 2011.50 L1081.58 2006.79 L1096.92 2002.09 L1111.89 1997.39 L1126.50 1992.68 L1140.60 1987.86 L1154.34 1983.16 L1167.70 1978.45 L1180.58 1973.75 L1193.32 1969.05 L1205.57 1964.35 L1217.58 1959.64 L1229.21 1954.82 L1240.59 1950.11 L1251.61 1945.41 L1262.37 1940.71 L1273.02 1936.01 L1283.29 1931.30 L1293.31 1926.48 L1303.09 1921.77 L1312.62 1917.07 L1322.02 1912.37 L1331.06 1907.67 L1339.96 1902.96 L1348.75 1898.26 L1357.29 1893.43 L1365.58 1888.73 L1373.75 1884.03 L1381.79 1879.33 L1389.59 1874.62 L1397.26 1869.92 L1404.69 1865.22 L1411.99 1860.39 L1419.16 1855.69 L1426.22 1850.99 L1433.15 1846.28 L1439.95 1841.58 L1446.51 1836.88 L1453.07 1832.18 L1459.51 1827.35 L1465.69 1822.65 L1471.88 1817.94 L1477.95 1813.24 L1483.76 1808.54 L1489.58 1803.84 L1495.27 1799.13 L1500.96 1794.31 L1506.41 1789.60 L1511.85 1784.90 L1517.17 1780.20 L1522.37 1775.50 L1527.45 1770.79 L1532.52 1766.09 L1537.47 1761.27 L1542.30 1756.56 L1547.12 1751.86 L1551.83 1747.16 L1556.53 1742.45 L1560.98 1737.75 L1565.56 1732.93 L1569.89 1728.22 L1574.22 1723.52 L1578.56 1718.82 L1582.76 1714.11 L1586.85 1709.41 L1590.93 1704.71 L1595.01 1699.88 L1598.97 1695.18 L1602.81 1690.48 L1606.65 1685.78 L1610.48 1681.07 L1614.19 1676.37 L1617.91 1671.67 L1621.50 1666.84 L1625.09 1662.14 L1628.55 1657.44 L1632.02 1652.73 L1635.48 1648.03 L1638.82 1643.33 L1642.16 1638.62 L1645.50 1633.80 L1648.72 1629.10 L1651.82 1624.39 L1655.03 1619.69 L1658.13 1614.99 L1661.22 1610.29 L1664.19 1605.58 L1667.16 1600.76 L1670.13 1596.05 L1673.10 1591.35 L1675.95 1586.65 L1678.79 1581.95 L1681.52 1577.24 L1684.24 1572.42 L1687.08 1567.71 L1689.68 1563.01 L1692.40 1558.31 L1695.00 1553.61 L1697.60 1548.90 L1700.20 1544.20 L1702.68 1539.37 L1705.15 1534.67 L1707.63 1529.97 L1710.10 1525.27 L1712.45 1520.56 L1714.93 1515.86 L1717.28 1511.16 L1719.63 1506.33 L1721.86 1501.63 L1724.21 1496.93 L1726.44 1492.22 L1728.66 1487.52 L1730.77 1482.82 L1732.99 1478.12 L1735.10 1473.29 L1737.33 1468.59 L1739.43 1463.88 L1741.41 1459.18 L1743.51 1454.48 L1745.49 1449.78 L1747.60 1445.07 L1749.58 1440.25 L1751.56 1435.54 L1753.41 1430.84 L1755.39 1426.14 L1757.25 1421.44 L1759.23 1416.73 L1761.09 1412.03 L1762.94 1407.21 L1764.80 1402.50 L1766.53 1397.80 L1768.39 1393.10 L1770.12 1388.39 L1771.85 1383.69 L1773.59 1378.87 L1775.32 1374.16 L1777.05 1369.46 L1778.78 1364.76 L1780.39 1360.06 L1782.00 1355.35 L1783.73 1350.65 L1785.34 1345.82 L1786.95 1341.12 L1788.56 1336.42 L1790.04 1331.72 L1791.65 1327.01 L1793.26 1322.31 L1794.75 1317.61 L1796.23 1312.78 L1797.72 1308.08 L1799.20 1303.38 L1800.69 1298.67 L1802.17 1293.97 L1803.66 1289.27 L1805.02 1284.57 L1806.50 1279.74 L1807.86 1275.04 L1809.35 1270.33 L1810.71 1265.63 L1812.07 1260.93 L1813.43 1256.23 L1814.79 1251.52 L1816.15 1246.70 L1817.39 1241.99 L1818.75 1237.29 L1819.99 1232.59 L1821.35 1227.89 L1822.59 1223.18 L1823.83 1218.48 L1825.19 1213.65 L1826.43 1208.95 L1827.66 1204.25 L1828.90 1199.55 L1830.02 1194.84 L1831.25 1190.14 L1832.49 1185.31 L1833.60 1180.61 L1834.84 1175.91 L1835.95 1171.21 L1837.19 1166.50 L1838.31 1161.80 L1839.42 1157.10 L1840.53 1152.27 L1841.65 1147.57 L1842.76 1142.87 L1843.88 1138.16 L1844.99 1133.46 L1846.10 1128.76 L1847.09 1124.06 L1848.21 1119.23 L1849.32 1114.53 L1850.31 1109.82 L1851.30 1105.12 L1852.41 1100.42 L1853.40 1095.72 L1854.39 1091.01 L1855.38 1086.19 L1856.50 1081.49 L1857.49 1076.78 L1858.48 1072.08 L1859.47 1067.38 L1860.33 1062.67 L1861.32 1057.97 L1862.31 1053.15 L1863.30 1048.44 L1864.17 1043.74 L1865.16 1039.04 L1866.03 1034.33 L1867.02 1029.63 L1867.88 1024.93 L1868.87 1020.10 L1869.74 1015.40 L1870.61 1010.70 L1871.47 1006.00 L1872.34 1001.29 L1873.33 996.59 L1874.19 991.76 L1875.06 987.06 L1875.93 982.36 L1876.67 977.66 L1877.54 972.95 L1878.40 968.25 L1879.27 963.55 L1880.13 958.72 L1880.88 954.02 L1881.74 949.32 L1882.48 944.61 L1883.35 939.91 L1884.09 935.21 L1884.96 930.51 L1885.70 925.68 L1886.57 920.98 L1887.31 916.27 L1888.05 911.57 L1888.80 906.87 L1889.54 902.17 L1890.40 897.46 L1891.15 892.64 L1891.89 887.93 L1892.63 883.23 L1893.38 878.53 L1894.12 873.83 L1894.86 869.12 L1895.48 864.42 L1896.22 859.59 L1896.96 854.89 L1897.71 850.19 L1898.45 845.49 L1899.07 840.78 L1899.81 836.08 L1900.43 831.38 L1901.17 826.55 L1901.91 821.85 L1902.53 817.15 L1903.28 812.44 L1903.89 807.74 L1904.51 803.04 L1905.26 798.21 L1905.87 793.51 L1906.49 788.81 L1907.23 784.10 L1907.85 779.40 L1908.47 774.70 L1909.09 770.00 L1909.71 765.17 L1910.33 760.47 L1911.07 755.76 L1911.69 751.06 L1912.31 746.36 L1912.93 741.66 L1913.42 736.95 L1914.04 732.13 L1914.66 727.43 L1915.28 722.72 L1915.90 718.02 L1916.52 713.32 L1917.13 708.61 L1917.63 703.91 L1918.25 699.09 L1918.87 694.38 L1919.36 689.68 L1919.98 684.98 L1920.60 680.28 L1921.10 675.57 L1921.71 670.87 L1922.21 666.04 L1922.83 661.34 L1923.32 656.64 L1923.94 651.94 L1924.44 647.23 L1925.06 642.53 L1925.55 637.83 L1926.05 633.00 L1926.66 628.30 L1927.16 623.60 L1927.65 618.89" stroke-linejoin="round" style="fill:none;stroke:#C0C0C0;stroke-width:8.64"/>
	<circle cx="2502.60" cy="1368.59" r="26.35" style="fill:#1A476F"/>
	<circle cx="2502.60" cy="1368.59" r="22.03" style="fill:none;stroke:#1A476F;stroke-width:8.64"/>
	<circle cx="2031.36" cy="1330.23" r="26.35" style="fill:#1A476F"/>
	<circle cx="2031.36" cy="1330.23" r="22.03" style="fill:none;stroke:#1A476F;stroke-width:8.64"/>
	<circle cx="2133.82" cy="1571.92" r="26.35" style="fill:#1A476F"/>
	<circle cx="2133.82" cy="1571.92" r="22.03" style="fill:none;stroke:#1A476F;stroke-width:8.64"/>
	<circle cx="2046.83" cy="1487.40" r="26.35" style="fill:#1A476F"/>
	<circle cx="2046.83" cy="1487.40" r="22.03" style="fill:none;stroke:#1A476F;stroke-width:8.64"/>
	<circle cx="2104.24" cy="1458.32" r="26.35" style="fill:#1A476F"/>
	<circle cx="2104.24" cy="1458.32" r="22.03" style="fill:none;stroke:#1A476F;stroke-width:8.64"/>
	<circle cx="1848.45" cy="1234.94" r="26.35" style="fill:#1A476F"/>
	<circle cx="1848.45" cy="1234.94" r="22.03" style="fill:none;stroke:#1A476F;stroke-width:8.64"/>
	<circle cx="2329.72" cy="1347.56" r="26.35" style="fill:#1A476F"/>
	<circle cx="2329.72" cy="1347.56" r="22.03" style="fill:none;stroke:#1A476F;stroke-width:8.64"/>
	<circle cx="1923.08" cy="2030.43" r="26.35" style="fill:#1A476F"/>
	<circle cx="1923.08" cy="2030.43" r="22.03" style="fill:none;stroke:#1A476F;stroke-width:8.64"/>
	<circle cx="2446.66" cy="1399.66" r="26.35" style="fill:#1A476F"/>
	<circle cx="2446.66" cy="1399.66" r="22.03" style="fill:none;stroke:#1A476F;stroke-width:8.64"/>
	<circle cx="1644.76" cy="618.89" r="26.35" style="fill:#1A476F"/>
	<circle cx="1644.76" cy="618.89" r="22.03" style="fill:none;stroke:#1A476F;stroke-width:8.64"/>
	<circle cx="2737.23" cy="1857.30" r="26.35" style="fill:#1A476F"/>
	<circle cx="2737.23" cy="1857.30" r="22.03" style="fill:none;stroke:#1A476F;stroke-width:8.64"/>
	<circle cx="2179.49" cy="1539.87" r="26.35" style="fill:#1A476F"/>
	<circle cx="2179.49" cy="1539.87" r="22.03" style="fill:none;stroke:#1A476F;stroke-width:8.64"/>
	<circle cx="2141.74" cy="1727.85" r="26.35" style="fill:#1A476F"/>
	<circle cx="2141.74" cy="1727.85" r="22.03" style="fill:none;stroke:#1A476F;stroke-width:8.64"/>
	<circle cx="2439.48" cy="1050.67" r="26.35" style="fill:#1A476F"/>
	<circle cx="2439.48" cy="1050.67" r="22.03" style="fill:none;stroke:#1A476F;stroke-width:8.64"/>
	<circle cx="2248.04" cy="1311.30" r="26.35" style="fill:#1A476F"/>
	<circle cx="2248.04" cy="1311.30" r="22.03" style="fill:none;stroke:#1A476F;stroke-width:8.64"/>
	<circle cx="1585.86" cy="1847.27" r="26.35" style="fill:#1A476F"/>
	<circle cx="1585.86" cy="1847.27" r="22.03" style="fill:none;stroke:#1A476F;stroke-width:8.64"/>
	<circle cx="2145.21" cy="812.57" r="26.35" style="fill:#1A476F"/>
	<circle cx="2145.21" cy="812.57" r="22.03" style="fill:none;stroke:#1A476F;stroke-width:8.64"/>
	<circle cx="2235.30" cy="1530.46" r="26.35" style="fill:#1A476F"/>
	<circle cx="2235.30" cy="1530.46" r="22.03" style="fill:none;stroke:#1A476F;stroke-width:8.64"/>
	<circle cx="2338.38" cy="1451.39" r="26.35" style="fill:#1A476F"/>
	<circle cx="2338.38" cy="1451.39" r="22.03" style="fill:none;stroke:#1A476F;stroke-width:8.64"/>
	<circle cx="2138.77" cy="1674.51" r="26.35" style="fill:#1A476F"/>
	<circle cx="2138.77" cy="1674.51" r="22.03" style="fill:none;stroke:#1A476F;stroke-width:8.64"/>
	<path d=" M2118.35 2030.43 L2118.35 618.89" stroke-linejoin="round" style="fill:none;stroke:#C10534;stroke-width:8.64"/>
	<line x1="390.80" y1="2093.67" x2="390.80" y2="275.35" style="stroke:#000000;stroke-width:5.76"/>
	<line x1="390.80" y1="1923.38" x2="350.83" y2="1923.38" style="stroke:#000000;stroke-width:5.76"/>
	<text x="300.72" y="1923.38" style="font-family:'Helvetica';font-size:99.99px;fill:#000000" transform="rotate(-90 300.72,1923.38)" text-anchor="middle">1</text>
	<line x1="390.80" y1="1527.25" x2="350.83" y2="1527.25" style="stroke:#000000;stroke-width:5.76"/>
	<text x="300.72" y="1527.25" style="font-family:'Helvetica';font-size:99.99px;fill:#000000" transform="rotate(-90 300.72,1527.25)" text-anchor="middle">2</text>
	<line x1="390.80" y1="1130.99" x2="350.83" y2="1130.99" style="stroke:#000000;stroke-width:5.76"/>
	<text x="300.72" y="1130.99" style="font-family:'Helvetica';font-size:99.99px;fill:#000000" transform="rotate(-90 300.72,1130.99)" text-anchor="middle">3</text>
	<line x1="390.80" y1="734.85" x2="350.83" y2="734.85" style="stroke:#000000;stroke-width:5.76"/>
	<text x="300.72" y="734.85" style="font-family:'Helvetica';font-size:99.99px;fill:#000000" transform="rotate(-90 300.72,734.85)" text-anchor="middle">4</text>
	<line x1="390.80" y1="338.71" x2="350.83" y2="338.71" style="stroke:#000000;stroke-width:5.76"/>
	<text x="300.72" y="338.71" style="font-family:'Helvetica';font-size:99.99px;fill:#000000" transform="rotate(-90 300.72,338.71)" text-anchor="middle">5</text>
	<text x="190.71" y="1184.57" style="font-family:'Helvetica';font-size:99.99px;fill:#000000" transform="rotate(-90 190.71,1184.57)" text-anchor="middle">Inverse standard error</text>
	<line x1="390.80" y1="2093.67" x2="3859.02" y2="2093.67" style="stroke:#000000;stroke-width:5.76"/>
	<line x1="454.16" y1="2093.67" x2="454.16" y2="2133.64" style="stroke:#000000;stroke-width:5.76"/>
	<text x="454.16" y="2223.62" style="font-family:'Helvetica';font-size:99.99px;fill:#000000" text-anchor="middle">-4</text>
	<line x1="1289.47" y1="2093.67" x2="1289.47" y2="2133.64" style="stroke:#000000;stroke-width:5.76"/>
	<text x="1289.47" y="2223.62" style="font-family:'Helvetica';font-size:99.99px;fill:#000000" text-anchor="middle">-2</text>
	<line x1="2124.91" y1="2093.67" x2="2124.91" y2="2133.64" style="stroke:#000000;stroke-width:5.76"/>
	<text x="2124.91" y="2223.62" style="font-family:'Helvetica';font-size:99.99px;fill:#000000" text-anchor="middle">0</text>
	<line x1="2960.35" y1="2093.67" x2="2960.35" y2="2133.64" style="stroke:#000000;stroke-width:5.76"/>
	<text x="2960.35" y="2223.62" style="font-family:'Helvetica';font-size:99.99px;fill:#000000" text-anchor="middle">2</text>
	<line x1="3795.66" y1="2093.67" x2="3795.66" y2="2133.64" style="stroke:#000000;stroke-width:5.76"/>
	<text x="3795.66" y="2223.62" style="font-family:'Helvetica';font-size:99.99px;fill:#000000" text-anchor="middle">4</text>
	<text x="2124.91" y="2333.64" style="font-family:'Helvetica';font-size:99.99px;fill:#000000" text-anchor="middle">Mean diff.</text>
	<rect x="968.72" y="2418.27" width="2312.39" height="326.34" style="fill:#FFFFFF"/>
	<rect x="971.59" y="2421.15" width="2306.63" height="320.58" style="fill:none;stroke:#000000;stroke-width:5.76"/>
	<line x1="1011.90" y1="2511.46" x2="1386.25" y2="2511.46" style="stroke:#C0C0C0;stroke-width:8.64"/>
	<circle cx="2813.70" cy="2511.46" r="26.35" style="fill:#1A476F"/>
	<circle cx="2813.70" cy="2511.46" r="22.03" style="fill:none;stroke:#1A476F;stroke-width:8.64"/>
	<line x1="1011.90" y1="2651.43" x2="1386.25" y2="2651.43" style="stroke:#C10534;stroke-width:8.64"/>
	<text x="1446.27" y="2546.49" style="font-family:'Helvetica';font-size:99.99px;fill:#000000">Pseudo 95% CI</text>
	<text x="2895.63" y="2546.49" style="font-family:'Helvetica';font-size:99.99px;fill:#000000">Studies</text>
	<text x="1446.27" y="2686.46" style="fill:#000000">
		<tspan style="font-family:'Helvetica';font-size:99.99px">Estimated θ</tspan>
		<tspan dy="14.28px" style="font-family:'Helvetica';font-size:58.29px">IV</tspan>
	</text>
	<text x="2124.91" y="215.98" style="font-family:'Helvetica';font-size:139.96px;fill:#1E2D53" text-anchor="middle">Funnel plot</text>
</svg>
