<?xml version="1.0" encoding="UTF-8" standalone="no"?>
<!-- This is a Stata 16.1 generated SVG file (http://www.stata.com) -->

<svg version="1.1" width="720px" height="524px" viewBox="0 0 3960 2880" xmlns="http://www.w3.org/2000/svg" xmlns:xlink="http://www.w3.org/1999/xlink">
	<desc>Stata Graph - Graph</desc>
	<rect x="0" y="0" width="3960" height="2880" style="fill:#EAF2F3;stroke:none"/>
	<rect x="0.00" y="0.00" width="3959.88" height="2880.00" style="fill:#EAF2F3"/>
	<rect x="2.88" y="2.88" width="3954.12" height="2874.24" style="fill:none;stroke:#EAF2F3;stroke-width:5.76"/>
	<rect x="390.80" y="275.35" width="3468.22" height="1818.32" style="fill:#FFFFFF"/>
	<rect x="393.68" y="278.23" width="3462.46" height="1812.56" style="fill:none;stroke:#FFFFFF;stroke-width:5.76"/>
	<line x1="390.80" y1="2030.31" x2="3859.02" y2="2030.31" style="stroke:#EAF2F3;stroke-width:8.64"/>
	<line x1="390.80" y1="1607.44" x2="3859.02" y2="1607.44" style="stroke:#EAF2F3;stroke-width:8.64"/>
	<line x1="390.80" y1="1184.57" x2="3859.02" y2="1184.57" style="stroke:#EAF2F3;stroke-width:8.64"/>
	<line x1="390.80" y1="761.58" x2="3859.02" y2="761.58" style="stroke:#EAF2F3;stroke-width:8.64"/>
	<line x1="390.80" y1="338.71" x2="3859.02" y2="338.71" style="stroke:#EAF2F3;stroke-width:8.64"/>
	<path d=" M3545.68 1853.46 L3502.74 1848.39 L3462.15 1843.44 L3423.67 1838.36 L3387.28 1833.29 L3352.64 1828.22 L3319.59 1823.14 L3288.28 1818.19 L3258.34 1813.12 L3229.75 1808.04 L3202.40 1802.97 L3176.29 1797.90 L3151.29 1792.95 L3127.29 1787.87 L3104.39 1782.80 L3082.24 1777.72 L3061.08 1772.65 L3040.66 1767.70 L3020.99 1762.63 L3002.18 1757.55 L2983.98 1752.48 L2966.41 1747.40 L2949.46 1742.45 L2933.12 1737.38 L2917.28 1732.31 L2901.94 1727.23 L2887.21 1722.16 L2872.86 1717.21 L2859.00 1712.13 L2845.63 1707.06 L2832.64 1701.99 L2820.01 1696.91 L2807.76 1691.96 L2795.88 1686.89 L2784.38 1681.82 L2773.24 1676.74 L2762.35 1671.67 L2751.70 1666.72 L2741.43 1661.64 L2731.41 1656.57 L2721.63 1651.50 L2712.11 1646.42 L2702.95 1641.47 L2693.91 1636.40 L2685.13 1631.32 L2676.59 1626.25 L2668.17 1621.18 L2660.01 1616.23 L2652.09 1611.15 L2644.29 1606.08 L2636.74 1601.00 L2629.32 1595.93 L2622.14 1590.98 L2615.09 1585.91 L2608.16 1580.83 L2601.35 1575.76 L2594.79 1570.68 L2588.36 1565.73 L2582.04 1560.66 L2575.86 1555.59 L2569.79 1550.51 L2563.85 1545.44 L2558.04 1540.49 L2552.34 1535.41 L2546.78 1530.34 L2541.33 1525.27 L2535.89 1520.19 L2530.69 1515.24 L2525.49 1510.17 L2520.42 1505.09 L2515.47 1500.02 L2510.64 1494.95 L2505.81 1490.00 L2501.24 1484.92 L2496.53 1479.85 L2492.08 1474.77 L2487.62 1469.70 L2483.29 1464.75 L2478.96 1459.68 L2474.75 1454.60 L2470.67 1449.53 L2466.59 1444.46 L2462.62 1439.50 L2458.66 1434.43 L2454.83 1429.36 L2451.12 1424.28 L2447.28 1419.21 L2443.69 1414.26 L2440.10 1409.19 L2436.51 1404.11 L2433.05 1399.04 L2429.58 1393.96 L2426.24 1389.01 L2422.90 1383.94 L2419.56 1378.87 L2416.34 1373.79 L2413.25 1368.72 L2410.03 1363.77 L2406.94 1358.69 L2403.97 1353.62 L2401.00 1348.55 L2398.03 1343.47 L2395.06 1338.52 L2392.21 1333.45 L2389.36 1328.37 L2386.64 1323.30 L2383.92 1318.23 L2381.20 1313.28 L2378.47 1308.20 L2375.88 1303.13 L2373.28 1298.05 L2370.68 1292.98 L2368.20 1288.03 L2365.73 1282.96 L2363.25 1277.88 L2360.90 1272.81 L2358.43 1267.73 L2356.08 1262.78 L2353.72 1257.71 L2351.50 1252.64 L2349.15 1247.56 L2346.92 1242.49 L2344.82 1237.54 L2342.59 1232.46 L2340.36 1227.39 L2338.26 1222.32 L2336.15 1217.24 L2334.17 1212.29 L2332.07 1207.22 L2330.09 1202.15 L2327.99 1197.07 L2326.01 1192.00 L2324.15 1187.05 L2322.17 1181.97 L2320.31 1176.90 L2318.33 1171.83 L2316.48 1166.75 L2314.74 1161.80 L2312.89 1156.73 L2311.03 1151.65 L2309.30 1146.58 L2307.57 1141.51 L2305.83 1136.56 L2304.10 1131.48 L2302.37 1126.41 L2300.64 1121.33 L2299.03 1116.26 L2297.42 1111.31 L2295.81 1106.24 L2294.20 1101.16 L2292.59 1096.09 L2290.98 1091.01 L2289.38 1086.06 L2287.89 1080.99 L2286.41 1075.92 L2284.92 1070.84 L2283.31 1065.77 L2281.95 1060.82 L2280.47 1055.74 L2278.98 1050.67 L2277.62 1045.60 L2276.13 1040.52 L2274.77 1035.57 L2273.41 1030.50 L2271.93 1025.42 L2270.57 1020.35 L2269.33 1015.28 L2267.97 1010.33 L2266.61 1005.25 L2265.37 1000.18 L2264.01 995.10 L2262.77 990.03 L2261.41 985.08 L2260.17 980.01 L2258.93 974.93 L2257.70 969.86 L2256.46 964.79 L2255.34 959.83 L2254.11 954.76 L2252.87 949.69 L2251.76 944.61 L2250.52 939.54 L2249.40 934.59 L2248.29 929.52 L2247.18 924.44 L2246.06 919.37 L2244.95 914.29 L2243.84 909.34 L2242.72 904.27 L2241.61 899.20 L2240.49 894.12 L2239.50 889.05 L2238.39 884.10 L2237.40 879.02 L2236.29 873.95 L2235.30 868.88 L2234.31 863.93 L2233.32 858.85 L2232.33 853.78 L2231.34 848.70 L2230.35 843.63 L2229.36 838.68 L2228.37 833.61 L2227.38 828.53 L2226.39 823.46 L2225.52 818.38 L2224.53 813.43 L2223.66 808.36 L2222.67 803.29 L2221.81 798.21 L2220.94 793.14 L2219.95 788.19 L2219.09 783.11 L2218.22 778.04 L2217.35 772.97 L2216.49 767.89 L2215.62 762.94 L2214.75 757.87 L2213.89 752.79 L2213.02 747.72 L2212.28 742.65 L2211.41 737.70 L2210.55 732.62 L2209.80 727.55 L2208.94 722.48 L2208.20 717.40 L2207.33 712.45 L2206.59 707.38 L2205.72 702.30 L2204.98 697.23 L2204.24 692.16 L2203.49 687.21 L2202.63 682.13 L2201.88 677.06 L2201.14 671.98 L2200.40 666.91 L2199.66 661.96 L2198.91 656.89 L2198.17 651.81 L2197.55 646.74 L2196.81 641.66 L2196.07 636.71 L2195.32 631.64 L2194.71 626.57 L2193.96 621.49 L2193.22 616.42 L2192.60 611.47 L2191.86 606.39 L2191.24 601.32 L2190.50 596.25 L2189.88 591.17 L2189.26 586.22 L2188.52 581.15 L2187.90 576.07 L2187.28 571.00 L2186.54 565.93 L2185.92 560.98 L2185.30 555.90 L2184.68 550.83 L2184.06 545.75 L2183.45 540.68 L2182.83 535.73 L2182.21 530.66 L2181.59 525.58 L2180.97 520.51 L2180.35 515.43 L2179.73 510.48 L2179.24 505.41 L2178.62 500.34 L2178.00 495.26 L2177.38 490.19 L2176.89 485.24 L2176.27 480.17 L2175.65 475.09 L2175.15 470.02 L2174.53 464.94 L2174.04 459.99 L2173.42 454.92 L2172.93 449.85 L2172.31 444.77 L2171.81 439.70 L2171.19 434.75 L2170.70 429.67 L2170.20 424.60 L2169.59 419.53 L2169.09 414.45 L2168.59 409.50 L2168.10 404.43 L2167.48 399.35 L2166.99 394.28 L2166.49 389.21 L2166.00 384.26 L2165.50 379.18 L2165.01 374.11 L2164.51 369.03 L2164.02 363.96 L2163.52 359.01 L2163.03 353.94 L2162.53 348.86 L2162.04 343.79" stroke-linejoin="round" style="fill:none;stroke:#C0C0C0;stroke-width:8.64"/>
	<path d=" M454.04 1853.46 L496.98 1848.39 L537.57 1843.44 L575.93 1838.36 L612.44 1833.29 L647.09 1828.22 L680.13 1823.14 L711.44 1818.19 L741.39 1813.12 L769.97 1808.04 L797.32 1802.97 L823.43 1797.90 L848.43 1792.95 L872.44 1787.87 L895.33 1782.80 L917.48 1777.72 L938.64 1772.65 L959.06 1767.70 L978.62 1762.63 L997.55 1757.55 L1015.74 1752.48 L1033.31 1747.40 L1050.27 1742.45 L1066.60 1737.38 L1082.44 1732.31 L1097.79 1727.23 L1112.51 1722.16 L1126.87 1717.21 L1140.73 1712.13 L1154.09 1707.06 L1167.09 1701.99 L1179.71 1696.91 L1191.96 1691.96 L1203.84 1686.89 L1215.35 1681.82 L1226.49 1676.74 L1237.38 1671.67 L1248.02 1666.72 L1258.29 1661.64 L1268.31 1656.57 L1278.09 1651.50 L1287.62 1646.42 L1296.78 1641.47 L1305.81 1636.40 L1314.60 1631.32 L1323.13 1626.25 L1331.55 1621.18 L1339.59 1616.23 L1347.64 1611.15 L1355.31 1606.08 L1362.98 1601.00 L1370.41 1595.93 L1377.59 1590.98 L1384.64 1585.91 L1391.57 1580.83 L1398.38 1575.76 L1404.93 1570.68 L1411.37 1565.73 L1417.68 1560.66 L1423.87 1555.59 L1429.93 1550.51 L1435.87 1545.44 L1441.69 1540.49 L1447.38 1535.41 L1452.95 1530.34 L1458.39 1525.27 L1463.84 1520.19 L1469.04 1515.24 L1474.23 1510.17 L1479.31 1505.09 L1484.26 1500.02 L1489.08 1494.95 L1493.91 1490.00 L1498.49 1484.92 L1503.19 1479.85 L1507.65 1474.77 L1512.10 1469.70 L1516.43 1464.75 L1520.76 1459.68 L1524.97 1454.60 L1529.06 1449.53 L1533.14 1444.46 L1537.10 1439.50 L1541.06 1434.43 L1544.89 1429.36 L1548.61 1424.28 L1552.32 1419.21 L1556.03 1414.26 L1559.62 1409.19 L1563.21 1404.11 L1566.67 1399.04 L1570.14 1393.96 L1573.48 1389.01 L1576.82 1383.94 L1580.16 1378.87 L1583.38 1373.79 L1586.47 1368.72 L1589.69 1363.77 L1592.79 1358.69 L1595.76 1353.62 L1598.73 1348.55 L1601.70 1343.47 L1604.67 1338.52 L1607.51 1333.45 L1610.36 1328.37 L1613.08 1323.30 L1615.80 1318.23 L1618.53 1313.28 L1621.25 1308.20 L1623.85 1303.13 L1626.45 1298.05 L1628.92 1292.98 L1631.52 1288.03 L1633.99 1282.96 L1636.47 1277.88 L1638.82 1272.81 L1641.30 1267.73 L1643.65 1262.78 L1646.00 1257.71 L1648.23 1252.64 L1650.45 1247.56 L1652.81 1242.49 L1654.91 1237.54 L1657.14 1232.46 L1659.24 1227.39 L1661.47 1222.32 L1663.57 1217.24 L1665.55 1212.29 L1667.65 1207.22 L1669.63 1202.15 L1671.74 1197.07 L1673.60 1192.00 L1675.58 1187.05 L1677.56 1181.97 L1679.41 1176.90 L1681.27 1171.83 L1683.25 1166.75 L1684.98 1161.80 L1686.84 1156.73 L1688.69 1151.65 L1690.42 1146.58 L1692.16 1141.51 L1693.89 1136.56 L1695.62 1131.48 L1697.36 1126.41 L1698.96 1121.33 L1700.70 1116.26 L1702.31 1111.31 L1703.91 1106.24 L1705.52 1101.16 L1707.13 1096.09 L1708.74 1091.01 L1710.22 1086.06 L1711.83 1080.99 L1713.32 1075.92 L1714.80 1070.84 L1716.29 1065.77 L1717.77 1060.82 L1719.26 1055.74 L1720.74 1050.67 L1722.11 1045.60 L1723.59 1040.52 L1724.95 1035.57 L1726.31 1030.50 L1727.80 1025.42 L1729.16 1020.35 L1730.40 1015.28 L1731.76 1010.33 L1733.12 1005.25 L1734.36 1000.18 L1735.72 995.10 L1736.95 990.03 L1738.19 985.08 L1739.55 980.01 L1740.79 974.93 L1742.03 969.86 L1743.27 964.79 L1744.38 959.83 L1745.62 954.76 L1746.86 949.69 L1747.97 944.61 L1749.21 939.54 L1750.32 934.59 L1751.43 929.52 L1752.55 924.44 L1753.66 919.37 L1754.78 914.29 L1755.89 909.34 L1757.00 904.27 L1758.12 899.20 L1759.23 894.12 L1760.22 889.05 L1761.33 884.10 L1762.32 879.02 L1763.44 873.95 L1764.43 868.88 L1765.42 863.93 L1766.41 858.85 L1767.40 853.78 L1768.39 848.70 L1769.38 843.63 L1770.37 838.68 L1771.36 833.61 L1772.35 828.53 L1773.21 823.46 L1774.20 818.38 L1775.19 813.43 L1776.06 808.36 L1777.05 803.29 L1777.92 798.21 L1778.78 793.14 L1779.77 788.19 L1780.64 783.11 L1781.51 778.04 L1782.37 772.97 L1783.24 767.89 L1784.10 762.94 L1784.97 757.87 L1785.84 752.79 L1786.70 747.72 L1787.44 742.65 L1788.31 737.70 L1789.18 732.62 L1789.92 727.55 L1790.79 722.48 L1791.53 717.40 L1792.39 712.45 L1793.14 707.38 L1794.00 702.30 L1794.75 697.23 L1795.49 692.16 L1796.23 687.21 L1796.97 682.13 L1797.84 677.06 L1798.58 671.98 L1799.33 666.91 L1800.07 661.96 L1800.81 656.89 L1801.43 651.81 L1802.17 646.74 L1802.91 641.66 L1803.66 636.71 L1804.40 631.64 L1805.02 626.57 L1805.76 621.49 L1806.50 616.42 L1807.12 611.47 L1807.86 606.39 L1808.48 601.32 L1809.22 596.25 L1809.84 591.17 L1810.46 586.22 L1811.20 581.15 L1811.82 576.07 L1812.44 571.00 L1813.06 565.93 L1813.80 560.98 L1814.42 555.90 L1815.04 550.83 L1815.66 545.75 L1816.28 540.68 L1816.90 535.73 L1817.52 530.66 L1818.13 525.58 L1818.75 520.51 L1819.37 515.43 L1819.99 510.48 L1820.49 505.41 L1821.11 500.34 L1821.72 495.26 L1822.34 490.19 L1822.84 485.24 L1823.46 480.17 L1824.08 475.09 L1824.57 470.02 L1825.19 464.94 L1825.68 459.99 L1826.30 454.92 L1826.80 449.85 L1827.42 444.77 L1827.91 439.70 L1828.53 434.75 L1829.03 429.67 L1829.52 424.60 L1830.14 419.53 L1830.63 414.45 L1831.13 409.50 L1831.62 404.43 L1832.24 399.35 L1832.74 394.28 L1833.23 389.21 L1833.73 384.26 L1834.22 379.18 L1834.72 374.11 L1835.21 369.03 L1835.71 363.96 L1836.20 359.01 L1836.70 353.94 L1837.19 348.86 L1837.69 343.79" stroke-linejoin="round" style="fill:none;stroke:#C0C0C0;stroke-width:8.64"/>
	<circle cx="2057.47" cy="1757.92" r="26.35" style="fill:#1A476F"/>
	<circle cx="2057.47" cy="1757.92" r="22.03" style="fill:none;stroke:#1A476F;stroke-width:8.64"/>
	<circle cx="1916.02" cy="1608.55" r="26.35" style="fill:#1A476F"/>
	<circle cx="1916.02" cy="1608.55" r="22.03" style="fill:none;stroke:#1A476F;stroke-width:8.64"/>
	<circle cx="1911.69" cy="1532.69" r="26.35" style="fill:#1A476F"/>
	<circle cx="1911.69" cy="1532.69" r="22.03" style="fill:none;stroke:#1A476F;stroke-width:8.64"/>
	<circle cx="3368.72" cy="1853.46" r="26.35" style="fill:#1A476F"/>
	<circle cx="3368.72" cy="1853.46" r="22.03" style="fill:none;stroke:#1A476F;stroke-width:8.64"/>
	<circle cx="1819.12" cy="628.05" r="26.35" style="fill:#1A476F"/>
	<circle cx="1819.12" cy="628.05" r="22.03" style="fill:none;stroke:#1A476F;stroke-width:8.64"/>
	<circle cx="1863.18" cy="1529.10" r="26.35" style="fill:#1A476F"/>
	<circle cx="1863.18" cy="1529.10" r="22.03" style="fill:none;stroke:#1A476F;stroke-width:8.64"/>
	<circle cx="1857.36" cy="1651.00" r="26.35" style="fill:#1A476F"/>
	<circle cx="1857.36" cy="1651.00" r="22.03" style="fill:none;stroke:#1A476F;stroke-width:8.64"/>
	<circle cx="2298.90" cy="1757.92" r="26.35" style="fill:#1A476F"/>
	<circle cx="2298.90" cy="1757.92" r="22.03" style="fill:none;stroke:#1A476F;stroke-width:8.64"/>
	<circle cx="2844.15" cy="1532.69" r="26.35" style="fill:#1A476F"/>
	<circle cx="2844.15" cy="1532.69" r="22.03" style="fill:none;stroke:#1A476F;stroke-width:8.64"/>
	<circle cx="2010.19" cy="1853.46" r="26.35" style="fill:#1A476F"/>
	<circle cx="2010.19" cy="1853.46" r="22.03" style="fill:none;stroke:#1A476F;stroke-width:8.64"/>
	<circle cx="2308.43" cy="628.05" r="26.35" style="fill:#1A476F"/>
	<circle cx="2308.43" cy="628.05" r="22.03" style="fill:none;stroke:#1A476F;stroke-width:8.64"/>
	<circle cx="2082.22" cy="1696.05" r="26.35" style="fill:#1A476F"/>
	<circle cx="2082.22" cy="1696.05" r="22.03" style="fill:none;stroke:#1A476F;stroke-width:8.64"/>
	<circle cx="2805.91" cy="1529.10" r="26.35" style="fill:#1A476F"/>
	<circle cx="2805.91" cy="1529.10" r="22.03" style="fill:none;stroke:#1A476F;stroke-width:8.64"/>
	<circle cx="2129.12" cy="1534.55" r="26.35" style="fill:#1A476F"/>
	<circle cx="2129.12" cy="1534.55" r="22.03" style="fill:none;stroke:#1A476F;stroke-width:8.64"/>
	<circle cx="2459.90" cy="1757.92" r="26.35" style="fill:#1A476F"/>
	<circle cx="2459.90" cy="1757.92" r="22.03" style="fill:none;stroke:#1A476F;stroke-width:8.64"/>
	<circle cx="2150.78" cy="1532.69" r="26.35" style="fill:#1A476F"/>
	<circle cx="2150.78" cy="1532.69" r="22.03" style="fill:none;stroke:#1A476F;stroke-width:8.64"/>
	<circle cx="2059.20" cy="628.05" r="26.35" style="fill:#1A476F"/>
	<circle cx="2059.20" cy="628.05" r="22.03" style="fill:none;stroke:#1A476F;stroke-width:8.64"/>
	<circle cx="1869.37" cy="1696.05" r="26.35" style="fill:#1A476F"/>
	<circle cx="1869.37" cy="1696.05" r="22.03" style="fill:none;stroke:#1A476F;stroke-width:8.64"/>
	<circle cx="2216.73" cy="1529.10" r="26.35" style="fill:#1A476F"/>
	<circle cx="2216.73" cy="1529.10" r="22.03" style="fill:none;stroke:#1A476F;stroke-width:8.64"/>
	<circle cx="2153.25" cy="1534.55" r="26.35" style="fill:#1A476F"/>
	<circle cx="2153.25" cy="1534.55" r="22.03" style="fill:none;stroke:#1A476F;stroke-width:8.64"/>
	<circle cx="1896.59" cy="1757.92" r="26.35" style="fill:#1A476F"/>
	<circle cx="1896.59" cy="1757.92" r="22.03" style="fill:none;stroke:#1A476F;stroke-width:8.64"/>
	<circle cx="1849.44" cy="1608.55" r="26.35" style="fill:#1A476F"/>
	<circle cx="1849.44" cy="1608.55" r="22.03" style="fill:none;stroke:#1A476F;stroke-width:8.64"/>
	<circle cx="2055.12" cy="1532.69" r="26.35" style="fill:#1A476F"/>
	<circle cx="2055.12" cy="1532.69" r="22.03" style="fill:none;stroke:#1A476F;stroke-width:8.64"/>
	<circle cx="1846.10" cy="628.05" r="26.35" style="fill:#1A476F"/>
	<circle cx="1846.10" cy="628.05" r="22.03" style="fill:none;stroke:#1A476F;stroke-width:8.64"/>
	<circle cx="1853.40" cy="343.79" r="26.35" style="fill:#1A476F"/>
	<circle cx="1853.40" cy="343.79" r="22.03" style="fill:none;stroke:#1A476F;stroke-width:8.64"/>
	<circle cx="1857.36" cy="1651.00" r="26.35" style="fill:#1A476F"/>
	<circle cx="1857.36" cy="1651.00" r="22.03" style="fill:none;stroke:#1A476F;stroke-width:8.64"/>
	<circle cx="1864.29" cy="1534.55" r="26.35" style="fill:#1A476F"/>
	<circle cx="1864.29" cy="1534.55" r="22.03" style="fill:none;stroke:#1A476F;stroke-width:8.64"/>
	<circle cx="1896.59" cy="1757.92" r="26.35" style="fill:#1A476F"/>
	<circle cx="1896.59" cy="1757.92" r="22.03" style="fill:none;stroke:#1A476F;stroke-width:8.64"/>
	<circle cx="1911.69" cy="1532.69" r="26.35" style="fill:#1A476F"/>
	<circle cx="1911.69" cy="1532.69" r="22.03" style="fill:none;stroke:#1A476F;stroke-width:8.64"/>
	<circle cx="1852.17" cy="628.05" r="26.35" style="fill:#1A476F"/>
	<circle cx="1852.17" cy="628.05" r="22.03" style="fill:none;stroke:#1A476F;stroke-width:8.64"/>
	<circle cx="1869.37" cy="1696.05" r="26.35" style="fill:#1A476F"/>
	<circle cx="1869.37" cy="1696.05" r="22.03" style="fill:none;stroke:#1A476F;stroke-width:8.64"/>
	<circle cx="1863.18" cy="1529.10" r="26.35" style="fill:#1A476F"/>
	<circle cx="1863.18" cy="1529.10" r="22.03" style="fill:none;stroke:#1A476F;stroke-width:8.64"/>
	<circle cx="2298.90" cy="1757.92" r="26.35" style="fill:#1A476F"/>
	<circle cx="2298.90" cy="1757.92" r="22.03" style="fill:none;stroke:#1A476F;stroke-width:8.64"/>
	<circle cx="3149.19" cy="1608.55" r="26.35" style="fill:#1A476F"/>
	<circle cx="3149.19" cy="1608.55" r="22.03" style="fill:none;stroke:#1A476F;stroke-width:8.64"/>
	<circle cx="2294.20" cy="1532.69" r="26.35" style="fill:#1A476F"/>
	<circle cx="2294.20" cy="1532.69" r="22.03" style="fill:none;stroke:#1A476F;stroke-width:8.64"/>
	<circle cx="1897.09" cy="628.05" r="26.35" style="fill:#1A476F"/>
	<circle cx="1897.09" cy="628.05" r="22.03" style="fill:none;stroke:#1A476F;stroke-width:8.64"/>
	<circle cx="1869.37" cy="1696.05" r="26.35" style="fill:#1A476F"/>
	<circle cx="1869.37" cy="1696.05" r="22.03" style="fill:none;stroke:#1A476F;stroke-width:8.64"/>
	<circle cx="1981.11" cy="1529.10" r="26.35" style="fill:#1A476F"/>
	<circle cx="1981.11" cy="1529.10" r="22.03" style="fill:none;stroke:#1A476F;stroke-width:8.64"/>
	<circle cx="2847.12" cy="1651.00" r="26.35" style="fill:#1A476F"/>
	<circle cx="2847.12" cy="1651.00" r="22.03" style="fill:none;stroke:#1A476F;stroke-width:8.64"/>
	<circle cx="2056.97" cy="1534.55" r="26.35" style="fill:#1A476F"/>
	<circle cx="2056.97" cy="1534.55" r="22.03" style="fill:none;stroke:#1A476F;stroke-width:8.64"/>
	<path d=" M1999.80 1853.46 L1999.80 343.79" stroke-linejoin="round" style="fill:none;stroke:#C10534;stroke-width:8.64"/>
	<line x1="390.80" y1="2093.67" x2="390.80" y2="275.35" style="stroke:#000000;stroke-width:5.76"/>
	<line x1="390.80" y1="2030.31" x2="350.83" y2="2030.31" style="stroke:#000000;stroke-width:5.76"/>
	<text x="300.72" y="2030.31" style="font-family:'Helvetica';font-size:99.99px;fill:#000000" transform="rotate(-90 300.72,2030.31)" text-anchor="middle">0</text>
	<line x1="390.80" y1="1607.44" x2="350.83" y2="1607.44" style="stroke:#000000;stroke-width:5.76"/>
	<text x="300.72" y="1607.44" style="font-family:'Helvetica';font-size:99.99px;fill:#000000" transform="rotate(-90 300.72,1607.44)" text-anchor="middle">10</text>
	<line x1="390.80" y1="1184.57" x2="350.83" y2="1184.57" style="stroke:#000000;stroke-width:5.76"/>
	<text x="300.72" y="1184.57" style="font-family:'Helvetica';font-size:99.99px;fill:#000000" transform="rotate(-90 300.72,1184.57)" text-anchor="middle">20</text>
	<line x1="390.80" y1="761.58" x2="350.83" y2="761.58" style="stroke:#000000;stroke-width:5.76"/>
	<text x="300.72" y="761.58" style="font-family:'Helvetica';font-size:99.99px;fill:#000000" transform="rotate(-90 300.72,761.58)" text-anchor="middle">30</text>
	<line x1="390.80" y1="338.71" x2="350.83" y2="338.71" style="stroke:#000000;stroke-width:5.76"/>
	<text x="300.72" y="338.71" style="font-family:'Helvetica';font-size:99.99px;fill:#000000" transform="rotate(-90 300.72,338.71)" text-anchor="middle">40</text>
	<text x="190.71" y="1184.57" style="font-family:'Helvetica';font-size:99.99px;fill:#000000" transform="rotate(-90 190.71,1184.57)" text-anchor="middle">Inverse standard error</text>
	<line x1="390.80" y1="2093.67" x2="3859.02" y2="2093.67" style="stroke:#000000;stroke-width:5.76"/>
	<line x1="496.49" y1="2093.67" x2="496.49" y2="2133.64" style="stroke:#000000;stroke-width:5.76"/>
	<text x="496.49" y="2223.62" style="font-family:'Helvetica';font-size:99.99px;fill:#000000" text-anchor="middle">-.4</text>
	<line x1="1156.32" y1="2093.67" x2="1156.32" y2="2133.64" style="stroke:#000000;stroke-width:5.76"/>
	<text x="1156.32" y="2223.62" style="font-family:'Helvetica';font-size:99.99px;fill:#000000" text-anchor="middle">-.2</text>
	<line x1="1816.15" y1="2093.67" x2="1816.15" y2="2133.64" style="stroke:#000000;stroke-width:5.76"/>
	<text x="1816.15" y="2223.62" style="font-family:'Helvetica';font-size:99.99px;fill:#000000" text-anchor="middle">0</text>
	<line x1="2475.99" y1="2093.67" x2="2475.99" y2="2133.64" style="stroke:#000000;stroke-width:5.76"/>
	<text x="2475.99" y="2223.62" style="font-family:'Helvetica';font-size:99.99px;fill:#000000" text-anchor="middle">.2</text>
	<line x1="3135.82" y1="2093.67" x2="3135.82" y2="2133.64" style="stroke:#000000;stroke-width:5.76"/>
	<text x="3135.82" y="2223.62" style="font-family:'Helvetica';font-size:99.99px;fill:#000000" text-anchor="middle">.4</text>
	<line x1="3795.66" y1="2093.67" x2="3795.66" y2="2133.64" style="stroke:#000000;stroke-width:5.76"/>
	<text x="3795.66" y="2223.62" style="font-family:'Helvetica';font-size:99.99px;fill:#000000" text-anchor="middle">.6</text>
	<text x="2124.91" y="2333.64" style="font-family:'Helvetica';font-size:99.99px;fill:#000000" text-anchor="middle">Premorb. Prevalence.</text>
	<rect x="968.72" y="2418.27" width="2312.39" height="326.34" style="fill:#FFFFFF"/>
	<rect x="971.59" y="2421.15" width="2306.63" height="320.58" style="fill:none;stroke:#000000;stroke-width:5.76"/>
	<line x1="1011.90" y1="2511.46" x2="1386.25" y2="2511.46" style="stroke:#C0C0C0;stroke-width:8.64"/>
	<circle cx="2813.70" cy="2511.46" r="26.35" style="fill:#1A476F"/>
	<circle cx="2813.70" cy="2511.46" r="22.03" style="fill:none;stroke:#1A476F;stroke-width:8.64"/>
	<line x1="1011.90" y1="2651.43" x2="1386.25" y2="2651.43" style="stroke:#C10534;stroke-width:8.64"/>
	<text x="1446.27" y="2546.49" style="font-family:'Helvetica';font-size:99.99px;fill:#000000">Pseudo 95% CI</text>
	<text x="2895.63" y="2546.49" style="font-family:'Helvetica';font-size:99.99px;fill:#000000">Studies</text>
	<text x="1446.27" y="2686.46" style="fill:#000000">
		<tspan style="font-family:'Helvetica';font-size:99.99px">Estimated θ</tspan>
		<tspan dy="14.28px" style="font-family:'Helvetica';font-size:58.29px">IV</tspan>
	</text>
	<text x="2124.91" y="215.98" style="font-family:'Helvetica';font-size:139.96px;fill:#1E2D53" text-anchor="middle">Funnel plot</text>
</svg>
