<svg xmlns="http://www.w3.org/2000/svg" xmlns:xlink="http://www.w3.org/1999/xlink" width="720" height="524" version="1.1" viewBox="0 0 3960 2880"><desc>Stata Graph - Graph</desc><rect width="3960" height="2880" x="0" y="0" style="fill:#eaf2f3;stroke:none"/><rect width="3959.88" height="2880" x="0" y="0" style="fill:#eaf2f3"/><rect width="3954.12" height="2874.24" x="2.88" y="2.88" style="fill:none;stroke:#eaf2f3;stroke-width:5.76"/><rect width="3468.22" height="1703.84" x="390.8" y="275.35" style="fill:#fff"/><rect width="3462.46" height="1698.08" x="393.68" y="278.23" style="fill:none;stroke:#fff;stroke-width:5.76"/><line x1="390.8" x2="3859.02" y1="1796.29" y2="1796.29" style="stroke:#eaf2f3;stroke-width:8.64"/><line x1="390.8" x2="3859.02" y1="1504.72" y2="1504.72" style="stroke:#eaf2f3;stroke-width:8.64"/><line x1="390.8" x2="3859.02" y1="1213.28" y2="1213.28" style="stroke:#eaf2f3;stroke-width:8.64"/><line x1="390.8" x2="3859.02" y1="921.72" y2="921.72" style="stroke:#eaf2f3;stroke-width:8.64"/><line x1="390.8" x2="3859.02" y1="630.28" y2="630.28" style="stroke:#eaf2f3;stroke-width:8.64"/><line x1="390.8" x2="3859.02" y1="338.71" y2="338.71" style="stroke:#eaf2f3;stroke-width:8.64"/><defs><path id="path_MpODMYeW" stroke-linejoin="round" d="M489.93 1606.20 L489.93 1606.20 L523.22 1607.19 L556.63 1608.18 L590.04 1609.17 L623.45 1610.16 L656.87 1611.15 L690.28 1612.27 L723.57 1613.38 L756.98 1614.49 L790.39 1615.61 L823.80 1616.84 L857.22 1618.08 L890.63 1619.32 L923.92 1620.56 L957.33 1621.92 L990.74 1623.28 L1024.15 1624.64 L1057.57 1626.13 L1090.98 1627.49 L1124.27 1629.10 L1157.68 1630.58 L1191.09 1632.19 L1224.51 1633.92 L1257.92 1635.65 L1291.33 1637.39 L1324.62 1639.12 L1358.03 1641.10 L1391.44 1642.96 L1424.86 1644.94 L1458.27 1647.04 L1491.68 1649.14 L1524.97 1651.25 L1558.38 1653.48 L1591.80 1655.83 L1625.21 1658.18 L1658.62 1660.53 L1692.03 1663.13 L1725.45 1665.60 L1758.73 1668.20 L1792.15 1670.92 L1825.56 1673.77 L1858.97 1676.62 L1892.38 1679.46 L1925.80 1682.43 L1959.09 1685.53 L1992.50 1688.62 L2025.91 1691.72 L2059.32 1694.93 L2092.74 1698.27 L2126.15 1701.62 L2159.44 1705.08 L2192.85 1708.55 L2226.26 1712.01 L2259.68 1715.60 L2293.09 1719.31 L2326.50 1723.03 L2359.79 1726.74 L2393.20 1730.45 L2426.61 1734.29 L2460.03 1738.25 L2493.44 1742.21 L2526.85 1746.17 L2560.14 1750.13 L2593.55 1754.21 L2626.97 1758.29 L2660.38 1762.38 L2693.79 1766.59 L2727.20 1770.67 L2760.61 1774.88 L2793.90 1779.21 L2827.32 1783.42 L2860.73 1787.75 L2894.14 1792.08 L2927.55 1796.41 L2960.97 1800.87 L2994.26 1805.20 L3027.67 1809.65 L3061.08 1814.11 L3094.49 1818.56 L3127.91 1823.02 L3161.32 1827.60 L3194.61 1832.05 L3228.02 1836.63 L3261.43 1841.21 L3294.84 1845.79 L3328.26 1850.37 L3361.67 1854.95 L3394.96 1859.53 L3428.37 1864.10 L3461.78 1868.81 L3495.20 1873.51 L3528.61 1878.09 L3562.02 1882.79 L3595.31 1887.49 L3628.72 1892.20 L3662.13 1896.90 L3695.55 1901.60 L3728.96 1906.30 L3762.37 1911.01 L3795.66 1915.83 L3795.66 1588.75 L3762.37 1588.13 L3728.96 1587.39 L3695.55 1586.77 L3662.13 1586.03 L3628.72 1585.41 L3595.31 1584.67 L3562.02 1583.93 L3528.61 1583.18 L3495.20 1582.44 L3461.78 1581.70 L3428.37 1580.96 L3394.96 1580.21 L3361.67 1579.35 L3328.26 1578.60 L3294.84 1577.74 L3261.43 1576.87 L3228.02 1576.13 L3194.61 1575.26 L3161.32 1574.27 L3127.91 1573.41 L3094.49 1572.54 L3061.08 1571.55 L3027.67 1570.56 L2994.26 1569.69 L2960.97 1568.58 L2927.55 1567.59 L2894.14 1566.60 L2860.73 1565.49 L2827.32 1564.37 L2793.90 1563.26 L2760.61 1562.15 L2727.20 1560.91 L2693.79 1559.67 L2660.38 1558.43 L2626.97 1557.19 L2593.55 1555.83 L2560.14 1554.47 L2526.85 1553.11 L2493.44 1551.63 L2460.03 1550.14 L2426.61 1548.66 L2393.20 1547.05 L2359.79 1545.44 L2326.50 1543.83 L2293.09 1542.10 L2259.68 1540.36 L2226.26 1538.51 L2192.85 1536.65 L2159.44 1534.67 L2126.15 1532.69 L2092.74 1530.71 L2059.32 1528.61 L2025.91 1526.38 L1992.50 1524.15 L1959.09 1521.80 L1925.80 1519.45 L1892.38 1517.10 L1858.97 1514.50 L1825.56 1512.02 L1792.15 1509.30 L1758.73 1506.70 L1725.45 1503.86 L1692.03 1501.01 L1658.62 1498.16 L1625.21 1495.19 L1591.80 1492.10 L1558.38 1489.01 L1524.97 1485.79 L1491.68 1482.57 L1458.27 1479.23 L1424.86 1475.89 L1391.44 1472.55 L1358.03 1469.08 L1324.62 1465.49 L1291.33 1461.90 L1257.92 1458.19 L1224.51 1454.60 L1191.09 1450.77 L1157.68 1447.05 L1124.27 1443.22 L1090.98 1439.26 L1057.57 1435.30 L1024.15 1431.34 L990.74 1427.38 L957.33 1423.29 L923.92 1419.21 L890.63 1415.13 L857.22 1410.92 L823.80 1406.71 L790.39 1402.50 L756.98 1398.29 L723.57 1393.96 L690.28 1389.76 L656.87 1385.42 L623.45 1380.97 L590.04 1376.64 L556.63 1372.18 L523.22 1367.85 L489.93 1363.40 L489.93 1606.20 Z"/></defs><defs><clipPath id="clipPath_yMSjRPiQ"><use xlink:href="#path_MpODMYeW"/></clipPath></defs><use xlink:href="#path_MpODMYeW" style="stroke:none;fill:silver"/><use style="fill:none;stroke:silver;stroke-width:17.28" clip-path="url(#clipPath_yMSjRPiQ)" xlink:href="#path_MpODMYeW"/><circle cx="540.29" cy="1583.06" r="12.25" style="fill:none;stroke:#1a476f;stroke-width:8.64"/><circle cx="662.19" cy="1708.05" r="18.93" style="fill:none;stroke:#1a476f;stroke-width:8.64"/><circle cx="744.11" cy="1711.89" r="22.27" style="fill:none;stroke:#1a476f;stroke-width:8.64"/><circle cx="489.8" cy="424.48" r="7.92" style="fill:none;stroke:#1a476f;stroke-width:8.64"/><circle cx="2763.71" cy="1793.69" r="62.74" style="fill:none;stroke:#1a476f;stroke-width:8.64"/><circle cx="748.32" cy="1754.71" r="22.4" style="fill:none;stroke:#1a476f;stroke-width:8.64"/><circle cx="622.22" cy="1759.9" r="16.95" style="fill:none;stroke:#1a476f;stroke-width:8.64"/><circle cx="540.29" cy="1369.71" r="12.25" style="fill:none;stroke:#1a476f;stroke-width:8.64"/><circle cx="744.11" cy="888.06" r="22.27" style="fill:none;stroke:#1a476f;stroke-width:8.64"/><circle cx="489.8" cy="1624.89" r="7.92" style="fill:none;stroke:#1a476f;stroke-width:8.64"/><circle cx="2763.71" cy="1361.29" r="62.74" style="fill:none;stroke:#1a476f;stroke-width:8.64"/><circle cx="584.35" cy="1561.28" r="14.97" style="fill:none;stroke:#1a476f;stroke-width:8.64"/><circle cx="748.32" cy="921.84" r="22.4" style="fill:none;stroke:#1a476f;stroke-width:8.64"/><circle cx="742" cy="1519.7" r="22.15" style="fill:none;stroke:#1a476f;stroke-width:8.64"/><circle cx="540.29" cy="1227.51" r="12.25" style="fill:none;stroke:#1a476f;stroke-width:8.64"/><circle cx="744.11" cy="1500.64" r="22.27" style="fill:none;stroke:#1a476f;stroke-width:8.64"/><circle cx="2763.71" cy="1581.45" r="62.74" style="fill:none;stroke:#1a476f;stroke-width:8.64"/><circle cx="584.35" cy="1749.38" r="14.97" style="fill:none;stroke:#1a476f;stroke-width:8.64"/><circle cx="748.32" cy="1442.35" r="22.4" style="fill:none;stroke:#1a476f;stroke-width:8.64"/><circle cx="742" cy="1498.41" r="22.15" style="fill:none;stroke:#1a476f;stroke-width:8.64"/><circle cx="540.29" cy="1725.25" r="12.25" style="fill:none;stroke:#1a476f;stroke-width:8.64"/><circle cx="662.19" cy="1766.96" r="18.93" style="fill:none;stroke:#1a476f;stroke-width:8.64"/><circle cx="744.11" cy="1585.16" r="22.27" style="fill:none;stroke:#1a476f;stroke-width:8.64"/><circle cx="2763.71" cy="1769.8" r="62.74" style="fill:none;stroke:#1a476f;stroke-width:8.64"/><circle cx="3795.66" cy="1763.37" r="75.49" style="fill:none;stroke:#1a476f;stroke-width:8.64"/><circle cx="622.22" cy="1759.9" r="16.95" style="fill:none;stroke:#1a476f;stroke-width:8.64"/><circle cx="742" cy="1753.84" r="22.15" style="fill:none;stroke:#1a476f;stroke-width:8.64"/><circle cx="540.29" cy="1725.25" r="12.25" style="fill:none;stroke:#1a476f;stroke-width:8.64"/><circle cx="744.11" cy="1711.89" r="22.27" style="fill:none;stroke:#1a476f;stroke-width:8.64"/><circle cx="2763.71" cy="1764.48" r="62.74" style="fill:none;stroke:#1a476f;stroke-width:8.64"/><circle cx="584.35" cy="1749.38" r="14.97" style="fill:none;stroke:#1a476f;stroke-width:8.64"/><circle cx="748.32" cy="1754.71" r="22.4" style="fill:none;stroke:#1a476f;stroke-width:8.64"/><circle cx="540.29" cy="1369.71" r="12.25" style="fill:none;stroke:#1a476f;stroke-width:8.64"/><circle cx="662.19" cy="618.52" r="18.93" style="fill:none;stroke:#1a476f;stroke-width:8.64"/><circle cx="744.11" cy="1373.92" r="22.27" style="fill:none;stroke:#1a476f;stroke-width:8.64"/><circle cx="2763.71" cy="1724.76" r="62.74" style="fill:none;stroke:#1a476f;stroke-width:8.64"/><circle cx="584.35" cy="1749.38" r="14.97" style="fill:none;stroke:#1a476f;stroke-width:8.64"/><circle cx="748.32" cy="1650.63" r="22.4" style="fill:none;stroke:#1a476f;stroke-width:8.64"/><circle cx="622.22" cy="885.34" r="16.95" style="fill:none;stroke:#1a476f;stroke-width:8.64"/><circle cx="742" cy="1583.55" r="22.15" style="fill:none;stroke:#1a476f;stroke-width:8.64"/><path stroke-linejoin="round" d="M489.80 1484.80 L523.22 1487.52 L556.63 1490.24 L590.04 1492.97 L623.33 1495.69 L656.74 1498.41 L690.15 1501.01 L723.57 1503.73 L756.98 1506.46 L790.39 1509.18 L823.68 1511.90 L857.09 1514.62 L890.50 1517.22 L923.92 1519.94 L957.33 1522.67 L990.74 1525.39 L1024.03 1528.11 L1057.44 1530.84 L1090.86 1533.43 L1124.27 1536.16 L1157.68 1538.88 L1191.09 1541.60 L1224.38 1544.32 L1257.80 1547.05 L1291.21 1549.65 L1324.62 1552.37 L1358.03 1555.09 L1391.44 1557.81 L1424.73 1560.54 L1458.15 1563.26 L1491.56 1565.86 L1524.97 1568.58 L1558.38 1571.30 L1591.80 1574.03 L1625.21 1576.75 L1658.50 1579.47 L1691.91 1582.07 L1725.32 1584.79 L1758.73 1587.51 L1792.15 1590.24 L1825.56 1592.96 L1858.85 1595.68 L1892.26 1598.28 L1925.67 1601.00 L1959.09 1603.73 L1992.50 1606.45 L2025.91 1609.17 L2059.20 1611.89 L2092.61 1614.49 L2126.03 1617.22 L2159.44 1619.94 L2192.85 1622.66 L2226.26 1625.38 L2259.55 1628.11 L2292.96 1630.70 L2326.38 1633.43 L2359.79 1636.15 L2393.20 1638.87 L2426.61 1641.60 L2459.90 1644.32 L2493.32 1646.92 L2526.73 1649.64 L2560.14 1652.36 L2593.55 1655.08 L2626.97 1657.81 L2660.25 1660.53 L2693.67 1663.13 L2727.08 1665.85 L2760.49 1668.57 L2793.90 1671.30 L2827.32 1674.02 L2860.73 1676.74 L2894.02 1679.34 L2927.43 1682.06 L2960.84 1684.79 L2994.26 1687.51 L3027.67 1690.23 L3061.08 1692.95 L3094.37 1695.55 L3127.78 1698.27 L3161.19 1701.00 L3194.61 1703.72 L3228.02 1706.44 L3261.43 1709.16 L3294.72 1711.76 L3328.13 1714.49 L3361.55 1717.21 L3394.96 1719.93 L3428.37 1722.65 L3461.78 1725.38 L3495.07 1727.98 L3528.48 1730.70 L3561.90 1733.42 L3595.31 1736.14 L3628.72 1738.87 L3662.13 1741.59 L3695.42 1744.19 L3728.84 1746.91 L3762.25 1749.63 L3795.66 1752.35" style="fill:none;stroke:#90353b;stroke-width:8.64"/><line x1="390.8" x2="390.8" y1="1979.2" y2="275.35" style="stroke:#000;stroke-width:5.76"/><line x1="390.8" x2="350.83" y1="1796.29" y2="1796.29" style="stroke:#000;stroke-width:5.76"/><text x="300.72" y="1796.29" text-anchor="middle" transform="rotate(-90 300.72,1796.29)" style="font-family:'Helvetica';font-size:99.99px;fill:#000">0</text><line x1="390.8" x2="350.83" y1="1504.72" y2="1504.72" style="stroke:#000;stroke-width:5.76"/><text x="300.72" y="1504.72" text-anchor="middle" transform="rotate(-90 300.72,1504.72)" style="font-family:'Helvetica';font-size:99.99px;fill:#000">.1</text><line x1="390.8" x2="350.83" y1="1213.28" y2="1213.28" style="stroke:#000;stroke-width:5.76"/><text x="300.72" y="1213.28" text-anchor="middle" transform="rotate(-90 300.72,1213.28)" style="font-family:'Helvetica';font-size:99.99px;fill:#000">.2</text><line x1="390.8" x2="350.83" y1="921.72" y2="921.72" style="stroke:#000;stroke-width:5.76"/><text x="300.72" y="921.72" text-anchor="middle" transform="rotate(-90 300.72,921.72)" style="font-family:'Helvetica';font-size:99.99px;fill:#000">.3</text><line x1="390.8" x2="350.83" y1="630.28" y2="630.28" style="stroke:#000;stroke-width:5.76"/><text x="300.72" y="630.28" text-anchor="middle" transform="rotate(-90 300.72,630.28)" style="font-family:'Helvetica';font-size:99.99px;fill:#000">.4</text><line x1="390.8" x2="350.83" y1="338.71" y2="338.71" style="stroke:#000;stroke-width:5.76"/><text x="300.72" y="338.71" text-anchor="middle" transform="rotate(-90 300.72,338.71)" style="font-family:'Helvetica';font-size:99.99px;fill:#000">.5</text><text x="190.71" y="1127.27" text-anchor="middle" transform="rotate(-90 190.71,1127.27)" style="font-family:'Helvetica';font-size:99.99px;fill:#000">Premorb. Prevalence.</text><line x1="390.8" x2="3859.02" y1="1979.2" y2="1979.2" style="stroke:#000;stroke-width:5.76"/><line x1="454.16" x2="454.16" y1="1979.2" y2="2019.17" style="stroke:#000;stroke-width:5.76"/><text x="454.16" y="2109.03" text-anchor="middle" style="font-family:'Helvetica';font-size:99.99px;fill:#000">0</text><line x1="1504.92" x2="1504.92" y1="1979.2" y2="2019.17" style="stroke:#000;stroke-width:5.76"/><text x="1504.92" y="2109.03" text-anchor="middle" style="font-family:'Helvetica';font-size:99.99px;fill:#000">500</text><line x1="2555.81" x2="2555.81" y1="1979.2" y2="2019.17" style="stroke:#000;stroke-width:5.76"/><text x="2555.81" y="2109.03" text-anchor="middle" style="font-family:'Helvetica';font-size:99.99px;fill:#000">1000</text><line x1="3606.57" x2="3606.57" y1="1979.2" y2="2019.17" style="stroke:#000;stroke-width:5.76"/><text x="3606.57" y="2109.03" text-anchor="middle" style="font-family:'Helvetica';font-size:99.99px;fill:#000">1500</text><text x="2124.91" y="2219.04" text-anchor="middle" style="font-family:'Helvetica';font-size:99.99px;fill:#000">n</text><rect width="1835.09" height="326.46" x="1207.43" y="2303.68" style="fill:#fff"/><rect width="1829.33" height="320.7" x="1210.31" y="2306.56" style="fill:none;stroke:#000;stroke-width:5.76"/><rect width="374.34" height="99.99" x="1250.62" y="2346.87" style="fill:silver"/><rect width="365.7" height="91.35" x="1254.94" y="2351.19" style="fill:none;stroke:silver;stroke-width:8.64"/><circle cx="2589.47" cy="2396.86" r="7.55" style="fill:none;stroke:#1a476f;stroke-width:8.64"/><line x1="1250.62" x2="1624.96" y1="2536.95" y2="2536.95" style="stroke:#90353b;stroke-width:8.64"/><text x="1684.98" y="2431.89" style="font-family:'Helvetica';font-size:99.99px;fill:#000">95% CI</text><text x="2657.04" y="2431.89" style="font-family:'Helvetica';font-size:99.99px;fill:#000">Studies</text><text x="1684.98" y="2571.98" style="font-family:'Helvetica';font-size:99.99px;fill:#000">Linear prediction</text><text x="408" y="2737.89" style="font-family:'Helvetica';font-size:79.94px;fill:#000">Weights: Inverse-variance</text><text x="2124.91" y="215.98" text-anchor="middle" style="font-family:'Helvetica';font-size:139.96px;fill:#1e2d53">Bubble plot</text></svg>