<svg xmlns="http://www.w3.org/2000/svg" xmlns:xlink="http://www.w3.org/1999/xlink" width="720" height="524" version="1.1" viewBox="0 0 3960 2880"><desc>Stata Graph - Graph</desc><rect width="3960" height="2880" x="0" y="0" style="fill:#eaf2f3;stroke:none"/><rect width="3959.88" height="2880" x="0" y="0" style="fill:#eaf2f3"/><rect width="3954.12" height="2874.24" x="2.88" y="2.88" style="fill:none;stroke:#eaf2f3;stroke-width:5.76"/><rect width="3468.22" height="1703.84" x="390.8" y="275.35" style="fill:#fff"/><rect width="3462.46" height="1698.08" x="393.68" y="278.23" style="fill:none;stroke:#fff;stroke-width:5.76"/><line x1="390.8" x2="3859.02" y1="1915.83" y2="1915.83" style="stroke:#eaf2f3;stroke-width:8.64"/><line x1="390.8" x2="3859.02" y1="1600.39" y2="1600.39" style="stroke:#eaf2f3;stroke-width:8.64"/><line x1="390.8" x2="3859.02" y1="1284.94" y2="1284.94" style="stroke:#eaf2f3;stroke-width:8.64"/><line x1="390.8" x2="3859.02" y1="969.49" y2="969.49" style="stroke:#eaf2f3;stroke-width:8.64"/><line x1="390.8" x2="3859.02" y1="654.16" y2="654.16" style="stroke:#eaf2f3;stroke-width:8.64"/><line x1="390.8" x2="3859.02" y1="338.71" y2="338.71" style="stroke:#eaf2f3;stroke-width:8.64"/><defs><path id="path_fiClBEQZ" stroke-linejoin="round" d="M830.12 1884.90 L830.12 1884.90 L854.25 1880.69 L878.50 1876.60 L902.76 1872.64 L926.89 1868.56 L951.14 1864.60 L975.40 1860.52 L999.65 1856.68 L1023.78 1852.72 L1048.04 1848.88 L1072.29 1845.05 L1096.42 1841.21 L1120.68 1837.50 L1144.93 1833.78 L1169.07 1830.07 L1193.32 1826.48 L1217.58 1822.89 L1241.83 1819.43 L1265.96 1815.96 L1290.22 1812.62 L1314.47 1809.28 L1338.60 1806.06 L1362.86 1802.97 L1387.11 1799.88 L1411.24 1796.91 L1435.50 1794.06 L1459.76 1791.34 L1484.01 1788.61 L1508.14 1786.02 L1532.40 1783.66 L1556.65 1781.31 L1580.78 1779.21 L1605.04 1777.23 L1629.29 1775.25 L1653.42 1773.52 L1677.68 1772.03 L1701.93 1770.67 L1726.19 1769.43 L1750.32 1768.32 L1774.58 1767.45 L1798.83 1766.71 L1822.96 1766.22 L1847.22 1765.84 L1871.47 1765.72 L1895.60 1765.72 L1919.86 1765.97 L1944.11 1766.22 L1968.37 1766.83 L1992.50 1767.45 L2016.75 1768.32 L2041.01 1769.43 L2065.14 1770.55 L2089.39 1771.78 L2113.65 1773.27 L2137.78 1774.88 L2162.04 1776.49 L2186.29 1778.34 L2210.55 1780.20 L2234.68 1782.30 L2258.93 1784.41 L2283.19 1786.63 L2307.32 1788.86 L2331.57 1791.21 L2355.83 1793.69 L2379.96 1796.29 L2404.22 1798.89 L2428.47 1801.49 L2452.72 1804.21 L2476.86 1806.93 L2501.11 1809.78 L2525.37 1812.62 L2549.50 1815.59 L2573.75 1818.56 L2598.01 1821.53 L2622.26 1824.50 L2646.39 1827.60 L2670.65 1830.69 L2694.90 1833.91 L2719.03 1837.00 L2743.29 1840.22 L2767.55 1843.44 L2791.68 1846.78 L2815.93 1850.00 L2840.19 1853.34 L2864.44 1856.56 L2888.57 1859.90 L2912.83 1863.36 L2937.08 1866.70 L2961.21 1870.04 L2985.47 1873.51 L3009.72 1876.85 L3033.86 1880.32 L3058.11 1883.78 L3082.36 1887.25 L3106.62 1890.71 L3130.75 1894.30 L3155.01 1897.77 L3179.26 1901.23 L3203.39 1904.82 L3227.65 1908.28 L3227.65 1373.05 L3203.39 1377.50 L3179.26 1381.84 L3155.01 1386.17 L3130.75 1390.50 L3106.62 1394.83 L3082.36 1399.16 L3058.11 1403.49 L3033.86 1407.70 L3009.72 1412.03 L2985.47 1416.24 L2961.21 1420.57 L2937.08 1424.78 L2912.83 1428.99 L2888.57 1433.19 L2864.44 1437.28 L2840.19 1441.49 L2815.93 1445.57 L2791.68 1449.65 L2767.55 1453.74 L2743.29 1457.82 L2719.03 1461.90 L2694.90 1465.86 L2670.65 1469.82 L2646.39 1473.78 L2622.26 1477.62 L2598.01 1481.58 L2573.75 1485.42 L2549.50 1489.13 L2525.37 1492.97 L2501.11 1496.68 L2476.86 1500.27 L2452.72 1503.86 L2428.47 1507.45 L2404.22 1510.91 L2379.96 1514.38 L2355.83 1517.72 L2331.57 1520.94 L2307.32 1524.15 L2283.19 1527.25 L2258.93 1530.34 L2234.68 1533.31 L2210.55 1536.16 L2186.29 1538.88 L2162.04 1541.48 L2137.78 1544.08 L2113.65 1546.43 L2089.39 1548.66 L2065.14 1550.88 L2041.01 1552.86 L2016.75 1554.72 L1992.50 1556.33 L1968.37 1557.94 L1944.11 1559.30 L1919.86 1560.41 L1895.60 1561.53 L1871.47 1562.39 L1847.22 1563.01 L1822.96 1563.51 L1798.83 1563.75 L1774.58 1563.88 L1750.32 1563.88 L1726.19 1563.63 L1701.93 1563.26 L1677.68 1562.64 L1653.42 1561.90 L1629.29 1561.03 L1605.04 1560.04 L1580.78 1558.80 L1556.65 1557.44 L1532.40 1556.08 L1508.14 1554.47 L1484.01 1552.74 L1459.76 1550.88 L1435.50 1548.90 L1411.24 1546.92 L1387.11 1544.82 L1362.86 1542.59 L1338.60 1540.24 L1314.47 1537.89 L1290.22 1535.41 L1265.96 1532.82 L1241.83 1530.22 L1217.58 1527.62 L1193.32 1524.90 L1169.07 1522.05 L1144.93 1519.20 L1120.68 1516.36 L1096.42 1513.51 L1072.29 1510.54 L1048.04 1507.45 L1023.78 1504.48 L999.65 1501.38 L975.40 1498.29 L951.14 1495.07 L926.89 1491.98 L902.76 1488.76 L878.50 1485.54 L854.25 1482.20 L830.12 1478.98 L830.12 1884.90 Z"/></defs><defs><clipPath id="clipPath_qPvjDSta"><use xlink:href="#path_fiClBEQZ"/></clipPath></defs><use xlink:href="#path_fiClBEQZ" style="stroke:none;fill:silver"/><use style="fill:none;stroke:silver;stroke-width:17.28" clip-path="url(#clipPath_qPvjDSta)" xlink:href="#path_fiClBEQZ"/><circle cx="3227.65" cy="1685.03" r="12.25" style="fill:none;stroke:#1a476f;stroke-width:8.64"/><circle cx="2768.16" cy="1820.3" r="18.93" style="fill:none;stroke:#1a476f;stroke-width:8.64"/><circle cx="1832.49" cy="1824.38" r="22.27" style="fill:none;stroke:#1a476f;stroke-width:8.64"/><circle cx="1531.78" cy="431.53" r="7.92" style="fill:none;stroke:#1a476f;stroke-width:8.64"/><circle cx="1974.56" cy="1912.99" r="62.74" style="fill:none;stroke:#1a476f;stroke-width:8.64"/><circle cx="1348.01" cy="1870.79" r="22.4" style="fill:none;stroke:#1a476f;stroke-width:8.64"/><circle cx="1189.24" cy="1876.48" r="16.95" style="fill:none;stroke:#1a476f;stroke-width:8.64"/><circle cx="3227.65" cy="1454.23" r="12.25" style="fill:none;stroke:#1a476f;stroke-width:8.64"/><circle cx="1832.49" cy="932.98" r="22.27" style="fill:none;stroke:#1a476f;stroke-width:8.64"/><circle cx="1531.78" cy="1730.33" r="7.92" style="fill:none;stroke:#1a476f;stroke-width:8.64"/><circle cx="1974.56" cy="1445.2" r="62.74" style="fill:none;stroke:#1a476f;stroke-width:8.64"/><circle cx="1832.49" cy="1661.52" r="14.97" style="fill:none;stroke:#1a476f;stroke-width:8.64"/><circle cx="1348.01" cy="969.61" r="22.4" style="fill:none;stroke:#1a476f;stroke-width:8.64"/><circle cx="829.99" cy="1616.6" r="22.15" style="fill:none;stroke:#1a476f;stroke-width:8.64"/><circle cx="3227.65" cy="1300.41" r="12.25" style="fill:none;stroke:#1a476f;stroke-width:8.64"/><circle cx="1832.49" cy="1595.93" r="22.27" style="fill:none;stroke:#1a476f;stroke-width:8.64"/><circle cx="1974.56" cy="1683.42" r="62.74" style="fill:none;stroke:#1a476f;stroke-width:8.64"/><circle cx="1832.49" cy="1864.97" r="14.97" style="fill:none;stroke:#1a476f;stroke-width:8.64"/><circle cx="1348.01" cy="1532.82" r="22.4" style="fill:none;stroke:#1a476f;stroke-width:8.64"/><circle cx="829.99" cy="1593.58" r="22.15" style="fill:none;stroke:#1a476f;stroke-width:8.64"/><circle cx="3227.65" cy="1838.98" r="12.25" style="fill:none;stroke:#1a476f;stroke-width:8.64"/><circle cx="2768.16" cy="1884.03" r="18.93" style="fill:none;stroke:#1a476f;stroke-width:8.64"/><circle cx="1832.49" cy="1687.26" r="22.27" style="fill:none;stroke:#1a476f;stroke-width:8.64"/><circle cx="1974.56" cy="1887.12" r="62.74" style="fill:none;stroke:#1a476f;stroke-width:8.64"/><circle cx="1189.24" cy="1876.48" r="16.95" style="fill:none;stroke:#1a476f;stroke-width:8.64"/><circle cx="829.99" cy="1869.8" r="22.15" style="fill:none;stroke:#1a476f;stroke-width:8.64"/><circle cx="3227.65" cy="1838.98" r="12.25" style="fill:none;stroke:#1a476f;stroke-width:8.64"/><circle cx="1832.49" cy="1824.38" r="22.27" style="fill:none;stroke:#1a476f;stroke-width:8.64"/><circle cx="1974.56" cy="1881.43" r="62.74" style="fill:none;stroke:#1a476f;stroke-width:8.64"/><circle cx="1832.49" cy="1864.97" r="14.97" style="fill:none;stroke:#1a476f;stroke-width:8.64"/><circle cx="1348.01" cy="1870.79" r="22.4" style="fill:none;stroke:#1a476f;stroke-width:8.64"/><circle cx="3227.65" cy="1454.23" r="12.25" style="fill:none;stroke:#1a476f;stroke-width:8.64"/><circle cx="2768.16" cy="641.42" r="18.93" style="fill:none;stroke:#1a476f;stroke-width:8.64"/><circle cx="1832.49" cy="1458.69" r="22.27" style="fill:none;stroke:#1a476f;stroke-width:8.64"/><circle cx="1974.56" cy="1838.36" r="62.74" style="fill:none;stroke:#1a476f;stroke-width:8.64"/><circle cx="1832.49" cy="1864.97" r="14.97" style="fill:none;stroke:#1a476f;stroke-width:8.64"/><circle cx="1348.01" cy="1758.17" r="22.4" style="fill:none;stroke:#1a476f;stroke-width:8.64"/><circle cx="1189.24" cy="930.13" r="16.95" style="fill:none;stroke:#1a476f;stroke-width:8.64"/><circle cx="829.99" cy="1685.65" r="22.15" style="fill:none;stroke:#1a476f;stroke-width:8.64"/><path stroke-linejoin="round" d="M829.99 1681.94 L854.25 1681.57 L878.50 1681.20 L902.63 1680.70 L926.89 1680.33 L951.14 1679.83 L975.27 1679.46 L999.53 1679.09 L1023.78 1678.60 L1047.91 1678.23 L1072.17 1677.85 L1096.42 1677.36 L1120.68 1676.99 L1144.81 1676.62 L1169.07 1676.12 L1193.32 1675.75 L1217.45 1675.26 L1241.71 1674.88 L1265.96 1674.51 L1290.09 1674.02 L1314.35 1673.65 L1338.60 1673.28 L1362.86 1672.78 L1386.99 1672.41 L1411.24 1672.04 L1435.50 1671.54 L1459.63 1671.17 L1483.89 1670.68 L1508.14 1670.31 L1532.27 1669.93 L1556.53 1669.44 L1580.78 1669.07 L1605.04 1668.70 L1629.17 1668.20 L1653.42 1667.83 L1677.68 1667.46 L1701.81 1666.96 L1726.07 1666.59 L1750.32 1666.10 L1774.45 1665.73 L1798.71 1665.36 L1822.96 1664.86 L1847.22 1664.49 L1871.35 1664.12 L1895.60 1663.62 L1919.86 1663.25 L1943.99 1662.88 L1968.24 1662.39 L1992.50 1662.01 L2016.63 1661.64 L2040.88 1661.15 L2065.14 1660.78 L2089.39 1660.28 L2113.53 1659.91 L2137.78 1659.54 L2162.04 1659.04 L2186.17 1658.67 L2210.42 1658.30 L2234.68 1657.81 L2258.81 1657.44 L2283.06 1657.06 L2307.32 1656.57 L2331.57 1656.20 L2355.70 1655.70 L2379.96 1655.33 L2404.22 1654.96 L2428.35 1654.47 L2452.60 1654.09 L2476.86 1653.72 L2501.11 1653.23 L2525.24 1652.86 L2549.50 1652.49 L2573.75 1651.99 L2597.88 1651.62 L2622.14 1651.12 L2646.39 1650.75 L2670.53 1650.38 L2694.78 1649.89 L2719.03 1649.52 L2743.29 1649.14 L2767.42 1648.65 L2791.68 1648.28 L2815.93 1647.91 L2840.06 1647.41 L2864.32 1647.04 L2888.57 1646.55 L2912.70 1646.17 L2936.96 1645.80 L2961.21 1645.31 L2985.47 1644.94 L3009.60 1644.57 L3033.86 1644.07 L3058.11 1643.70 L3082.24 1643.33 L3106.50 1642.83 L3130.75 1642.46 L3154.88 1642.09 L3179.14 1641.60 L3203.39 1641.22 L3227.65 1640.73" style="fill:none;stroke:#90353b;stroke-width:8.64"/><line x1="390.8" x2="390.8" y1="1979.2" y2="275.35" style="stroke:#000;stroke-width:5.76"/><line x1="390.8" x2="350.83" y1="1915.83" y2="1915.83" style="stroke:#000;stroke-width:5.76"/><text x="300.72" y="1915.83" text-anchor="middle" transform="rotate(-90 300.72,1915.83)" style="font-family:'Helvetica';font-size:99.99px;fill:#000">0</text><line x1="390.8" x2="350.83" y1="1600.39" y2="1600.39" style="stroke:#000;stroke-width:5.76"/><text x="300.72" y="1600.39" text-anchor="middle" transform="rotate(-90 300.72,1600.39)" style="font-family:'Helvetica';font-size:99.99px;fill:#000">.1</text><line x1="390.8" x2="350.83" y1="1284.94" y2="1284.94" style="stroke:#000;stroke-width:5.76"/><text x="300.72" y="1284.94" text-anchor="middle" transform="rotate(-90 300.72,1284.94)" style="font-family:'Helvetica';font-size:99.99px;fill:#000">.2</text><line x1="390.8" x2="350.83" y1="969.49" y2="969.49" style="stroke:#000;stroke-width:5.76"/><text x="300.72" y="969.49" text-anchor="middle" transform="rotate(-90 300.72,969.49)" style="font-family:'Helvetica';font-size:99.99px;fill:#000">.3</text><line x1="390.8" x2="350.83" y1="654.16" y2="654.16" style="stroke:#000;stroke-width:5.76"/><text x="300.72" y="654.16" text-anchor="middle" transform="rotate(-90 300.72,654.16)" style="font-family:'Helvetica';font-size:99.99px;fill:#000">.4</text><line x1="390.8" x2="350.83" y1="338.71" y2="338.71" style="stroke:#000;stroke-width:5.76"/><text x="300.72" y="338.71" text-anchor="middle" transform="rotate(-90 300.72,338.71)" style="font-family:'Helvetica';font-size:99.99px;fill:#000">.5</text><text x="190.71" y="1127.27" text-anchor="middle" transform="rotate(-90 190.71,1127.27)" style="font-family:'Helvetica';font-size:99.99px;fill:#000">Premorb. Prevalence.</text><line x1="390.8" x2="3859.02" y1="1979.2" y2="1979.2" style="stroke:#000;stroke-width:5.76"/><line x1="454.16" x2="454.16" y1="1979.2" y2="2019.17" style="stroke:#000;stroke-width:5.76"/><text x="454.16" y="2109.03" text-anchor="middle" style="font-family:'Helvetica';font-size:99.99px;fill:#000">40</text><line x1="1289.47" x2="1289.47" y1="1979.2" y2="2019.17" style="stroke:#000;stroke-width:5.76"/><text x="1289.47" y="2109.03" text-anchor="middle" style="font-family:'Helvetica';font-size:99.99px;fill:#000">50</text><line x1="2124.91" x2="2124.91" y1="1979.2" y2="2019.17" style="stroke:#000;stroke-width:5.76"/><text x="2124.91" y="2109.03" text-anchor="middle" style="font-family:'Helvetica';font-size:99.99px;fill:#000">60</text><line x1="2960.35" x2="2960.35" y1="1979.2" y2="2019.17" style="stroke:#000;stroke-width:5.76"/><text x="2960.35" y="2109.03" text-anchor="middle" style="font-family:'Helvetica';font-size:99.99px;fill:#000">70</text><line x1="3795.66" x2="3795.66" y1="1979.2" y2="2019.17" style="stroke:#000;stroke-width:5.76"/><text x="3795.66" y="2109.03" text-anchor="middle" style="font-family:'Helvetica';font-size:99.99px;fill:#000">80</text><text x="2124.91" y="2219.04" text-anchor="middle" style="font-family:'Helvetica';font-size:99.99px;fill:#000">male</text><rect width="1835.09" height="326.46" x="1207.43" y="2303.68" style="fill:#fff"/><rect width="1829.33" height="320.7" x="1210.31" y="2306.56" style="fill:none;stroke:#000;stroke-width:5.76"/><rect width="374.34" height="99.99" x="1250.62" y="2346.87" style="fill:silver"/><rect width="365.7" height="91.35" x="1254.94" y="2351.19" style="fill:none;stroke:silver;stroke-width:8.64"/><circle cx="2589.47" cy="2396.86" r="7.55" style="fill:none;stroke:#1a476f;stroke-width:8.64"/><line x1="1250.62" x2="1624.96" y1="2536.95" y2="2536.95" style="stroke:#90353b;stroke-width:8.64"/><text x="1684.98" y="2431.89" style="font-family:'Helvetica';font-size:99.99px;fill:#000">95% CI</text><text x="2657.04" y="2431.89" style="font-family:'Helvetica';font-size:99.99px;fill:#000">Studies</text><text x="1684.98" y="2571.98" style="font-family:'Helvetica';font-size:99.99px;fill:#000">Linear prediction</text><text x="408" y="2737.89" style="font-family:'Helvetica';font-size:79.94px;fill:#000">Weights: Inverse-variance</text><text x="2124.91" y="215.98" text-anchor="middle" style="font-family:'Helvetica';font-size:139.96px;fill:#1e2d53">Bubble plot</text></svg>